<?xml version="1.0" encoding="us-ascii" standalone="no"?><svg xmlns="http://www.w3.org/2000/svg" xmlns:xlink="http://www.w3.org/1999/xlink" contentStyleType="text/css" height="1448px" preserveAspectRatio="none" style="width:2424px;height:1448px;background:#FFFFFF;" version="1.1" viewBox="0 0 2424 1448" width="2424px" zoomAndPan="magnify"><defs/><g><!--cluster FinanceModule--><g id="cluster_FinanceModule"><path d="M8.5,6 L118.5,6 A3.75,3.75 0 0 1 121,8.5 L128,29.6094 L2239.5,29.6094 A2.5,2.5 0 0 1 2242,32.1094 L2242,1438.5 A2.5,2.5 0 0 1 2239.5,1441 L8.5,1441 A2.5,2.5 0 0 1 6,1438.5 L6,8.5 A2.5,2.5 0 0 1 8.5,6 " fill="none" style="stroke:#000000;stroke-width:1.5;"/><line style="stroke:#000000;stroke-width:1.5;" x1="6" x2="128" y1="29.6094" y2="29.6094"/><text fill="#000000" font-family="sans-serif" font-size="14" font-weight="bold" lengthAdjust="spacing" textLength="109" x="10" y="22.5332">FinanceModule</text></g><!--class Fee--><g id="elem_Fee"><rect codeLine="2" fill="#F1F1F1" height="224.0938" id="Fee" rx="2.5" ry="2.5" style="stroke:#181818;stroke-width:0.5;" width="172" x="1412" y="934"/><ellipse cx="1481.25" cy="950" fill="#ADD1B2" rx="11" ry="11" style="stroke:#181818;stroke-width:1.0;"/><path d="M1484.0156,945.875 Q1484.1719,945.6563 1484.3594,945.5469 Q1484.5469,945.4375 1484.7656,945.4375 Q1485.1406,945.4375 1485.375,945.6953 Q1485.6094,945.9531 1485.6094,946.5625 L1485.6094,948.0156 Q1485.6094,948.625 1485.375,948.8906 Q1485.1406,949.1563 1484.7656,949.1563 Q1484.4219,949.1563 1484.2188,948.9531 Q1484.0156,948.7656 1483.9063,948.25 Q1483.8594,947.8906 1483.6719,947.7031 Q1483.3438,947.3281 1482.7344,947.1094 Q1482.125,946.8906 1481.5,946.8906 Q1480.7344,946.8906 1480.1016,947.2188 Q1479.4688,947.5469 1478.9766,948.2969 Q1478.4844,949.0469 1478.4844,950.0781 L1478.4844,951.1719 Q1478.4844,952.4063 1479.375,953.2266 Q1480.2656,954.0469 1481.8594,954.0469 Q1482.7969,954.0469 1483.4531,953.7969 Q1483.8438,953.6406 1484.2656,953.2031 Q1484.5313,952.9375 1484.6797,952.8594 Q1484.8281,952.7813 1485.0313,952.7813 Q1485.3594,952.7813 1485.6172,953.0391 Q1485.875,953.2969 1485.875,953.6406 Q1485.875,953.9844 1485.5313,954.3906 Q1485.0313,954.9688 1484.2344,955.2969 Q1483.1563,955.75 1481.8594,955.75 Q1480.3438,955.75 1479.1406,955.125 Q1478.1563,954.625 1477.4688,953.5547 Q1476.7813,952.4844 1476.7813,951.2031 L1476.7813,950.0469 Q1476.7813,948.7188 1477.3984,947.5703 Q1478.0156,946.4219 1479.1094,945.8047 Q1480.2031,945.1875 1481.4375,945.1875 Q1482.1719,945.1875 1482.8203,945.3516 Q1483.4688,945.5156 1484.0156,945.875 Z " fill="#000000"/><text fill="#000000" font-family="sans-serif" font-size="14" lengthAdjust="spacing" textLength="25" x="1501.75" y="955.7285">Fee</text><line style="stroke:#181818;stroke-width:0.5;" x1="1413" x2="1583" y1="966" y2="966"/><rect fill="none" height="6" style="stroke:#C82930;stroke-width:1.0;" width="6" x="1420" y="977.3047"/><text fill="#000000" font-family="sans-serif" font-size="14" lengthAdjust="spacing" textLength="54" x="1432" y="984.5332">feeId: int</text><rect fill="none" height="6" style="stroke:#C82930;stroke-width:1.0;" width="6" x="1420" y="994.9141"/><text fill="#000000" font-family="sans-serif" font-size="14" lengthAdjust="spacing" textLength="98" x="1432" y="1002.1426">amount: double</text><rect fill="none" height="6" style="stroke:#C82930;stroke-width:1.0;" width="6" x="1420" y="1012.5234"/><text fill="#000000" font-family="sans-serif" font-size="14" lengthAdjust="spacing" textLength="92" x="1432" y="1019.752">dueDate: Date</text><rect fill="none" height="6" style="stroke:#C82930;stroke-width:1.0;" width="6" x="1420" y="1030.1328"/><text fill="#000000" font-family="sans-serif" font-size="14" lengthAdjust="spacing" textLength="97" x="1432" y="1037.3613">isPaid: boolean</text><rect fill="none" height="6" style="stroke:#C82930;stroke-width:1.0;" width="6" x="1420" y="1047.7422"/><text fill="#000000" font-family="sans-serif" font-size="14" lengthAdjust="spacing" textLength="146" x="1432" y="1054.9707">category: FeeCategory</text><line style="stroke:#181818;stroke-width:0.5;" x1="1413" x2="1583" y1="1062.0469" y2="1062.0469"/><ellipse cx="1423" cy="1076.3516" fill="#84BE84" rx="3" ry="3" style="stroke:#038048;stroke-width:1.0;"/><text fill="#000000" font-family="sans-serif" font-size="14" lengthAdjust="spacing" textLength="89" x="1432" y="1080.5801">getFeeId(): int</text><ellipse cx="1423" cy="1093.9609" fill="#84BE84" rx="3" ry="3" style="stroke:#038048;stroke-width:1.0;"/><text fill="#000000" font-family="sans-serif" font-size="14" lengthAdjust="spacing" textLength="129" x="1432" y="1098.1895">getAmount(): double</text><ellipse cx="1423" cy="1111.5703" fill="#84BE84" rx="3" ry="3" style="stroke:#038048;stroke-width:1.0;"/><text fill="#000000" font-family="sans-serif" font-size="14" lengthAdjust="spacing" textLength="124" x="1432" y="1115.7988">getDueDate(): Date</text><ellipse cx="1423" cy="1129.1797" fill="#84BE84" rx="3" ry="3" style="stroke:#038048;stroke-width:1.0;"/><text fill="#000000" font-family="sans-serif" font-size="14" lengthAdjust="spacing" textLength="107" x="1432" y="1133.4082">isPaid(): boolean</text><ellipse cx="1423" cy="1146.7891" fill="#84BE84" rx="3" ry="3" style="stroke:#038048;stroke-width:1.0;"/><text fill="#000000" font-family="sans-serif" font-size="14" lengthAdjust="spacing" textLength="119" x="1432" y="1151.0176">markAsPaid(): void</text></g><!--class FeeCategory--><g id="elem_FeeCategory"><rect codeLine="16" fill="#F1F1F1" height="188.875" id="FeeCategory" rx="2.5" ry="2.5" style="stroke:#181818;stroke-width:0.5;" width="289" x="1353.5" y="1236"/><ellipse cx="1452.25" cy="1252" fill="#ADD1B2" rx="11" ry="11" style="stroke:#181818;stroke-width:1.0;"/><path d="M1455.0156,1247.875 Q1455.1719,1247.6563 1455.3594,1247.5469 Q1455.5469,1247.4375 1455.7656,1247.4375 Q1456.1406,1247.4375 1456.375,1247.6953 Q1456.6094,1247.9531 1456.6094,1248.5625 L1456.6094,1250.0156 Q1456.6094,1250.625 1456.375,1250.8906 Q1456.1406,1251.1563 1455.7656,1251.1563 Q1455.4219,1251.1563 1455.2188,1250.9531 Q1455.0156,1250.7656 1454.9063,1250.25 Q1454.8594,1249.8906 1454.6719,1249.7031 Q1454.3438,1249.3281 1453.7344,1249.1094 Q1453.125,1248.8906 1452.5,1248.8906 Q1451.7344,1248.8906 1451.1016,1249.2188 Q1450.4688,1249.5469 1449.9766,1250.2969 Q1449.4844,1251.0469 1449.4844,1252.0781 L1449.4844,1253.1719 Q1449.4844,1254.4063 1450.375,1255.2266 Q1451.2656,1256.0469 1452.8594,1256.0469 Q1453.7969,1256.0469 1454.4531,1255.7969 Q1454.8438,1255.6406 1455.2656,1255.2031 Q1455.5313,1254.9375 1455.6797,1254.8594 Q1455.8281,1254.7813 1456.0313,1254.7813 Q1456.3594,1254.7813 1456.6172,1255.0391 Q1456.875,1255.2969 1456.875,1255.6406 Q1456.875,1255.9844 1456.5313,1256.3906 Q1456.0313,1256.9688 1455.2344,1257.2969 Q1454.1563,1257.75 1452.8594,1257.75 Q1451.3438,1257.75 1450.1406,1257.125 Q1449.1563,1256.625 1448.4688,1255.5547 Q1447.7813,1254.4844 1447.7813,1253.2031 L1447.7813,1252.0469 Q1447.7813,1250.7188 1448.3984,1249.5703 Q1449.0156,1248.4219 1450.1094,1247.8047 Q1451.2031,1247.1875 1452.4375,1247.1875 Q1453.1719,1247.1875 1453.8203,1247.3516 Q1454.4688,1247.5156 1455.0156,1247.875 Z " fill="#000000"/><text fill="#000000" font-family="sans-serif" font-size="14" lengthAdjust="spacing" textLength="83" x="1472.75" y="1257.7285">FeeCategory</text><line style="stroke:#181818;stroke-width:0.5;" x1="1354.5" x2="1641.5" y1="1268" y2="1268"/><rect fill="none" height="6" style="stroke:#C82930;stroke-width:1.0;" width="6" x="1361.5" y="1279.3047"/><text fill="#000000" font-family="sans-serif" font-size="14" lengthAdjust="spacing" textLength="89" x="1373.5" y="1286.5332">categoryId: int</text><rect fill="none" height="6" style="stroke:#C82930;stroke-width:1.0;" width="6" x="1361.5" y="1296.9141"/><text fill="#000000" font-family="sans-serif" font-size="14" lengthAdjust="spacing" textLength="134" x="1373.5" y="1304.1426">categoryName: string</text><rect fill="none" height="6" style="stroke:#C82930;stroke-width:1.0;" width="6" x="1361.5" y="1314.5234"/><text fill="#000000" font-family="sans-serif" font-size="14" lengthAdjust="spacing" textLength="112" x="1373.5" y="1321.752">description: string</text><line style="stroke:#181818;stroke-width:0.5;" x1="1354.5" x2="1641.5" y1="1328.8281" y2="1328.8281"/><ellipse cx="1364.5" cy="1343.1328" fill="#84BE84" rx="3" ry="3" style="stroke:#038048;stroke-width:1.0;"/><text fill="#000000" font-family="sans-serif" font-size="14" lengthAdjust="spacing" textLength="122" x="1373.5" y="1347.3613">getCategoryId(): int</text><ellipse cx="1364.5" cy="1360.7422" fill="#84BE84" rx="3" ry="3" style="stroke:#038048;stroke-width:1.0;"/><text fill="#000000" font-family="sans-serif" font-size="14" lengthAdjust="spacing" textLength="167" x="1373.5" y="1364.9707">getCategoryName(): string</text><ellipse cx="1364.5" cy="1378.3516" fill="#84BE84" rx="3" ry="3" style="stroke:#038048;stroke-width:1.0;"/><text fill="#000000" font-family="sans-serif" font-size="14" lengthAdjust="spacing" textLength="144" x="1373.5" y="1382.5801">getDescription(): string</text><ellipse cx="1364.5" cy="1395.9609" fill="#84BE84" rx="3" ry="3" style="stroke:#038048;stroke-width:1.0;"/><text fill="#000000" font-family="sans-serif" font-size="14" lengthAdjust="spacing" textLength="252" x="1373.5" y="1400.1895">changeCategoryName(name: string): int</text><ellipse cx="1364.5" cy="1413.5703" fill="#84BE84" rx="3" ry="3" style="stroke:#038048;stroke-width:1.0;"/><text fill="#000000" font-family="sans-serif" font-size="14" lengthAdjust="spacing" textLength="263" x="1373.5" y="1417.7988">changeDescription(description: string): int</text></g><!--class feeClassificationSystem--><g id="elem_feeClassificationSystem"><rect codeLine="28" fill="#F1F1F1" height="118.4375" id="feeClassificationSystem" rx="2.5" ry="2.5" style="stroke:#181818;stroke-width:0.5;" width="323" x="1902.5" y="409"/><ellipse cx="1985.25" cy="425" fill="#ADD1B2" rx="11" ry="11" style="stroke:#181818;stroke-width:1.0;"/><path d="M1988.0156,420.875 Q1988.1719,420.6563 1988.3594,420.5469 Q1988.5469,420.4375 1988.7656,420.4375 Q1989.1406,420.4375 1989.375,420.6953 Q1989.6094,420.9531 1989.6094,421.5625 L1989.6094,423.0156 Q1989.6094,423.625 1989.375,423.8906 Q1989.1406,424.1563 1988.7656,424.1563 Q1988.4219,424.1563 1988.2188,423.9531 Q1988.0156,423.7656 1987.9063,423.25 Q1987.8594,422.8906 1987.6719,422.7031 Q1987.3438,422.3281 1986.7344,422.1094 Q1986.125,421.8906 1985.5,421.8906 Q1984.7344,421.8906 1984.1016,422.2188 Q1983.4688,422.5469 1982.9766,423.2969 Q1982.4844,424.0469 1982.4844,425.0781 L1982.4844,426.1719 Q1982.4844,427.4063 1983.375,428.2266 Q1984.2656,429.0469 1985.8594,429.0469 Q1986.7969,429.0469 1987.4531,428.7969 Q1987.8438,428.6406 1988.2656,428.2031 Q1988.5313,427.9375 1988.6797,427.8594 Q1988.8281,427.7813 1989.0313,427.7813 Q1989.3594,427.7813 1989.6172,428.0391 Q1989.875,428.2969 1989.875,428.6406 Q1989.875,428.9844 1989.5313,429.3906 Q1989.0313,429.9688 1988.2344,430.2969 Q1987.1563,430.75 1985.8594,430.75 Q1984.3438,430.75 1983.1406,430.125 Q1982.1563,429.625 1981.4688,428.5547 Q1980.7813,427.4844 1980.7813,426.2031 L1980.7813,425.0469 Q1980.7813,423.7188 1981.3984,422.5703 Q1982.0156,421.4219 1983.1094,420.8047 Q1984.2031,420.1875 1985.4375,420.1875 Q1986.1719,420.1875 1986.8203,420.3516 Q1987.4688,420.5156 1988.0156,420.875 Z " fill="#000000"/><text fill="#000000" font-family="sans-serif" font-size="14" lengthAdjust="spacing" textLength="149" x="2005.75" y="430.7285">feeClassificationSystem</text><line style="stroke:#181818;stroke-width:0.5;" x1="1903.5" x2="2224.5" y1="441" y2="441"/><rect fill="none" height="6" style="stroke:#C82930;stroke-width:1.0;" width="6" x="1910.5" y="452.3047"/><text fill="#000000" font-family="sans-serif" font-size="14" lengthAdjust="spacing" textLength="218" x="1922.5" y="459.5332">feeCategories: List&lt;FeeCategory&gt;</text><line style="stroke:#181818;stroke-width:0.5;" x1="1903.5" x2="2224.5" y1="466.6094" y2="466.6094"/><ellipse cx="1913.5" cy="480.9141" fill="#84BE84" rx="3" ry="3" style="stroke:#038048;stroke-width:1.0;"/><text fill="#000000" font-family="sans-serif" font-size="14" lengthAdjust="spacing" textLength="297" x="1922.5" y="485.1426">addFeeCategory(category: FeeCategory): void</text><ellipse cx="1913.5" cy="498.5234" fill="#84BE84" rx="3" ry="3" style="stroke:#038048;stroke-width:1.0;"/><text fill="#000000" font-family="sans-serif" font-size="14" lengthAdjust="spacing" textLength="263" x="1922.5" y="502.752">removeFeeCategory(categoryId: int): void</text><ellipse cx="1913.5" cy="516.1328" fill="#84BE84" rx="3" ry="3" style="stroke:#038048;stroke-width:1.0;"/><text fill="#000000" font-family="sans-serif" font-size="14" lengthAdjust="spacing" textLength="225" x="1922.5" y="520.3613">classifyFee(fee: Fee): FeeCategory</text></g><!--class feeCollectionDateDesigningSystem--><g id="elem_feeCollectionDateDesigningSystem"><rect codeLine="35" fill="#F1F1F1" height="100.8281" id="feeCollectionDateDesigningSystem" rx="2.5" ry="2.5" style="stroke:#181818;stroke-width:0.5;" width="389" x="1478.5" y="417.5"/><ellipse cx="1558.25" cy="433.5" fill="#ADD1B2" rx="11" ry="11" style="stroke:#181818;stroke-width:1.0;"/><path d="M1561.0156,429.375 Q1561.1719,429.1563 1561.3594,429.0469 Q1561.5469,428.9375 1561.7656,428.9375 Q1562.1406,428.9375 1562.375,429.1953 Q1562.6094,429.4531 1562.6094,430.0625 L1562.6094,431.5156 Q1562.6094,432.125 1562.375,432.3906 Q1562.1406,432.6563 1561.7656,432.6563 Q1561.4219,432.6563 1561.2188,432.4531 Q1561.0156,432.2656 1560.9063,431.75 Q1560.8594,431.3906 1560.6719,431.2031 Q1560.3438,430.8281 1559.7344,430.6094 Q1559.125,430.3906 1558.5,430.3906 Q1557.7344,430.3906 1557.1016,430.7188 Q1556.4688,431.0469 1555.9766,431.7969 Q1555.4844,432.5469 1555.4844,433.5781 L1555.4844,434.6719 Q1555.4844,435.9063 1556.375,436.7266 Q1557.2656,437.5469 1558.8594,437.5469 Q1559.7969,437.5469 1560.4531,437.2969 Q1560.8438,437.1406 1561.2656,436.7031 Q1561.5313,436.4375 1561.6797,436.3594 Q1561.8281,436.2813 1562.0313,436.2813 Q1562.3594,436.2813 1562.6172,436.5391 Q1562.875,436.7969 1562.875,437.1406 Q1562.875,437.4844 1562.5313,437.8906 Q1562.0313,438.4688 1561.2344,438.7969 Q1560.1563,439.25 1558.8594,439.25 Q1557.3438,439.25 1556.1406,438.625 Q1555.1563,438.125 1554.4688,437.0547 Q1553.7813,435.9844 1553.7813,434.7031 L1553.7813,433.5469 Q1553.7813,432.2188 1554.3984,431.0703 Q1555.0156,429.9219 1556.1094,429.3047 Q1557.2031,428.6875 1558.4375,428.6875 Q1559.1719,428.6875 1559.8203,428.8516 Q1560.4688,429.0156 1561.0156,429.375 Z " fill="#000000"/><text fill="#000000" font-family="sans-serif" font-size="14" lengthAdjust="spacing" textLength="221" x="1578.75" y="439.2285">feeCollectionDateDesigningSystem</text><line style="stroke:#181818;stroke-width:0.5;" x1="1479.5" x2="1866.5" y1="449.5" y2="449.5"/><rect fill="none" height="6" style="stroke:#C82930;stroke-width:1.0;" width="6" x="1486.5" y="460.8047"/><text fill="#000000" font-family="sans-serif" font-size="14" lengthAdjust="spacing" textLength="220" x="1498.5" y="468.0332">collectionDates: Map&lt;string, Date&gt;</text><line style="stroke:#181818;stroke-width:0.5;" x1="1479.5" x2="1866.5" y1="475.1094" y2="475.1094"/><ellipse cx="1489.5" cy="489.4141" fill="#84BE84" rx="3" ry="3" style="stroke:#038048;stroke-width:1.0;"/><text fill="#000000" font-family="sans-serif" font-size="14" lengthAdjust="spacing" textLength="363" x="1498.5" y="493.6426">setCollectionDate(collectionType: string, date: Date): void</text><ellipse cx="1489.5" cy="507.0234" fill="#84BE84" rx="3" ry="3" style="stroke:#038048;stroke-width:1.0;"/><text fill="#000000" font-family="sans-serif" font-size="14" lengthAdjust="spacing" textLength="294" x="1498.5" y="511.252">getCollectionDate(collectionType: string): Date</text></g><!--class feeCollectionSystem--><g id="elem_feeCollectionSystem"><rect codeLine="41" fill="#F1F1F1" height="136.0469" id="feeCollectionSystem" rx="2.5" ry="2.5" style="stroke:#181818;stroke-width:0.5;" width="188" x="1874" y="667"/><ellipse cx="1901.6" cy="683" fill="#ADD1B2" rx="11" ry="11" style="stroke:#181818;stroke-width:1.0;"/><path d="M1904.3656,678.875 Q1904.5219,678.6563 1904.7094,678.5469 Q1904.8969,678.4375 1905.1156,678.4375 Q1905.4906,678.4375 1905.725,678.6953 Q1905.9594,678.9531 1905.9594,679.5625 L1905.9594,681.0156 Q1905.9594,681.625 1905.725,681.8906 Q1905.4906,682.1563 1905.1156,682.1563 Q1904.7719,682.1563 1904.5688,681.9531 Q1904.3656,681.7656 1904.2563,681.25 Q1904.2094,680.8906 1904.0219,680.7031 Q1903.6938,680.3281 1903.0844,680.1094 Q1902.475,679.8906 1901.85,679.8906 Q1901.0844,679.8906 1900.4516,680.2188 Q1899.8188,680.5469 1899.3266,681.2969 Q1898.8344,682.0469 1898.8344,683.0781 L1898.8344,684.1719 Q1898.8344,685.4063 1899.725,686.2266 Q1900.6156,687.0469 1902.2094,687.0469 Q1903.1469,687.0469 1903.8031,686.7969 Q1904.1938,686.6406 1904.6156,686.2031 Q1904.8813,685.9375 1905.0297,685.8594 Q1905.1781,685.7813 1905.3813,685.7813 Q1905.7094,685.7813 1905.9672,686.0391 Q1906.225,686.2969 1906.225,686.6406 Q1906.225,686.9844 1905.8813,687.3906 Q1905.3813,687.9688 1904.5844,688.2969 Q1903.5063,688.75 1902.2094,688.75 Q1900.6938,688.75 1899.4906,688.125 Q1898.5063,687.625 1897.8188,686.5547 Q1897.1313,685.4844 1897.1313,684.2031 L1897.1313,683.0469 Q1897.1313,681.7188 1897.7484,680.5703 Q1898.3656,679.4219 1899.4594,678.8047 Q1900.5531,678.1875 1901.7875,678.1875 Q1902.5219,678.1875 1903.1703,678.3516 Q1903.8188,678.5156 1904.3656,678.875 Z " fill="#000000"/><text fill="#000000" font-family="sans-serif" font-size="14" lengthAdjust="spacing" textLength="128" x="1918.4" y="688.7285">feeCollectionSystem</text><line style="stroke:#181818;stroke-width:0.5;" x1="1875" x2="2061" y1="699" y2="699"/><ellipse cx="1885" cy="713.3047" fill="none" rx="3" ry="3" style="stroke:#038048;stroke-width:1.0;"/><text fill="#000000" font-family="sans-serif" font-size="14" lengthAdjust="spacing" textLength="101" x="1894" y="717.5332">feesToPay: Fee</text><ellipse cx="1885" cy="730.9141" fill="none" rx="3" ry="3" style="stroke:#038048;stroke-width:1.0;"/><text fill="#000000" font-family="sans-serif" font-size="14" lengthAdjust="spacing" textLength="148" x="1894" y="735.1426">modeOfPayment: enum</text><line style="stroke:#181818;stroke-width:0.5;" x1="1875" x2="2061" y1="742.2188" y2="742.2188"/><ellipse cx="1885" cy="756.5234" fill="#84BE84" rx="3" ry="3" style="stroke:#038048;stroke-width:1.0;"/><text fill="#000000" font-family="sans-serif" font-size="14" lengthAdjust="spacing" textLength="65" x="1894" y="760.752">payFees()</text><ellipse cx="1885" cy="774.1328" fill="#84BE84" rx="3" ry="3" style="stroke:#038048;stroke-width:1.0;"/><text fill="#000000" font-family="sans-serif" font-size="14" lengthAdjust="spacing" textLength="162" x="1894" y="778.3613">changeModeOfPayment()</text><ellipse cx="1885" cy="791.7422" fill="#84BE84" rx="3" ry="3" style="stroke:#038048;stroke-width:1.0;"/><text fill="#000000" font-family="sans-serif" font-size="14" lengthAdjust="spacing" textLength="106" x="1894" y="795.9707">cancelPayment()</text></g><!--class feeFineSystem--><g id="elem_feeFineSystem"><rect codeLine="50" fill="#F1F1F1" height="224.0938" id="feeFineSystem" rx="2.5" ry="2.5" style="stroke:#181818;stroke-width:0.5;" width="304" x="654" y="623"/><ellipse cx="754.75" cy="639" fill="#ADD1B2" rx="11" ry="11" style="stroke:#181818;stroke-width:1.0;"/><path d="M757.5156,634.875 Q757.6719,634.6563 757.8594,634.5469 Q758.0469,634.4375 758.2656,634.4375 Q758.6406,634.4375 758.875,634.6953 Q759.1094,634.9531 759.1094,635.5625 L759.1094,637.0156 Q759.1094,637.625 758.875,637.8906 Q758.6406,638.1563 758.2656,638.1563 Q757.9219,638.1563 757.7188,637.9531 Q757.5156,637.7656 757.4063,637.25 Q757.3594,636.8906 757.1719,636.7031 Q756.8438,636.3281 756.2344,636.1094 Q755.625,635.8906 755,635.8906 Q754.2344,635.8906 753.6016,636.2188 Q752.9688,636.5469 752.4766,637.2969 Q751.9844,638.0469 751.9844,639.0781 L751.9844,640.1719 Q751.9844,641.4063 752.875,642.2266 Q753.7656,643.0469 755.3594,643.0469 Q756.2969,643.0469 756.9531,642.7969 Q757.3438,642.6406 757.7656,642.2031 Q758.0313,641.9375 758.1797,641.8594 Q758.3281,641.7813 758.5313,641.7813 Q758.8594,641.7813 759.1172,642.0391 Q759.375,642.2969 759.375,642.6406 Q759.375,642.9844 759.0313,643.3906 Q758.5313,643.9688 757.7344,644.2969 Q756.6563,644.75 755.3594,644.75 Q753.8438,644.75 752.6406,644.125 Q751.6563,643.625 750.9688,642.5547 Q750.2813,641.4844 750.2813,640.2031 L750.2813,639.0469 Q750.2813,637.7188 750.8984,636.5703 Q751.5156,635.4219 752.6094,634.8047 Q753.7031,634.1875 754.9375,634.1875 Q755.6719,634.1875 756.3203,634.3516 Q756.9688,634.5156 757.5156,634.875 Z " fill="#000000"/><text fill="#000000" font-family="sans-serif" font-size="14" lengthAdjust="spacing" textLength="94" x="775.25" y="644.7285">feeFineSystem</text><line style="stroke:#181818;stroke-width:0.5;" x1="655" x2="957" y1="655" y2="655"/><ellipse cx="665" cy="669.3047" fill="none" rx="3" ry="3" style="stroke:#038048;stroke-width:1.0;"/><text fill="#000000" font-family="sans-serif" font-size="14" lengthAdjust="spacing" textLength="88" x="674" y="673.5332">fineRate: float</text><rect fill="none" height="6" style="stroke:#C82930;stroke-width:1.0;" width="6" x="662" y="683.9141"/><text fill="#000000" font-family="sans-serif" font-size="14" lengthAdjust="spacing" textLength="149" x="674" y="691.1426">defaulters : List&lt;Users&gt;</text><rect fill="none" height="6" style="stroke:#C82930;stroke-width:1.0;" width="6" x="662" y="701.5234"/><text fill="#000000" font-family="sans-serif" font-size="14" lengthAdjust="spacing" textLength="127" x="674" y="708.752">totalDefaulters: float</text><rect fill="none" height="6" style="stroke:#C82930;stroke-width:1.0;" width="6" x="662" y="719.1328"/><text fill="#000000" font-family="sans-serif" font-size="14" lengthAdjust="spacing" textLength="156" x="674" y="726.3613">totalFinesCollected: float</text><line style="stroke:#181818;stroke-width:0.5;" x1="655" x2="957" y1="733.4375" y2="733.4375"/><ellipse cx="665" cy="747.7422" fill="#84BE84" rx="3" ry="3" style="stroke:#038048;stroke-width:1.0;"/><text fill="#000000" font-family="sans-serif" font-size="14" lengthAdjust="spacing" textLength="92" x="674" y="751.9707">addDefaulter()</text><ellipse cx="665" cy="765.3516" fill="#84BE84" rx="3" ry="3" style="stroke:#038048;stroke-width:1.0;"/><text fill="#000000" font-family="sans-serif" font-size="14" lengthAdjust="spacing" textLength="115" x="674" y="769.5801">removeDefaulter()</text><ellipse cx="665" cy="782.9609" fill="#84BE84" rx="3" ry="3" style="stroke:#038048;stroke-width:1.0;"/><text fill="#000000" font-family="sans-serif" font-size="14" lengthAdjust="spacing" textLength="264" x="674" y="787.1895">updateFineRate(newFineRate: float): void</text><ellipse cx="665" cy="800.5703" fill="#84BE84" rx="3" ry="3" style="stroke:#038048;stroke-width:1.0;"/><text fill="#000000" font-family="sans-serif" font-size="14" lengthAdjust="spacing" textLength="211" x="674" y="804.7988">calculateFine(amount: float): float</text><ellipse cx="665" cy="818.1797" fill="#84BE84" rx="3" ry="3" style="stroke:#038048;stroke-width:1.0;"/><text fill="#000000" font-family="sans-serif" font-size="14" lengthAdjust="spacing" textLength="278" x="674" y="822.4082">recordFinePayment(amountPaid: float): void</text><ellipse cx="665" cy="835.7891" fill="#84BE84" rx="3" ry="3" style="stroke:#038048;stroke-width:1.0;"/><text fill="#000000" font-family="sans-serif" font-size="14" lengthAdjust="spacing" textLength="191" x="674" y="840.0176">getTotalFinesCollected(): float</text></g><!--class donationSystem--><g id="elem_donationSystem"><rect codeLine="64" fill="#F1F1F1" height="136.0469" id="donationSystem" rx="2.5" ry="2.5" style="stroke:#181818;stroke-width:0.5;" width="271" x="1172.5" y="400"/><ellipse cx="1253.25" cy="416" fill="#ADD1B2" rx="11" ry="11" style="stroke:#181818;stroke-width:1.0;"/><path d="M1256.0156,411.875 Q1256.1719,411.6563 1256.3594,411.5469 Q1256.5469,411.4375 1256.7656,411.4375 Q1257.1406,411.4375 1257.375,411.6953 Q1257.6094,411.9531 1257.6094,412.5625 L1257.6094,414.0156 Q1257.6094,414.625 1257.375,414.8906 Q1257.1406,415.1563 1256.7656,415.1563 Q1256.4219,415.1563 1256.2188,414.9531 Q1256.0156,414.7656 1255.9063,414.25 Q1255.8594,413.8906 1255.6719,413.7031 Q1255.3438,413.3281 1254.7344,413.1094 Q1254.125,412.8906 1253.5,412.8906 Q1252.7344,412.8906 1252.1016,413.2188 Q1251.4688,413.5469 1250.9766,414.2969 Q1250.4844,415.0469 1250.4844,416.0781 L1250.4844,417.1719 Q1250.4844,418.4063 1251.375,419.2266 Q1252.2656,420.0469 1253.8594,420.0469 Q1254.7969,420.0469 1255.4531,419.7969 Q1255.8438,419.6406 1256.2656,419.2031 Q1256.5313,418.9375 1256.6797,418.8594 Q1256.8281,418.7813 1257.0313,418.7813 Q1257.3594,418.7813 1257.6172,419.0391 Q1257.875,419.2969 1257.875,419.6406 Q1257.875,419.9844 1257.5313,420.3906 Q1257.0313,420.9688 1256.2344,421.2969 Q1255.1563,421.75 1253.8594,421.75 Q1252.3438,421.75 1251.1406,421.125 Q1250.1563,420.625 1249.4688,419.5547 Q1248.7813,418.4844 1248.7813,417.2031 L1248.7813,416.0469 Q1248.7813,414.7188 1249.3984,413.5703 Q1250.0156,412.4219 1251.1094,411.8047 Q1252.2031,411.1875 1253.4375,411.1875 Q1254.1719,411.1875 1254.8203,411.3516 Q1255.4688,411.5156 1256.0156,411.875 Z " fill="#000000"/><text fill="#000000" font-family="sans-serif" font-size="14" lengthAdjust="spacing" textLength="101" x="1273.75" y="421.7285">donationSystem</text><line style="stroke:#181818;stroke-width:0.5;" x1="1173.5" x2="1442.5" y1="432" y2="432"/><rect fill="none" height="6" style="stroke:#C82930;stroke-width:1.0;" width="6" x="1180.5" y="443.3047"/><text fill="#000000" font-family="sans-serif" font-size="14" lengthAdjust="spacing" textLength="165" x="1192.5" y="450.5332">donations: List&lt;Donation&gt;</text><line style="stroke:#181818;stroke-width:0.5;" x1="1173.5" x2="1442.5" y1="457.6094" y2="457.6094"/><ellipse cx="1183.5" cy="471.9141" fill="#84BE84" rx="3" ry="3" style="stroke:#038048;stroke-width:1.0;"/><text fill="#000000" font-family="sans-serif" font-size="14" lengthAdjust="spacing" textLength="245" x="1192.5" y="476.1426">addDonation(donation: Donation): void</text><ellipse cx="1183.5" cy="489.5234" fill="#84BE84" rx="3" ry="3" style="stroke:#038048;stroke-width:1.0;"/><text fill="#000000" font-family="sans-serif" font-size="14" lengthAdjust="spacing" textLength="237" x="1192.5" y="493.752">removeDonation(donationId: int): void</text><ellipse cx="1183.5" cy="507.1328" fill="#84BE84" rx="3" ry="3" style="stroke:#038048;stroke-width:1.0;"/><text fill="#000000" font-family="sans-serif" font-size="14" lengthAdjust="spacing" textLength="194" x="1192.5" y="511.3613">listDonations(): List&lt;Donation&gt;</text><ellipse cx="1183.5" cy="524.7422" fill="#84BE84" rx="3" ry="3" style="stroke:#038048;stroke-width:1.0;"/><text fill="#000000" font-family="sans-serif" font-size="14" lengthAdjust="spacing" textLength="177" x="1192.5" y="528.9707">getTotalDonations(): double</text></g><!--class Donation--><g id="elem_Donation"><rect codeLine="72" fill="#F1F1F1" height="188.875" id="Donation" rx="2.5" ry="2.5" style="stroke:#181818;stroke-width:0.5;" width="181" x="1657.5" y="640.5"/><ellipse cx="1715.25" cy="656.5" fill="#ADD1B2" rx="11" ry="11" style="stroke:#181818;stroke-width:1.0;"/><path d="M1718.0156,652.375 Q1718.1719,652.1563 1718.3594,652.0469 Q1718.5469,651.9375 1718.7656,651.9375 Q1719.1406,651.9375 1719.375,652.1953 Q1719.6094,652.4531 1719.6094,653.0625 L1719.6094,654.5156 Q1719.6094,655.125 1719.375,655.3906 Q1719.1406,655.6563 1718.7656,655.6563 Q1718.4219,655.6563 1718.2188,655.4531 Q1718.0156,655.2656 1717.9063,654.75 Q1717.8594,654.3906 1717.6719,654.2031 Q1717.3438,653.8281 1716.7344,653.6094 Q1716.125,653.3906 1715.5,653.3906 Q1714.7344,653.3906 1714.1016,653.7188 Q1713.4688,654.0469 1712.9766,654.7969 Q1712.4844,655.5469 1712.4844,656.5781 L1712.4844,657.6719 Q1712.4844,658.9063 1713.375,659.7266 Q1714.2656,660.5469 1715.8594,660.5469 Q1716.7969,660.5469 1717.4531,660.2969 Q1717.8438,660.1406 1718.2656,659.7031 Q1718.5313,659.4375 1718.6797,659.3594 Q1718.8281,659.2813 1719.0313,659.2813 Q1719.3594,659.2813 1719.6172,659.5391 Q1719.875,659.7969 1719.875,660.1406 Q1719.875,660.4844 1719.5313,660.8906 Q1719.0313,661.4688 1718.2344,661.7969 Q1717.1563,662.25 1715.8594,662.25 Q1714.3438,662.25 1713.1406,661.625 Q1712.1563,661.125 1711.4688,660.0547 Q1710.7813,658.9844 1710.7813,657.7031 L1710.7813,656.5469 Q1710.7813,655.2188 1711.3984,654.0703 Q1712.0156,652.9219 1713.1094,652.3047 Q1714.2031,651.6875 1715.4375,651.6875 Q1716.1719,651.6875 1716.8203,651.8516 Q1717.4688,652.0156 1718.0156,652.375 Z " fill="#000000"/><text fill="#000000" font-family="sans-serif" font-size="14" lengthAdjust="spacing" textLength="57" x="1735.75" y="662.2285">Donation</text><line style="stroke:#181818;stroke-width:0.5;" x1="1658.5" x2="1837.5" y1="672.5" y2="672.5"/><rect fill="none" height="6" style="stroke:#C82930;stroke-width:1.0;" width="6" x="1665.5" y="683.8047"/><text fill="#000000" font-family="sans-serif" font-size="14" lengthAdjust="spacing" textLength="89" x="1677.5" y="691.0332">donationId: int</text><rect fill="none" height="6" style="stroke:#C82930;stroke-width:1.0;" width="6" x="1665.5" y="701.4141"/><text fill="#000000" font-family="sans-serif" font-size="14" lengthAdjust="spacing" textLength="116" x="1677.5" y="708.6426">donorName: string</text><rect fill="none" height="6" style="stroke:#C82930;stroke-width:1.0;" width="6" x="1665.5" y="719.0234"/><text fill="#000000" font-family="sans-serif" font-size="14" lengthAdjust="spacing" textLength="98" x="1677.5" y="726.252">amount: double</text><rect fill="none" height="6" style="stroke:#C82930;stroke-width:1.0;" width="6" x="1665.5" y="736.6328"/><text fill="#000000" font-family="sans-serif" font-size="14" lengthAdjust="spacing" textLength="123" x="1677.5" y="743.8613">donationDate: Date</text><line style="stroke:#181818;stroke-width:0.5;" x1="1658.5" x2="1837.5" y1="750.9375" y2="750.9375"/><ellipse cx="1668.5" cy="765.2422" fill="#84BE84" rx="3" ry="3" style="stroke:#038048;stroke-width:1.0;"/><text fill="#000000" font-family="sans-serif" font-size="14" lengthAdjust="spacing" textLength="121" x="1677.5" y="769.4707">getDonationId(): int</text><ellipse cx="1668.5" cy="782.8516" fill="#84BE84" rx="3" ry="3" style="stroke:#038048;stroke-width:1.0;"/><text fill="#000000" font-family="sans-serif" font-size="14" lengthAdjust="spacing" textLength="148" x="1677.5" y="787.0801">getDonorName(): string</text><ellipse cx="1668.5" cy="800.4609" fill="#84BE84" rx="3" ry="3" style="stroke:#038048;stroke-width:1.0;"/><text fill="#000000" font-family="sans-serif" font-size="14" lengthAdjust="spacing" textLength="129" x="1677.5" y="804.6895">getAmount(): double</text><ellipse cx="1668.5" cy="818.0703" fill="#84BE84" rx="3" ry="3" style="stroke:#038048;stroke-width:1.0;"/><text fill="#000000" font-family="sans-serif" font-size="14" lengthAdjust="spacing" textLength="155" x="1677.5" y="822.2988">getDonationDate(): Date</text></g><!--class assetAndLiabilitiesSystem--><g id="elem_assetAndLiabilitiesSystem"><rect codeLine="83" fill="#F1F1F1" height="136.0469" id="assetAndLiabilitiesSystem" rx="2.5" ry="2.5" style="stroke:#181818;stroke-width:0.5;" width="238" x="22" y="400"/><ellipse cx="56.35" cy="416" fill="#ADD1B2" rx="11" ry="11" style="stroke:#181818;stroke-width:1.0;"/><path d="M59.1156,411.875 Q59.2719,411.6563 59.4594,411.5469 Q59.6469,411.4375 59.8656,411.4375 Q60.2406,411.4375 60.475,411.6953 Q60.7094,411.9531 60.7094,412.5625 L60.7094,414.0156 Q60.7094,414.625 60.475,414.8906 Q60.2406,415.1563 59.8656,415.1563 Q59.5219,415.1563 59.3188,414.9531 Q59.1156,414.7656 59.0063,414.25 Q58.9594,413.8906 58.7719,413.7031 Q58.4438,413.3281 57.8344,413.1094 Q57.225,412.8906 56.6,412.8906 Q55.8344,412.8906 55.2016,413.2188 Q54.5688,413.5469 54.0766,414.2969 Q53.5844,415.0469 53.5844,416.0781 L53.5844,417.1719 Q53.5844,418.4063 54.475,419.2266 Q55.3656,420.0469 56.9594,420.0469 Q57.8969,420.0469 58.5531,419.7969 Q58.9438,419.6406 59.3656,419.2031 Q59.6313,418.9375 59.7797,418.8594 Q59.9281,418.7813 60.1313,418.7813 Q60.4594,418.7813 60.7172,419.0391 Q60.975,419.2969 60.975,419.6406 Q60.975,419.9844 60.6313,420.3906 Q60.1313,420.9688 59.3344,421.2969 Q58.2563,421.75 56.9594,421.75 Q55.4438,421.75 54.2406,421.125 Q53.2563,420.625 52.5688,419.5547 Q51.8813,418.4844 51.8813,417.2031 L51.8813,416.0469 Q51.8813,414.7188 52.4984,413.5703 Q53.1156,412.4219 54.2094,411.8047 Q55.3031,411.1875 56.5375,411.1875 Q57.2719,411.1875 57.9203,411.3516 Q58.5688,411.5156 59.1156,411.875 Z " fill="#000000"/><text fill="#000000" font-family="sans-serif" font-size="14" lengthAdjust="spacing" textLength="163" x="74.65" y="421.7285">assetAndLiabilitiesSystem</text><line style="stroke:#181818;stroke-width:0.5;" x1="23" x2="259" y1="432" y2="432"/><rect fill="none" height="6" style="stroke:#C82930;stroke-width:1.0;" width="6" x="30" y="443.3047"/><text fill="#000000" font-family="sans-serif" font-size="14" lengthAdjust="spacing" textLength="122" x="42" y="450.5332">assets: List&lt;Asset&gt;</text><rect fill="none" height="6" style="stroke:#C82930;stroke-width:1.0;" width="6" x="30" y="460.9141"/><text fill="#000000" font-family="sans-serif" font-size="14" lengthAdjust="spacing" textLength="146" x="42" y="468.1426">liabilities: List&lt;Liability&gt;</text><line style="stroke:#181818;stroke-width:0.5;" x1="23" x2="259" y1="475.2188" y2="475.2188"/><ellipse cx="33" cy="489.5234" fill="#84BE84" rx="3" ry="3" style="stroke:#038048;stroke-width:1.0;"/><text fill="#000000" font-family="sans-serif" font-size="14" lengthAdjust="spacing" textLength="180" x="42" y="493.752">addAsset(asset: Asset): void</text><ellipse cx="33" cy="507.1328" fill="#84BE84" rx="3" ry="3" style="stroke:#038048;stroke-width:1.0;"/><text fill="#000000" font-family="sans-serif" font-size="14" lengthAdjust="spacing" textLength="212" x="42" y="511.3613">addLiability(liability: Liability): void</text><ellipse cx="33" cy="524.7422" fill="#84BE84" rx="3" ry="3" style="stroke:#038048;stroke-width:1.0;"/><text fill="#000000" font-family="sans-serif" font-size="14" lengthAdjust="spacing" textLength="176" x="42" y="528.9707">calculateNetWorth(): double</text></g><!--class Asset--><g id="elem_Asset"><rect codeLine="91" fill="#F1F1F1" height="188.875" id="Asset" rx="2.5" ry="2.5" style="stroke:#181818;stroke-width:0.5;" width="262" x="357" y="640.5"/><ellipse cx="466.25" cy="656.5" fill="#ADD1B2" rx="11" ry="11" style="stroke:#181818;stroke-width:1.0;"/><path d="M469.0156,652.375 Q469.1719,652.1563 469.3594,652.0469 Q469.5469,651.9375 469.7656,651.9375 Q470.1406,651.9375 470.375,652.1953 Q470.6094,652.4531 470.6094,653.0625 L470.6094,654.5156 Q470.6094,655.125 470.375,655.3906 Q470.1406,655.6563 469.7656,655.6563 Q469.4219,655.6563 469.2188,655.4531 Q469.0156,655.2656 468.9063,654.75 Q468.8594,654.3906 468.6719,654.2031 Q468.3438,653.8281 467.7344,653.6094 Q467.125,653.3906 466.5,653.3906 Q465.7344,653.3906 465.1016,653.7188 Q464.4688,654.0469 463.9766,654.7969 Q463.4844,655.5469 463.4844,656.5781 L463.4844,657.6719 Q463.4844,658.9063 464.375,659.7266 Q465.2656,660.5469 466.8594,660.5469 Q467.7969,660.5469 468.4531,660.2969 Q468.8438,660.1406 469.2656,659.7031 Q469.5313,659.4375 469.6797,659.3594 Q469.8281,659.2813 470.0313,659.2813 Q470.3594,659.2813 470.6172,659.5391 Q470.875,659.7969 470.875,660.1406 Q470.875,660.4844 470.5313,660.8906 Q470.0313,661.4688 469.2344,661.7969 Q468.1563,662.25 466.8594,662.25 Q465.3438,662.25 464.1406,661.625 Q463.1563,661.125 462.4688,660.0547 Q461.7813,658.9844 461.7813,657.7031 L461.7813,656.5469 Q461.7813,655.2188 462.3984,654.0703 Q463.0156,652.9219 464.1094,652.3047 Q465.2031,651.6875 466.4375,651.6875 Q467.1719,651.6875 467.8203,651.8516 Q468.4688,652.0156 469.0156,652.375 Z " fill="#000000"/><text fill="#000000" font-family="sans-serif" font-size="14" lengthAdjust="spacing" textLength="35" x="486.75" y="662.2285">Asset</text><line style="stroke:#181818;stroke-width:0.5;" x1="358" x2="618" y1="672.5" y2="672.5"/><rect fill="none" height="6" style="stroke:#C82930;stroke-width:1.0;" width="6" x="365" y="683.8047"/><text fill="#000000" font-family="sans-serif" font-size="14" lengthAdjust="spacing" textLength="68" x="377" y="691.0332">assetId: int</text><rect fill="none" height="6" style="stroke:#C82930;stroke-width:1.0;" width="6" x="365" y="701.4141"/><text fill="#000000" font-family="sans-serif" font-size="14" lengthAdjust="spacing" textLength="113" x="377" y="708.6426">assetName: string</text><rect fill="none" height="6" style="stroke:#C82930;stroke-width:1.0;" width="6" x="365" y="719.0234"/><text fill="#000000" font-family="sans-serif" font-size="14" lengthAdjust="spacing" textLength="121" x="377" y="726.252">assetValue: double</text><line style="stroke:#181818;stroke-width:0.5;" x1="358" x2="618" y1="733.3281" y2="733.3281"/><ellipse cx="368" cy="747.6328" fill="#84BE84" rx="3" ry="3" style="stroke:#038048;stroke-width:1.0;"/><text fill="#000000" font-family="sans-serif" font-size="14" lengthAdjust="spacing" textLength="99" x="377" y="751.8613">getAssetId(): int</text><ellipse cx="368" cy="765.2422" fill="#84BE84" rx="3" ry="3" style="stroke:#038048;stroke-width:1.0;"/><text fill="#000000" font-family="sans-serif" font-size="14" lengthAdjust="spacing" textLength="144" x="377" y="769.4707">getAssetName(): string</text><ellipse cx="368" cy="782.8516" fill="#84BE84" rx="3" ry="3" style="stroke:#038048;stroke-width:1.0;"/><text fill="#000000" font-family="sans-serif" font-size="14" lengthAdjust="spacing" textLength="152" x="377" y="787.0801">getAssetValue(): double</text><ellipse cx="368" cy="800.4609" fill="#84BE84" rx="3" ry="3" style="stroke:#038048;stroke-width:1.0;"/><text fill="#000000" font-family="sans-serif" font-size="14" lengthAdjust="spacing" textLength="229" x="377" y="804.6895">changeAssetName(name: string): int</text><ellipse cx="368" cy="818.0703" fill="#84BE84" rx="3" ry="3" style="stroke:#038048;stroke-width:1.0;"/><text fill="#000000" font-family="sans-serif" font-size="14" lengthAdjust="spacing" textLength="236" x="377" y="822.2988">changeAssetValue(value: double): int</text></g><!--class Liability--><g id="elem_Liability"><rect codeLine="103" fill="#F1F1F1" height="188.875" id="Liability" rx="2.5" ry="2.5" style="stroke:#181818;stroke-width:0.5;" width="299" x="22.5" y="640.5"/><ellipse cx="144.25" cy="656.5" fill="#ADD1B2" rx="11" ry="11" style="stroke:#181818;stroke-width:1.0;"/><path d="M147.0156,652.375 Q147.1719,652.1563 147.3594,652.0469 Q147.5469,651.9375 147.7656,651.9375 Q148.1406,651.9375 148.375,652.1953 Q148.6094,652.4531 148.6094,653.0625 L148.6094,654.5156 Q148.6094,655.125 148.375,655.3906 Q148.1406,655.6563 147.7656,655.6563 Q147.4219,655.6563 147.2188,655.4531 Q147.0156,655.2656 146.9063,654.75 Q146.8594,654.3906 146.6719,654.2031 Q146.3438,653.8281 145.7344,653.6094 Q145.125,653.3906 144.5,653.3906 Q143.7344,653.3906 143.1016,653.7188 Q142.4688,654.0469 141.9766,654.7969 Q141.4844,655.5469 141.4844,656.5781 L141.4844,657.6719 Q141.4844,658.9063 142.375,659.7266 Q143.2656,660.5469 144.8594,660.5469 Q145.7969,660.5469 146.4531,660.2969 Q146.8438,660.1406 147.2656,659.7031 Q147.5313,659.4375 147.6797,659.3594 Q147.8281,659.2813 148.0313,659.2813 Q148.3594,659.2813 148.6172,659.5391 Q148.875,659.7969 148.875,660.1406 Q148.875,660.4844 148.5313,660.8906 Q148.0313,661.4688 147.2344,661.7969 Q146.1563,662.25 144.8594,662.25 Q143.3438,662.25 142.1406,661.625 Q141.1563,661.125 140.4688,660.0547 Q139.7813,658.9844 139.7813,657.7031 L139.7813,656.5469 Q139.7813,655.2188 140.3984,654.0703 Q141.0156,652.9219 142.1094,652.3047 Q143.2031,651.6875 144.4375,651.6875 Q145.1719,651.6875 145.8203,651.8516 Q146.4688,652.0156 147.0156,652.375 Z " fill="#000000"/><text fill="#000000" font-family="sans-serif" font-size="14" lengthAdjust="spacing" textLength="47" x="164.75" y="662.2285">Liability</text><line style="stroke:#181818;stroke-width:0.5;" x1="23.5" x2="320.5" y1="672.5" y2="672.5"/><rect fill="none" height="6" style="stroke:#C82930;stroke-width:1.0;" width="6" x="30.5" y="683.8047"/><text fill="#000000" font-family="sans-serif" font-size="14" lengthAdjust="spacing" textLength="76" x="42.5" y="691.0332">liabilityId: int</text><rect fill="none" height="6" style="stroke:#C82930;stroke-width:1.0;" width="6" x="30.5" y="701.4141"/><text fill="#000000" font-family="sans-serif" font-size="14" lengthAdjust="spacing" textLength="121" x="42.5" y="708.6426">liabilityName: string</text><rect fill="none" height="6" style="stroke:#C82930;stroke-width:1.0;" width="6" x="30.5" y="719.0234"/><text fill="#000000" font-family="sans-serif" font-size="14" lengthAdjust="spacing" textLength="141" x="42.5" y="726.252">liabilityAmount: double</text><line style="stroke:#181818;stroke-width:0.5;" x1="23.5" x2="320.5" y1="733.3281" y2="733.3281"/><ellipse cx="33.5" cy="747.6328" fill="#84BE84" rx="3" ry="3" style="stroke:#038048;stroke-width:1.0;"/><text fill="#000000" font-family="sans-serif" font-size="14" lengthAdjust="spacing" textLength="111" x="42.5" y="751.8613">getLiabilityId(): int</text><ellipse cx="33.5" cy="765.2422" fill="#84BE84" rx="3" ry="3" style="stroke:#038048;stroke-width:1.0;"/><text fill="#000000" font-family="sans-serif" font-size="14" lengthAdjust="spacing" textLength="156" x="42.5" y="769.4707">getLiabilityName(): string</text><ellipse cx="33.5" cy="782.8516" fill="#84BE84" rx="3" ry="3" style="stroke:#038048;stroke-width:1.0;"/><text fill="#000000" font-family="sans-serif" font-size="14" lengthAdjust="spacing" textLength="176" x="42.5" y="787.0801">getLiabilityAmount(): double</text><ellipse cx="33.5" cy="800.4609" fill="#84BE84" rx="3" ry="3" style="stroke:#038048;stroke-width:1.0;"/><text fill="#000000" font-family="sans-serif" font-size="14" lengthAdjust="spacing" textLength="241" x="42.5" y="804.6895">changeLiabilityName(name: string): int</text><ellipse cx="33.5" cy="818.0703" fill="#84BE84" rx="3" ry="3" style="stroke:#038048;stroke-width:1.0;"/><text fill="#000000" font-family="sans-serif" font-size="14" lengthAdjust="spacing" textLength="273" x="42.5" y="822.2988">changeLiabilityAmount(amount: double): int</text></g><!--class feeReportGenerationSystem--><g id="elem_feeReportGenerationSystem"><rect codeLine="115" fill="#F1F1F1" height="100.8281" id="feeReportGenerationSystem" rx="2.5" ry="2.5" style="stroke:#181818;stroke-width:0.5;" width="391" x="295.5" y="417.5"/><ellipse cx="396.75" cy="433.5" fill="#ADD1B2" rx="11" ry="11" style="stroke:#181818;stroke-width:1.0;"/><path d="M399.5156,429.375 Q399.6719,429.1563 399.8594,429.0469 Q400.0469,428.9375 400.2656,428.9375 Q400.6406,428.9375 400.875,429.1953 Q401.1094,429.4531 401.1094,430.0625 L401.1094,431.5156 Q401.1094,432.125 400.875,432.3906 Q400.6406,432.6563 400.2656,432.6563 Q399.9219,432.6563 399.7188,432.4531 Q399.5156,432.2656 399.4063,431.75 Q399.3594,431.3906 399.1719,431.2031 Q398.8438,430.8281 398.2344,430.6094 Q397.625,430.3906 397,430.3906 Q396.2344,430.3906 395.6016,430.7188 Q394.9688,431.0469 394.4766,431.7969 Q393.9844,432.5469 393.9844,433.5781 L393.9844,434.6719 Q393.9844,435.9063 394.875,436.7266 Q395.7656,437.5469 397.3594,437.5469 Q398.2969,437.5469 398.9531,437.2969 Q399.3438,437.1406 399.7656,436.7031 Q400.0313,436.4375 400.1797,436.3594 Q400.3281,436.2813 400.5313,436.2813 Q400.8594,436.2813 401.1172,436.5391 Q401.375,436.7969 401.375,437.1406 Q401.375,437.4844 401.0313,437.8906 Q400.5313,438.4688 399.7344,438.7969 Q398.6563,439.25 397.3594,439.25 Q395.8438,439.25 394.6406,438.625 Q393.6563,438.125 392.9688,437.0547 Q392.2813,435.9844 392.2813,434.7031 L392.2813,433.5469 Q392.2813,432.2188 392.8984,431.0703 Q393.5156,429.9219 394.6094,429.3047 Q395.7031,428.6875 396.9375,428.6875 Q397.6719,428.6875 398.3203,428.8516 Q398.9688,429.0156 399.5156,429.375 Z " fill="#000000"/><text fill="#000000" font-family="sans-serif" font-size="14" lengthAdjust="spacing" textLength="180" x="417.25" y="439.2285">feeReportGenerationSystem</text><line style="stroke:#181818;stroke-width:0.5;" x1="296.5" x2="685.5" y1="449.5" y2="449.5"/><rect fill="none" height="6" style="stroke:#C82930;stroke-width:1.0;" width="6" x="303.5" y="460.8047"/><text fill="#000000" font-family="sans-serif" font-size="14" lengthAdjust="spacing" textLength="204" x="315.5" y="468.0332">generatedReports: List&lt;Report&gt;</text><line style="stroke:#181818;stroke-width:0.5;" x1="296.5" x2="685.5" y1="475.1094" y2="475.1094"/><ellipse cx="306.5" cy="489.4141" fill="#84BE84" rx="3" ry="3" style="stroke:#038048;stroke-width:1.0;"/><text fill="#000000" font-family="sans-serif" font-size="14" lengthAdjust="spacing" textLength="365" x="315.5" y="493.6426">generateFeeReport(startDate: Date, endDate: Date): void</text><ellipse cx="306.5" cy="507.0234" fill="#84BE84" rx="3" ry="3" style="stroke:#038048;stroke-width:1.0;"/><text fill="#000000" font-family="sans-serif" font-size="14" lengthAdjust="spacing" textLength="244" x="315.5" y="511.252">viewGeneratedReports(): List&lt;Report&gt;</text></g><!--class expenseAndIncomesManagementSystem--><g id="elem_expenseAndIncomesManagementSystem"><rect codeLine="123" fill="#F1F1F1" height="136.0469" id="expenseAndIncomesManagementSystem" rx="2.5" ry="2.5" style="stroke:#181818;stroke-width:0.5;" width="290" x="722" y="400"/><ellipse cx="737" cy="416" fill="#ADD1B2" rx="11" ry="11" style="stroke:#181818;stroke-width:1.0;"/><path d="M739.7656,411.875 Q739.9219,411.6563 740.1094,411.5469 Q740.2969,411.4375 740.5156,411.4375 Q740.8906,411.4375 741.125,411.6953 Q741.3594,411.9531 741.3594,412.5625 L741.3594,414.0156 Q741.3594,414.625 741.125,414.8906 Q740.8906,415.1563 740.5156,415.1563 Q740.1719,415.1563 739.9688,414.9531 Q739.7656,414.7656 739.6563,414.25 Q739.6094,413.8906 739.4219,413.7031 Q739.0938,413.3281 738.4844,413.1094 Q737.875,412.8906 737.25,412.8906 Q736.4844,412.8906 735.8516,413.2188 Q735.2188,413.5469 734.7266,414.2969 Q734.2344,415.0469 734.2344,416.0781 L734.2344,417.1719 Q734.2344,418.4063 735.125,419.2266 Q736.0156,420.0469 737.6094,420.0469 Q738.5469,420.0469 739.2031,419.7969 Q739.5938,419.6406 740.0156,419.2031 Q740.2813,418.9375 740.4297,418.8594 Q740.5781,418.7813 740.7813,418.7813 Q741.1094,418.7813 741.3672,419.0391 Q741.625,419.2969 741.625,419.6406 Q741.625,419.9844 741.2813,420.3906 Q740.7813,420.9688 739.9844,421.2969 Q738.9063,421.75 737.6094,421.75 Q736.0938,421.75 734.8906,421.125 Q733.9063,420.625 733.2188,419.5547 Q732.5313,418.4844 732.5313,417.2031 L732.5313,416.0469 Q732.5313,414.7188 733.1484,413.5703 Q733.7656,412.4219 734.8594,411.8047 Q735.9531,411.1875 737.1875,411.1875 Q737.9219,411.1875 738.5703,411.3516 Q739.2188,411.5156 739.7656,411.875 Z " fill="#000000"/><text fill="#000000" font-family="sans-serif" font-size="14" lengthAdjust="spacing" textLength="258" x="751" y="421.7285">expenseAndIncomesManagementSystem</text><line style="stroke:#181818;stroke-width:0.5;" x1="723" x2="1011" y1="432" y2="432"/><rect fill="none" height="6" style="stroke:#C82930;stroke-width:1.0;" width="6" x="730" y="443.3047"/><text fill="#000000" font-family="sans-serif" font-size="14" lengthAdjust="spacing" textLength="160" x="742" y="450.5332">expenses: List&lt;Expense&gt;</text><rect fill="none" height="6" style="stroke:#C82930;stroke-width:1.0;" width="6" x="730" y="460.9141"/><text fill="#000000" font-family="sans-serif" font-size="14" lengthAdjust="spacing" textLength="143" x="742" y="468.1426">incomes: List&lt;Income&gt;</text><line style="stroke:#181818;stroke-width:0.5;" x1="723" x2="1011" y1="475.2188" y2="475.2188"/><ellipse cx="733" cy="489.5234" fill="#84BE84" rx="3" ry="3" style="stroke:#038048;stroke-width:1.0;"/><text fill="#000000" font-family="sans-serif" font-size="14" lengthAdjust="spacing" textLength="237" x="742" y="493.752">addExpense(expense: Expense): void</text><ellipse cx="733" cy="507.1328" fill="#84BE84" rx="3" ry="3" style="stroke:#038048;stroke-width:1.0;"/><text fill="#000000" font-family="sans-serif" font-size="14" lengthAdjust="spacing" textLength="211" x="742" y="511.3613">addIncome(income: Income): void</text><ellipse cx="733" cy="524.7422" fill="#84BE84" rx="3" ry="3" style="stroke:#038048;stroke-width:1.0;"/><text fill="#000000" font-family="sans-serif" font-size="14" lengthAdjust="spacing" textLength="168" x="742" y="528.9707">calculateBalance(): double</text></g><!--class Expense--><g id="elem_Expense"><rect codeLine="131" fill="#F1F1F1" height="241.7031" id="Expense" rx="2.5" ry="2.5" style="stroke:#181818;stroke-width:0.5;" width="247" x="1375.5" y="614"/><ellipse cx="1467.75" cy="630" fill="#ADD1B2" rx="11" ry="11" style="stroke:#181818;stroke-width:1.0;"/><path d="M1470.5156,625.875 Q1470.6719,625.6563 1470.8594,625.5469 Q1471.0469,625.4375 1471.2656,625.4375 Q1471.6406,625.4375 1471.875,625.6953 Q1472.1094,625.9531 1472.1094,626.5625 L1472.1094,628.0156 Q1472.1094,628.625 1471.875,628.8906 Q1471.6406,629.1563 1471.2656,629.1563 Q1470.9219,629.1563 1470.7188,628.9531 Q1470.5156,628.7656 1470.4063,628.25 Q1470.3594,627.8906 1470.1719,627.7031 Q1469.8438,627.3281 1469.2344,627.1094 Q1468.625,626.8906 1468,626.8906 Q1467.2344,626.8906 1466.6016,627.2188 Q1465.9688,627.5469 1465.4766,628.2969 Q1464.9844,629.0469 1464.9844,630.0781 L1464.9844,631.1719 Q1464.9844,632.4063 1465.875,633.2266 Q1466.7656,634.0469 1468.3594,634.0469 Q1469.2969,634.0469 1469.9531,633.7969 Q1470.3438,633.6406 1470.7656,633.2031 Q1471.0313,632.9375 1471.1797,632.8594 Q1471.3281,632.7813 1471.5313,632.7813 Q1471.8594,632.7813 1472.1172,633.0391 Q1472.375,633.2969 1472.375,633.6406 Q1472.375,633.9844 1472.0313,634.3906 Q1471.5313,634.9688 1470.7344,635.2969 Q1469.6563,635.75 1468.3594,635.75 Q1466.8438,635.75 1465.6406,635.125 Q1464.6563,634.625 1463.9688,633.5547 Q1463.2813,632.4844 1463.2813,631.2031 L1463.2813,630.0469 Q1463.2813,628.7188 1463.8984,627.5703 Q1464.5156,626.4219 1465.6094,625.8047 Q1466.7031,625.1875 1467.9375,625.1875 Q1468.6719,625.1875 1469.3203,625.3516 Q1469.9688,625.5156 1470.5156,625.875 Z " fill="#000000"/><text fill="#000000" font-family="sans-serif" font-size="14" lengthAdjust="spacing" textLength="54" x="1488.25" y="635.7285">Expense</text><line style="stroke:#181818;stroke-width:0.5;" x1="1376.5" x2="1621.5" y1="646" y2="646"/><rect fill="none" height="6" style="stroke:#C82930;stroke-width:1.0;" width="6" x="1383.5" y="657.3047"/><text fill="#000000" font-family="sans-serif" font-size="14" lengthAdjust="spacing" textLength="87" x="1395.5" y="664.5332">expenseId: int</text><rect fill="none" height="6" style="stroke:#C82930;stroke-width:1.0;" width="6" x="1383.5" y="674.9141"/><text fill="#000000" font-family="sans-serif" font-size="14" lengthAdjust="spacing" textLength="98" x="1395.5" y="682.1426">amount: double</text><rect fill="none" height="6" style="stroke:#C82930;stroke-width:1.0;" width="6" x="1383.5" y="692.5234"/><text fill="#000000" font-family="sans-serif" font-size="14" lengthAdjust="spacing" textLength="112" x="1395.5" y="699.752">description: string</text><rect fill="none" height="6" style="stroke:#C82930;stroke-width:1.0;" width="6" x="1383.5" y="710.1328"/><text fill="#000000" font-family="sans-serif" font-size="14" lengthAdjust="spacing" textLength="121" x="1395.5" y="717.3613">expenseDate: Date</text><line style="stroke:#181818;stroke-width:0.5;" x1="1376.5" x2="1621.5" y1="724.4375" y2="724.4375"/><ellipse cx="1386.5" cy="738.7422" fill="#84BE84" rx="3" ry="3" style="stroke:#038048;stroke-width:1.0;"/><text fill="#000000" font-family="sans-serif" font-size="14" lengthAdjust="spacing" textLength="118" x="1395.5" y="742.9707">getExpenseId(): int</text><ellipse cx="1386.5" cy="756.3516" fill="#84BE84" rx="3" ry="3" style="stroke:#038048;stroke-width:1.0;"/><text fill="#000000" font-family="sans-serif" font-size="14" lengthAdjust="spacing" textLength="129" x="1395.5" y="760.5801">getAmount(): double</text><ellipse cx="1386.5" cy="773.9609" fill="#84BE84" rx="3" ry="3" style="stroke:#038048;stroke-width:1.0;"/><text fill="#000000" font-family="sans-serif" font-size="14" lengthAdjust="spacing" textLength="144" x="1395.5" y="778.1895">getDescription(): string</text><ellipse cx="1386.5" cy="791.5703" fill="#84BE84" rx="3" ry="3" style="stroke:#038048;stroke-width:1.0;"/><text fill="#000000" font-family="sans-serif" font-size="14" lengthAdjust="spacing" textLength="152" x="1395.5" y="795.7988">getExpenseDate(): Date</text><ellipse cx="1386.5" cy="809.1797" fill="#84BE84" rx="3" ry="3" style="stroke:#038048;stroke-width:1.0;"/><text fill="#000000" font-family="sans-serif" font-size="14" lengthAdjust="spacing" textLength="184" x="1395.5" y="813.4082">alterAmount(amount: double)</text><ellipse cx="1386.5" cy="826.7891" fill="#84BE84" rx="3" ry="3" style="stroke:#038048;stroke-width:1.0;"/><text fill="#000000" font-family="sans-serif" font-size="14" lengthAdjust="spacing" textLength="221" x="1395.5" y="831.0176">alterDescription(description: string)</text><ellipse cx="1386.5" cy="844.3984" fill="#84BE84" rx="3" ry="3" style="stroke:#038048;stroke-width:1.0;"/><text fill="#000000" font-family="sans-serif" font-size="14" lengthAdjust="spacing" textLength="132" x="1395.5" y="848.627">alterDate(date: date)</text></g><!--class Income--><g id="elem_Income"><rect codeLine="146" fill="#F1F1F1" height="241.7031" id="Income" rx="2.5" ry="2.5" style="stroke:#181818;stroke-width:0.5;" width="247" x="1093.5" y="614"/><ellipse cx="1190.25" cy="630" fill="#ADD1B2" rx="11" ry="11" style="stroke:#181818;stroke-width:1.0;"/><path d="M1193.0156,625.875 Q1193.1719,625.6563 1193.3594,625.5469 Q1193.5469,625.4375 1193.7656,625.4375 Q1194.1406,625.4375 1194.375,625.6953 Q1194.6094,625.9531 1194.6094,626.5625 L1194.6094,628.0156 Q1194.6094,628.625 1194.375,628.8906 Q1194.1406,629.1563 1193.7656,629.1563 Q1193.4219,629.1563 1193.2188,628.9531 Q1193.0156,628.7656 1192.9063,628.25 Q1192.8594,627.8906 1192.6719,627.7031 Q1192.3438,627.3281 1191.7344,627.1094 Q1191.125,626.8906 1190.5,626.8906 Q1189.7344,626.8906 1189.1016,627.2188 Q1188.4688,627.5469 1187.9766,628.2969 Q1187.4844,629.0469 1187.4844,630.0781 L1187.4844,631.1719 Q1187.4844,632.4063 1188.375,633.2266 Q1189.2656,634.0469 1190.8594,634.0469 Q1191.7969,634.0469 1192.4531,633.7969 Q1192.8438,633.6406 1193.2656,633.2031 Q1193.5313,632.9375 1193.6797,632.8594 Q1193.8281,632.7813 1194.0313,632.7813 Q1194.3594,632.7813 1194.6172,633.0391 Q1194.875,633.2969 1194.875,633.6406 Q1194.875,633.9844 1194.5313,634.3906 Q1194.0313,634.9688 1193.2344,635.2969 Q1192.1563,635.75 1190.8594,635.75 Q1189.3438,635.75 1188.1406,635.125 Q1187.1563,634.625 1186.4688,633.5547 Q1185.7813,632.4844 1185.7813,631.2031 L1185.7813,630.0469 Q1185.7813,628.7188 1186.3984,627.5703 Q1187.0156,626.4219 1188.1094,625.8047 Q1189.2031,625.1875 1190.4375,625.1875 Q1191.1719,625.1875 1191.8203,625.3516 Q1192.4688,625.5156 1193.0156,625.875 Z " fill="#000000"/><text fill="#000000" font-family="sans-serif" font-size="14" lengthAdjust="spacing" textLength="45" x="1210.75" y="635.7285">Income</text><line style="stroke:#181818;stroke-width:0.5;" x1="1094.5" x2="1339.5" y1="646" y2="646"/><rect fill="none" height="6" style="stroke:#C82930;stroke-width:1.0;" width="6" x="1101.5" y="657.3047"/><text fill="#000000" font-family="sans-serif" font-size="14" lengthAdjust="spacing" textLength="79" x="1113.5" y="664.5332">incomeId: int</text><rect fill="none" height="6" style="stroke:#C82930;stroke-width:1.0;" width="6" x="1101.5" y="674.9141"/><text fill="#000000" font-family="sans-serif" font-size="14" lengthAdjust="spacing" textLength="98" x="1113.5" y="682.1426">amount: double</text><rect fill="none" height="6" style="stroke:#C82930;stroke-width:1.0;" width="6" x="1101.5" y="692.5234"/><text fill="#000000" font-family="sans-serif" font-size="14" lengthAdjust="spacing" textLength="112" x="1113.5" y="699.752">description: string</text><rect fill="none" height="6" style="stroke:#C82930;stroke-width:1.0;" width="6" x="1101.5" y="710.1328"/><text fill="#000000" font-family="sans-serif" font-size="14" lengthAdjust="spacing" textLength="113" x="1113.5" y="717.3613">incomeDate: Date</text><line style="stroke:#181818;stroke-width:0.5;" x1="1094.5" x2="1339.5" y1="724.4375" y2="724.4375"/><ellipse cx="1104.5" cy="738.7422" fill="#84BE84" rx="3" ry="3" style="stroke:#038048;stroke-width:1.0;"/><text fill="#000000" font-family="sans-serif" font-size="14" lengthAdjust="spacing" textLength="109" x="1113.5" y="742.9707">getIncomeId(): int</text><ellipse cx="1104.5" cy="756.3516" fill="#84BE84" rx="3" ry="3" style="stroke:#038048;stroke-width:1.0;"/><text fill="#000000" font-family="sans-serif" font-size="14" lengthAdjust="spacing" textLength="129" x="1113.5" y="760.5801">getAmount(): double</text><ellipse cx="1104.5" cy="773.9609" fill="#84BE84" rx="3" ry="3" style="stroke:#038048;stroke-width:1.0;"/><text fill="#000000" font-family="sans-serif" font-size="14" lengthAdjust="spacing" textLength="144" x="1113.5" y="778.1895">getDescription(): string</text><ellipse cx="1104.5" cy="791.5703" fill="#84BE84" rx="3" ry="3" style="stroke:#038048;stroke-width:1.0;"/><text fill="#000000" font-family="sans-serif" font-size="14" lengthAdjust="spacing" textLength="143" x="1113.5" y="795.7988">getIncomeDate(): Date</text><ellipse cx="1104.5" cy="809.1797" fill="#84BE84" rx="3" ry="3" style="stroke:#038048;stroke-width:1.0;"/><text fill="#000000" font-family="sans-serif" font-size="14" lengthAdjust="spacing" textLength="184" x="1113.5" y="813.4082">alterAmount(amount: double)</text><ellipse cx="1104.5" cy="826.7891" fill="#84BE84" rx="3" ry="3" style="stroke:#038048;stroke-width:1.0;"/><text fill="#000000" font-family="sans-serif" font-size="14" lengthAdjust="spacing" textLength="221" x="1113.5" y="831.0176">alterDescription(description: string)</text><ellipse cx="1104.5" cy="844.3984" fill="#84BE84" rx="3" ry="3" style="stroke:#038048;stroke-width:1.0;"/><text fill="#000000" font-family="sans-serif" font-size="14" lengthAdjust="spacing" textLength="132" x="1113.5" y="848.627">alterDate(date: date)</text></g><!--class User--><g id="elem_User"><rect codeLine="161" fill="#F1F1F1" height="136.0469" id="User" rx="2.5" ry="2.5" style="stroke:#181818;stroke-width:0.5;" width="220" x="872" y="42"/><ellipse cx="963.25" cy="58" fill="#ADD1B2" rx="11" ry="11" style="stroke:#181818;stroke-width:1.0;"/><path d="M966.0156,53.875 Q966.1719,53.6563 966.3594,53.5469 Q966.5469,53.4375 966.7656,53.4375 Q967.1406,53.4375 967.375,53.6953 Q967.6094,53.9531 967.6094,54.5625 L967.6094,56.0156 Q967.6094,56.625 967.375,56.8906 Q967.1406,57.1563 966.7656,57.1563 Q966.4219,57.1563 966.2188,56.9531 Q966.0156,56.7656 965.9063,56.25 Q965.8594,55.8906 965.6719,55.7031 Q965.3438,55.3281 964.7344,55.1094 Q964.125,54.8906 963.5,54.8906 Q962.7344,54.8906 962.1016,55.2188 Q961.4688,55.5469 960.9766,56.2969 Q960.4844,57.0469 960.4844,58.0781 L960.4844,59.1719 Q960.4844,60.4063 961.375,61.2266 Q962.2656,62.0469 963.8594,62.0469 Q964.7969,62.0469 965.4531,61.7969 Q965.8438,61.6406 966.2656,61.2031 Q966.5313,60.9375 966.6797,60.8594 Q966.8281,60.7813 967.0313,60.7813 Q967.3594,60.7813 967.6172,61.0391 Q967.875,61.2969 967.875,61.6406 Q967.875,61.9844 967.5313,62.3906 Q967.0313,62.9688 966.2344,63.2969 Q965.1563,63.75 963.8594,63.75 Q962.3438,63.75 961.1406,63.125 Q960.1563,62.625 959.4688,61.5547 Q958.7813,60.4844 958.7813,59.2031 L958.7813,58.0469 Q958.7813,56.7188 959.3984,55.5703 Q960.0156,54.4219 961.1094,53.8047 Q962.2031,53.1875 963.4375,53.1875 Q964.1719,53.1875 964.8203,53.3516 Q965.4688,53.5156 966.0156,53.875 Z " fill="#000000"/><text fill="#000000" font-family="sans-serif" font-size="14" lengthAdjust="spacing" textLength="29" x="983.75" y="63.7285">User</text><line style="stroke:#181818;stroke-width:0.5;" x1="873" x2="1091" y1="74" y2="74"/><ellipse cx="883" cy="88.3047" fill="none" rx="3" ry="3" style="stroke:#038048;stroke-width:1.0;"/><text fill="#000000" font-family="sans-serif" font-size="14" lengthAdjust="spacing" textLength="64" x="892" y="92.5332">userID: int</text><ellipse cx="883" cy="105.9141" fill="none" rx="3" ry="3" style="stroke:#038048;stroke-width:1.0;"/><text fill="#000000" font-family="sans-serif" font-size="14" lengthAdjust="spacing" textLength="78" x="892" y="110.1426">name: string</text><ellipse cx="883" cy="123.5234" fill="none" rx="3" ry="3" style="stroke:#038048;stroke-width:1.0;"/><text fill="#000000" font-family="sans-serif" font-size="14" lengthAdjust="spacing" textLength="62" x="892" y="127.752">bio: string</text><line style="stroke:#181818;stroke-width:0.5;" x1="873" x2="1091" y1="134.8281" y2="134.8281"/><ellipse cx="883" cy="149.1328" fill="#84BE84" rx="3" ry="3" style="stroke:#038048;stroke-width:1.0;"/><text fill="#000000" font-family="sans-serif" font-size="14" lengthAdjust="spacing" textLength="194" x="892" y="153.3613">changeName(name: string): int</text><ellipse cx="883" cy="166.7422" fill="#84BE84" rx="3" ry="3" style="stroke:#038048;stroke-width:1.0;"/><text fill="#000000" font-family="sans-serif" font-size="14" lengthAdjust="spacing" textLength="159" x="892" y="170.9707">updateBio(bio: string): int</text></g><!--class FinancePerson--><g id="elem_FinancePerson"><rect codeLine="170" fill="#F1F1F1" height="83.2188" id="FinancePerson" rx="2.5" ry="2.5" style="stroke:#181818;stroke-width:0.5;" width="170" x="782" y="239"/><ellipse cx="815.9" cy="255" fill="#ADD1B2" rx="11" ry="11" style="stroke:#181818;stroke-width:1.0;"/><path d="M818.6656,250.875 Q818.8219,250.6563 819.0094,250.5469 Q819.1969,250.4375 819.4156,250.4375 Q819.7906,250.4375 820.025,250.6953 Q820.2594,250.9531 820.2594,251.5625 L820.2594,253.0156 Q820.2594,253.625 820.025,253.8906 Q819.7906,254.1563 819.4156,254.1563 Q819.0719,254.1563 818.8688,253.9531 Q818.6656,253.7656 818.5563,253.25 Q818.5094,252.8906 818.3219,252.7031 Q817.9938,252.3281 817.3844,252.1094 Q816.775,251.8906 816.15,251.8906 Q815.3844,251.8906 814.7516,252.2188 Q814.1188,252.5469 813.6266,253.2969 Q813.1344,254.0469 813.1344,255.0781 L813.1344,256.1719 Q813.1344,257.4063 814.025,258.2266 Q814.9156,259.0469 816.5094,259.0469 Q817.4469,259.0469 818.1031,258.7969 Q818.4938,258.6406 818.9156,258.2031 Q819.1813,257.9375 819.3297,257.8594 Q819.4781,257.7813 819.6813,257.7813 Q820.0094,257.7813 820.2672,258.0391 Q820.525,258.2969 820.525,258.6406 Q820.525,258.9844 820.1813,259.3906 Q819.6813,259.9688 818.8844,260.2969 Q817.8063,260.75 816.5094,260.75 Q814.9938,260.75 813.7906,260.125 Q812.8063,259.625 812.1188,258.5547 Q811.4313,257.4844 811.4313,256.2031 L811.4313,255.0469 Q811.4313,253.7188 812.0484,252.5703 Q812.6656,251.4219 813.7594,250.8047 Q814.8531,250.1875 816.0875,250.1875 Q816.8219,250.1875 817.4703,250.3516 Q818.1188,250.5156 818.6656,250.875 Z " fill="#000000"/><text fill="#000000" font-family="sans-serif" font-size="14" lengthAdjust="spacing" textLength="96" x="834.1" y="260.7285">FinancePerson</text><line style="stroke:#181818;stroke-width:0.5;" x1="783" x2="951" y1="271" y2="271"/><ellipse cx="793" cy="285.3047" fill="none" rx="3" ry="3" style="stroke:#038048;stroke-width:1.0;"/><text fill="#000000" font-family="sans-serif" font-size="14" lengthAdjust="spacing" textLength="74" x="802" y="289.5332">adminID: int</text><line style="stroke:#181818;stroke-width:0.5;" x1="783" x2="951" y1="296.6094" y2="296.6094"/><ellipse cx="793" cy="310.9141" fill="#84BE84" rx="3" ry="3" style="stroke:#038048;stroke-width:1.0;"/><text fill="#000000" font-family="sans-serif" font-size="14" lengthAdjust="spacing" textLength="144" x="802" y="315.1426">updateUserDatabase()</text></g><!--class DonationHandler--><g id="elem_DonationHandler"><rect codeLine="175" fill="#F1F1F1" height="83.2188" id="DonationHandler" rx="2.5" ry="2.5" style="stroke:#181818;stroke-width:0.5;" width="170" x="1012" y="239"/><ellipse cx="1041.4" cy="255" fill="#ADD1B2" rx="11" ry="11" style="stroke:#181818;stroke-width:1.0;"/><path d="M1044.1656,250.875 Q1044.3219,250.6563 1044.5094,250.5469 Q1044.6969,250.4375 1044.9156,250.4375 Q1045.2906,250.4375 1045.525,250.6953 Q1045.7594,250.9531 1045.7594,251.5625 L1045.7594,253.0156 Q1045.7594,253.625 1045.525,253.8906 Q1045.2906,254.1563 1044.9156,254.1563 Q1044.5719,254.1563 1044.3688,253.9531 Q1044.1656,253.7656 1044.0563,253.25 Q1044.0094,252.8906 1043.8219,252.7031 Q1043.4938,252.3281 1042.8844,252.1094 Q1042.275,251.8906 1041.65,251.8906 Q1040.8844,251.8906 1040.2516,252.2188 Q1039.6188,252.5469 1039.1266,253.2969 Q1038.6344,254.0469 1038.6344,255.0781 L1038.6344,256.1719 Q1038.6344,257.4063 1039.525,258.2266 Q1040.4156,259.0469 1042.0094,259.0469 Q1042.9469,259.0469 1043.6031,258.7969 Q1043.9938,258.6406 1044.4156,258.2031 Q1044.6813,257.9375 1044.8297,257.8594 Q1044.9781,257.7813 1045.1813,257.7813 Q1045.5094,257.7813 1045.7672,258.0391 Q1046.025,258.2969 1046.025,258.6406 Q1046.025,258.9844 1045.6813,259.3906 Q1045.1813,259.9688 1044.3844,260.2969 Q1043.3063,260.75 1042.0094,260.75 Q1040.4938,260.75 1039.2906,260.125 Q1038.3063,259.625 1037.6188,258.5547 Q1036.9313,257.4844 1036.9313,256.2031 L1036.9313,255.0469 Q1036.9313,253.7188 1037.5484,252.5703 Q1038.1656,251.4219 1039.2594,250.8047 Q1040.3531,250.1875 1041.5875,250.1875 Q1042.3219,250.1875 1042.9703,250.3516 Q1043.6188,250.5156 1044.1656,250.875 Z " fill="#000000"/><text fill="#000000" font-family="sans-serif" font-size="14" lengthAdjust="spacing" textLength="106" x="1058.6" y="260.7285">DonationHandler</text><line style="stroke:#181818;stroke-width:0.5;" x1="1013" x2="1181" y1="271" y2="271"/><ellipse cx="1023" cy="285.3047" fill="none" rx="3" ry="3" style="stroke:#038048;stroke-width:1.0;"/><text fill="#000000" font-family="sans-serif" font-size="14" lengthAdjust="spacing" textLength="74" x="1032" y="289.5332">adminID: int</text><line style="stroke:#181818;stroke-width:0.5;" x1="1013" x2="1181" y1="296.6094" y2="296.6094"/><ellipse cx="1023" cy="310.9141" fill="#84BE84" rx="3" ry="3" style="stroke:#038048;stroke-width:1.0;"/><text fill="#000000" font-family="sans-serif" font-size="14" lengthAdjust="spacing" textLength="144" x="1032" y="315.1426">updateUserDatabase()</text></g><!--reverse link User to FinancePerson--><g id="link_User_FinancePerson"><path d="M926.0741,192.9481 C912.0441,213.5081 907.19,220.62 894.75,238.85 " fill="none" id="User-backto-FinancePerson" style="stroke:#181818;stroke-width:1.0;"/><polygon fill="none" points="936.22,178.08,921.1181,189.5661,931.0301,196.3301,936.22,178.08" style="stroke:#181818;stroke-width:1.0;"/></g><!--reverse link User to DonationHandler--><g id="link_User_DonationHandler"><path d="M1037.9259,192.9481 C1051.9559,213.5081 1056.81,220.62 1069.25,238.85 " fill="none" id="User-backto-DonationHandler" style="stroke:#181818;stroke-width:1.0;"/><polygon fill="none" points="1027.78,178.08,1032.9699,196.3301,1042.8819,189.5661,1027.78,178.08" style="stroke:#181818;stroke-width:1.0;"/></g><!--reverse link expenseAndIncomesManagementSystem to Income--><g id="link_expenseAndIncomesManagementSystem_Income"><path codeLine="181" d="M995.9822,542.4395 C1011.1422,552.0595 1016.08,555.75 1030,566 C1051.18,581.58 1072.75,599.14 1093.35,616.87 " fill="none" id="expenseAndIncomesManagementSystem-backto-Income" style="stroke:#181818;stroke-width:1.0;"/><polygon fill="none" points="985.85,536.01,988.7729,542.6022,995.9822,542.4395,993.0593,535.8474,985.85,536.01" style="stroke:#181818;stroke-width:1.0;"/><text fill="#000000" font-family="sans-serif" font-size="13" lengthAdjust="spacing" textLength="49" x="1052" y="580.4951">contains</text><text fill="#000000" font-family="sans-serif" font-size="13" lengthAdjust="spacing" textLength="7" x="990.7455" y="557.3594">1</text><text fill="#000000" font-family="sans-serif" font-size="13" lengthAdjust="spacing" textLength="20" x="1065.6234" y="607.092">1..*</text></g><!--reverse link expenseAndIncomesManagementSystem to Expense--><g id="link_expenseAndIncomesManagementSystem_Expense"><path codeLine="182" d="M1023.7752,531.1188 C1032.7252,534.2288 1030.29,533.25 1039,536 C1178.19,579.92 1228.03,547.58 1358,614 C1363.87,617 1369.7,620.29 1375.46,623.8 " fill="none" id="expenseAndIncomesManagementSystem-backto-Expense" style="stroke:#181818;stroke-width:1.0;"/><polygon fill="none" points="1012.44,527.18,1016.7946,532.9278,1023.7752,531.1188,1019.4205,525.371,1012.44,527.18" style="stroke:#181818;stroke-width:1.0;"/><text fill="#000000" font-family="sans-serif" font-size="13" lengthAdjust="spacing" textLength="49" x="1283" y="580.4951">contains</text><text fill="#000000" font-family="sans-serif" font-size="13" lengthAdjust="spacing" textLength="7" x="1020.1197" y="527.3219">1</text><text fill="#000000" font-family="sans-serif" font-size="13" lengthAdjust="spacing" textLength="20" x="1348.4187" y="613.0658">1..*</text></g><!--link feeCollectionSystem to Fee--><g id="link_feeCollectionSystem_Fee"><path codeLine="183" d="M1912.63,803.22 C1895.6,821.61 1876.03,840.68 1856,856 C1770.72,921.21 1659.75,975.89 1584.11,1009.39 " fill="none" id="feeCollectionSystem-Fee" style="stroke:#181818;stroke-width:1.0;"/><text fill="#000000" font-family="sans-serif" font-size="13" lengthAdjust="spacing" textLength="28" x="1812" y="900.4951">uses</text><text fill="#000000" font-family="sans-serif" font-size="13" lengthAdjust="spacing" textLength="7" x="1899.559" y="824.591">1</text><text fill="#000000" font-family="sans-serif" font-size="13" lengthAdjust="spacing" textLength="20" x="1592.0691" y="1003.2015">1..*</text></g><!--reverse link Fee to FeeCategory--><g id="link_Fee_FeeCategory"><path codeLine="184" d="M1498,1170.25 C1498,1195.88 1498,1210.89 1498,1235.69 " fill="none" id="Fee-backto-FeeCategory" style="stroke:#181818;stroke-width:1.0;"/><polygon fill="none" points="1498,1158.25,1494,1164.25,1498,1170.25,1502,1164.25,1498,1158.25" style="stroke:#181818;stroke-width:1.0;"/><text fill="#000000" font-family="sans-serif" font-size="13" lengthAdjust="spacing" textLength="21" x="1499" y="1202.4951">has</text><text fill="#000000" font-family="sans-serif" font-size="13" lengthAdjust="spacing" textLength="7" x="1490.7758" y="1179.4569">1</text><text fill="#000000" font-family="sans-serif" font-size="13" lengthAdjust="spacing" textLength="7" x="1490.7211" y="1225.0114">1</text></g><!--link donationSystem to Donation--><g id="link_donationSystem_Donation"><path codeLine="185" d="M1443.56,528.38 C1449.45,530.96 1455.29,533.5 1461,536 C1540.52,570.74 1569.6,563.26 1640,614 C1650.8,621.78 1661.31,630.81 1671.27,640.35 " fill="none" id="donationSystem-Donation" style="stroke:#181818;stroke-width:1.0;"/><text fill="#000000" font-family="sans-serif" font-size="13" lengthAdjust="spacing" textLength="21" x="1589" y="580.4951">has</text><text fill="#000000" font-family="sans-serif" font-size="13" lengthAdjust="spacing" textLength="7" x="1451.5994" y="528.9121">1</text><text fill="#000000" font-family="sans-serif" font-size="13" lengthAdjust="spacing" textLength="20" x="1644.3587" y="629.6842">1..*</text></g><!--link assetAndLiabilitiesSystem to Asset--><g id="link_assetAndLiabilitiesSystem_Asset"><path codeLine="186" d="M234.58,536.18 C267.8,560.38 305.3,588.11 339,614 C350.06,622.5 361.51,631.44 372.91,640.45 " fill="none" id="assetAndLiabilitiesSystem-Asset" style="stroke:#181818;stroke-width:1.0;"/><text fill="#000000" font-family="sans-serif" font-size="13" lengthAdjust="spacing" textLength="21" x="297" y="580.4951">has</text><text fill="#000000" font-family="sans-serif" font-size="13" lengthAdjust="spacing" textLength="7" x="236.8695" y="557.5469">1</text><text fill="#000000" font-family="sans-serif" font-size="13" lengthAdjust="spacing" textLength="20" x="342.9419" y="629.7922">1..*</text></g><!--link assetAndLiabilitiesSystem to Liability--><g id="link_assetAndLiabilitiesSystem_Liability"><path codeLine="187" d="M148.86,536.21 C152.56,567.8 157.03,605.99 161.04,640.35 " fill="none" id="assetAndLiabilitiesSystem-Liability" style="stroke:#181818;stroke-width:1.0;"/><text fill="#000000" font-family="sans-serif" font-size="13" lengthAdjust="spacing" textLength="21" x="154" y="580.4951">has</text><text fill="#000000" font-family="sans-serif" font-size="13" lengthAdjust="spacing" textLength="7" x="142.3096" y="557.58">1</text><text fill="#000000" font-family="sans-serif" font-size="13" lengthAdjust="spacing" textLength="20" x="139.3697" y="629.6842">1..*</text></g><!--link feeFineSystem to Fee--><g id="link_feeFineSystem_Fee"><path codeLine="188" d="M910.64,847.4 C934.76,868.5 961.47,888.73 989,904 C1125.92,979.95 1306.63,1017.31 1411.81,1033.77 " fill="none" id="feeFineSystem-Fee" style="stroke:#181818;stroke-width:1.0;"/><text fill="#000000" font-family="sans-serif" font-size="13" lengthAdjust="spacing" textLength="28" x="990" y="900.4951">uses</text><text fill="#000000" font-family="sans-serif" font-size="13" lengthAdjust="spacing" textLength="7" x="910.1193" y="868.6165">1</text><text fill="#000000" font-family="sans-serif" font-size="13" lengthAdjust="spacing" textLength="20" x="1384.1449" y="1029.6633">1..*</text></g><!--link feeCollectionDateDesigningSystem to feeCollectionSystem--><g id="link_feeCollectionDateDesigningSystem_feeCollectionSystem"><path codeLine="189" d="M1740.61,518.71 C1776.03,545.69 1819.5,580.34 1856,614 C1873.81,630.42 1883.9494,640.4 1900.4894,658.11 " fill="none" id="feeCollectionDateDesigningSystem-to-feeCollectionSystem" style="stroke:#181818;stroke-width:1.0;"/><polygon fill="none" points="1908.68,666.88,1907.508,659.7648,1900.4894,658.11,1901.6613,665.2252,1908.68,666.88" style="stroke:#181818;stroke-width:1.0;"/><text fill="#000000" font-family="sans-serif" font-size="13" lengthAdjust="spacing" textLength="50" x="1818" y="580.4951">is part of</text><text fill="#000000" font-family="sans-serif" font-size="13" lengthAdjust="spacing" textLength="7" x="1741.8241" y="539.7609">1</text><text fill="#000000" font-family="sans-serif" font-size="13" lengthAdjust="spacing" textLength="7" x="1894.8091" y="656.0662">1</text></g><!--link feeClassificationSystem to Fee--><g id="link_feeClassificationSystem_Fee"><path codeLine="190" d="M2104.01,527.12 C2110.61,539.45 2116.45,552.76 2120,566 C2145.66,661.77 2417.44,456.52 2080,856 C1955.15,1003.81 1713.38,1036.97 1584.23,1043.79 " fill="none" id="feeClassificationSystem-Fee" style="stroke:#181818;stroke-width:1.0;"/><text fill="#000000" font-family="sans-serif" font-size="13" lengthAdjust="spacing" textLength="54" x="2248" y="740.4951">classifies</text><text fill="#000000" font-family="sans-serif" font-size="13" lengthAdjust="spacing" textLength="7" x="2101.4597" y="548.7901">1</text><text fill="#000000" font-family="sans-serif" font-size="13" lengthAdjust="spacing" textLength="7" x="1591.9412" y="1040.4188">1</text></g><!--link feeReportGenerationSystem to Fee--><g id="link_feeReportGenerationSystem_Fee"><path codeLine="191" d="M647.77,518.54 C667.03,524.49 686.45,530.43 705,536 C825.03,572.06 887.32,525.43 976,614 C1055.22,693.12 971.49,772.43 1046,856 C1142.23,963.93 1309.98,1011.86 1411.82,1031.88 " fill="none" id="feeReportGenerationSystem-Fee" style="stroke:#181818;stroke-width:1.0;"/><text fill="#000000" font-family="sans-serif" font-size="13" lengthAdjust="spacing" textLength="28" x="1047" y="740.4951">uses</text><text fill="#000000" font-family="sans-serif" font-size="13" lengthAdjust="spacing" textLength="7" x="661.3657" y="539.9366">1</text><text fill="#000000" font-family="sans-serif" font-size="13" lengthAdjust="spacing" textLength="20" x="1383.8551" y="1044.879">1..*</text></g><!--link feeReportGenerationSystem to feeFineSystem--><g id="link_feeReportGenerationSystem_feeFineSystem"><path codeLine="192" d="M549.88,518.53 C584.87,547.97 630.73,586.55 673.96,622.92 " fill="none" id="feeReportGenerationSystem-feeFineSystem" style="stroke:#181818;stroke-width:1.0;"/><text fill="#000000" font-family="sans-serif" font-size="13" lengthAdjust="spacing" textLength="28" x="621" y="580.4951">uses</text><text fill="#000000" font-family="sans-serif" font-size="13" lengthAdjust="spacing" textLength="7" x="550.3217" y="539.9253">1</text><text fill="#000000" font-family="sans-serif" font-size="13" lengthAdjust="spacing" textLength="7" x="657.4298" y="611.9811">1</text></g><!--link feeClassificationSystem to feeCollectionSystem--><g id="link_feeClassificationSystem_feeCollectionSystem"><path codeLine="193" d="M2042.93,527.16 C2028.03,568.29 2008.01,623.56 1992.41,666.62 " fill="none" id="feeClassificationSystem-feeCollectionSystem" style="stroke:#181818;stroke-width:1.0;"/><text fill="#000000" font-family="sans-serif" font-size="13" lengthAdjust="spacing" textLength="83" x="2028" y="580.4951">interfaces with</text><text fill="#000000" font-family="sans-serif" font-size="13" lengthAdjust="spacing" textLength="7" x="2032.9355" y="548.835">1</text><text fill="#000000" font-family="sans-serif" font-size="13" lengthAdjust="spacing" textLength="7" x="1987.5663" y="656.2541">1</text></g><!--link FinancePerson to expenseAndIncomesManagementSystem--><g id="link_FinancePerson_expenseAndIncomesManagementSystem"><path codeLine="195" d="M867,322.21 C867,344.93 867,373.8 867,399.78 " fill="none" id="FinancePerson-expenseAndIncomesManagementSystem" style="stroke:#181818;stroke-width:1.0;"/><text fill="#000000" font-family="sans-serif" font-size="13" lengthAdjust="spacing" textLength="53" x="868" y="366.4951">manages</text><text fill="#000000" font-family="sans-serif" font-size="13" lengthAdjust="spacing" textLength="20" x="845.4063" y="343.6382">1..*</text><text fill="#000000" font-family="sans-serif" font-size="13" lengthAdjust="spacing" textLength="7" x="859.6172" y="388.9552">1</text></g><!--link FinancePerson to feeReportGenerationSystem--><g id="link_FinancePerson_feeReportGenerationSystem"><path codeLine="196" d="M784.49,322.21 C727.63,350.26 651.75,387.7 591.38,417.48 " fill="none" id="FinancePerson-feeReportGenerationSystem" style="stroke:#181818;stroke-width:1.0;"/><text fill="#000000" font-family="sans-serif" font-size="13" lengthAdjust="spacing" textLength="53" x="724" y="366.4951">manages</text><text fill="#000000" font-family="sans-serif" font-size="13" lengthAdjust="spacing" textLength="20" x="753.7935" y="341.4605">1..*</text><text fill="#000000" font-family="sans-serif" font-size="13" lengthAdjust="spacing" textLength="7" x="598.0038" y="406.7825">1</text></g><!--link FinancePerson to feeCollectionSystem--><g id="link_FinancePerson_feeCollectionSystem"><path codeLine="197" d="M937.45,322.21 C968.57,342.68 1003.93,369.59 1030,400 C1074.25,451.61 1043.86,497.66 1100,536 C1134.87,559.81 1818.19,595.2 1856,614 C1880.75,626.31 1902.83,646.51 1920.7,666.87 " fill="none" id="FinancePerson-feeCollectionSystem" style="stroke:#181818;stroke-width:1.0;"/><text fill="#000000" font-family="sans-serif" font-size="13" lengthAdjust="spacing" textLength="53" x="1101" y="473.4951">manages</text><text fill="#000000" font-family="sans-serif" font-size="13" lengthAdjust="spacing" textLength="20" x="927.0842" y="343.6382">1..*</text><text fill="#000000" font-family="sans-serif" font-size="13" lengthAdjust="spacing" textLength="7" x="1908.1438" y="656.0551">1</text></g><!--link FinancePerson to assetAndLiabilitiesSystem--><g id="link_FinancePerson_assetAndLiabilitiesSystem"><path codeLine="198" d="M781.82,291.66 C665.67,307.07 452.12,341 278,400 C272.11,402 266.14,404.19 260.17,406.53 " fill="none" id="FinancePerson-assetAndLiabilitiesSystem" style="stroke:#181818;stroke-width:1.0;"/><text fill="#000000" font-family="sans-serif" font-size="13" lengthAdjust="spacing" textLength="53" x="437" y="366.4951">manages</text><text fill="#000000" font-family="sans-serif" font-size="13" lengthAdjust="spacing" textLength="20" x="753.9379" y="289.4223">1..*</text><text fill="#000000" font-family="sans-serif" font-size="13" lengthAdjust="spacing" textLength="7" x="268.0285" y="399.5845">1</text></g><!--link DonationHandler to donationSystem--><g id="link_DonationHandler_donationSystem"><path codeLine="199" d="M1143.3,322.21 C1169.14,344.93 1201.99,373.8 1231.54,399.78 " fill="none" id="DonationHandler-donationSystem" style="stroke:#181818;stroke-width:1.0;"/><text fill="#000000" font-family="sans-serif" font-size="13" lengthAdjust="spacing" textLength="45" x="1197" y="366.4951">handles</text><text fill="#000000" font-family="sans-serif" font-size="13" lengthAdjust="spacing" textLength="20" x="1129.0853" y="343.6382">1..*</text><text fill="#000000" font-family="sans-serif" font-size="13" lengthAdjust="spacing" textLength="7" x="1215.7944" y="388.9552">1</text></g><!--SRC=[nLZTJniv47ycVuN5IvS3Ajthgkg94j932ZtKSdVFPdUIM6piQEs4HYV-znj_sxiEuQfAXqI8v-Ct7nwFnsneyqING6QCKzx0dMYt7P1_9YTDHwKaCp2Baqko0BXjQyAuCakw5bkkQjAAxMC7XjHkOKeLr4H_6WgJzvIXqgCG7L1kQ0qobwBVrnhxsYqco3edIr0pRQKwytOCxSgOqiHWpD2drfvcE8ldpg8cHPldP4txfwl0sGdMJavU9acCtWyNg_Sn3TZJlj0rXYXLp_ZIXWsowTb6CS43tRju7O06CLqdQ9eLy6na4NB0R5QKBo7Jveb3YH4hcI8L7FNoCHcupTVw2rimZ1X5l-sbWdKi0cURWQp9d4dr8KdVHsEPjcr2gueR7hO1vNjOYnsKL5p-K-76EhT7yGgzCQ1dUIqDeX5T1usEH1S9veCjEKQUXTLaCXZO7Tryi1cwCBLb0vEuRvba5HKVzfkm2nUa3USWzNtvHlrGq0S2INm_rnpv8EwfpQyjTz727miahK4VKU3RDT8DQqDrvcHrbjJ8NIhkERePT0ajSmMR1UHE8E6hYNdH2QhSkLZGRQUWbyHLofyI5nyDKmb5kscGIFKCIrkGBc9e8ziNM51r_jeQ6bAt6xqHC-TSnU5vbZkQLHRjcctdv2lVtxoOTq2RQaJVQY6V7YjhMzq85ZVzOHnH5I5ZPbl1nqVE4_rncxfrE6kUK7b9h1xtRNpAHiA58zQX6IydjQC5kpwgJCwtvnYHPmzYIVigqaG_QggbwyKfPtUCRPS1Tj1bfnvxt68FNYg9bQfm4F4NbNaxP_IHTKnX7yoso_3zNbtfXItuBiexfaU8NTE8LmQX9cQHRWiA19NAm-qrcFjQBEOleFuMlLgLzySOIJtFhdXD6E-Cflv5koqagGjPjHZ32zm35ROXe0ssmhQcgFdgBPUWx5BFnjTRI9OBEkGn3JmGHy47pbLUdpwSUOGRv62UOexpCC-1Yyd88LvDo10kFqx5M_yhRB1EFWE7Vjo4bfOChPNo9MnNkdxVVLk9RTSIjGBiD4Q6B0NsSaF1BamVgOGB8deYW-GUHQKYpqojZ9Wq9d-hoJNbw2hIg29C8H183zNG1ZyfRmdieDyhjWP37tg8ao06kHDFq5veZ0KeL9J17Pq1ZOXYEzfZkZfuvxVH8iryJYgfQAzYsxd06xMT5c_u7OFdpmDFGWSDsOfvX-yRu1AmdzpoHgn1tb6EqxY-LRByEpcVznkxj9s5MKt7iZYXfJZ9oW7Kn146ZSLgLHQg9dPPx2UVQAT7Wt8xSU2vqyTU3ONnET5Ekhq_ApSUzwtlX8FJT0GRFIIe7YFAfoVoZqtNYQJ6jrEX_im6AfjjbpIx1J-OCwjSIDcjG_qP6RiDHlwlXEav4jD5t0_EUKYudThG8ZNja0dvaOduJejaspWFjTR4bfafFp5H9K29r8i5TKzB-wg-nn4NXo3uhh1p5FodxPfn7y38bXQVkWwAWwqr4ctuYULtR8eT0lzCAvEJuntgzDTJ8YulyU_xzx-SkcgkyKt55MLS_W34ZMzM4QFq_j5QKMcc7uDO22Yi_saH8K_Jns5DLXGb1fDsZZGDSxIHFJpnvMfNTcxxJphpECOPlVnjTJ30eyzQgodCtqBgQdqxRl1I8s9XqKfF_c3UsNPFR-OyE30mlERqCPNJ_76PXdl4mNAG71l9WZPuxUiP0wivFu_EHmTnj4nhiZOK-JhEmJZVhZyEvKsQ1wikqHzsYnmXFnUwABMKdBnC_WK0]--></g></svg>