<?xml version="1.0" encoding="us-ascii" standalone="no"?><svg xmlns="http://www.w3.org/2000/svg" xmlns:xlink="http://www.w3.org/1999/xlink" contentStyleType="text/css" height="1374px" preserveAspectRatio="none" style="width:1022px;height:1374px;background:#FFFFFF;" version="1.1" viewBox="0 0 1022 1374" width="1022px" zoomAndPan="magnify"><defs/><g><!--cluster AttendanceModule--><g id="cluster_AttendanceModule"><path d="M106.54,6 L240.54,6 A3.75,3.75 0 0 1 243.04,8.5 L250.04,29.6094 L972.54,29.6094 A2.5,2.5 0 0 1 975.04,32.1094 L975.04,1364.5 A2.5,2.5 0 0 1 972.54,1367 L106.54,1367 A2.5,2.5 0 0 1 104.04,1364.5 L104.04,8.5 A2.5,2.5 0 0 1 106.54,6 " fill="none" style="stroke:#000000;stroke-width:1.5;"/><line style="stroke:#000000;stroke-width:1.5;" x1="104.04" x2="250.04" y1="29.6094" y2="29.6094"/><text fill="#000000" font-family="sans-serif" font-size="14" font-weight="bold" lengthAdjust="spacing" textLength="133" x="108.04" y="22.5332">AttendanceModule</text></g><!--class Admin--><g id="elem_Admin"><rect codeLine="3" fill="#F1F1F1" height="136.0469" id="Admin" rx="2.5" ry="2.5" style="stroke:#181818;stroke-width:0.5;" width="308" x="173.04" y="42"/><ellipse cx="303.29" cy="58" fill="#ADD1B2" rx="11" ry="11" style="stroke:#181818;stroke-width:1.0;"/><path d="M306.0556,53.875 Q306.2119,53.6563 306.3994,53.5469 Q306.5869,53.4375 306.8056,53.4375 Q307.1806,53.4375 307.415,53.6953 Q307.6494,53.9531 307.6494,54.5625 L307.6494,56.0156 Q307.6494,56.625 307.415,56.8906 Q307.1806,57.1563 306.8056,57.1563 Q306.4619,57.1563 306.2588,56.9531 Q306.0556,56.7656 305.9463,56.25 Q305.8994,55.8906 305.7119,55.7031 Q305.3838,55.3281 304.7744,55.1094 Q304.165,54.8906 303.54,54.8906 Q302.7744,54.8906 302.1416,55.2188 Q301.5088,55.5469 301.0166,56.2969 Q300.5244,57.0469 300.5244,58.0781 L300.5244,59.1719 Q300.5244,60.4063 301.415,61.2266 Q302.3056,62.0469 303.8994,62.0469 Q304.8369,62.0469 305.4931,61.7969 Q305.8838,61.6406 306.3056,61.2031 Q306.5713,60.9375 306.7197,60.8594 Q306.8681,60.7813 307.0713,60.7813 Q307.3994,60.7813 307.6572,61.0391 Q307.915,61.2969 307.915,61.6406 Q307.915,61.9844 307.5713,62.3906 Q307.0713,62.9688 306.2744,63.2969 Q305.1963,63.75 303.8994,63.75 Q302.3838,63.75 301.1806,63.125 Q300.1963,62.625 299.5088,61.5547 Q298.8213,60.4844 298.8213,59.2031 L298.8213,58.0469 Q298.8213,56.7188 299.4384,55.5703 Q300.0556,54.4219 301.1494,53.8047 Q302.2431,53.1875 303.4775,53.1875 Q304.2119,53.1875 304.8603,53.3516 Q305.5088,53.5156 306.0556,53.875 Z " fill="#000000"/><text fill="#000000" font-family="sans-serif" font-size="14" lengthAdjust="spacing" textLength="39" x="323.79" y="63.7285">Admin</text><line style="stroke:#181818;stroke-width:0.5;" x1="174.04" x2="480.04" y1="74" y2="74"/><rect fill="none" height="6" style="stroke:#C82930;stroke-width:1.0;" width="6" x="181.04" y="85.3047"/><text fill="#000000" font-family="sans-serif" font-size="14" lengthAdjust="spacing" textLength="74" x="193.04" y="92.5332">adminID: int</text><rect fill="none" height="6" style="stroke:#C82930;stroke-width:1.0;" width="6" x="181.04" y="102.9141"/><text fill="#000000" font-family="sans-serif" font-size="14" lengthAdjust="spacing" textLength="282" x="193.04" y="110.1426">attendanceReports: List&lt;AttendanceReport&gt;</text><line style="stroke:#181818;stroke-width:0.5;" x1="174.04" x2="480.04" y1="117.2188" y2="117.2188"/><ellipse cx="184.04" cy="131.5234" fill="#84BE84" rx="3" ry="3" style="stroke:#038048;stroke-width:1.0;"/><text fill="#000000" font-family="sans-serif" font-size="14" lengthAdjust="spacing" textLength="136" x="193.04" y="135.752">viewAllReports(): void</text><ellipse cx="184.04" cy="149.1328" fill="#84BE84" rx="3" ry="3" style="stroke:#038048;stroke-width:1.0;"/><text fill="#000000" font-family="sans-serif" font-size="14" lengthAdjust="spacing" textLength="177" x="193.04" y="153.3613">applyFilter(filter: Filter): void</text><ellipse cx="184.04" cy="166.7422" fill="#84BE84" rx="3" ry="3" style="stroke:#038048;stroke-width:1.0;"/><text fill="#000000" font-family="sans-serif" font-size="14" lengthAdjust="spacing" textLength="93" x="193.04" y="170.9707">createReport()</text></g><!--class AttendanceUpdateSystem--><g id="elem_AttendanceUpdateSystem"><rect codeLine="10" fill="#F1F1F1" height="171.2656" id="AttendanceUpdateSystem" rx="2.5" ry="2.5" style="stroke:#181818;stroke-width:0.5;" width="426" x="120.04" y="1162.5"/><ellipse cx="247.29" cy="1178.5" fill="#ADD1B2" rx="11" ry="11" style="stroke:#181818;stroke-width:1.0;"/><path d="M250.0556,1174.375 Q250.2119,1174.1563 250.3994,1174.0469 Q250.5869,1173.9375 250.8056,1173.9375 Q251.1806,1173.9375 251.415,1174.1953 Q251.6494,1174.4531 251.6494,1175.0625 L251.6494,1176.5156 Q251.6494,1177.125 251.415,1177.3906 Q251.1806,1177.6563 250.8056,1177.6563 Q250.4619,1177.6563 250.2588,1177.4531 Q250.0556,1177.2656 249.9463,1176.75 Q249.8994,1176.3906 249.7119,1176.2031 Q249.3838,1175.8281 248.7744,1175.6094 Q248.165,1175.3906 247.54,1175.3906 Q246.7744,1175.3906 246.1416,1175.7188 Q245.5088,1176.0469 245.0166,1176.7969 Q244.5244,1177.5469 244.5244,1178.5781 L244.5244,1179.6719 Q244.5244,1180.9063 245.415,1181.7266 Q246.3056,1182.5469 247.8994,1182.5469 Q248.8369,1182.5469 249.4931,1182.2969 Q249.8838,1182.1406 250.3056,1181.7031 Q250.5713,1181.4375 250.7197,1181.3594 Q250.8681,1181.2813 251.0713,1181.2813 Q251.3994,1181.2813 251.6572,1181.5391 Q251.915,1181.7969 251.915,1182.1406 Q251.915,1182.4844 251.5713,1182.8906 Q251.0713,1183.4688 250.2744,1183.7969 Q249.1963,1184.25 247.8994,1184.25 Q246.3838,1184.25 245.1806,1183.625 Q244.1963,1183.125 243.5088,1182.0547 Q242.8213,1180.9844 242.8213,1179.7031 L242.8213,1178.5469 Q242.8213,1177.2188 243.4384,1176.0703 Q244.0556,1174.9219 245.1494,1174.3047 Q246.2431,1173.6875 247.4775,1173.6875 Q248.2119,1173.6875 248.8603,1173.8516 Q249.5088,1174.0156 250.0556,1174.375 Z " fill="#000000"/><text fill="#000000" font-family="sans-serif" font-size="14" lengthAdjust="spacing" textLength="163" x="267.79" y="1184.2285">AttendanceUpdateSystem</text><line style="stroke:#181818;stroke-width:0.5;" x1="121.04" x2="545.04" y1="1194.5" y2="1194.5"/><ellipse cx="131.04" cy="1208.8047" fill="none" rx="3" ry="3" style="stroke:#038048;stroke-width:1.0;"/><text fill="#000000" font-family="sans-serif" font-size="14" lengthAdjust="spacing" textLength="66" x="140.04" y="1213.0332">date: Date</text><ellipse cx="131.04" cy="1226.4141" fill="none" rx="3" ry="3" style="stroke:#038048;stroke-width:1.0;"/><text fill="#000000" font-family="sans-serif" font-size="14" lengthAdjust="spacing" textLength="74" x="140.04" y="1230.6426">class_id: int</text><ellipse cx="131.04" cy="1244.0234" fill="none" rx="3" ry="3" style="stroke:#038048;stroke-width:1.0;"/><text fill="#000000" font-family="sans-serif" font-size="14" lengthAdjust="spacing" textLength="400" x="140.04" y="1248.252">attendance_status_list: List&lt;user_id: int, present_absent: bool&gt;</text><ellipse cx="131.04" cy="1261.6328" fill="none" rx="3" ry="3" style="stroke:#038048;stroke-width:1.0;"/><text fill="#000000" font-family="sans-serif" font-size="14" lengthAdjust="spacing" textLength="132" x="140.04" y="1265.8613">note_remarks: String</text><ellipse cx="131.04" cy="1279.2422" fill="none" rx="3" ry="3" style="stroke:#038048;stroke-width:1.0;"/><text fill="#000000" font-family="sans-serif" font-size="14" lengthAdjust="spacing" textLength="229" x="140.04" y="1283.4707">convertedReport: AttendanceReport</text><line style="stroke:#181818;stroke-width:0.5;" x1="121.04" x2="545.04" y1="1290.5469" y2="1290.5469"/><ellipse cx="131.04" cy="1304.8516" fill="#84BE84" rx="3" ry="3" style="stroke:#038048;stroke-width:1.0;"/><text fill="#000000" font-family="sans-serif" font-size="14" lengthAdjust="spacing" textLength="376" x="140.04" y="1309.0801">mark_attendance(date, id, attendance_status_list, remarks)</text><ellipse cx="131.04" cy="1322.4609" fill="#84BE84" rx="3" ry="3" style="stroke:#038048;stroke-width:1.0;"/><text fill="#000000" font-family="sans-serif" font-size="14" lengthAdjust="spacing" textLength="219" x="140.04" y="1326.6895">update_remarks(date, id, remarks)</text></g><!--class StandardiseReportConvertor--><g id="elem_StandardiseReportConvertor"><rect codeLine="20" fill="#F1F1F1" height="136.0469" id="StandardiseReportConvertor" rx="2.5" ry="2.5" style="stroke:#181818;stroke-width:0.5;" width="336" x="420.04" y="558"/><ellipse cx="492.79" cy="574" fill="#ADD1B2" rx="11" ry="11" style="stroke:#181818;stroke-width:1.0;"/><path d="M495.5556,569.875 Q495.7119,569.6563 495.8994,569.5469 Q496.0869,569.4375 496.3056,569.4375 Q496.6806,569.4375 496.915,569.6953 Q497.1494,569.9531 497.1494,570.5625 L497.1494,572.0156 Q497.1494,572.625 496.915,572.8906 Q496.6806,573.1563 496.3056,573.1563 Q495.9619,573.1563 495.7588,572.9531 Q495.5556,572.7656 495.4463,572.25 Q495.3994,571.8906 495.2119,571.7031 Q494.8838,571.3281 494.2744,571.1094 Q493.665,570.8906 493.04,570.8906 Q492.2744,570.8906 491.6416,571.2188 Q491.0088,571.5469 490.5166,572.2969 Q490.0244,573.0469 490.0244,574.0781 L490.0244,575.1719 Q490.0244,576.4063 490.915,577.2266 Q491.8056,578.0469 493.3994,578.0469 Q494.3369,578.0469 494.9931,577.7969 Q495.3838,577.6406 495.8056,577.2031 Q496.0713,576.9375 496.2197,576.8594 Q496.3681,576.7813 496.5713,576.7813 Q496.8994,576.7813 497.1572,577.0391 Q497.415,577.2969 497.415,577.6406 Q497.415,577.9844 497.0713,578.3906 Q496.5713,578.9688 495.7744,579.2969 Q494.6963,579.75 493.3994,579.75 Q491.8838,579.75 490.6806,579.125 Q489.6963,578.625 489.0088,577.5547 Q488.3213,576.4844 488.3213,575.2031 L488.3213,574.0469 Q488.3213,572.7188 488.9384,571.5703 Q489.5556,570.4219 490.6494,569.8047 Q491.7431,569.1875 492.9775,569.1875 Q493.7119,569.1875 494.3603,569.3516 Q495.0088,569.5156 495.5556,569.875 Z " fill="#000000"/><text fill="#000000" font-family="sans-serif" font-size="14" lengthAdjust="spacing" textLength="182" x="513.29" y="579.7285">StandardiseReportConvertor</text><line style="stroke:#181818;stroke-width:0.5;" x1="421.04" x2="755.04" y1="590" y2="590"/><ellipse cx="431.04" cy="604.3047" fill="none" rx="3" ry="3" style="stroke:#038048;stroke-width:1.0;"/><text fill="#000000" font-family="sans-serif" font-size="14" lengthAdjust="spacing" textLength="116" x="440.04" y="608.5332">report_type: enum</text><ellipse cx="431.04" cy="621.9141" fill="none" rx="3" ry="3" style="stroke:#038048;stroke-width:1.0;"/><text fill="#000000" font-family="sans-serif" font-size="14" lengthAdjust="spacing" textLength="185" x="440.04" y="626.1426">originalReport: SourceReport</text><ellipse cx="431.04" cy="639.5234" fill="none" rx="3" ry="3" style="stroke:#038048;stroke-width:1.0;"/><text fill="#000000" font-family="sans-serif" font-size="14" lengthAdjust="spacing" textLength="232" x="440.04" y="643.752">converted_report: AttendanceReport</text><line style="stroke:#181818;stroke-width:0.5;" x1="421.04" x2="755.04" y1="650.8281" y2="650.8281"/><ellipse cx="431.04" cy="665.1328" fill="#84BE84" rx="3" ry="3" style="stroke:#038048;stroke-width:1.0;"/><text fill="#000000" font-family="sans-serif" font-size="14" lengthAdjust="spacing" textLength="310" x="440.04" y="669.3613">convert_report(report_type, conversion_settings)</text><ellipse cx="431.04" cy="682.7422" fill="#84BE84" rx="3" ry="3" style="stroke:#038048;stroke-width:1.0;"/><text fill="#000000" font-family="sans-serif" font-size="14" lengthAdjust="spacing" textLength="266" x="440.04" y="686.9707">save_converted_report(converted_report)</text></g><!--class AttendanceReport--><g id="elem_AttendanceReport"><rect codeLine="28" fill="#F1F1F1" height="294.5313" id="AttendanceReport" rx="2.5" ry="2.5" style="stroke:#181818;stroke-width:0.5;" width="426" x="209.04" y="772"/><ellipse cx="360.29" cy="788" fill="#ADD1B2" rx="11" ry="11" style="stroke:#181818;stroke-width:1.0;"/><path d="M363.0556,783.875 Q363.2119,783.6563 363.3994,783.5469 Q363.5869,783.4375 363.8056,783.4375 Q364.1806,783.4375 364.415,783.6953 Q364.6494,783.9531 364.6494,784.5625 L364.6494,786.0156 Q364.6494,786.625 364.415,786.8906 Q364.1806,787.1563 363.8056,787.1563 Q363.4619,787.1563 363.2588,786.9531 Q363.0556,786.7656 362.9463,786.25 Q362.8994,785.8906 362.7119,785.7031 Q362.3838,785.3281 361.7744,785.1094 Q361.165,784.8906 360.54,784.8906 Q359.7744,784.8906 359.1416,785.2188 Q358.5088,785.5469 358.0166,786.2969 Q357.5244,787.0469 357.5244,788.0781 L357.5244,789.1719 Q357.5244,790.4063 358.415,791.2266 Q359.3056,792.0469 360.8994,792.0469 Q361.8369,792.0469 362.4931,791.7969 Q362.8838,791.6406 363.3056,791.2031 Q363.5713,790.9375 363.7197,790.8594 Q363.8681,790.7813 364.0713,790.7813 Q364.3994,790.7813 364.6572,791.0391 Q364.915,791.2969 364.915,791.6406 Q364.915,791.9844 364.5713,792.3906 Q364.0713,792.9688 363.2744,793.2969 Q362.1963,793.75 360.8994,793.75 Q359.3838,793.75 358.1806,793.125 Q357.1963,792.625 356.5088,791.5547 Q355.8213,790.4844 355.8213,789.2031 L355.8213,788.0469 Q355.8213,786.7188 356.4384,785.5703 Q357.0556,784.4219 358.1494,783.8047 Q359.2431,783.1875 360.4775,783.1875 Q361.2119,783.1875 361.8603,783.3516 Q362.5088,783.5156 363.0556,783.875 Z " fill="#000000"/><text fill="#000000" font-family="sans-serif" font-size="14" lengthAdjust="spacing" textLength="115" x="380.79" y="793.7285">AttendanceReport</text><line style="stroke:#181818;stroke-width:0.5;" x1="210.04" x2="634.04" y1="804" y2="804"/><ellipse cx="220.04" cy="818.3047" fill="none" rx="3" ry="3" style="stroke:#038048;stroke-width:1.0;"/><text fill="#000000" font-family="sans-serif" font-size="14" lengthAdjust="spacing" textLength="34" x="229.04" y="822.5332">id: int</text><ellipse cx="220.04" cy="835.9141" fill="none" rx="3" ry="3" style="stroke:#038048;stroke-width:1.0;"/><text fill="#000000" font-family="sans-serif" font-size="14" lengthAdjust="spacing" textLength="116" x="229.04" y="840.1426">report_type: enum</text><ellipse cx="220.04" cy="853.5234" fill="none" rx="3" ry="3" style="stroke:#038048;stroke-width:1.0;"/><text fill="#000000" font-family="sans-serif" font-size="14" lengthAdjust="spacing" textLength="78" x="229.04" y="857.752">name: string</text><ellipse cx="220.04" cy="871.1328" fill="none" rx="3" ry="3" style="stroke:#038048;stroke-width:1.0;"/><text fill="#000000" font-family="sans-serif" font-size="14" lengthAdjust="spacing" textLength="165" x="229.04" y="875.3613">sourceReportName: string</text><ellipse cx="220.04" cy="888.7422" fill="none" rx="3" ry="3" style="stroke:#038048;stroke-width:1.0;"/><text fill="#000000" font-family="sans-serif" font-size="14" lengthAdjust="spacing" textLength="133" x="229.04" y="892.9707">dateOfCreation: date</text><ellipse cx="220.04" cy="906.3516" fill="none" rx="3" ry="3" style="stroke:#038048;stroke-width:1.0;"/><text fill="#000000" font-family="sans-serif" font-size="14" lengthAdjust="spacing" textLength="94" x="229.04" y="910.5801">remarks: string</text><ellipse cx="220.04" cy="923.9609" fill="none" rx="3" ry="3" style="stroke:#038048;stroke-width:1.0;"/><text fill="#000000" font-family="sans-serif" font-size="14" lengthAdjust="spacing" textLength="400" x="229.04" y="928.1895">attendance_status_list: List&lt;user_id: int, present_absent: bool&gt;</text><line style="stroke:#181818;stroke-width:0.5;" x1="210.04" x2="634.04" y1="935.2656" y2="935.2656"/><ellipse cx="220.04" cy="949.5703" fill="#84BE84" rx="3" ry="3" style="stroke:#038048;stroke-width:1.0;"/><text fill="#000000" font-family="sans-serif" font-size="14" lengthAdjust="spacing" textLength="96" x="229.04" y="953.7988">CreateReport()</text><ellipse cx="220.04" cy="967.1797" fill="#84BE84" rx="3" ry="3" style="stroke:#038048;stroke-width:1.0;"/><text fill="#000000" font-family="sans-serif" font-size="14" lengthAdjust="spacing" textLength="86" x="229.04" y="971.4082">SendReport()</text><ellipse cx="220.04" cy="984.7891" fill="#84BE84" rx="3" ry="3" style="stroke:#038048;stroke-width:1.0;"/><text fill="#000000" font-family="sans-serif" font-size="14" lengthAdjust="spacing" textLength="202" x="229.04" y="989.0176">updateName(name: string): void</text><rect fill="#F24D5C" height="6" style="stroke:#C82930;stroke-width:1.0;" width="6" x="217.04" y="999.3984"/><text fill="#000000" font-family="sans-serif" font-size="14" lengthAdjust="spacing" textLength="290" x="229.04" y="1006.627">updateSourceReportName(name: string): void</text><ellipse cx="220.04" cy="1020.0078" fill="#84BE84" rx="3" ry="3" style="stroke:#038048;stroke-width:1.0;"/><text fill="#000000" font-family="sans-serif" font-size="14" lengthAdjust="spacing" textLength="320" x="229.04" y="1024.2363">updateDateOfCreation(dateOfCreation: date): void</text><ellipse cx="220.04" cy="1037.6172" fill="#84BE84" rx="3" ry="3" style="stroke:#038048;stroke-width:1.0;"/><text fill="#000000" font-family="sans-serif" font-size="14" lengthAdjust="spacing" textLength="233" x="229.04" y="1041.8457">updateRemaks(remarks: string): void</text><ellipse cx="220.04" cy="1055.2266" fill="#84BE84" rx="3" ry="3" style="stroke:#038048;stroke-width:1.0;"/><text fill="#000000" font-family="sans-serif" font-size="14" lengthAdjust="spacing" textLength="384" x="229.04" y="1059.4551">alterAttendanceStatusList(user_id: int, present_absent: bool)</text></g><!--class ReportFilteringSystem--><g id="elem_ReportFilteringSystem"><rect codeLine="46" fill="#F1F1F1" height="153.6563" id="ReportFilteringSystem" rx="2.5" ry="2.5" style="stroke:#181818;stroke-width:0.5;" width="252" x="670.04" y="842.5"/><ellipse cx="721.79" cy="858.5" fill="#ADD1B2" rx="11" ry="11" style="stroke:#181818;stroke-width:1.0;"/><path d="M724.5556,854.375 Q724.7119,854.1563 724.8994,854.0469 Q725.0869,853.9375 725.3056,853.9375 Q725.6806,853.9375 725.915,854.1953 Q726.1494,854.4531 726.1494,855.0625 L726.1494,856.5156 Q726.1494,857.125 725.915,857.3906 Q725.6806,857.6563 725.3056,857.6563 Q724.9619,857.6563 724.7588,857.4531 Q724.5556,857.2656 724.4463,856.75 Q724.3994,856.3906 724.2119,856.2031 Q723.8838,855.8281 723.2744,855.6094 Q722.665,855.3906 722.04,855.3906 Q721.2744,855.3906 720.6416,855.7188 Q720.0088,856.0469 719.5166,856.7969 Q719.0244,857.5469 719.0244,858.5781 L719.0244,859.6719 Q719.0244,860.9063 719.915,861.7266 Q720.8056,862.5469 722.3994,862.5469 Q723.3369,862.5469 723.9931,862.2969 Q724.3838,862.1406 724.8056,861.7031 Q725.0713,861.4375 725.2197,861.3594 Q725.3681,861.2813 725.5713,861.2813 Q725.8994,861.2813 726.1572,861.5391 Q726.415,861.7969 726.415,862.1406 Q726.415,862.4844 726.0713,862.8906 Q725.5713,863.4688 724.7744,863.7969 Q723.6963,864.25 722.3994,864.25 Q720.8838,864.25 719.6806,863.625 Q718.6963,863.125 718.0088,862.0547 Q717.3213,860.9844 717.3213,859.7031 L717.3213,858.5469 Q717.3213,857.2188 717.9384,856.0703 Q718.5556,854.9219 719.6494,854.3047 Q720.7431,853.6875 721.9775,853.6875 Q722.7119,853.6875 723.3603,853.8516 Q724.0088,854.0156 724.5556,854.375 Z " fill="#000000"/><text fill="#000000" font-family="sans-serif" font-size="14" lengthAdjust="spacing" textLength="140" x="742.29" y="864.2285">ReportFilteringSystem</text><line style="stroke:#181818;stroke-width:0.5;" x1="671.04" x2="921.04" y1="874.5" y2="874.5"/><ellipse cx="681.04" cy="888.8047" fill="none" rx="3" ry="3" style="stroke:#038048;stroke-width:1.0;"/><text fill="#000000" font-family="sans-serif" font-size="14" lengthAdjust="spacing" textLength="118" x="690.04" y="893.0332">report_type: String</text><ellipse cx="681.04" cy="906.4141" fill="none" rx="3" ry="3" style="stroke:#038048;stroke-width:1.0;"/><text fill="#000000" font-family="sans-serif" font-size="14" lengthAdjust="spacing" textLength="77" x="690.04" y="910.6426">filters: enum</text><ellipse cx="681.04" cy="924.0234" fill="none" rx="3" ry="3" style="stroke:#038048;stroke-width:1.0;"/><text fill="#000000" font-family="sans-serif" font-size="14" lengthAdjust="spacing" textLength="134" x="690.04" y="928.252">filtered_report: String</text><line style="stroke:#181818;stroke-width:0.5;" x1="671.04" x2="921.04" y1="935.3281" y2="935.3281"/><ellipse cx="681.04" cy="949.6328" fill="#84BE84" rx="3" ry="3" style="stroke:#038048;stroke-width:1.0;"/><text fill="#000000" font-family="sans-serif" font-size="14" lengthAdjust="spacing" textLength="170" x="690.04" y="953.8613">addFilter(filter: enum): void</text><ellipse cx="681.04" cy="967.2422" fill="#84BE84" rx="3" ry="3" style="stroke:#038048;stroke-width:1.0;"/><text fill="#000000" font-family="sans-serif" font-size="14" lengthAdjust="spacing" textLength="201" x="690.04" y="971.4707">apply_filters(report_type, filters)</text><ellipse cx="681.04" cy="984.8516" fill="#84BE84" rx="3" ry="3" style="stroke:#038048;stroke-width:1.0;"/><text fill="#000000" font-family="sans-serif" font-size="14" lengthAdjust="spacing" textLength="226" x="690.04" y="989.0801">save_filtered_report(filtered_report)</text></g><!--class SourceReport--><g id="elem_SourceReport"><rect codeLine="56" fill="#F1F1F1" height="224.0938" id="SourceReport" rx="2.5" ry="2.5" style="stroke:#181818;stroke-width:0.5;" width="466" x="363.04" y="256"/><ellipse cx="547.79" cy="272" fill="#ADD1B2" rx="11" ry="11" style="stroke:#181818;stroke-width:1.0;"/><path d="M550.5556,267.875 Q550.7119,267.6563 550.8994,267.5469 Q551.0869,267.4375 551.3056,267.4375 Q551.6806,267.4375 551.915,267.6953 Q552.1494,267.9531 552.1494,268.5625 L552.1494,270.0156 Q552.1494,270.625 551.915,270.8906 Q551.6806,271.1563 551.3056,271.1563 Q550.9619,271.1563 550.7588,270.9531 Q550.5556,270.7656 550.4463,270.25 Q550.3994,269.8906 550.2119,269.7031 Q549.8838,269.3281 549.2744,269.1094 Q548.665,268.8906 548.04,268.8906 Q547.2744,268.8906 546.6416,269.2188 Q546.0088,269.5469 545.5166,270.2969 Q545.0244,271.0469 545.0244,272.0781 L545.0244,273.1719 Q545.0244,274.4063 545.915,275.2266 Q546.8056,276.0469 548.3994,276.0469 Q549.3369,276.0469 549.9931,275.7969 Q550.3838,275.6406 550.8056,275.2031 Q551.0713,274.9375 551.2197,274.8594 Q551.3681,274.7813 551.5713,274.7813 Q551.8994,274.7813 552.1572,275.0391 Q552.415,275.2969 552.415,275.6406 Q552.415,275.9844 552.0713,276.3906 Q551.5713,276.9688 550.7744,277.2969 Q549.6963,277.75 548.3994,277.75 Q546.8838,277.75 545.6806,277.125 Q544.6963,276.625 544.0088,275.5547 Q543.3213,274.4844 543.3213,273.2031 L543.3213,272.0469 Q543.3213,270.7188 543.9384,269.5703 Q544.5556,268.4219 545.6494,267.8047 Q546.7431,267.1875 547.9775,267.1875 Q548.7119,267.1875 549.3603,267.3516 Q550.0088,267.5156 550.5556,267.875 Z " fill="#000000"/><text fill="#000000" font-family="sans-serif" font-size="14" lengthAdjust="spacing" textLength="88" x="568.29" y="277.7285">SourceReport</text><line style="stroke:#181818;stroke-width:0.5;" x1="364.04" x2="828.04" y1="288" y2="288"/><ellipse cx="374.04" cy="302.3047" fill="none" rx="3" ry="3" style="stroke:#038048;stroke-width:1.0;"/><text fill="#000000" font-family="sans-serif" font-size="14" lengthAdjust="spacing" textLength="34" x="383.04" y="306.5332">id: int</text><ellipse cx="374.04" cy="319.9141" fill="none" rx="3" ry="3" style="stroke:#038048;stroke-width:1.0;"/><text fill="#000000" font-family="sans-serif" font-size="14" lengthAdjust="spacing" textLength="78" x="383.04" y="324.1426">name: string</text><ellipse cx="374.04" cy="337.5234" fill="none" rx="3" ry="3" style="stroke:#038048;stroke-width:1.0;"/><text fill="#000000" font-family="sans-serif" font-size="14" lengthAdjust="spacing" textLength="74" x="383.04" y="341.752">content: bin</text><ellipse cx="374.04" cy="355.1328" fill="none" rx="3" ry="3" style="stroke:#038048;stroke-width:1.0;"/><text fill="#000000" font-family="sans-serif" font-size="14" lengthAdjust="spacing" textLength="113" x="383.04" y="359.3613">reportType: enum</text><ellipse cx="374.04" cy="372.7422" fill="none" rx="3" ry="3" style="stroke:#038048;stroke-width:1.0;"/><text fill="#000000" font-family="sans-serif" font-size="14" lengthAdjust="spacing" textLength="133" x="383.04" y="376.9707">dateOfCreation: date</text><line style="stroke:#181818;stroke-width:0.5;" x1="364.04" x2="828.04" y1="384.0469" y2="384.0469"/><ellipse cx="374.04" cy="398.3516" fill="#84BE84" rx="3" ry="3" style="stroke:#038048;stroke-width:1.0;"/><text fill="#000000" font-family="sans-serif" font-size="14" lengthAdjust="spacing" textLength="96" x="383.04" y="402.5801">CreateReport()</text><ellipse cx="374.04" cy="415.9609" fill="#84BE84" rx="3" ry="3" style="stroke:#038048;stroke-width:1.0;"/><text fill="#000000" font-family="sans-serif" font-size="14" lengthAdjust="spacing" textLength="86" x="383.04" y="420.1895">SendReport()</text><ellipse cx="374.04" cy="433.5703" fill="#84BE84" rx="3" ry="3" style="stroke:#038048;stroke-width:1.0;"/><text fill="#000000" font-family="sans-serif" font-size="14" lengthAdjust="spacing" textLength="279" x="383.04" y="437.7988">updateSourceReportName(name: string): int</text><ellipse cx="374.04" cy="451.1797" fill="#84BE84" rx="3" ry="3" style="stroke:#038048;stroke-width:1.0;"/><text fill="#000000" font-family="sans-serif" font-size="14" lengthAdjust="spacing" textLength="353" x="383.04" y="455.4082">updateSourceReportReportType(reportType: enum): int</text><ellipse cx="374.04" cy="468.7891" fill="#84BE84" rx="3" ry="3" style="stroke:#038048;stroke-width:1.0;"/><text fill="#000000" font-family="sans-serif" font-size="14" lengthAdjust="spacing" textLength="440" x="383.04" y="473.0176">updateSourceReportReportDateOfCreation(dateOfCreation: date): int</text></g><!--class ReportDatabase--><g id="elem_ReportDatabase"><rect codeLine="70" fill="#F1F1F1" height="206.4844" id="ReportDatabase" rx="2.5" ry="2.5" style="stroke:#181818;stroke-width:0.5;" width="377" x="581.54" y="1145"/><ellipse cx="713.79" cy="1161" fill="#ADD1B2" rx="11" ry="11" style="stroke:#181818;stroke-width:1.0;"/><path d="M716.5556,1156.875 Q716.7119,1156.6563 716.8994,1156.5469 Q717.0869,1156.4375 717.3056,1156.4375 Q717.6806,1156.4375 717.915,1156.6953 Q718.1494,1156.9531 718.1494,1157.5625 L718.1494,1159.0156 Q718.1494,1159.625 717.915,1159.8906 Q717.6806,1160.1563 717.3056,1160.1563 Q716.9619,1160.1563 716.7588,1159.9531 Q716.5556,1159.7656 716.4463,1159.25 Q716.3994,1158.8906 716.2119,1158.7031 Q715.8838,1158.3281 715.2744,1158.1094 Q714.665,1157.8906 714.04,1157.8906 Q713.2744,1157.8906 712.6416,1158.2188 Q712.0088,1158.5469 711.5166,1159.2969 Q711.0244,1160.0469 711.0244,1161.0781 L711.0244,1162.1719 Q711.0244,1163.4063 711.915,1164.2266 Q712.8056,1165.0469 714.3994,1165.0469 Q715.3369,1165.0469 715.9931,1164.7969 Q716.3838,1164.6406 716.8056,1164.2031 Q717.0713,1163.9375 717.2197,1163.8594 Q717.3681,1163.7813 717.5713,1163.7813 Q717.8994,1163.7813 718.1572,1164.0391 Q718.415,1164.2969 718.415,1164.6406 Q718.415,1164.9844 718.0713,1165.3906 Q717.5713,1165.9688 716.7744,1166.2969 Q715.6963,1166.75 714.3994,1166.75 Q712.8838,1166.75 711.6806,1166.125 Q710.6963,1165.625 710.0088,1164.5547 Q709.3213,1163.4844 709.3213,1162.2031 L709.3213,1161.0469 Q709.3213,1159.7188 709.9384,1158.5703 Q710.5556,1157.4219 711.6494,1156.8047 Q712.7431,1156.1875 713.9775,1156.1875 Q714.7119,1156.1875 715.3603,1156.3516 Q716.0088,1156.5156 716.5556,1156.875 Z " fill="#000000"/><text fill="#000000" font-family="sans-serif" font-size="14" lengthAdjust="spacing" textLength="104" x="734.29" y="1166.7285">ReportDatabase</text><line style="stroke:#181818;stroke-width:0.5;" x1="582.54" x2="957.54" y1="1177" y2="1177"/><ellipse cx="592.54" cy="1191.3047" fill="none" rx="3" ry="3" style="stroke:#038048;stroke-width:1.0;"/><text fill="#000000" font-family="sans-serif" font-size="14" lengthAdjust="spacing" textLength="206" x="601.54" y="1195.5332">rawReports: List&lt;SourceReport&gt;</text><ellipse cx="592.54" cy="1208.9141" fill="none" rx="3" ry="3" style="stroke:#038048;stroke-width:1.0;"/><text fill="#000000" font-family="sans-serif" font-size="14" lengthAdjust="spacing" textLength="274" x="601.54" y="1213.1426">convertedReports: List&lt;AttendanceReport&gt;</text><line style="stroke:#181818;stroke-width:0.5;" x1="582.54" x2="957.54" y1="1220.2188" y2="1220.2188"/><ellipse cx="592.54" cy="1234.5234" fill="#84BE84" rx="3" ry="3" style="stroke:#038048;stroke-width:1.0;"/><text fill="#000000" font-family="sans-serif" font-size="14" lengthAdjust="spacing" textLength="351" x="601.54" y="1238.752">appendConvertedReport(report: AttendanceReport): int</text><ellipse cx="592.54" cy="1252.1328" fill="#84BE84" rx="3" ry="3" style="stroke:#038048;stroke-width:1.0;"/><text fill="#000000" font-family="sans-serif" font-size="14" lengthAdjust="spacing" textLength="269" x="601.54" y="1256.3613">removeConvertedReport(report_id: int): int</text><ellipse cx="592.54" cy="1269.7422" fill="#84BE84" rx="3" ry="3" style="stroke:#038048;stroke-width:1.0;"/><text fill="#000000" font-family="sans-serif" font-size="14" lengthAdjust="spacing" textLength="285" x="601.54" y="1273.9707">appendRawReport(report: SourceReport): int</text><ellipse cx="592.54" cy="1287.3516" fill="#84BE84" rx="3" ry="3" style="stroke:#038048;stroke-width:1.0;"/><text fill="#000000" font-family="sans-serif" font-size="14" lengthAdjust="spacing" textLength="230" x="601.54" y="1291.5801">removeRawReport(report_id: int): int</text><text fill="#000000" font-family="sans-serif" font-size="14" lengthAdjust="spacing" textLength="4" x="601.54" y="1309.1895">&#160;</text><ellipse cx="592.54" cy="1322.5703" fill="#84BE84" rx="3" ry="3" style="stroke:#038048;stroke-width:1.0;"/><text fill="#000000" font-family="sans-serif" font-size="14" lengthAdjust="spacing" textLength="203" x="601.54" y="1326.7988">getRawReport(report_id: int): int</text><ellipse cx="592.54" cy="1340.1797" fill="#84BE84" rx="3" ry="3" style="stroke:#038048;stroke-width:1.0;"/><text fill="#000000" font-family="sans-serif" font-size="14" lengthAdjust="spacing" textLength="242" x="601.54" y="1344.4082">getConvertedReport(report_id: int): int</text></g><!--link SourceReport to StandardiseReportConvertor--><g id="link_SourceReport_StandardiseReportConvertor"><path codeLine="83" d="M592.57,480.17 C591.74,506.62 590.88,534.04 590.14,557.81 " fill="none" id="SourceReport-StandardiseReportConvertor" style="stroke:#181818;stroke-width:1.0;"/><text fill="#000000" font-family="sans-serif" font-size="13" lengthAdjust="spacing" textLength="57" x="592.04" y="524.4951">is put into</text><text fill="#000000" font-family="sans-serif" font-size="13" lengthAdjust="spacing" textLength="20" x="571.665" y="501.7477">0..*</text><text fill="#000000" font-family="sans-serif" font-size="13" lengthAdjust="spacing" textLength="7" x="582.9869" y="546.9885">1</text></g><!--link StandardiseReportConvertor to AttendanceReport--><g id="link_StandardiseReportConvertor_AttendanceReport"><path codeLine="84" d="M549.75,694.24 C536.49,717.53 521.05,744.63 505.6,771.77 " fill="none" id="StandardiseReportConvertor-AttendanceReport" style="stroke:#181818;stroke-width:1.0;"/><text fill="#000000" font-family="sans-serif" font-size="13" lengthAdjust="spacing" textLength="43" x="530.04" y="738.4951">outputs</text><text fill="#000000" font-family="sans-serif" font-size="13" lengthAdjust="spacing" textLength="7" x="538.4404" y="715.6131">1</text><text fill="#000000" font-family="sans-serif" font-size="13" lengthAdjust="spacing" textLength="20" x="489.3929" y="761.2564">1..*</text></g><!--link AttendanceReport to AttendanceUpdateSystem--><g id="link_AttendanceReport_AttendanceUpdateSystem"><path codeLine="85" d="M382.1,1067.04 C373.22,1099.59 364.11,1133.03 356.18,1162.12 " fill="none" id="AttendanceReport-AttendanceUpdateSystem" style="stroke:#181818;stroke-width:1.0;"/><text fill="#000000" font-family="sans-serif" font-size="13" lengthAdjust="spacing" textLength="57" x="373.04" y="1111.4951">is put into</text><text fill="#000000" font-family="sans-serif" font-size="13" lengthAdjust="spacing" textLength="20" x="359.681" y="1088.089">1..*</text><text fill="#000000" font-family="sans-serif" font-size="13" lengthAdjust="spacing" textLength="7" x="350.8678" y="1151.551">1</text></g><!--link AttendanceReport to ReportDatabase--><g id="link_AttendanceReport_ReportDatabase"><path codeLine="86" d="M578.23,1067.04 C606.23,1093.31 634.86,1120.17 661.17,1144.86 " fill="none" id="AttendanceReport-ReportDatabase" style="stroke:#181818;stroke-width:1.0;"/><text fill="#000000" font-family="sans-serif" font-size="13" lengthAdjust="spacing" textLength="85" x="628.04" y="1111.4951">is appended to</text><text fill="#000000" font-family="sans-serif" font-size="13" lengthAdjust="spacing" textLength="20" x="565.3111" y="1088.089">1..*</text></g><!--link ReportFilteringSystem to ReportDatabase--><g id="link_ReportFilteringSystem_ReportDatabase"><path codeLine="87" d="M789.98,996.64 C786.47,1040.73 782,1096.82 778.18,1144.72 " fill="none" id="ReportFilteringSystem-ReportDatabase" style="stroke:#181818;stroke-width:1.0;"/><text fill="#000000" font-family="sans-serif" font-size="13" lengthAdjust="spacing" textLength="28" x="782.04" y="1111.4951">uses</text><text fill="#000000" font-family="sans-serif" font-size="13" lengthAdjust="spacing" textLength="7" x="782.1286" y="1017.7489">1</text><text fill="#000000" font-family="sans-serif" font-size="13" lengthAdjust="spacing" textLength="7" x="771.5207" y="1134.0381">1</text></g><!--link SourceReport to ReportDatabase--><g id="link_SourceReport_ReportDatabase"><path codeLine="88" d="M732.3,480.2 C810.48,553.57 900.71,657.12 940.04,772 C982.51,896.04 988.48,945.16 940.04,1067 C928.84,1095.16 910.92,1121.46 890.83,1144.79 " fill="none" id="SourceReport-ReportDatabase" style="stroke:#181818;stroke-width:1.0;"/><text fill="#000000" font-family="sans-serif" font-size="13" lengthAdjust="spacing" textLength="85" x="929.04" y="738.4951">is fetched from</text><text fill="#000000" font-family="sans-serif" font-size="13" lengthAdjust="spacing" textLength="20" x="720.3885" y="501.4037">1..*</text><text fill="#000000" font-family="sans-serif" font-size="13" lengthAdjust="spacing" textLength="7" x="892.4435" y="1134.1133">1</text></g><!--link Admin to SourceReport--><g id="link_Admin_SourceReport"><path codeLine="89" d="M397.72,178.26 C422.7,202.04 447.1638,225.3135 474.9438,251.7535 " fill="none" id="Admin-to-SourceReport" style="stroke:#181818;stroke-width:1.0;"/><polygon fill="#181818" points="479.29,255.89,475.5284,246.7878,475.6682,252.4429,470.0131,252.5827,479.29,255.89" style="stroke:#181818;stroke-width:1.0;"/><text fill="#000000" font-family="sans-serif" font-size="13" lengthAdjust="spacing" textLength="39" x="446.04" y="222.4951">makes</text><text fill="#000000" font-family="sans-serif" font-size="13" lengthAdjust="spacing" textLength="20" x="383.9776" y="199.6351">1..*</text></g><!--link Admin to ReportDatabase--><g id="link_Admin_ReportDatabase"><path codeLine="90" d="M329.23,178.07 C330.52,289.54 323.07,518.07 251.04,694 C234.57,734.23 205.87,730.79 192.04,772 C150.32,896.3 113,962.39 192.04,1067 C293.87,1201.78 402.82,1094.56 564.04,1145 C569.75,1146.79 569.8431,1146.72 575.6131,1148.76 " fill="none" id="Admin-to-ReportDatabase" style="stroke:#181818;stroke-width:1.0;"/><polygon fill="#181818" points="581.27,1150.76,574.118,1143.9888,576.556,1149.0933,571.4514,1151.5312,581.27,1150.76" style="stroke:#181818;stroke-width:1.0;"/><text fill="#000000" font-family="sans-serif" font-size="13" lengthAdjust="spacing" textLength="53" x="293.04" y="631.4951">manages</text><text fill="#000000" font-family="sans-serif" font-size="13" lengthAdjust="spacing" textLength="20" x="308.4246" y="199.4255">1..*</text></g><!--reverse link Admin to AttendanceUpdateSystem--><g id="link_Admin_AttendanceUpdateSystem"><path codeLine="91" d="M287.4524,183.3888 C200.8724,350.6988 6,791.03 164.04,1115 C172.53,1132.4 184.54,1148.18 198.3,1162.27 " fill="none" id="Admin-backto-AttendanceUpdateSystem" style="stroke:#181818;stroke-width:1.0;"/><polygon fill="#181818" points="290.21,178.06,282.5212,184.2148,287.912,182.5007,289.6262,187.8915,290.21,178.06" style="stroke:#181818;stroke-width:1.0;"/><text fill="#000000" font-family="sans-serif" font-size="13" lengthAdjust="spacing" textLength="100" x="142.04" y="631.4951">sends updates to</text><text fill="#000000" font-family="sans-serif" font-size="13" lengthAdjust="spacing" textLength="20" x="265.3807" y="199.4145">1..*</text></g><!--SRC=[fLPDYzim43qdlqBav7IJfRsQ9H2o50hzWBWz6oLIKX5RCfAS9PJzxnrzs95a9xkbbyrAVZFptkXfx0RlJ_X8qLfhoWdcU_fDaBQYwCzqig-mKcXDQiRDSh94sFp_vJb7Z6ktqOTjQIEaLZdwofH-MYVxAq0_e3EZB-kgyj1idgEpOCG-marJNJwpIbEP7UnFZjmoHEqbnTgdpERJoMjFig_tgo40AIvAqzgoVa1c8qVFyDSbCH4b8vsAXq15gJJMhIeh4E6bj8hA3hr0ZQIASbtYdVd9qKw8oedZGjDIqXhB4tIXq9Bnewid-9bAJOdZdQEqEHPbuiehaSoGNY165ZVOBP2lDRVXhPNTrG-YhwZNQTUjGcD8A0bJdi76KHJITqpQtL9V6cWSvMrjTuLaHyPnrUaeH2iZ3RtIKjwJwc4Ub0N55lwPOeANYceDFVG25JxJCYsGfHkHpBIu5nUU_BXGZcjOgkiHga3fz_IXwVMFmyPO4sZdTksJUpC4uF-scisoIUu1R1MGDjfmZZ1iir3FzJejFQH8nDs0TncV8xdPcFfXq1PQ0RPCEX8D07FNhoTMsEQOhcHlToKwTIV4pGwe4Ks2wBY3A-ecZWeiu7O29tkquqf8CgfCt62SbJvjx72_6RWwgPKbw_Zg1eSrukU1S-62QDSdneCM_8mDFshXVtJQMpRgA0xHsvvIbh9xHzpx_6Ypf2Q1KBp3YdRkm2_nMomijXgRvRTVTvqBO7iJnsItPkCy74krEDFnmEug171NPzlHxok4_0VPKtYIroAFLBy1ywZtKJNzZmmy-_Zu-666baiq-pIxyrg2U8MQLfiq0dBSVd-PF3QTJPosE4UYrP17JIU3buCFyLp6FoWI7dTon0QpSUwKA44cT7nAzUndWmGm1LNQlOZnICK3rVlVKF0W1Tnpzo7N1wqYU-Jm0N8o5GQeD6-DENmmfiWdO76hPp2eYVBtLndrqzU_]--></g></svg>