<?xml version="1.0" encoding="us-ascii" standalone="no"?><svg xmlns="http://www.w3.org/2000/svg" xmlns:xlink="http://www.w3.org/1999/xlink" contentStyleType="text/css" height="1019px" preserveAspectRatio="none" style="width:2718px;height:1019px;background:#FFFFFF;" version="1.1" viewBox="0 0 2718 1019" width="2718px" zoomAndPan="magnify"><defs/><g><!--cluster DashboardModule--><g id="cluster_DashboardModule"><path d="M8.5,6 L138.5,6 A3.75,3.75 0 0 1 141,8.5 L148,29.6094 L2708.5,29.6094 A2.5,2.5 0 0 1 2711,32.1094 L2711,1009.5 A2.5,2.5 0 0 1 2708.5,1012 L8.5,1012 A2.5,2.5 0 0 1 6,1009.5 L6,8.5 A2.5,2.5 0 0 1 8.5,6 " fill="none" style="stroke:#000000;stroke-width:1.5;"/><line style="stroke:#000000;stroke-width:1.5;" x1="6" x2="148" y1="29.6094" y2="29.6094"/><text fill="#000000" font-family="sans-serif" font-size="14" font-weight="bold" lengthAdjust="spacing" textLength="129" x="10" y="22.5332">DashboardModule</text></g><!--class DashboardSearchBar--><g id="elem_DashboardSearchBar"><rect codeLine="3" fill="#F1F1F1" height="118.4375" id="DashboardSearchBar" rx="2.5" ry="2.5" style="stroke:#181818;stroke-width:0.5;" width="252" x="22" y="628.5"/><ellipse cx="75.25" cy="644.5" fill="#ADD1B2" rx="11" ry="11" style="stroke:#181818;stroke-width:1.0;"/><path d="M78.0156,640.375 Q78.1719,640.1563 78.3594,640.0469 Q78.5469,639.9375 78.7656,639.9375 Q79.1406,639.9375 79.375,640.1953 Q79.6094,640.4531 79.6094,641.0625 L79.6094,642.5156 Q79.6094,643.125 79.375,643.3906 Q79.1406,643.6563 78.7656,643.6563 Q78.4219,643.6563 78.2188,643.4531 Q78.0156,643.2656 77.9063,642.75 Q77.8594,642.3906 77.6719,642.2031 Q77.3438,641.8281 76.7344,641.6094 Q76.125,641.3906 75.5,641.3906 Q74.7344,641.3906 74.1016,641.7188 Q73.4688,642.0469 72.9766,642.7969 Q72.4844,643.5469 72.4844,644.5781 L72.4844,645.6719 Q72.4844,646.9063 73.375,647.7266 Q74.2656,648.5469 75.8594,648.5469 Q76.7969,648.5469 77.4531,648.2969 Q77.8438,648.1406 78.2656,647.7031 Q78.5313,647.4375 78.6797,647.3594 Q78.8281,647.2813 79.0313,647.2813 Q79.3594,647.2813 79.6172,647.5391 Q79.875,647.7969 79.875,648.1406 Q79.875,648.4844 79.5313,648.8906 Q79.0313,649.4688 78.2344,649.7969 Q77.1563,650.25 75.8594,650.25 Q74.3438,650.25 73.1406,649.625 Q72.1563,649.125 71.4688,648.0547 Q70.7813,646.9844 70.7813,645.7031 L70.7813,644.5469 Q70.7813,643.2188 71.3984,642.0703 Q72.0156,640.9219 73.1094,640.3047 Q74.2031,639.6875 75.4375,639.6875 Q76.1719,639.6875 76.8203,639.8516 Q77.4688,640.0156 78.0156,640.375 Z " fill="#000000"/><text fill="#000000" font-family="sans-serif" font-size="14" lengthAdjust="spacing" textLength="137" x="95.75" y="650.2285">DashboardSearchBar</text><line style="stroke:#181818;stroke-width:0.5;" x1="23" x2="273" y1="660.5" y2="660.5"/><rect fill="none" height="6" style="stroke:#C82930;stroke-width:1.0;" width="6" x="30" y="671.8047"/><text fill="#000000" font-family="sans-serif" font-size="14" lengthAdjust="spacing" textLength="125" x="42" y="679.0332">searchQuery: string</text><line style="stroke:#181818;stroke-width:0.5;" x1="23" x2="273" y1="686.1094" y2="686.1094"/><ellipse cx="33" cy="700.4141" fill="#84BE84" rx="3" ry="3" style="stroke:#038048;stroke-width:1.0;"/><text fill="#000000" font-family="sans-serif" font-size="14" lengthAdjust="spacing" textLength="226" x="42" y="704.6426">setSearchQuery(query: string): void</text><ellipse cx="33" cy="718.0234" fill="#84BE84" rx="3" ry="3" style="stroke:#038048;stroke-width:1.0;"/><text fill="#000000" font-family="sans-serif" font-size="14" lengthAdjust="spacing" textLength="157" x="42" y="722.252">getSearchQuery(): string</text><ellipse cx="33" cy="735.6328" fill="#84BE84" rx="3" ry="3" style="stroke:#038048;stroke-width:1.0;"/><text fill="#000000" font-family="sans-serif" font-size="14" lengthAdjust="spacing" textLength="87" x="42" y="739.8613">search(): void</text></g><!--class Navigator--><g id="elem_Navigator"><rect codeLine="10" fill="#F1F1F1" height="188.875" id="Navigator" rx="2.5" ry="2.5" style="stroke:#181818;stroke-width:0.5;" width="271" x="22.5" y="264.5"/><ellipse cx="123.75" cy="280.5" fill="#ADD1B2" rx="11" ry="11" style="stroke:#181818;stroke-width:1.0;"/><path d="M126.5156,276.375 Q126.6719,276.1563 126.8594,276.0469 Q127.0469,275.9375 127.2656,275.9375 Q127.6406,275.9375 127.875,276.1953 Q128.1094,276.4531 128.1094,277.0625 L128.1094,278.5156 Q128.1094,279.125 127.875,279.3906 Q127.6406,279.6563 127.2656,279.6563 Q126.9219,279.6563 126.7188,279.4531 Q126.5156,279.2656 126.4063,278.75 Q126.3594,278.3906 126.1719,278.2031 Q125.8438,277.8281 125.2344,277.6094 Q124.625,277.3906 124,277.3906 Q123.2344,277.3906 122.6016,277.7188 Q121.9688,278.0469 121.4766,278.7969 Q120.9844,279.5469 120.9844,280.5781 L120.9844,281.6719 Q120.9844,282.9063 121.875,283.7266 Q122.7656,284.5469 124.3594,284.5469 Q125.2969,284.5469 125.9531,284.2969 Q126.3438,284.1406 126.7656,283.7031 Q127.0313,283.4375 127.1797,283.3594 Q127.3281,283.2813 127.5313,283.2813 Q127.8594,283.2813 128.1172,283.5391 Q128.375,283.7969 128.375,284.1406 Q128.375,284.4844 128.0313,284.8906 Q127.5313,285.4688 126.7344,285.7969 Q125.6563,286.25 124.3594,286.25 Q122.8438,286.25 121.6406,285.625 Q120.6563,285.125 119.9688,284.0547 Q119.2813,282.9844 119.2813,281.7031 L119.2813,280.5469 Q119.2813,279.2188 119.8984,278.0703 Q120.5156,276.9219 121.6094,276.3047 Q122.7031,275.6875 123.9375,275.6875 Q124.6719,275.6875 125.3203,275.8516 Q125.9688,276.0156 126.5156,276.375 Z " fill="#000000"/><text fill="#000000" font-family="sans-serif" font-size="14" lengthAdjust="spacing" textLength="60" x="144.25" y="286.2285">Navigator</text><line style="stroke:#181818;stroke-width:0.5;" x1="23.5" x2="292.5" y1="296.5" y2="296.5"/><rect fill="none" height="6" style="stroke:#C82930;stroke-width:1.0;" width="6" x="30.5" y="307.8047"/><text fill="#000000" font-family="sans-serif" font-size="14" lengthAdjust="spacing" textLength="91" x="42.5" y="315.0332">theme: Theme</text><line style="stroke:#181818;stroke-width:0.5;" x1="23.5" x2="292.5" y1="322.1094" y2="322.1094"/><ellipse cx="33.5" cy="336.4141" fill="#84BE84" rx="3" ry="3" style="stroke:#038048;stroke-width:1.0;"/><text fill="#000000" font-family="sans-serif" font-size="14" lengthAdjust="spacing" textLength="189" x="42.5" y="340.6426">setTheme(theme: string): void</text><ellipse cx="33.5" cy="354.0234" fill="#84BE84" rx="3" ry="3" style="stroke:#038048;stroke-width:1.0;"/><text fill="#000000" font-family="sans-serif" font-size="14" lengthAdjust="spacing" textLength="117" x="42.5" y="358.252">getTheme(): string</text><ellipse cx="33.5" cy="371.6328" fill="#84BE84" rx="3" ry="3" style="stroke:#038048;stroke-width:1.0;"/><text fill="#000000" font-family="sans-serif" font-size="14" lengthAdjust="spacing" textLength="245" x="42.5" y="375.8613">displayMessage(message: string): void</text><ellipse cx="33.5" cy="389.2422" fill="#84BE84" rx="3" ry="3" style="stroke:#038048;stroke-width:1.0;"/><text fill="#000000" font-family="sans-serif" font-size="14" lengthAdjust="spacing" textLength="114" x="42.5" y="393.4707">goToAdmissions()</text><ellipse cx="33.5" cy="406.8516" fill="#84BE84" rx="3" ry="3" style="stroke:#038048;stroke-width:1.0;"/><text fill="#000000" font-family="sans-serif" font-size="14" lengthAdjust="spacing" textLength="126" x="42.5" y="411.0801">goToExaminations()</text><ellipse cx="33.5" cy="424.4609" fill="#84BE84" rx="3" ry="3" style="stroke:#038048;stroke-width:1.0;"/><text fill="#000000" font-family="sans-serif" font-size="14" lengthAdjust="spacing" textLength="114" x="42.5" y="428.6895">goToAdmissions()</text><ellipse cx="33.5" cy="442.0703" fill="#84BE84" rx="3" ry="3" style="stroke:#038048;stroke-width:1.0;"/><text fill="#000000" font-family="sans-serif" font-size="14" lengthAdjust="spacing" textLength="114" x="42.5" y="446.2988">goToAdmissions()</text></g><!--class Theme--><g id="elem_Theme"><rect codeLine="21" fill="#F1F1F1" height="206.4844" id="Theme" rx="2.5" ry="2.5" style="stroke:#181818;stroke-width:0.5;" width="313" x="309.5" y="584.5"/><ellipse cx="439.75" cy="600.5" fill="#ADD1B2" rx="11" ry="11" style="stroke:#181818;stroke-width:1.0;"/><path d="M442.5156,596.375 Q442.6719,596.1563 442.8594,596.0469 Q443.0469,595.9375 443.2656,595.9375 Q443.6406,595.9375 443.875,596.1953 Q444.1094,596.4531 444.1094,597.0625 L444.1094,598.5156 Q444.1094,599.125 443.875,599.3906 Q443.6406,599.6563 443.2656,599.6563 Q442.9219,599.6563 442.7188,599.4531 Q442.5156,599.2656 442.4063,598.75 Q442.3594,598.3906 442.1719,598.2031 Q441.8438,597.8281 441.2344,597.6094 Q440.625,597.3906 440,597.3906 Q439.2344,597.3906 438.6016,597.7188 Q437.9688,598.0469 437.4766,598.7969 Q436.9844,599.5469 436.9844,600.5781 L436.9844,601.6719 Q436.9844,602.9063 437.875,603.7266 Q438.7656,604.5469 440.3594,604.5469 Q441.2969,604.5469 441.9531,604.2969 Q442.3438,604.1406 442.7656,603.7031 Q443.0313,603.4375 443.1797,603.3594 Q443.3281,603.2813 443.5313,603.2813 Q443.8594,603.2813 444.1172,603.5391 Q444.375,603.7969 444.375,604.1406 Q444.375,604.4844 444.0313,604.8906 Q443.5313,605.4688 442.7344,605.7969 Q441.6563,606.25 440.3594,606.25 Q438.8438,606.25 437.6406,605.625 Q436.6563,605.125 435.9688,604.0547 Q435.2813,602.9844 435.2813,601.7031 L435.2813,600.5469 Q435.2813,599.2188 435.8984,598.0703 Q436.5156,596.9219 437.6094,596.3047 Q438.7031,595.6875 439.9375,595.6875 Q440.6719,595.6875 441.3203,595.8516 Q441.9688,596.0156 442.5156,596.375 Z " fill="#000000"/><text fill="#000000" font-family="sans-serif" font-size="14" lengthAdjust="spacing" textLength="44" x="460.25" y="606.2285">Theme</text><line style="stroke:#181818;stroke-width:0.5;" x1="310.5" x2="621.5" y1="616.5" y2="616.5"/><rect fill="none" height="6" style="stroke:#C82930;stroke-width:1.0;" width="6" x="317.5" y="627.8047"/><text fill="#000000" font-family="sans-serif" font-size="14" lengthAdjust="spacing" textLength="125" x="329.5" y="635.0332">colorScheme: string</text><rect fill="none" height="6" style="stroke:#C82930;stroke-width:1.0;" width="6" x="317.5" y="645.4141"/><text fill="#000000" font-family="sans-serif" font-size="14" lengthAdjust="spacing" textLength="73" x="329.5" y="652.6426">fontSize: int</text><rect fill="none" height="6" style="stroke:#C82930;stroke-width:1.0;" width="6" x="317.5" y="663.0234"/><text fill="#000000" font-family="sans-serif" font-size="14" lengthAdjust="spacing" textLength="156" x="329.5" y="670.252">backgroundImage: string</text><line style="stroke:#181818;stroke-width:0.5;" x1="310.5" x2="621.5" y1="677.3281" y2="677.3281"/><ellipse cx="320.5" cy="691.6328" fill="#84BE84" rx="3" ry="3" style="stroke:#038048;stroke-width:1.0;"/><text fill="#000000" font-family="sans-serif" font-size="14" lengthAdjust="spacing" textLength="273" x="329.5" y="695.8613">setColorScheme(colorScheme: string): void</text><ellipse cx="320.5" cy="709.2422" fill="#84BE84" rx="3" ry="3" style="stroke:#038048;stroke-width:1.0;"/><text fill="#000000" font-family="sans-serif" font-size="14" lengthAdjust="spacing" textLength="191" x="329.5" y="713.4707">setFontSize(fontSize: int): void</text><ellipse cx="320.5" cy="726.8516" fill="#84BE84" rx="3" ry="3" style="stroke:#038048;stroke-width:1.0;"/><text fill="#000000" font-family="sans-serif" font-size="14" lengthAdjust="spacing" textLength="287" x="329.5" y="731.0801">setBackgroundImage(imagePath: string): void</text><ellipse cx="320.5" cy="744.4609" fill="#84BE84" rx="3" ry="3" style="stroke:#038048;stroke-width:1.0;"/><text fill="#000000" font-family="sans-serif" font-size="14" lengthAdjust="spacing" textLength="158" x="329.5" y="748.6895">getColorScheme(): string</text><ellipse cx="320.5" cy="762.0703" fill="#84BE84" rx="3" ry="3" style="stroke:#038048;stroke-width:1.0;"/><text fill="#000000" font-family="sans-serif" font-size="14" lengthAdjust="spacing" textLength="108" x="329.5" y="766.2988">getFontSize(): int</text><ellipse cx="320.5" cy="779.6797" fill="#84BE84" rx="3" ry="3" style="stroke:#038048;stroke-width:1.0;"/><text fill="#000000" font-family="sans-serif" font-size="14" lengthAdjust="spacing" textLength="187" x="329.5" y="783.9082">getBackgroundImage(): string</text></g><!--class User--><g id="elem_User"><rect codeLine="34" fill="#F1F1F1" height="118.4375" id="User" rx="2.5" ry="2.5" style="stroke:#181818;stroke-width:0.5;" width="342" x="799" y="42"/><ellipse cx="951.25" cy="58" fill="#ADD1B2" rx="11" ry="11" style="stroke:#181818;stroke-width:1.0;"/><path d="M954.0156,53.875 Q954.1719,53.6563 954.3594,53.5469 Q954.5469,53.4375 954.7656,53.4375 Q955.1406,53.4375 955.375,53.6953 Q955.6094,53.9531 955.6094,54.5625 L955.6094,56.0156 Q955.6094,56.625 955.375,56.8906 Q955.1406,57.1563 954.7656,57.1563 Q954.4219,57.1563 954.2188,56.9531 Q954.0156,56.7656 953.9063,56.25 Q953.8594,55.8906 953.6719,55.7031 Q953.3438,55.3281 952.7344,55.1094 Q952.125,54.8906 951.5,54.8906 Q950.7344,54.8906 950.1016,55.2188 Q949.4688,55.5469 948.9766,56.2969 Q948.4844,57.0469 948.4844,58.0781 L948.4844,59.1719 Q948.4844,60.4063 949.375,61.2266 Q950.2656,62.0469 951.8594,62.0469 Q952.7969,62.0469 953.4531,61.7969 Q953.8438,61.6406 954.2656,61.2031 Q954.5313,60.9375 954.6797,60.8594 Q954.8281,60.7813 955.0313,60.7813 Q955.3594,60.7813 955.6172,61.0391 Q955.875,61.2969 955.875,61.6406 Q955.875,61.9844 955.5313,62.3906 Q955.0313,62.9688 954.2344,63.2969 Q953.1563,63.75 951.8594,63.75 Q950.3438,63.75 949.1406,63.125 Q948.1563,62.625 947.4688,61.5547 Q946.7813,60.4844 946.7813,59.2031 L946.7813,58.0469 Q946.7813,56.7188 947.3984,55.5703 Q948.0156,54.4219 949.1094,53.8047 Q950.2031,53.1875 951.4375,53.1875 Q952.1719,53.1875 952.8203,53.3516 Q953.4688,53.5156 954.0156,53.875 Z " fill="#000000"/><text fill="#000000" font-family="sans-serif" font-size="14" lengthAdjust="spacing" textLength="29" x="971.75" y="63.7285">User</text><line style="stroke:#181818;stroke-width:0.5;" x1="800" x2="1140" y1="74" y2="74"/><rect fill="none" height="6" style="stroke:#C82930;stroke-width:1.0;" width="6" x="807" y="85.3047"/><text fill="#000000" font-family="sans-serif" font-size="14" lengthAdjust="spacing" textLength="106" x="819" y="92.5332">username: string</text><rect fill="none" height="6" style="stroke:#C82930;stroke-width:1.0;" width="6" x="807" y="102.9141"/><text fill="#000000" font-family="sans-serif" font-size="14" lengthAdjust="spacing" textLength="103" x="819" y="110.1426">password: string</text><line style="stroke:#181818;stroke-width:0.5;" x1="800" x2="1140" y1="117.2188" y2="117.2188"/><ellipse cx="810" cy="131.5234" fill="#84BE84" rx="3" ry="3" style="stroke:#038048;stroke-width:1.0;"/><text fill="#000000" font-family="sans-serif" font-size="14" lengthAdjust="spacing" textLength="316" x="819" y="135.752">login(username: string, password: string): boolean</text><ellipse cx="810" cy="149.1328" fill="#84BE84" rx="3" ry="3" style="stroke:#038048;stroke-width:1.0;"/><text fill="#000000" font-family="sans-serif" font-size="14" lengthAdjust="spacing" textLength="83" x="819" y="153.3613">logout(): void</text></g><!--class AdminUser--><g id="elem_AdminUser"><rect codeLine="41" fill="#F1F1F1" height="83.2188" id="AdminUser" rx="2.5" ry="2.5" style="stroke:#181818;stroke-width:0.5;" width="123" x="470.5" y="317.5"/><ellipse cx="495.85" cy="333.5" fill="#ADD1B2" rx="11" ry="11" style="stroke:#181818;stroke-width:1.0;"/><path d="M498.6156,329.375 Q498.7719,329.1563 498.9594,329.0469 Q499.1469,328.9375 499.3656,328.9375 Q499.7406,328.9375 499.975,329.1953 Q500.2094,329.4531 500.2094,330.0625 L500.2094,331.5156 Q500.2094,332.125 499.975,332.3906 Q499.7406,332.6563 499.3656,332.6563 Q499.0219,332.6563 498.8188,332.4531 Q498.6156,332.2656 498.5063,331.75 Q498.4594,331.3906 498.2719,331.2031 Q497.9438,330.8281 497.3344,330.6094 Q496.725,330.3906 496.1,330.3906 Q495.3344,330.3906 494.7016,330.7188 Q494.0688,331.0469 493.5766,331.7969 Q493.0844,332.5469 493.0844,333.5781 L493.0844,334.6719 Q493.0844,335.9063 493.975,336.7266 Q494.8656,337.5469 496.4594,337.5469 Q497.3969,337.5469 498.0531,337.2969 Q498.4438,337.1406 498.8656,336.7031 Q499.1313,336.4375 499.2797,336.3594 Q499.4281,336.2813 499.6313,336.2813 Q499.9594,336.2813 500.2172,336.5391 Q500.475,336.7969 500.475,337.1406 Q500.475,337.4844 500.1313,337.8906 Q499.6313,338.4688 498.8344,338.7969 Q497.7563,339.25 496.4594,339.25 Q494.9438,339.25 493.7406,338.625 Q492.7563,338.125 492.0688,337.0547 Q491.3813,335.9844 491.3813,334.7031 L491.3813,333.5469 Q491.3813,332.2188 491.9984,331.0703 Q492.6156,329.9219 493.7094,329.3047 Q494.8031,328.6875 496.0375,328.6875 Q496.7719,328.6875 497.4203,328.8516 Q498.0688,329.0156 498.6156,329.375 Z " fill="#000000"/><text fill="#000000" font-family="sans-serif" font-size="14" lengthAdjust="spacing" textLength="68" x="512.15" y="339.2285">AdminUser</text><line style="stroke:#181818;stroke-width:0.5;" x1="471.5" x2="592.5" y1="349.5" y2="349.5"/><rect fill="none" height="6" style="stroke:#C82930;stroke-width:1.0;" width="6" x="478.5" y="360.8047"/><text fill="#000000" font-family="sans-serif" font-size="14" lengthAdjust="spacing" textLength="52" x="490.5" y="368.0332">AdminID</text><line style="stroke:#181818;stroke-width:0.5;" x1="471.5" x2="592.5" y1="375.1094" y2="375.1094"/><ellipse cx="481.5" cy="389.4141" fill="#84BE84" rx="3" ry="3" style="stroke:#038048;stroke-width:1.0;"/><text fill="#000000" font-family="sans-serif" font-size="14" lengthAdjust="spacing" textLength="97" x="490.5" y="393.6426">updateDetails()</text></g><!--class DashboardNewsDisplay--><g id="elem_DashboardNewsDisplay"><rect codeLine="46" fill="#F1F1F1" height="118.4375" id="DashboardNewsDisplay" rx="2.5" ry="2.5" style="stroke:#181818;stroke-width:0.5;" width="181" x="628.5" y="300"/><ellipse cx="643.5" cy="316" fill="#ADD1B2" rx="11" ry="11" style="stroke:#181818;stroke-width:1.0;"/><path d="M646.2656,311.875 Q646.4219,311.6563 646.6094,311.5469 Q646.7969,311.4375 647.0156,311.4375 Q647.3906,311.4375 647.625,311.6953 Q647.8594,311.9531 647.8594,312.5625 L647.8594,314.0156 Q647.8594,314.625 647.625,314.8906 Q647.3906,315.1563 647.0156,315.1563 Q646.6719,315.1563 646.4688,314.9531 Q646.2656,314.7656 646.1563,314.25 Q646.1094,313.8906 645.9219,313.7031 Q645.5938,313.3281 644.9844,313.1094 Q644.375,312.8906 643.75,312.8906 Q642.9844,312.8906 642.3516,313.2188 Q641.7188,313.5469 641.2266,314.2969 Q640.7344,315.0469 640.7344,316.0781 L640.7344,317.1719 Q640.7344,318.4063 641.625,319.2266 Q642.5156,320.0469 644.1094,320.0469 Q645.0469,320.0469 645.7031,319.7969 Q646.0938,319.6406 646.5156,319.2031 Q646.7813,318.9375 646.9297,318.8594 Q647.0781,318.7813 647.2813,318.7813 Q647.6094,318.7813 647.8672,319.0391 Q648.125,319.2969 648.125,319.6406 Q648.125,319.9844 647.7813,320.3906 Q647.2813,320.9688 646.4844,321.2969 Q645.4063,321.75 644.1094,321.75 Q642.5938,321.75 641.3906,321.125 Q640.4063,320.625 639.7188,319.5547 Q639.0313,318.4844 639.0313,317.2031 L639.0313,316.0469 Q639.0313,314.7188 639.6484,313.5703 Q640.2656,312.4219 641.3594,311.8047 Q642.4531,311.1875 643.6875,311.1875 Q644.4219,311.1875 645.0703,311.3516 Q645.7188,311.5156 646.2656,311.875 Z " fill="#000000"/><text fill="#000000" font-family="sans-serif" font-size="14" lengthAdjust="spacing" textLength="149" x="657.5" y="321.7285">DashboardNewsDisplay</text><line style="stroke:#181818;stroke-width:0.5;" x1="629.5" x2="808.5" y1="332" y2="332"/><text fill="#000000" font-family="sans-serif" font-size="14" lengthAdjust="spacing" textLength="75" x="634.5" y="350.5332">news: string</text><line style="stroke:#181818;stroke-width:0.5;" x1="629.5" x2="808.5" y1="357.6094" y2="357.6094"/><ellipse cx="639.5" cy="371.9141" fill="#84BE84" rx="3" ry="3" style="stroke:#038048;stroke-width:1.0;"/><text fill="#000000" font-family="sans-serif" font-size="14" lengthAdjust="spacing" textLength="63" x="648.5" y="376.1426">getNews()</text><ellipse cx="639.5" cy="389.5234" fill="#84BE84" rx="3" ry="3" style="stroke:#038048;stroke-width:1.0;"/><text fill="#000000" font-family="sans-serif" font-size="14" lengthAdjust="spacing" textLength="87" x="648.5" y="393.752">updateNews()</text><ellipse cx="639.5" cy="407.1328" fill="#84BE84" rx="3" ry="3" style="stroke:#038048;stroke-width:1.0;"/><text fill="#000000" font-family="sans-serif" font-size="14" lengthAdjust="spacing" textLength="90" x="648.5" y="411.3613">removeNews()</text></g><!--class InstituteKiosk--><g id="elem_InstituteKiosk"><rect codeLine="54" fill="#F1F1F1" height="118.4375" id="InstituteKiosk" rx="2.5" ry="2.5" style="stroke:#181818;stroke-width:0.5;" width="250" x="845" y="300"/><ellipse cx="924.25" cy="316" fill="#ADD1B2" rx="11" ry="11" style="stroke:#181818;stroke-width:1.0;"/><path d="M927.0156,311.875 Q927.1719,311.6563 927.3594,311.5469 Q927.5469,311.4375 927.7656,311.4375 Q928.1406,311.4375 928.375,311.6953 Q928.6094,311.9531 928.6094,312.5625 L928.6094,314.0156 Q928.6094,314.625 928.375,314.8906 Q928.1406,315.1563 927.7656,315.1563 Q927.4219,315.1563 927.2188,314.9531 Q927.0156,314.7656 926.9063,314.25 Q926.8594,313.8906 926.6719,313.7031 Q926.3438,313.3281 925.7344,313.1094 Q925.125,312.8906 924.5,312.8906 Q923.7344,312.8906 923.1016,313.2188 Q922.4688,313.5469 921.9766,314.2969 Q921.4844,315.0469 921.4844,316.0781 L921.4844,317.1719 Q921.4844,318.4063 922.375,319.2266 Q923.2656,320.0469 924.8594,320.0469 Q925.7969,320.0469 926.4531,319.7969 Q926.8438,319.6406 927.2656,319.2031 Q927.5313,318.9375 927.6797,318.8594 Q927.8281,318.7813 928.0313,318.7813 Q928.3594,318.7813 928.6172,319.0391 Q928.875,319.2969 928.875,319.6406 Q928.875,319.9844 928.5313,320.3906 Q928.0313,320.9688 927.2344,321.2969 Q926.1563,321.75 924.8594,321.75 Q923.3438,321.75 922.1406,321.125 Q921.1563,320.625 920.4688,319.5547 Q919.7813,318.4844 919.7813,317.2031 L919.7813,316.0469 Q919.7813,314.7188 920.3984,313.5703 Q921.0156,312.4219 922.1094,311.8047 Q923.2031,311.1875 924.4375,311.1875 Q925.1719,311.1875 925.8203,311.3516 Q926.4688,311.5156 927.0156,311.875 Z " fill="#000000"/><text fill="#000000" font-family="sans-serif" font-size="14" lengthAdjust="spacing" textLength="83" x="944.75" y="321.7285">InstituteKiosk</text><line style="stroke:#181818;stroke-width:0.5;" x1="846" x2="1094" y1="332" y2="332"/><rect fill="none" height="6" style="stroke:#C82930;stroke-width:1.0;" width="6" x="853" y="343.3047"/><text fill="#000000" font-family="sans-serif" font-size="14" lengthAdjust="spacing" textLength="113" x="865" y="350.5332">information: string</text><rect fill="none" height="6" style="stroke:#C82930;stroke-width:1.0;" width="6" x="853" y="360.9141"/><text fill="#000000" font-family="sans-serif" font-size="14" lengthAdjust="spacing" textLength="64" x="865" y="368.1426">date: date</text><line style="stroke:#181818;stroke-width:0.5;" x1="846" x2="1094" y1="375.2188" y2="375.2188"/><ellipse cx="856" cy="389.5234" fill="#84BE84" rx="3" ry="3" style="stroke:#038048;stroke-width:1.0;"/><text fill="#000000" font-family="sans-serif" font-size="14" lengthAdjust="spacing" textLength="224" x="865" y="393.752">displayInformation(info: string): void</text><ellipse cx="856" cy="407.1328" fill="#84BE84" rx="3" ry="3" style="stroke:#038048;stroke-width:1.0;"/><text fill="#000000" font-family="sans-serif" font-size="14" lengthAdjust="spacing" textLength="84" x="865" y="411.3613">updateDate()</text></g><!--class SettingsManager--><g id="elem_SettingsManager"><rect codeLine="61" fill="#F1F1F1" height="118.4375" id="SettingsManager" rx="2.5" ry="2.5" style="stroke:#181818;stroke-width:0.5;" width="283" x="1130.5" y="300"/><ellipse cx="1214.25" cy="316" fill="#ADD1B2" rx="11" ry="11" style="stroke:#181818;stroke-width:1.0;"/><path d="M1217.0156,311.875 Q1217.1719,311.6563 1217.3594,311.5469 Q1217.5469,311.4375 1217.7656,311.4375 Q1218.1406,311.4375 1218.375,311.6953 Q1218.6094,311.9531 1218.6094,312.5625 L1218.6094,314.0156 Q1218.6094,314.625 1218.375,314.8906 Q1218.1406,315.1563 1217.7656,315.1563 Q1217.4219,315.1563 1217.2188,314.9531 Q1217.0156,314.7656 1216.9063,314.25 Q1216.8594,313.8906 1216.6719,313.7031 Q1216.3438,313.3281 1215.7344,313.1094 Q1215.125,312.8906 1214.5,312.8906 Q1213.7344,312.8906 1213.1016,313.2188 Q1212.4688,313.5469 1211.9766,314.2969 Q1211.4844,315.0469 1211.4844,316.0781 L1211.4844,317.1719 Q1211.4844,318.4063 1212.375,319.2266 Q1213.2656,320.0469 1214.8594,320.0469 Q1215.7969,320.0469 1216.4531,319.7969 Q1216.8438,319.6406 1217.2656,319.2031 Q1217.5313,318.9375 1217.6797,318.8594 Q1217.8281,318.7813 1218.0313,318.7813 Q1218.3594,318.7813 1218.6172,319.0391 Q1218.875,319.2969 1218.875,319.6406 Q1218.875,319.9844 1218.5313,320.3906 Q1218.0313,320.9688 1217.2344,321.2969 Q1216.1563,321.75 1214.8594,321.75 Q1213.3438,321.75 1212.1406,321.125 Q1211.1563,320.625 1210.4688,319.5547 Q1209.7813,318.4844 1209.7813,317.2031 L1209.7813,316.0469 Q1209.7813,314.7188 1210.3984,313.5703 Q1211.0156,312.4219 1212.1094,311.8047 Q1213.2031,311.1875 1214.4375,311.1875 Q1215.1719,311.1875 1215.8203,311.3516 Q1216.4688,311.5156 1217.0156,311.875 Z " fill="#000000"/><text fill="#000000" font-family="sans-serif" font-size="14" lengthAdjust="spacing" textLength="107" x="1234.75" y="321.7285">SettingsManager</text><line style="stroke:#181818;stroke-width:0.5;" x1="1131.5" x2="1412.5" y1="332" y2="332"/><rect fill="none" height="6" style="stroke:#C82930;stroke-width:1.0;" width="6" x="1138.5" y="343.3047"/><text fill="#000000" font-family="sans-serif" font-size="14" lengthAdjust="spacing" textLength="101" x="1150.5" y="350.5332">settings: Setting</text><line style="stroke:#181818;stroke-width:0.5;" x1="1131.5" x2="1412.5" y1="357.6094" y2="357.6094"/><ellipse cx="1141.5" cy="371.9141" fill="#84BE84" rx="3" ry="3" style="stroke:#038048;stroke-width:1.0;"/><text fill="#000000" font-family="sans-serif" font-size="14" lengthAdjust="spacing" textLength="257" x="1150.5" y="376.1426">setSetting(key: string, value: string): void</text><ellipse cx="1141.5" cy="389.5234" fill="#84BE84" rx="3" ry="3" style="stroke:#038048;stroke-width:1.0;"/><text fill="#000000" font-family="sans-serif" font-size="14" lengthAdjust="spacing" textLength="182" x="1150.5" y="393.752">getSetting(key: string): string</text><ellipse cx="1141.5" cy="407.1328" fill="#84BE84" rx="3" ry="3" style="stroke:#038048;stroke-width:1.0;"/><text fill="#000000" font-family="sans-serif" font-size="14" lengthAdjust="spacing" textLength="125" x="1150.5" y="411.3613">saveSettings(): void</text></g><!--class Setting--><g id="elem_Setting"><rect codeLine="70" fill="#F1F1F1" height="259.3125" id="Setting" rx="2.5" ry="2.5" style="stroke:#181818;stroke-width:0.5;" width="144" x="1200" y="558"/><ellipse cx="1245.75" cy="574" fill="#ADD1B2" rx="11" ry="11" style="stroke:#181818;stroke-width:1.0;"/><path d="M1248.5156,569.875 Q1248.6719,569.6563 1248.8594,569.5469 Q1249.0469,569.4375 1249.2656,569.4375 Q1249.6406,569.4375 1249.875,569.6953 Q1250.1094,569.9531 1250.1094,570.5625 L1250.1094,572.0156 Q1250.1094,572.625 1249.875,572.8906 Q1249.6406,573.1563 1249.2656,573.1563 Q1248.9219,573.1563 1248.7188,572.9531 Q1248.5156,572.7656 1248.4063,572.25 Q1248.3594,571.8906 1248.1719,571.7031 Q1247.8438,571.3281 1247.2344,571.1094 Q1246.625,570.8906 1246,570.8906 Q1245.2344,570.8906 1244.6016,571.2188 Q1243.9688,571.5469 1243.4766,572.2969 Q1242.9844,573.0469 1242.9844,574.0781 L1242.9844,575.1719 Q1242.9844,576.4063 1243.875,577.2266 Q1244.7656,578.0469 1246.3594,578.0469 Q1247.2969,578.0469 1247.9531,577.7969 Q1248.3438,577.6406 1248.7656,577.2031 Q1249.0313,576.9375 1249.1797,576.8594 Q1249.3281,576.7813 1249.5313,576.7813 Q1249.8594,576.7813 1250.1172,577.0391 Q1250.375,577.2969 1250.375,577.6406 Q1250.375,577.9844 1250.0313,578.3906 Q1249.5313,578.9688 1248.7344,579.2969 Q1247.6563,579.75 1246.3594,579.75 Q1244.8438,579.75 1243.6406,579.125 Q1242.6563,578.625 1241.9688,577.5547 Q1241.2813,576.4844 1241.2813,575.2031 L1241.2813,574.0469 Q1241.2813,572.7188 1241.8984,571.5703 Q1242.5156,570.4219 1243.6094,569.8047 Q1244.7031,569.1875 1245.9375,569.1875 Q1246.6719,569.1875 1247.3203,569.3516 Q1247.9688,569.5156 1248.5156,569.875 Z " fill="#000000"/><text fill="#000000" font-family="sans-serif" font-size="14" lengthAdjust="spacing" textLength="44" x="1266.25" y="579.7285">Setting</text><line style="stroke:#181818;stroke-width:0.5;" x1="1201" x2="1343" y1="590" y2="590"/><ellipse cx="1211" cy="604.3047" fill="none" rx="3" ry="3" style="stroke:#038048;stroke-width:1.0;"/><text fill="#000000" font-family="sans-serif" font-size="14" lengthAdjust="spacing" textLength="102" x="1220" y="608.5332">language: enum</text><ellipse cx="1211" cy="621.9141" fill="none" rx="3" ry="3" style="stroke:#038048;stroke-width:1.0;"/><text fill="#000000" font-family="sans-serif" font-size="14" lengthAdjust="spacing" textLength="90" x="1220" y="626.1426">country: enum</text><ellipse cx="1211" cy="639.5234" fill="none" rx="3" ry="3" style="stroke:#038048;stroke-width:1.0;"/><text fill="#000000" font-family="sans-serif" font-size="14" lengthAdjust="spacing" textLength="98" x="1220" y="643.752">currency: enum</text><ellipse cx="1211" cy="657.1328" fill="none" rx="3" ry="3" style="stroke:#038048;stroke-width:1.0;"/><text fill="#000000" font-family="sans-serif" font-size="14" lengthAdjust="spacing" textLength="107" x="1220" y="661.3613">time_zone: enum</text><line style="stroke:#181818;stroke-width:0.5;" x1="1201" x2="1343" y1="668.4375" y2="668.4375"/><ellipse cx="1211" cy="682.7422" fill="#84BE84" rx="3" ry="3" style="stroke:#038048;stroke-width:1.0;"/><text fill="#000000" font-family="sans-serif" font-size="14" lengthAdjust="spacing" textLength="93" x="1220" y="686.9707">setLanguage()</text><ellipse cx="1211" cy="700.3516" fill="#84BE84" rx="3" ry="3" style="stroke:#038048;stroke-width:1.0;"/><text fill="#000000" font-family="sans-serif" font-size="14" lengthAdjust="spacing" textLength="118" x="1220" y="704.5801">updateLanguage()</text><ellipse cx="1211" cy="717.9609" fill="#84BE84" rx="3" ry="3" style="stroke:#038048;stroke-width:1.0;"/><text fill="#000000" font-family="sans-serif" font-size="14" lengthAdjust="spacing" textLength="79" x="1220" y="722.1895">setCountry()</text><ellipse cx="1211" cy="735.5703" fill="#84BE84" rx="3" ry="3" style="stroke:#038048;stroke-width:1.0;"/><text fill="#000000" font-family="sans-serif" font-size="14" lengthAdjust="spacing" textLength="104" x="1220" y="739.7988">updateCountry()</text><ellipse cx="1211" cy="753.1797" fill="#84BE84" rx="3" ry="3" style="stroke:#038048;stroke-width:1.0;"/><text fill="#000000" font-family="sans-serif" font-size="14" lengthAdjust="spacing" textLength="87" x="1220" y="757.4082">setCurrency()</text><ellipse cx="1211" cy="770.7891" fill="#84BE84" rx="3" ry="3" style="stroke:#038048;stroke-width:1.0;"/><text fill="#000000" font-family="sans-serif" font-size="14" lengthAdjust="spacing" textLength="112" x="1220" y="775.0176">updateCurrency()</text><ellipse cx="1211" cy="788.3984" fill="#84BE84" rx="3" ry="3" style="stroke:#038048;stroke-width:1.0;"/><text fill="#000000" font-family="sans-serif" font-size="14" lengthAdjust="spacing" textLength="92" x="1220" y="792.627">setTimeZone()</text><ellipse cx="1211" cy="806.0078" fill="#84BE84" rx="3" ry="3" style="stroke:#038048;stroke-width:1.0;"/><text fill="#000000" font-family="sans-serif" font-size="14" lengthAdjust="spacing" textLength="117" x="1220" y="810.2363">updateTimeZone()</text></g><!--class AdminSetting--><g id="elem_AdminSetting"><rect codeLine="86" fill="#F1F1F1" height="118.4375" id="AdminSetting" rx="2.5" ry="2.5" style="stroke:#181818;stroke-width:0.5;" width="205" x="1169.5" y="878"/><ellipse cx="1226.25" cy="894" fill="#ADD1B2" rx="11" ry="11" style="stroke:#181818;stroke-width:1.0;"/><path d="M1229.0156,889.875 Q1229.1719,889.6563 1229.3594,889.5469 Q1229.5469,889.4375 1229.7656,889.4375 Q1230.1406,889.4375 1230.375,889.6953 Q1230.6094,889.9531 1230.6094,890.5625 L1230.6094,892.0156 Q1230.6094,892.625 1230.375,892.8906 Q1230.1406,893.1563 1229.7656,893.1563 Q1229.4219,893.1563 1229.2188,892.9531 Q1229.0156,892.7656 1228.9063,892.25 Q1228.8594,891.8906 1228.6719,891.7031 Q1228.3438,891.3281 1227.7344,891.1094 Q1227.125,890.8906 1226.5,890.8906 Q1225.7344,890.8906 1225.1016,891.2188 Q1224.4688,891.5469 1223.9766,892.2969 Q1223.4844,893.0469 1223.4844,894.0781 L1223.4844,895.1719 Q1223.4844,896.4063 1224.375,897.2266 Q1225.2656,898.0469 1226.8594,898.0469 Q1227.7969,898.0469 1228.4531,897.7969 Q1228.8438,897.6406 1229.2656,897.2031 Q1229.5313,896.9375 1229.6797,896.8594 Q1229.8281,896.7813 1230.0313,896.7813 Q1230.3594,896.7813 1230.6172,897.0391 Q1230.875,897.2969 1230.875,897.6406 Q1230.875,897.9844 1230.5313,898.3906 Q1230.0313,898.9688 1229.2344,899.2969 Q1228.1563,899.75 1226.8594,899.75 Q1225.3438,899.75 1224.1406,899.125 Q1223.1563,898.625 1222.4688,897.5547 Q1221.7813,896.4844 1221.7813,895.2031 L1221.7813,894.0469 Q1221.7813,892.7188 1222.3984,891.5703 Q1223.0156,890.4219 1224.1094,889.8047 Q1225.2031,889.1875 1226.4375,889.1875 Q1227.1719,889.1875 1227.8203,889.3516 Q1228.4688,889.5156 1229.0156,889.875 Z " fill="#000000"/><text fill="#000000" font-family="sans-serif" font-size="14" lengthAdjust="spacing" textLength="83" x="1246.75" y="899.7285">AdminSetting</text><line style="stroke:#181818;stroke-width:0.5;" x1="1170.5" x2="1373.5" y1="910" y2="910"/><ellipse cx="1180.5" cy="924.3047" fill="none" rx="3" ry="3" style="stroke:#038048;stroke-width:1.0;"/><text fill="#000000" font-family="sans-serif" font-size="14" lengthAdjust="spacing" textLength="127" x="1189.5" y="928.5332">gradingSystemState</text><ellipse cx="1180.5" cy="941.9141" fill="none" rx="3" ry="3" style="stroke:#038048;stroke-width:1.0;"/><text fill="#000000" font-family="sans-serif" font-size="14" lengthAdjust="spacing" textLength="89" x="1189.5" y="946.1426">uniqueIDState</text><line style="stroke:#181818;stroke-width:0.5;" x1="1170.5" x2="1373.5" y1="953.2188" y2="953.2188"/><ellipse cx="1180.5" cy="967.5234" fill="#84BE84" rx="3" ry="3" style="stroke:#038048;stroke-width:1.0;"/><text fill="#000000" font-family="sans-serif" font-size="14" lengthAdjust="spacing" textLength="150" x="1189.5" y="971.752">enableGradingSystem()</text><ellipse cx="1180.5" cy="985.1328" fill="#84BE84" rx="3" ry="3" style="stroke:#038048;stroke-width:1.0;"/><text fill="#000000" font-family="sans-serif" font-size="14" lengthAdjust="spacing" textLength="179" x="1189.5" y="989.3613">enableAutomaticUniqueIDs()</text></g><!--class CourseManager--><g id="elem_CourseManager"><rect codeLine="94" fill="#F1F1F1" height="118.4375" id="CourseManager" rx="2.5" ry="2.5" style="stroke:#181818;stroke-width:0.5;" width="430" x="1449" y="300"/><ellipse cx="1608.75" cy="316" fill="#ADD1B2" rx="11" ry="11" style="stroke:#181818;stroke-width:1.0;"/><path d="M1611.5156,311.875 Q1611.6719,311.6563 1611.8594,311.5469 Q1612.0469,311.4375 1612.2656,311.4375 Q1612.6406,311.4375 1612.875,311.6953 Q1613.1094,311.9531 1613.1094,312.5625 L1613.1094,314.0156 Q1613.1094,314.625 1612.875,314.8906 Q1612.6406,315.1563 1612.2656,315.1563 Q1611.9219,315.1563 1611.7188,314.9531 Q1611.5156,314.7656 1611.4063,314.25 Q1611.3594,313.8906 1611.1719,313.7031 Q1610.8438,313.3281 1610.2344,313.1094 Q1609.625,312.8906 1609,312.8906 Q1608.2344,312.8906 1607.6016,313.2188 Q1606.9688,313.5469 1606.4766,314.2969 Q1605.9844,315.0469 1605.9844,316.0781 L1605.9844,317.1719 Q1605.9844,318.4063 1606.875,319.2266 Q1607.7656,320.0469 1609.3594,320.0469 Q1610.2969,320.0469 1610.9531,319.7969 Q1611.3438,319.6406 1611.7656,319.2031 Q1612.0313,318.9375 1612.1797,318.8594 Q1612.3281,318.7813 1612.5313,318.7813 Q1612.8594,318.7813 1613.1172,319.0391 Q1613.375,319.2969 1613.375,319.6406 Q1613.375,319.9844 1613.0313,320.3906 Q1612.5313,320.9688 1611.7344,321.2969 Q1610.6563,321.75 1609.3594,321.75 Q1607.8438,321.75 1606.6406,321.125 Q1605.6563,320.625 1604.9688,319.5547 Q1604.2813,318.4844 1604.2813,317.2031 L1604.2813,316.0469 Q1604.2813,314.7188 1604.8984,313.5703 Q1605.5156,312.4219 1606.6094,311.8047 Q1607.7031,311.1875 1608.9375,311.1875 Q1609.6719,311.1875 1610.3203,311.3516 Q1610.9688,311.5156 1611.5156,311.875 Z " fill="#000000"/><text fill="#000000" font-family="sans-serif" font-size="14" lengthAdjust="spacing" textLength="102" x="1629.25" y="321.7285">CourseManager</text><line style="stroke:#181818;stroke-width:0.5;" x1="1450" x2="1878" y1="332" y2="332"/><rect fill="none" height="6" style="stroke:#C82930;stroke-width:1.0;" width="6" x="1457" y="343.3047"/><text fill="#000000" font-family="sans-serif" font-size="14" lengthAdjust="spacing" textLength="142" x="1469" y="350.5332">courses: List&lt;Course&gt;</text><line style="stroke:#181818;stroke-width:0.5;" x1="1450" x2="1878" y1="357.6094" y2="357.6094"/><ellipse cx="1460" cy="371.9141" fill="#84BE84" rx="3" ry="3" style="stroke:#038048;stroke-width:1.0;"/><text fill="#000000" font-family="sans-serif" font-size="14" lengthAdjust="spacing" textLength="211" x="1469" y="376.1426">addCourse(course: Course): void</text><ellipse cx="1460" cy="389.5234" fill="#84BE84" rx="3" ry="3" style="stroke:#038048;stroke-width:1.0;"/><text fill="#000000" font-family="sans-serif" font-size="14" lengthAdjust="spacing" textLength="234" x="1469" y="393.752">removeCourse(courseId: string): void</text><ellipse cx="1460" cy="407.1328" fill="#84BE84" rx="3" ry="3" style="stroke:#038048;stroke-width:1.0;"/><text fill="#000000" font-family="sans-serif" font-size="14" lengthAdjust="spacing" textLength="404" x="1469" y="411.3613">updateCourse(courseId: string, newDetails: CourseDetails): void</text></g><!--class Course--><g id="elem_Course"><rect codeLine="102" fill="#F1F1F1" height="206.4844" id="Course" rx="2.5" ry="2.5" style="stroke:#181818;stroke-width:0.5;" width="180" x="1574" y="584.5"/><ellipse cx="1636.75" cy="600.5" fill="#ADD1B2" rx="11" ry="11" style="stroke:#181818;stroke-width:1.0;"/><path d="M1639.5156,596.375 Q1639.6719,596.1563 1639.8594,596.0469 Q1640.0469,595.9375 1640.2656,595.9375 Q1640.6406,595.9375 1640.875,596.1953 Q1641.1094,596.4531 1641.1094,597.0625 L1641.1094,598.5156 Q1641.1094,599.125 1640.875,599.3906 Q1640.6406,599.6563 1640.2656,599.6563 Q1639.9219,599.6563 1639.7188,599.4531 Q1639.5156,599.2656 1639.4063,598.75 Q1639.3594,598.3906 1639.1719,598.2031 Q1638.8438,597.8281 1638.2344,597.6094 Q1637.625,597.3906 1637,597.3906 Q1636.2344,597.3906 1635.6016,597.7188 Q1634.9688,598.0469 1634.4766,598.7969 Q1633.9844,599.5469 1633.9844,600.5781 L1633.9844,601.6719 Q1633.9844,602.9063 1634.875,603.7266 Q1635.7656,604.5469 1637.3594,604.5469 Q1638.2969,604.5469 1638.9531,604.2969 Q1639.3438,604.1406 1639.7656,603.7031 Q1640.0313,603.4375 1640.1797,603.3594 Q1640.3281,603.2813 1640.5313,603.2813 Q1640.8594,603.2813 1641.1172,603.5391 Q1641.375,603.7969 1641.375,604.1406 Q1641.375,604.4844 1641.0313,604.8906 Q1640.5313,605.4688 1639.7344,605.7969 Q1638.6563,606.25 1637.3594,606.25 Q1635.8438,606.25 1634.6406,605.625 Q1633.6563,605.125 1632.9688,604.0547 Q1632.2813,602.9844 1632.2813,601.7031 L1632.2813,600.5469 Q1632.2813,599.2188 1632.8984,598.0703 Q1633.5156,596.9219 1634.6094,596.3047 Q1635.7031,595.6875 1636.9375,595.6875 Q1637.6719,595.6875 1638.3203,595.8516 Q1638.9688,596.0156 1639.5156,596.375 Z " fill="#000000"/><text fill="#000000" font-family="sans-serif" font-size="14" lengthAdjust="spacing" textLength="46" x="1657.25" y="606.2285">Course</text><line style="stroke:#181818;stroke-width:0.5;" x1="1575" x2="1753" y1="616.5" y2="616.5"/><ellipse cx="1585" cy="630.8047" fill="none" rx="3" ry="3" style="stroke:#038048;stroke-width:1.0;"/><text fill="#000000" font-family="sans-serif" font-size="14" lengthAdjust="spacing" textLength="34" x="1594" y="635.0332">id: int</text><ellipse cx="1585" cy="648.4141" fill="none" rx="3" ry="3" style="stroke:#038048;stroke-width:1.0;"/><text fill="#000000" font-family="sans-serif" font-size="14" lengthAdjust="spacing" textLength="78" x="1594" y="652.6426">name: string</text><ellipse cx="1585" cy="666.0234" fill="none" rx="3" ry="3" style="stroke:#038048;stroke-width:1.0;"/><text fill="#000000" font-family="sans-serif" font-size="14" lengthAdjust="spacing" textLength="65" x="1594" y="670.252">credits: int</text><ellipse cx="1585" cy="683.6328" fill="none" rx="3" ry="3" style="stroke:#038048;stroke-width:1.0;"/><text fill="#000000" font-family="sans-serif" font-size="14" lengthAdjust="spacing" textLength="70" x="1594" y="687.8613">type: enum</text><ellipse cx="1585" cy="701.2422" fill="none" rx="3" ry="3" style="stroke:#038048;stroke-width:1.0;"/><text fill="#000000" font-family="sans-serif" font-size="14" lengthAdjust="spacing" textLength="75" x="1594" y="705.4707">strength: int</text><line style="stroke:#181818;stroke-width:0.5;" x1="1575" x2="1753" y1="712.5469" y2="712.5469"/><ellipse cx="1585" cy="726.8516" fill="#84BE84" rx="3" ry="3" style="stroke:#038048;stroke-width:1.0;"/><text fill="#000000" font-family="sans-serif" font-size="14" lengthAdjust="spacing" textLength="136" x="1594" y="731.0801">updateCourseName()</text><ellipse cx="1585" cy="744.4609" fill="#84BE84" rx="3" ry="3" style="stroke:#038048;stroke-width:1.0;"/><text fill="#000000" font-family="sans-serif" font-size="14" lengthAdjust="spacing" textLength="145" x="1594" y="748.6895">updateCourseCredits()</text><ellipse cx="1585" cy="762.0703" fill="#84BE84" rx="3" ry="3" style="stroke:#038048;stroke-width:1.0;"/><text fill="#000000" font-family="sans-serif" font-size="14" lengthAdjust="spacing" textLength="132" x="1594" y="766.2988">updateCourseType()</text><ellipse cx="1585" cy="779.6797" fill="#84BE84" rx="3" ry="3" style="stroke:#038048;stroke-width:1.0;"/><text fill="#000000" font-family="sans-serif" font-size="14" lengthAdjust="spacing" textLength="154" x="1594" y="783.9082">updateCourseStrength()</text></g><!--class Elective--><g id="elem_Elective"><rect codeLine="115" fill="#F1F1F1" height="83.2188" id="Elective" rx="2.5" ry="2.5" style="stroke:#181818;stroke-width:0.5;" width="159" x="1584.5" y="895.5"/><ellipse cx="1635.25" cy="911.5" fill="#ADD1B2" rx="11" ry="11" style="stroke:#181818;stroke-width:1.0;"/><path d="M1638.0156,907.375 Q1638.1719,907.1563 1638.3594,907.0469 Q1638.5469,906.9375 1638.7656,906.9375 Q1639.1406,906.9375 1639.375,907.1953 Q1639.6094,907.4531 1639.6094,908.0625 L1639.6094,909.5156 Q1639.6094,910.125 1639.375,910.3906 Q1639.1406,910.6563 1638.7656,910.6563 Q1638.4219,910.6563 1638.2188,910.4531 Q1638.0156,910.2656 1637.9063,909.75 Q1637.8594,909.3906 1637.6719,909.2031 Q1637.3438,908.8281 1636.7344,908.6094 Q1636.125,908.3906 1635.5,908.3906 Q1634.7344,908.3906 1634.1016,908.7188 Q1633.4688,909.0469 1632.9766,909.7969 Q1632.4844,910.5469 1632.4844,911.5781 L1632.4844,912.6719 Q1632.4844,913.9063 1633.375,914.7266 Q1634.2656,915.5469 1635.8594,915.5469 Q1636.7969,915.5469 1637.4531,915.2969 Q1637.8438,915.1406 1638.2656,914.7031 Q1638.5313,914.4375 1638.6797,914.3594 Q1638.8281,914.2813 1639.0313,914.2813 Q1639.3594,914.2813 1639.6172,914.5391 Q1639.875,914.7969 1639.875,915.1406 Q1639.875,915.4844 1639.5313,915.8906 Q1639.0313,916.4688 1638.2344,916.7969 Q1637.1563,917.25 1635.8594,917.25 Q1634.3438,917.25 1633.1406,916.625 Q1632.1563,916.125 1631.4688,915.0547 Q1630.7813,913.9844 1630.7813,912.7031 L1630.7813,911.5469 Q1630.7813,910.2188 1631.3984,909.0703 Q1632.0156,907.9219 1633.1094,907.3047 Q1634.2031,906.6875 1635.4375,906.6875 Q1636.1719,906.6875 1636.8203,906.8516 Q1637.4688,907.0156 1638.0156,907.375 Z " fill="#000000"/><text fill="#000000" font-family="sans-serif" font-size="14" lengthAdjust="spacing" textLength="49" x="1655.75" y="917.2285">Elective</text><line style="stroke:#181818;stroke-width:0.5;" x1="1585.5" x2="1742.5" y1="927.5" y2="927.5"/><ellipse cx="1595.5" cy="941.8047" fill="none" rx="3" ry="3" style="stroke:#038048;stroke-width:1.0;"/><text fill="#000000" font-family="sans-serif" font-size="14" lengthAdjust="spacing" textLength="85" x="1604.5" y="946.0332">max_strength</text><line style="stroke:#181818;stroke-width:0.5;" x1="1585.5" x2="1742.5" y1="953.1094" y2="953.1094"/><ellipse cx="1595.5" cy="967.4141" fill="#84BE84" rx="3" ry="3" style="stroke:#038048;stroke-width:1.0;"/><text fill="#000000" font-family="sans-serif" font-size="14" lengthAdjust="spacing" textLength="133" x="1604.5" y="971.6426">updateMaxStrength()</text></g><!--class BatchManager--><g id="elem_BatchManager"><rect codeLine="121" fill="#F1F1F1" height="118.4375" id="BatchManager" rx="2.5" ry="2.5" style="stroke:#181818;stroke-width:0.5;" width="402" x="1914" y="300"/><ellipse cx="2064.75" cy="316" fill="#ADD1B2" rx="11" ry="11" style="stroke:#181818;stroke-width:1.0;"/><path d="M2067.5156,311.875 Q2067.6719,311.6563 2067.8594,311.5469 Q2068.0469,311.4375 2068.2656,311.4375 Q2068.6406,311.4375 2068.875,311.6953 Q2069.1094,311.9531 2069.1094,312.5625 L2069.1094,314.0156 Q2069.1094,314.625 2068.875,314.8906 Q2068.6406,315.1563 2068.2656,315.1563 Q2067.9219,315.1563 2067.7188,314.9531 Q2067.5156,314.7656 2067.4063,314.25 Q2067.3594,313.8906 2067.1719,313.7031 Q2066.8438,313.3281 2066.2344,313.1094 Q2065.625,312.8906 2065,312.8906 Q2064.2344,312.8906 2063.6016,313.2188 Q2062.9688,313.5469 2062.4766,314.2969 Q2061.9844,315.0469 2061.9844,316.0781 L2061.9844,317.1719 Q2061.9844,318.4063 2062.875,319.2266 Q2063.7656,320.0469 2065.3594,320.0469 Q2066.2969,320.0469 2066.9531,319.7969 Q2067.3438,319.6406 2067.7656,319.2031 Q2068.0313,318.9375 2068.1797,318.8594 Q2068.3281,318.7813 2068.5313,318.7813 Q2068.8594,318.7813 2069.1172,319.0391 Q2069.375,319.2969 2069.375,319.6406 Q2069.375,319.9844 2069.0313,320.3906 Q2068.5313,320.9688 2067.7344,321.2969 Q2066.6563,321.75 2065.3594,321.75 Q2063.8438,321.75 2062.6406,321.125 Q2061.6563,320.625 2060.9688,319.5547 Q2060.2813,318.4844 2060.2813,317.2031 L2060.2813,316.0469 Q2060.2813,314.7188 2060.8984,313.5703 Q2061.5156,312.4219 2062.6094,311.8047 Q2063.7031,311.1875 2064.9375,311.1875 Q2065.6719,311.1875 2066.3203,311.3516 Q2066.9688,311.5156 2067.5156,311.875 Z " fill="#000000"/><text fill="#000000" font-family="sans-serif" font-size="14" lengthAdjust="spacing" textLength="92" x="2085.25" y="321.7285">BatchManager</text><line style="stroke:#181818;stroke-width:0.5;" x1="1915" x2="2315" y1="332" y2="332"/><rect fill="none" height="6" style="stroke:#C82930;stroke-width:1.0;" width="6" x="1922" y="343.3047"/><text fill="#000000" font-family="sans-serif" font-size="14" lengthAdjust="spacing" textLength="132" x="1934" y="350.5332">batches: List&lt;Batch&gt;</text><line style="stroke:#181818;stroke-width:0.5;" x1="1915" x2="2315" y1="357.6094" y2="357.6094"/><ellipse cx="1925" cy="371.9141" fill="#84BE84" rx="3" ry="3" style="stroke:#038048;stroke-width:1.0;"/><text fill="#000000" font-family="sans-serif" font-size="14" lengthAdjust="spacing" textLength="183" x="1934" y="376.1426">addBatch(batch: Batch): void</text><ellipse cx="1925" cy="389.5234" fill="#84BE84" rx="3" ry="3" style="stroke:#038048;stroke-width:1.0;"/><text fill="#000000" font-family="sans-serif" font-size="14" lengthAdjust="spacing" textLength="216" x="1934" y="393.752">removeBatch(batchId: string): void</text><ellipse cx="1925" cy="407.1328" fill="#84BE84" rx="3" ry="3" style="stroke:#038048;stroke-width:1.0;"/><text fill="#000000" font-family="sans-serif" font-size="14" lengthAdjust="spacing" textLength="376" x="1934" y="411.3613">updateBatch(batchId: string, newDetails: BatchDetails): void</text></g><!--class Batch--><g id="elem_Batch"><rect codeLine="128" fill="#F1F1F1" height="188.875" id="Batch" rx="2.5" ry="2.5" style="stroke:#181818;stroke-width:0.5;" width="194" x="2018" y="593"/><ellipse cx="2092.75" cy="609" fill="#ADD1B2" rx="11" ry="11" style="stroke:#181818;stroke-width:1.0;"/><path d="M2095.5156,604.875 Q2095.6719,604.6563 2095.8594,604.5469 Q2096.0469,604.4375 2096.2656,604.4375 Q2096.6406,604.4375 2096.875,604.6953 Q2097.1094,604.9531 2097.1094,605.5625 L2097.1094,607.0156 Q2097.1094,607.625 2096.875,607.8906 Q2096.6406,608.1563 2096.2656,608.1563 Q2095.9219,608.1563 2095.7188,607.9531 Q2095.5156,607.7656 2095.4063,607.25 Q2095.3594,606.8906 2095.1719,606.7031 Q2094.8438,606.3281 2094.2344,606.1094 Q2093.625,605.8906 2093,605.8906 Q2092.2344,605.8906 2091.6016,606.2188 Q2090.9688,606.5469 2090.4766,607.2969 Q2089.9844,608.0469 2089.9844,609.0781 L2089.9844,610.1719 Q2089.9844,611.4063 2090.875,612.2266 Q2091.7656,613.0469 2093.3594,613.0469 Q2094.2969,613.0469 2094.9531,612.7969 Q2095.3438,612.6406 2095.7656,612.2031 Q2096.0313,611.9375 2096.1797,611.8594 Q2096.3281,611.7813 2096.5313,611.7813 Q2096.8594,611.7813 2097.1172,612.0391 Q2097.375,612.2969 2097.375,612.6406 Q2097.375,612.9844 2097.0313,613.3906 Q2096.5313,613.9688 2095.7344,614.2969 Q2094.6563,614.75 2093.3594,614.75 Q2091.8438,614.75 2090.6406,614.125 Q2089.6563,613.625 2088.9688,612.5547 Q2088.2813,611.4844 2088.2813,610.2031 L2088.2813,609.0469 Q2088.2813,607.7188 2088.8984,606.5703 Q2089.5156,605.4219 2090.6094,604.8047 Q2091.7031,604.1875 2092.9375,604.1875 Q2093.6719,604.1875 2094.3203,604.3516 Q2094.9688,604.5156 2095.5156,604.875 Z " fill="#000000"/><text fill="#000000" font-family="sans-serif" font-size="14" lengthAdjust="spacing" textLength="36" x="2113.25" y="614.7285">Batch</text><line style="stroke:#181818;stroke-width:0.5;" x1="2019" x2="2211" y1="625" y2="625"/><ellipse cx="2029" cy="639.3047" fill="none" rx="3" ry="3" style="stroke:#038048;stroke-width:1.0;"/><text fill="#000000" font-family="sans-serif" font-size="14" lengthAdjust="spacing" textLength="34" x="2038" y="643.5332">id: int</text><ellipse cx="2029" cy="656.9141" fill="none" rx="3" ry="3" style="stroke:#038048;stroke-width:1.0;"/><text fill="#000000" font-family="sans-serif" font-size="14" lengthAdjust="spacing" textLength="78" x="2038" y="661.1426">name: string</text><ellipse cx="2029" cy="674.5234" fill="none" rx="3" ry="3" style="stroke:#038048;stroke-width:1.0;"/><text fill="#000000" font-family="sans-serif" font-size="14" lengthAdjust="spacing" textLength="75" x="2038" y="678.752">strength: int</text><ellipse cx="2029" cy="692.1328" fill="none" rx="3" ry="3" style="stroke:#038048;stroke-width:1.0;"/><text fill="#000000" font-family="sans-serif" font-size="14" lengthAdjust="spacing" textLength="113" x="2038" y="696.3613">isGraduated: bool</text><line style="stroke:#181818;stroke-width:0.5;" x1="2019" x2="2211" y1="703.4375" y2="703.4375"/><ellipse cx="2029" cy="717.7422" fill="#84BE84" rx="3" ry="3" style="stroke:#038048;stroke-width:1.0;"/><text fill="#000000" font-family="sans-serif" font-size="14" lengthAdjust="spacing" textLength="79" x="2038" y="721.9707">getBatchID()</text><ellipse cx="2029" cy="735.3516" fill="#84BE84" rx="3" ry="3" style="stroke:#038048;stroke-width:1.0;"/><text fill="#000000" font-family="sans-serif" font-size="14" lengthAdjust="spacing" textLength="126" x="2038" y="739.5801">updateBatchName()</text><ellipse cx="2029" cy="752.9609" fill="#84BE84" rx="3" ry="3" style="stroke:#038048;stroke-width:1.0;"/><text fill="#000000" font-family="sans-serif" font-size="14" lengthAdjust="spacing" textLength="144" x="2038" y="757.1895">updateBatchStrength()</text><ellipse cx="2029" cy="770.5703" fill="#84BE84" rx="3" ry="3" style="stroke:#038048;stroke-width:1.0;"/><text fill="#000000" font-family="sans-serif" font-size="14" lengthAdjust="spacing" textLength="168" x="2038" y="774.7988">changeGraduationStatus()</text></g><!--class SMS_Module--><g id="elem_SMS_Module"><rect codeLine="140" fill="#F1F1F1" height="241.7031" id="SMS_Module" rx="2.5" ry="2.5" style="stroke:#181818;stroke-width:0.5;" width="344" x="2351" y="238"/><ellipse cx="2477.25" cy="254" fill="#ADD1B2" rx="11" ry="11" style="stroke:#181818;stroke-width:1.0;"/><path d="M2480.0156,249.875 Q2480.1719,249.6563 2480.3594,249.5469 Q2480.5469,249.4375 2480.7656,249.4375 Q2481.1406,249.4375 2481.375,249.6953 Q2481.6094,249.9531 2481.6094,250.5625 L2481.6094,252.0156 Q2481.6094,252.625 2481.375,252.8906 Q2481.1406,253.1563 2480.7656,253.1563 Q2480.4219,253.1563 2480.2188,252.9531 Q2480.0156,252.7656 2479.9063,252.25 Q2479.8594,251.8906 2479.6719,251.7031 Q2479.3438,251.3281 2478.7344,251.1094 Q2478.125,250.8906 2477.5,250.8906 Q2476.7344,250.8906 2476.1016,251.2188 Q2475.4688,251.5469 2474.9766,252.2969 Q2474.4844,253.0469 2474.4844,254.0781 L2474.4844,255.1719 Q2474.4844,256.4063 2475.375,257.2266 Q2476.2656,258.0469 2477.8594,258.0469 Q2478.7969,258.0469 2479.4531,257.7969 Q2479.8438,257.6406 2480.2656,257.2031 Q2480.5313,256.9375 2480.6797,256.8594 Q2480.8281,256.7813 2481.0313,256.7813 Q2481.3594,256.7813 2481.6172,257.0391 Q2481.875,257.2969 2481.875,257.6406 Q2481.875,257.9844 2481.5313,258.3906 Q2481.0313,258.9688 2480.2344,259.2969 Q2479.1563,259.75 2477.8594,259.75 Q2476.3438,259.75 2475.1406,259.125 Q2474.1563,258.625 2473.4688,257.5547 Q2472.7813,256.4844 2472.7813,255.2031 L2472.7813,254.0469 Q2472.7813,252.7188 2473.3984,251.5703 Q2474.0156,250.4219 2475.1094,249.8047 Q2476.2031,249.1875 2477.4375,249.1875 Q2478.1719,249.1875 2478.8203,249.3516 Q2479.4688,249.5156 2480.0156,249.875 Z " fill="#000000"/><text fill="#000000" font-family="sans-serif" font-size="14" lengthAdjust="spacing" textLength="83" x="2497.75" y="259.7285">SMS_Module</text><line style="stroke:#181818;stroke-width:0.5;" x1="2352" x2="2694" y1="270" y2="270"/><rect fill="none" height="6" style="stroke:#C82930;stroke-width:1.0;" width="6" x="2359" y="281.3047"/><text fill="#000000" font-family="sans-serif" font-size="14" lengthAdjust="spacing" textLength="112" x="2371" y="288.5332">phoneNumber: int</text><rect fill="none" height="6" style="stroke:#C82930;stroke-width:1.0;" width="6" x="2359" y="298.9141"/><text fill="#000000" font-family="sans-serif" font-size="14" lengthAdjust="spacing" textLength="100" x="2371" y="306.1426">message: string</text><rect fill="none" height="6" style="stroke:#C82930;stroke-width:1.0;" width="6" x="2359" y="316.5234"/><text fill="#000000" font-family="sans-serif" font-size="14" lengthAdjust="spacing" textLength="103" x="2371" y="323.752">isActivated: bool</text><rect fill="none" height="6" style="stroke:#C82930;stroke-width:1.0;" width="6" x="2359" y="334.1328"/><text fill="#000000" font-family="sans-serif" font-size="14" lengthAdjust="spacing" textLength="212" x="2371" y="341.3613">recipientPhoneNumbers: List&lt;int&gt;</text><line style="stroke:#181818;stroke-width:0.5;" x1="2352" x2="2694" y1="348.4375" y2="348.4375"/><ellipse cx="2362" cy="362.7422" fill="#84BE84" rx="3" ry="3" style="stroke:#038048;stroke-width:1.0;"/><text fill="#000000" font-family="sans-serif" font-size="14" lengthAdjust="spacing" textLength="142" x="2371" y="366.9707">activateSMS_Module()</text><ellipse cx="2362" cy="380.3516" fill="#84BE84" rx="3" ry="3" style="stroke:#038048;stroke-width:1.0;"/><text fill="#000000" font-family="sans-serif" font-size="14" lengthAdjust="spacing" textLength="244" x="2371" y="384.5801">setPhoneNumber(number: string): void</text><ellipse cx="2362" cy="397.9609" fill="#84BE84" rx="3" ry="3" style="stroke:#038048;stroke-width:1.0;"/><text fill="#000000" font-family="sans-serif" font-size="14" lengthAdjust="spacing" textLength="163" x="2371" y="402.1895">getPhoneNumber(): string</text><ellipse cx="2362" cy="415.5703" fill="#84BE84" rx="3" ry="3" style="stroke:#038048;stroke-width:1.0;"/><text fill="#000000" font-family="sans-serif" font-size="14" lengthAdjust="spacing" textLength="204" x="2371" y="419.7988">sendSMS(message: string): void</text><ellipse cx="2362" cy="433.1797" fill="#84BE84" rx="3" ry="3" style="stroke:#038048;stroke-width:1.0;"/><text fill="#000000" font-family="sans-serif" font-size="14" lengthAdjust="spacing" textLength="295" x="2371" y="437.4082">addRecipientPhoneNumber(phoneNumber: int)</text><ellipse cx="2362" cy="450.7891" fill="#84BE84" rx="3" ry="3" style="stroke:#038048;stroke-width:1.0;"/><text fill="#000000" font-family="sans-serif" font-size="14" lengthAdjust="spacing" textLength="318" x="2371" y="455.0176">removeRecipientPhoneNumber(phoneNumber: int)</text><ellipse cx="2362" cy="468.3984" fill="#84BE84" rx="3" ry="3" style="stroke:#038048;stroke-width:1.0;"/><text fill="#000000" font-family="sans-serif" font-size="14" lengthAdjust="spacing" textLength="96" x="2371" y="472.627">scheduleSMS()</text></g><!--class StudentManager--><g id="elem_StudentManager"><rect codeLine="156" fill="#F1F1F1" height="118.4375" id="StudentManager" rx="2.5" ry="2.5" style="stroke:#181818;stroke-width:0.5;" width="440" x="658" y="628.5"/><ellipse cx="821.25" cy="644.5" fill="#ADD1B2" rx="11" ry="11" style="stroke:#181818;stroke-width:1.0;"/><path d="M824.0156,640.375 Q824.1719,640.1563 824.3594,640.0469 Q824.5469,639.9375 824.7656,639.9375 Q825.1406,639.9375 825.375,640.1953 Q825.6094,640.4531 825.6094,641.0625 L825.6094,642.5156 Q825.6094,643.125 825.375,643.3906 Q825.1406,643.6563 824.7656,643.6563 Q824.4219,643.6563 824.2188,643.4531 Q824.0156,643.2656 823.9063,642.75 Q823.8594,642.3906 823.6719,642.2031 Q823.3438,641.8281 822.7344,641.6094 Q822.125,641.3906 821.5,641.3906 Q820.7344,641.3906 820.1016,641.7188 Q819.4688,642.0469 818.9766,642.7969 Q818.4844,643.5469 818.4844,644.5781 L818.4844,645.6719 Q818.4844,646.9063 819.375,647.7266 Q820.2656,648.5469 821.8594,648.5469 Q822.7969,648.5469 823.4531,648.2969 Q823.8438,648.1406 824.2656,647.7031 Q824.5313,647.4375 824.6797,647.3594 Q824.8281,647.2813 825.0313,647.2813 Q825.3594,647.2813 825.6172,647.5391 Q825.875,647.7969 825.875,648.1406 Q825.875,648.4844 825.5313,648.8906 Q825.0313,649.4688 824.2344,649.7969 Q823.1563,650.25 821.8594,650.25 Q820.3438,650.25 819.1406,649.625 Q818.1563,649.125 817.4688,648.0547 Q816.7813,646.9844 816.7813,645.7031 L816.7813,644.5469 Q816.7813,643.2188 817.3984,642.0703 Q818.0156,640.9219 819.1094,640.3047 Q820.2031,639.6875 821.4375,639.6875 Q822.1719,639.6875 822.8203,639.8516 Q823.4688,640.0156 824.0156,640.375 Z " fill="#000000"/><text fill="#000000" font-family="sans-serif" font-size="14" lengthAdjust="spacing" textLength="105" x="841.75" y="650.2285">StudentManager</text><line style="stroke:#181818;stroke-width:0.5;" x1="659" x2="1097" y1="660.5" y2="660.5"/><rect fill="none" height="6" style="stroke:#C82930;stroke-width:1.0;" width="6" x="666" y="671.8047"/><text fill="#000000" font-family="sans-serif" font-size="14" lengthAdjust="spacing" textLength="119" x="678" y="679.0332">students: Student[]</text><line style="stroke:#181818;stroke-width:0.5;" x1="659" x2="1097" y1="686.1094" y2="686.1094"/><ellipse cx="669" cy="700.4141" fill="#84BE84" rx="3" ry="3" style="stroke:#038048;stroke-width:1.0;"/><text fill="#000000" font-family="sans-serif" font-size="14" lengthAdjust="spacing" textLength="221" x="678" y="704.6426">addStudent(student: Student): void</text><ellipse cx="669" cy="718.0234" fill="#84BE84" rx="3" ry="3" style="stroke:#038048;stroke-width:1.0;"/><text fill="#000000" font-family="sans-serif" font-size="14" lengthAdjust="spacing" textLength="241" x="678" y="722.252">removeStudent(studentId: string): void</text><ellipse cx="669" cy="735.6328" fill="#84BE84" rx="3" ry="3" style="stroke:#038048;stroke-width:1.0;"/><text fill="#000000" font-family="sans-serif" font-size="14" lengthAdjust="spacing" textLength="414" x="678" y="739.8613">updateStudent(studentId: string, newDetails: StudentDetails): void</text></g><!--reverse link Navigator to DashboardSearchBar--><g id="link_Navigator_DashboardSearchBar"><path d="M154.5807,471.5516 C152.8607,527.8916 151.27,579.88 149.78,628.35 " fill="none" id="Navigator-backto-DashboardSearchBar" style="stroke:#181818;stroke-width:1.0;"/><polygon fill="none" points="155.13,453.56,148.5835,471.3685,160.5779,471.7347,155.13,453.56" style="stroke:#181818;stroke-width:1.0;"/></g><!--reverse link User to AdminUser--><g id="link_User_AdminUser"><path d="M781.6506,148.4226 C718.0706,169.4526 665.36,194.46 611,238 C584.62,259.13 564.04,291.51 550.5,317.31 " fill="none" id="User-backto-AdminUser" style="stroke:#181818;stroke-width:1.0;"/><polygon fill="none" points="798.74,142.77,779.7664,142.7261,783.5348,154.119,798.74,142.77" style="stroke:#181818;stroke-width:1.0;"/></g><!--reverse link Setting to AdminSetting--><g id="link_Setting_AdminSetting"><path d="M1272,835.32 C1272,856.58 1272,859.64 1272,877.99 " fill="none" id="Setting-backto-AdminSetting" style="stroke:#181818;stroke-width:1.0;"/><polygon fill="none" points="1272,817.32,1266,835.32,1278,835.32,1272,817.32" style="stroke:#181818;stroke-width:1.0;"/></g><!--reverse link Course to Elective--><g id="link_Course_Elective"><path d="M1664,808.6 C1664,845.35 1664,866.73 1664,895.23 " fill="none" id="Course-backto-Elective" style="stroke:#181818;stroke-width:1.0;"/><polygon fill="none" points="1664,790.6,1658,808.6,1670,808.6,1664,790.6" style="stroke:#181818;stroke-width:1.0;"/></g><!--link User to CourseManager--><g id="link_User_CourseManager"><path codeLine="167" d="M1141.2,144.23 C1229.17,168 1337.28,200.43 1431,238 C1474.92,255.61 1521.61,278.71 1561.57,299.94 " fill="none" id="User-CourseManager" style="stroke:#181818;stroke-width:1.0;"/><text fill="#000000" font-family="sans-serif" font-size="13" lengthAdjust="spacing" textLength="30" x="1345" y="204.4951">Uses</text><text fill="#000000" font-family="sans-serif" font-size="13" lengthAdjust="spacing" textLength="20" x="1148.8444" y="143.2096">1..*</text><text fill="#000000" font-family="sans-serif" font-size="13" lengthAdjust="spacing" textLength="7" x="1541.6598" y="289.2569">1</text></g><!--link User to InstituteKiosk--><g id="link_User_InstituteKiosk"><path codeLine="168" d="M970,160.09 C970,201.84 970,257.9 970,299.7 " fill="none" id="User-InstituteKiosk" style="stroke:#181818;stroke-width:1.0;"/><text fill="#000000" font-family="sans-serif" font-size="13" lengthAdjust="spacing" textLength="35" x="971" y="204.4951">Views</text><text fill="#000000" font-family="sans-serif" font-size="13" lengthAdjust="spacing" textLength="20" x="948.7813" y="181.7565">1..*</text><text fill="#000000" font-family="sans-serif" font-size="13" lengthAdjust="spacing" textLength="7" x="962.5734" y="288.9877">1</text></g><!--link User to Navigator--><g id="link_User_Navigator"><path codeLine="169" d="M798.98,107.99 C622.53,116.91 361.37,138.56 276,190 C246.54,207.75 222.52,235.99 204.03,264.29 " fill="none" id="User-Navigator" style="stroke:#181818;stroke-width:1.0;"/><text fill="#000000" font-family="sans-serif" font-size="13" lengthAdjust="spacing" textLength="77" x="277" y="204.4951">Interacts with</text><text fill="#000000" font-family="sans-serif" font-size="13" lengthAdjust="spacing" textLength="20" x="770.7775" y="105.4374">1..*</text><text fill="#000000" font-family="sans-serif" font-size="13" lengthAdjust="spacing" textLength="7" x="200.4191" y="253.6194">1</text></g><!--link BatchManager to Batch--><g id="link_BatchManager_Batch"><path codeLine="171" d="M2115,418.37 C2115,466.8 2115,536.57 2115,592.8 " fill="none" id="BatchManager-Batch" style="stroke:#181818;stroke-width:1.0;"/><text fill="#000000" font-family="sans-serif" font-size="13" lengthAdjust="spacing" textLength="28" x="2116" y="524.4951">uses</text><text fill="#000000" font-family="sans-serif" font-size="13" lengthAdjust="spacing" textLength="7" x="2107.5734" y="440.0706">1</text><text fill="#000000" font-family="sans-serif" font-size="13" lengthAdjust="spacing" textLength="20" x="2094.2031" y="582.1302">1..*</text></g><!--link User to DashboardNewsDisplay--><g id="link_User_DashboardNewsDisplay"><path codeLine="172" d="M907.23,160.33 C882.2,184.04 853.36,211.96 828,238 C808.76,257.76 788.27,279.98 770.32,299.87 " fill="none" id="User-DashboardNewsDisplay" style="stroke:#181818;stroke-width:1.0;"/><text fill="#000000" font-family="sans-serif" font-size="13" lengthAdjust="spacing" textLength="31" x="874" y="204.4951">views</text><text fill="#000000" font-family="sans-serif" font-size="13" lengthAdjust="spacing" textLength="7" x="892.1533" y="182.0257">1</text><text fill="#000000" font-family="sans-serif" font-size="13" lengthAdjust="spacing" textLength="7" x="769.1481" y="289.1784">1</text></g><!--link SettingsManager to Setting--><g id="link_SettingsManager_Setting"><path codeLine="173" d="M1272,418.37 C1272,457.17 1272,503.66 1272,551.92 " fill="none" id="SettingsManager-to-Setting" style="stroke:#181818;stroke-width:1.0;"/><polygon fill="#181818" points="1272,557.92,1276,548.92,1272,552.92,1268,548.92,1272,557.92" style="stroke:#181818;stroke-width:1.0;"/><text fill="#000000" font-family="sans-serif" font-size="13" lengthAdjust="spacing" textLength="45" x="1273" y="524.4951">handles</text><text fill="#000000" font-family="sans-serif" font-size="13" lengthAdjust="spacing" textLength="7" x="1264.5734" y="440.0706">1</text><text fill="#000000" font-family="sans-serif" font-size="13" lengthAdjust="spacing" textLength="20" x="1251.3906" y="547.0325">1..*</text></g><!--link User to BatchManager--><g id="link_User_BatchManager"><path codeLine="175" d="M1141.26,108.88 C1330.58,120.63 1642.42,152.38 1897,238 C1941.84,253.08 1983.0347,274.1571 2021.4247,296.8471 " fill="none" id="User-to-BatchManager" style="stroke:#181818;stroke-width:1.0;"/><polygon fill="#181818" points="2026.59,299.9,2020.8774,291.8772,2022.2856,297.3559,2016.8069,298.7642,2026.59,299.9" style="stroke:#181818;stroke-width:1.0;"/><text fill="#000000" font-family="sans-serif" font-size="13" lengthAdjust="spacing" textLength="77" x="1776" y="204.4951">interacts with</text><text fill="#000000" font-family="sans-serif" font-size="13" lengthAdjust="spacing" textLength="20" x="1148.9069" y="106.3682">1..*</text><text fill="#000000" font-family="sans-serif" font-size="13" lengthAdjust="spacing" textLength="7" x="2008.3885" y="289.2121">1</text></g><!--link User to SMS_Module--><g id="link_User_SMS_Module"><path codeLine="177" d="M1141.11,109.15 C1456.67,123.98 2117.78,163.09 2334,238 C2339.6,239.94 2339.6513,239.797 2345.2413,242.097 " fill="none" id="User-to-SMS_Module" style="stroke:#181818;stroke-width:1.0;"/><polygon fill="#181818" points="2350.79,244.38,2343.989,237.2564,2346.1661,242.4775,2340.945,244.6546,2350.79,244.38" style="stroke:#181818;stroke-width:1.0;"/><text fill="#000000" font-family="sans-serif" font-size="13" lengthAdjust="spacing" textLength="134" x="2200" y="204.4951">sends messages using</text><text fill="#000000" font-family="sans-serif" font-size="13" lengthAdjust="spacing" textLength="20" x="1148.7506" y="123.3246">0..*</text></g><!--link User to SettingsManager--><g id="link_User_SettingsManager"><path codeLine="179" d="M1038.53,160.09 C1087.87,201.91 1149.5733,254.2201 1198.9033,296.0401 " fill="none" id="User-to-SettingsManager" style="stroke:#181818;stroke-width:1.0;"/><polygon fill="#181818" points="1203.48,299.92,1199.2016,291.049,1199.6661,296.6867,1194.0283,297.1512,1203.48,299.92" style="stroke:#181818;stroke-width:1.0;"/><text fill="#000000" font-family="sans-serif" font-size="13" lengthAdjust="spacing" textLength="77" x="1094" y="204.4951">interacts with</text><text fill="#000000" font-family="sans-serif" font-size="13" lengthAdjust="spacing" textLength="20" x="1025.6633" y="181.7565">1..*</text><text fill="#000000" font-family="sans-serif" font-size="13" lengthAdjust="spacing" textLength="7" x="1187.7026" y="289.2345">1</text></g><!--link CourseManager to Course--><g id="link_CourseManager_Course"><path codeLine="181" d="M1664,418.37 C1664,464.41 1664,523.75 1664,578.4 " fill="none" id="CourseManager-to-Course" style="stroke:#181818;stroke-width:1.0;"/><polygon fill="#181818" points="1664,584.4,1668,575.4,1664,579.4,1660,575.4,1664,584.4" style="stroke:#181818;stroke-width:1.0;"/><text fill="#000000" font-family="sans-serif" font-size="13" lengthAdjust="spacing" textLength="21" x="1665" y="524.4951">has</text><text fill="#000000" font-family="sans-serif" font-size="13" lengthAdjust="spacing" textLength="7" x="1656.5734" y="440.0706">1</text></g><!--link AdminUser to StudentManager--><g id="link_AdminUser_StudentManager"><path codeLine="183" d="M554.23,400.75 C568.62,425.17 588.79,456.03 611,480 C663.78,536.95 728.5236,586.845 783.4536,625.035 " fill="none" id="AdminUser-to-StudentManager" style="stroke:#181818;stroke-width:1.0;"/><polygon fill="#181818" points="788.38,628.46,783.2738,620.0382,784.2747,625.6058,778.7071,626.6067,788.38,628.46" style="stroke:#181818;stroke-width:1.0;"/><text fill="#000000" font-family="sans-serif" font-size="13" lengthAdjust="spacing" textLength="28" x="657" y="524.4951">uses</text><text fill="#000000" font-family="sans-serif" font-size="13" lengthAdjust="spacing" textLength="20" x="536.1792" y="422.1846">0..*</text><text fill="#000000" font-family="sans-serif" font-size="13" lengthAdjust="spacing" textLength="7" x="770.031" y="617.7794">1</text></g><!--link Navigator to Theme--><g id="link_Navigator_Theme"><path codeLine="185" d="M246.26,453.56 C284.83,494.45 326.0628,538.1655 365.5128,579.9855 " fill="none" id="Navigator-to-Theme" style="stroke:#181818;stroke-width:1.0;"/><polygon fill="#181818" points="369.63,584.35,366.3639,575.0585,366.199,580.7129,360.5446,580.548,369.63,584.35" style="stroke:#181818;stroke-width:1.0;"/><text fill="#000000" font-family="sans-serif" font-size="13" lengthAdjust="spacing" textLength="28" x="313" y="524.4951">uses</text><text fill="#000000" font-family="sans-serif" font-size="13" lengthAdjust="spacing" textLength="7" x="245.7494" y="474.9256">1</text><text fill="#000000" font-family="sans-serif" font-size="13" lengthAdjust="spacing" textLength="7" x="355.2958" y="573.6777">1</text></g><!--link User to Theme--><g id="link_User_Theme"><path codeLine="187" d="M798.64,118.22 C644.08,136.82 433.35,173.41 382,238 C303.73,336.44 352.1269,479.9085 402.2469,578.7685 " fill="none" id="User-to-Theme" style="stroke:#181818;stroke-width:1.0;"/><polygon fill="#181818" points="404.96,584.12,404.458,574.2839,402.6991,579.6604,397.3226,577.9014,404.96,584.12" style="stroke:#181818;stroke-width:1.0;"/><text fill="#000000" font-family="sans-serif" font-size="13" lengthAdjust="spacing" textLength="69" x="383" y="364.4951">Customises</text><text fill="#000000" font-family="sans-serif" font-size="13" lengthAdjust="spacing" textLength="20" x="770.9889" y="132.7773">1..*</text><text fill="#000000" font-family="sans-serif" font-size="13" lengthAdjust="spacing" textLength="7" x="393.422" y="573.779">1</text></g><!--SRC=[bLTBR-Cs43x7luB89KgxMRHNeGYGnDl2w2ROhhCzj2W2Mfp8H2JI5IadsMB_UuSlyM4vQ0z-QFZDpCTvaThHvecsG9PKRJUI3knMih43yi_YfEceKd5X3NHejjTq8F2YGJ15xkYUjrJBmQ1FBeYoYDz665vhelJ0HOloxr6krt6f-Zi5dDTaBpcpk3R7dHT6p4eruRyj0iEIXjv23pMvDp_1ltse_CgiPuV8VJAkTXrzlGMbC4PLxtvd3SXxUSLwhXINGbNda_332-sveBeGps9pOToWfUOtryXE3kictOYLFqgXr_mh2hdGLhB1pBQ370LRzGdhHGZ9JRHKpLXDTuVedxtzAdDKWAvpbnKttv-etXw9UKeXZtoRU3mFUxBYqaUY5oFsHK6eXX7_2bf4QuUWPpcmp6SdMowg4l_k08mUDr9sG4LGawEUAqoJJs6fX8v9UDd5rTAQ67UCQbY2fhmhSZ-rtnqygwMhHsj1u7EUKmoE0Vc2SZOJmG2zt4-2w64bbEPwrF0hb-h9i-FYKGwzBTiiSCPcRR_J1bb5T6KqvzBjzuYVtFqQj4QekgK2qnb7YPFMOJqE4ljOFS5hpD2UTYCSdIW72iLWeNi89F8idWNdX2j2YUEBEoL05H3vY5QaCKFwiTDyXrCpq2vtPtU5fK95EzfU137sLjHW9Mip3gDa70OGJIhIl8U7hr84nH2CZzvUbl92Q3lT-iXGkSo0lDiSbGlD84KgVo2J39OAY_8F0GWTa0Ua7IZ3f_Mhqj2lTIYhKN0y95PB9x4Y47JJmIyftbDmArUZbgO2cozUjwXotE-W82-onigmnZvofNzoY4ldZZBcdYi7ghs1jBXSGsMm5JjU-aU0xmXsic_zuCK_pemKj-wZnrcSZCM8mp8QW76j8aA_xjB2GoY8renc0pZWUKTxA0i6nJVEwipAFPgV4Q-zcpmR7pfeDD_3L1RPldhwyX3efSnkwSkykMkgcssUsuqHJRcrWCkGMVjKMKJjT0_Jcc3UIkeiB4-fXHpFg5t-BmdD4sRXolJ3Y3IOEv8MyP0qX9PPFgpi8ArMcaRLbCuMHmXuspZJJHkEHJ-jRzSFyQfeZjGj3e2xiT_04EyWnOt97ItgokG-OMsa0pHynq7eJz5Eo1vQ2stfDQFtE9aInKfu7hCdGWeixvY2eUctBdfOFfzdg5RbzjCpztyeA2nQiot3uZoSGlSIcS4KUJqoj5MSbqvepaltxy-_fa7c9PN7J933eY-GRnN-KMXU_1vMbl_9cLyW3TfgyHG5XNh0Y9Pa0uOri3E__ol6t5dYhazKCDBB0UEnEB62qn_Vl__kb5nSuB_JVD3NHaNDul9hJqr-vtWpcaLExnSrAcaOi0WLUUPsDcMJnu2jZjM-TlDbJ0bCDkUkTHWSnw6y4Zczos3OBzS4svHrO2uREUjBgv5IinMMCtSgFqmgiQLgsmSgDA_2BRWxvfoNWkkCe_pa3NkvySVgbXh-yQQSCBBcisBtqLoSn5U-69jJzvuqOUROUiJDY3StVDSok6__0W00]--></g></svg>