<?xml version="1.0" encoding="us-ascii" standalone="no"?><svg xmlns="http://www.w3.org/2000/svg" xmlns:xlink="http://www.w3.org/1999/xlink" contentStyleType="text/css" height="609px" preserveAspectRatio="none" style="width:611px;height:609px;background:#FFFFFF;" version="1.1" viewBox="0 0 611 609" width="611px" zoomAndPan="magnify"><defs/><g><!--cluster TimetableModule--><g id="cluster_TimetableModule"><path d="M8.5,6 L130.5,6 A3.75,3.75 0 0 1 133,8.5 L140,29.6094 L601.5,29.6094 A2.5,2.5 0 0 1 604,32.1094 L604,599.5 A2.5,2.5 0 0 1 601.5,602 L8.5,602 A2.5,2.5 0 0 1 6,599.5 L6,8.5 A2.5,2.5 0 0 1 8.5,6 " fill="none" style="stroke:#000000;stroke-width:1.5;"/><line style="stroke:#000000;stroke-width:1.5;" x1="6" x2="140" y1="29.6094" y2="29.6094"/><text fill="#000000" font-family="sans-serif" font-size="14" font-weight="bold" lengthAdjust="spacing" textLength="121" x="10" y="22.5332">TimetableModule</text></g><!--class TimetableCreator--><g id="elem_TimetableCreator"><rect codeLine="2" fill="#F1F1F1" height="153.6563" id="TimetableCreator" rx="2.5" ry="2.5" style="stroke:#181818;stroke-width:0.5;" width="478" x="66" y="42"/><ellipse cx="245.75" cy="58" fill="#ADD1B2" rx="11" ry="11" style="stroke:#181818;stroke-width:1.0;"/><path d="M248.5156,53.875 Q248.6719,53.6563 248.8594,53.5469 Q249.0469,53.4375 249.2656,53.4375 Q249.6406,53.4375 249.875,53.6953 Q250.1094,53.9531 250.1094,54.5625 L250.1094,56.0156 Q250.1094,56.625 249.875,56.8906 Q249.6406,57.1563 249.2656,57.1563 Q248.9219,57.1563 248.7188,56.9531 Q248.5156,56.7656 248.4063,56.25 Q248.3594,55.8906 248.1719,55.7031 Q247.8438,55.3281 247.2344,55.1094 Q246.625,54.8906 246,54.8906 Q245.2344,54.8906 244.6016,55.2188 Q243.9688,55.5469 243.4766,56.2969 Q242.9844,57.0469 242.9844,58.0781 L242.9844,59.1719 Q242.9844,60.4063 243.875,61.2266 Q244.7656,62.0469 246.3594,62.0469 Q247.2969,62.0469 247.9531,61.7969 Q248.3438,61.6406 248.7656,61.2031 Q249.0313,60.9375 249.1797,60.8594 Q249.3281,60.7813 249.5313,60.7813 Q249.8594,60.7813 250.1172,61.0391 Q250.375,61.2969 250.375,61.6406 Q250.375,61.9844 250.0313,62.3906 Q249.5313,62.9688 248.7344,63.2969 Q247.6563,63.75 246.3594,63.75 Q244.8438,63.75 243.6406,63.125 Q242.6563,62.625 241.9688,61.5547 Q241.2813,60.4844 241.2813,59.2031 L241.2813,58.0469 Q241.2813,56.7188 241.8984,55.5703 Q242.5156,54.4219 243.6094,53.8047 Q244.7031,53.1875 245.9375,53.1875 Q246.6719,53.1875 247.3203,53.3516 Q247.9688,53.5156 248.5156,53.875 Z " fill="#000000"/><text fill="#000000" font-family="sans-serif" font-size="14" lengthAdjust="spacing" textLength="110" x="266.25" y="63.7285">TimetableCreator</text><line style="stroke:#181818;stroke-width:0.5;" x1="67" x2="543" y1="74" y2="74"/><rect fill="none" height="6" style="stroke:#C82930;stroke-width:1.0;" width="6" x="74" y="85.3047"/><text fill="#000000" font-family="sans-serif" font-size="14" lengthAdjust="spacing" textLength="172" x="86" y="92.5332">timetables: List&lt;Timetable&gt;</text><line style="stroke:#181818;stroke-width:0.5;" x1="67" x2="543" y1="99.6094" y2="99.6094"/><ellipse cx="77" cy="113.9141" fill="#84BE84" rx="3" ry="3" style="stroke:#038048;stroke-width:1.0;"/><text fill="#000000" font-family="sans-serif" font-size="14" lengthAdjust="spacing" textLength="188" x="86" y="118.1426">createTimetable(name, email)</text><ellipse cx="77" cy="131.5234" fill="#84BE84" rx="3" ry="3" style="stroke:#038048;stroke-width:1.0;"/><text fill="#000000" font-family="sans-serif" font-size="14" lengthAdjust="spacing" textLength="452" x="86" y="135.752">createTimetableInAdvance(date, time, day, subject, teacher, classroom)</text><ellipse cx="77" cy="149.1328" fill="#84BE84" rx="3" ry="3" style="stroke:#038048;stroke-width:1.0;"/><text fill="#000000" font-family="sans-serif" font-size="14" lengthAdjust="spacing" textLength="402" x="86" y="153.3613">editTimetableEntry(date, time, day, subject, teacher, classroom)</text><ellipse cx="77" cy="166.7422" fill="#84BE84" rx="3" ry="3" style="stroke:#038048;stroke-width:1.0;"/><text fill="#000000" font-family="sans-serif" font-size="14" lengthAdjust="spacing" textLength="144" x="86" y="170.9707">deleteTimetableEntry()</text><ellipse cx="77" cy="184.3516" fill="#84BE84" rx="3" ry="3" style="stroke:#038048;stroke-width:1.0;"/><text fill="#000000" font-family="sans-serif" font-size="14" lengthAdjust="spacing" textLength="333" x="86" y="188.5801">alertOnEmployeeSubjectLimits(employee: Employee)</text></g><!--class AlertSystem--><g id="elem_AlertSystem"><rect codeLine="11" fill="#F1F1F1" height="171.2656" id="AlertSystem" rx="2.5" ry="2.5" style="stroke:#181818;stroke-width:0.5;" width="243" x="22.5" y="344.5"/><ellipse cx="102.25" cy="360.5" fill="#ADD1B2" rx="11" ry="11" style="stroke:#181818;stroke-width:1.0;"/><path d="M105.0156,356.375 Q105.1719,356.1563 105.3594,356.0469 Q105.5469,355.9375 105.7656,355.9375 Q106.1406,355.9375 106.375,356.1953 Q106.6094,356.4531 106.6094,357.0625 L106.6094,358.5156 Q106.6094,359.125 106.375,359.3906 Q106.1406,359.6563 105.7656,359.6563 Q105.4219,359.6563 105.2188,359.4531 Q105.0156,359.2656 104.9063,358.75 Q104.8594,358.3906 104.6719,358.2031 Q104.3438,357.8281 103.7344,357.6094 Q103.125,357.3906 102.5,357.3906 Q101.7344,357.3906 101.1016,357.7188 Q100.4688,358.0469 99.9766,358.7969 Q99.4844,359.5469 99.4844,360.5781 L99.4844,361.6719 Q99.4844,362.9063 100.375,363.7266 Q101.2656,364.5469 102.8594,364.5469 Q103.7969,364.5469 104.4531,364.2969 Q104.8438,364.1406 105.2656,363.7031 Q105.5313,363.4375 105.6797,363.3594 Q105.8281,363.2813 106.0313,363.2813 Q106.3594,363.2813 106.6172,363.5391 Q106.875,363.7969 106.875,364.1406 Q106.875,364.4844 106.5313,364.8906 Q106.0313,365.4688 105.2344,365.7969 Q104.1563,366.25 102.8594,366.25 Q101.3438,366.25 100.1406,365.625 Q99.1563,365.125 98.4688,364.0547 Q97.7813,362.9844 97.7813,361.7031 L97.7813,360.5469 Q97.7813,359.2188 98.3984,358.0703 Q99.0156,356.9219 100.1094,356.3047 Q101.2031,355.6875 102.4375,355.6875 Q103.1719,355.6875 103.8203,355.8516 Q104.4688,356.0156 105.0156,356.375 Z " fill="#000000"/><text fill="#000000" font-family="sans-serif" font-size="14" lengthAdjust="spacing" textLength="75" x="122.75" y="366.2285">AlertSystem</text><line style="stroke:#181818;stroke-width:0.5;" x1="23.5" x2="264.5" y1="376.5" y2="376.5"/><rect fill="none" height="6" style="stroke:#C82930;stroke-width:1.0;" width="6" x="30.5" y="387.8047"/><text fill="#000000" font-family="sans-serif" font-size="14" lengthAdjust="spacing" textLength="217" x="42.5" y="395.0332">subjectLimits: Map&lt;Employee, int&gt;</text><rect fill="none" height="6" style="stroke:#C82930;stroke-width:1.0;" width="6" x="30.5" y="405.4141"/><text fill="#000000" font-family="sans-serif" font-size="14" lengthAdjust="spacing" textLength="82" x="42.5" y="412.6426">threshold: int</text><line style="stroke:#181818;stroke-width:0.5;" x1="23.5" x2="264.5" y1="419.7188" y2="419.7188"/><ellipse cx="33.5" cy="434.0234" fill="#84BE84" rx="3" ry="3" style="stroke:#038048;stroke-width:1.0;"/><text fill="#000000" font-family="sans-serif" font-size="14" lengthAdjust="spacing" textLength="160" x="42.5" y="438.252">createAlert(subjectLimits)</text><ellipse cx="33.5" cy="451.6328" fill="#84BE84" rx="3" ry="3" style="stroke:#038048;stroke-width:1.0;"/><text fill="#000000" font-family="sans-serif" font-size="14" lengthAdjust="spacing" textLength="97" x="42.5" y="455.8613">editThreshold()</text><ellipse cx="33.5" cy="469.2422" fill="#84BE84" rx="3" ry="3" style="stroke:#038048;stroke-width:1.0;"/><text fill="#000000" font-family="sans-serif" font-size="14" lengthAdjust="spacing" textLength="143" x="42.5" y="473.4707">editAlert(subjectLimits)</text><ellipse cx="33.5" cy="486.8516" fill="#84BE84" rx="3" ry="3" style="stroke:#038048;stroke-width:1.0;"/><text fill="#000000" font-family="sans-serif" font-size="14" lengthAdjust="spacing" textLength="78" x="42.5" y="491.0801">deleteAlert()</text><ellipse cx="33.5" cy="504.4609" fill="#84BE84" rx="3" ry="3" style="stroke:#038048;stroke-width:1.0;"/><text fill="#000000" font-family="sans-serif" font-size="14" lengthAdjust="spacing" textLength="101" x="42.5" y="508.6895">verifyAlert(user)</text></g><!--class Timetable--><g id="elem_Timetable"><rect codeLine="21" fill="#F1F1F1" height="312.1406" id="Timetable" rx="2.5" ry="2.5" style="stroke:#181818;stroke-width:0.5;" width="287" x="300.5" y="274"/><ellipse cx="408.75" cy="290" fill="#ADD1B2" rx="11" ry="11" style="stroke:#181818;stroke-width:1.0;"/><path d="M411.5156,285.875 Q411.6719,285.6563 411.8594,285.5469 Q412.0469,285.4375 412.2656,285.4375 Q412.6406,285.4375 412.875,285.6953 Q413.1094,285.9531 413.1094,286.5625 L413.1094,288.0156 Q413.1094,288.625 412.875,288.8906 Q412.6406,289.1563 412.2656,289.1563 Q411.9219,289.1563 411.7188,288.9531 Q411.5156,288.7656 411.4063,288.25 Q411.3594,287.8906 411.1719,287.7031 Q410.8438,287.3281 410.2344,287.1094 Q409.625,286.8906 409,286.8906 Q408.2344,286.8906 407.6016,287.2188 Q406.9688,287.5469 406.4766,288.2969 Q405.9844,289.0469 405.9844,290.0781 L405.9844,291.1719 Q405.9844,292.4063 406.875,293.2266 Q407.7656,294.0469 409.3594,294.0469 Q410.2969,294.0469 410.9531,293.7969 Q411.3438,293.6406 411.7656,293.2031 Q412.0313,292.9375 412.1797,292.8594 Q412.3281,292.7813 412.5313,292.7813 Q412.8594,292.7813 413.1172,293.0391 Q413.375,293.2969 413.375,293.6406 Q413.375,293.9844 413.0313,294.3906 Q412.5313,294.9688 411.7344,295.2969 Q410.6563,295.75 409.3594,295.75 Q407.8438,295.75 406.6406,295.125 Q405.6563,294.625 404.9688,293.5547 Q404.2813,292.4844 404.2813,291.2031 L404.2813,290.0469 Q404.2813,288.7188 404.8984,287.5703 Q405.5156,286.4219 406.6094,285.8047 Q407.7031,285.1875 408.9375,285.1875 Q409.6719,285.1875 410.3203,285.3516 Q410.9688,285.5156 411.5156,285.875 Z " fill="#000000"/><text fill="#000000" font-family="sans-serif" font-size="14" lengthAdjust="spacing" textLength="62" x="429.25" y="295.7285">Timetable</text><line style="stroke:#181818;stroke-width:0.5;" x1="301.5" x2="586.5" y1="306" y2="306"/><rect fill="none" height="6" style="stroke:#C82930;stroke-width:1.0;" width="6" x="308.5" y="317.3047"/><text fill="#000000" font-family="sans-serif" font-size="14" lengthAdjust="spacing" textLength="64" x="320.5" y="324.5332">date: date</text><rect fill="none" height="6" style="stroke:#C82930;stroke-width:1.0;" width="6" x="308.5" y="334.9141"/><text fill="#000000" font-family="sans-serif" font-size="14" lengthAdjust="spacing" textLength="60" x="320.5" y="342.1426">time: time</text><rect fill="none" height="6" style="stroke:#C82930;stroke-width:1.0;" width="6" x="308.5" y="352.5234"/><text fill="#000000" font-family="sans-serif" font-size="14" lengthAdjust="spacing" textLength="66" x="320.5" y="359.752">day: enum</text><rect fill="none" height="6" style="stroke:#C82930;stroke-width:1.0;" width="6" x="308.5" y="370.1328"/><text fill="#000000" font-family="sans-serif" font-size="14" lengthAdjust="spacing" textLength="88" x="320.5" y="377.3613">subject: enum</text><rect fill="none" height="6" style="stroke:#C82930;stroke-width:1.0;" width="6" x="308.5" y="387.7422"/><text fill="#000000" font-family="sans-serif" font-size="14" lengthAdjust="spacing" textLength="91" x="320.5" y="394.9707">teacher: enum</text><rect fill="none" height="6" style="stroke:#C82930;stroke-width:1.0;" width="6" x="308.5" y="405.3516"/><text fill="#000000" font-family="sans-serif" font-size="14" lengthAdjust="spacing" textLength="107" x="320.5" y="412.5801">classroom: enum</text><rect fill="none" height="6" style="stroke:#C82930;stroke-width:1.0;" width="6" x="308.5" y="422.9609"/><text fill="#000000" font-family="sans-serif" font-size="14" lengthAdjust="spacing" textLength="104" x="320.5" y="430.1895">subjectLimits: int</text><rect fill="none" height="6" style="stroke:#C82930;stroke-width:1.0;" width="6" x="308.5" y="440.5703"/><text fill="#000000" font-family="sans-serif" font-size="14" lengthAdjust="spacing" textLength="82" x="320.5" y="447.7988">theme: enum</text><line style="stroke:#181818;stroke-width:0.5;" x1="301.5" x2="586.5" y1="454.875" y2="454.875"/><ellipse cx="311.5" cy="469.1797" fill="#84BE84" rx="3" ry="3" style="stroke:#038048;stroke-width:1.0;"/><text fill="#000000" font-family="sans-serif" font-size="14" lengthAdjust="spacing" textLength="174" x="320.5" y="473.4082">changeDate(date: date): int</text><ellipse cx="311.5" cy="486.7891" fill="#84BE84" rx="3" ry="3" style="stroke:#038048;stroke-width:1.0;"/><text fill="#000000" font-family="sans-serif" font-size="14" lengthAdjust="spacing" textLength="171" x="320.5" y="491.0176">changeTime(time: time): int</text><ellipse cx="311.5" cy="504.3984" fill="#84BE84" rx="3" ry="3" style="stroke:#038048;stroke-width:1.0;"/><text fill="#000000" font-family="sans-serif" font-size="14" lengthAdjust="spacing" textLength="171" x="320.5" y="508.627">changeDay(day: enum): int</text><ellipse cx="311.5" cy="522.0078" fill="#84BE84" rx="3" ry="3" style="stroke:#038048;stroke-width:1.0;"/><text fill="#000000" font-family="sans-serif" font-size="14" lengthAdjust="spacing" textLength="215" x="320.5" y="526.2363">changeSubject(subject: enum): int</text><ellipse cx="311.5" cy="539.6172" fill="#84BE84" rx="3" ry="3" style="stroke:#038048;stroke-width:1.0;"/><text fill="#000000" font-family="sans-serif" font-size="14" lengthAdjust="spacing" textLength="224" x="320.5" y="543.8457">changeTeacher(teacher: enum): int</text><ellipse cx="311.5" cy="557.2266" fill="#84BE84" rx="3" ry="3" style="stroke:#038048;stroke-width:1.0;"/><text fill="#000000" font-family="sans-serif" font-size="14" lengthAdjust="spacing" textLength="254" x="320.5" y="561.4551">changeClassroom(classroom: enum): int</text><ellipse cx="311.5" cy="574.8359" fill="#84BE84" rx="3" ry="3" style="stroke:#038048;stroke-width:1.0;"/><text fill="#000000" font-family="sans-serif" font-size="14" lengthAdjust="spacing" textLength="261" x="320.5" y="579.0645">modifySubjectLimits(subjectLimits: int): int</text></g><!--link TimetableCreator to Timetable--><g id="link_TimetableCreator_Timetable"><path codeLine="41" d="M339.36,196.38 C349.97,219.97 362.07,246.86 374.18,273.78 " fill="none" id="TimetableCreator-Timetable" style="stroke:#181818;stroke-width:1.0;"/><text fill="#000000" font-family="sans-serif" font-size="13" lengthAdjust="spacing" textLength="43" x="358" y="240.4951">creates</text><text fill="#000000" font-family="sans-serif" font-size="13" lengthAdjust="spacing" textLength="7" x="335.012" y="217.2423">1</text><text fill="#000000" font-family="sans-serif" font-size="13" lengthAdjust="spacing" textLength="20" x="350.3137" y="263.3258">0..*</text></g><!--reverse link TimetableCreator to AlertSystem--><g id="link_TimetableCreator_AlertSystem"><path codeLine="42" d="M259.6558,207.0224 C236.2858,251.8824 212.24,298.02 188.16,344.25 " fill="none" id="TimetableCreator-backto-AlertSystem" style="stroke:#181818;stroke-width:1.0;"/><polygon fill="none" points="265.2,196.38,258.8804,199.8531,259.6558,207.0224,265.9754,203.5493,265.2,196.38" style="stroke:#181818;stroke-width:1.0;"/><text fill="#000000" font-family="sans-serif" font-size="13" lengthAdjust="spacing" textLength="32" x="249" y="240.4951">alerts</text></g><!--SRC=[dLJBJiCm4BptArQzu49QmTL2bH3j0Qc80_o0YHSIwaTbEw08zT-9uoHrQY8aSl1XTtRMEplEWULxzexmKafqx5NWe-QLGFYUGVFbWbbxojqRP4wRBkc_9RW-QIdiIkjk1_HwG5r1xYjnI17596Q0afLYCGrxK7VyawaS2M_2MTih0yxg36pr-e6vQsB8yW9D5kvgj9On8VBI3NHRvKpzRogE0gEx1R8Om0GQzwIsyY1qZVWSQ7UbB9qbs4KfzFbGUfn5GjzvXkVQEfGZZMrCHU6H7MvxbWnAvTRnFWg3jj22Kvz9j6rRa15XebVFGCupVnG7XG8eZd-YAT_g4Ayicbyc7sGTpUrNHTlpp72qFKV8cWAgIgQg9V5kpKbysFeKKwz_hAiN7Fs5sf9OxeAfTzmqToUdCHR9KbgKdvwSvff0RPWtRpVd1AOp7HdDFjKrw416UanWxtjjo9bA2LvgtYnxRFvKlwuiDaBobvdVp66vXFdrQdKvZnn2EolRtyjqKnC_91eUfWrTBjA2nkkLuB1N-iil4t9T6OiMdDQhsV47]--></g></svg>