<?xml version="1.0" encoding="us-ascii" standalone="no"?><svg xmlns="http://www.w3.org/2000/svg" xmlns:xlink="http://www.w3.org/1999/xlink" contentStyleType="text/css" height="966px" preserveAspectRatio="none" style="width:1096px;height:966px;background:#FFFFFF;" version="1.1" viewBox="0 0 1096 966" width="1096px" zoomAndPan="magnify"><defs/><g><!--cluster AdmissionsModule--><g id="cluster_AdmissionsModule"><path d="M8.5,6 L142.5,6 A3.75,3.75 0 0 1 145,8.5 L152,29.6094 L1086.5,29.6094 A2.5,2.5 0 0 1 1089,32.1094 L1089,956.5 A2.5,2.5 0 0 1 1086.5,959 L8.5,959 A2.5,2.5 0 0 1 6,956.5 L6,8.5 A2.5,2.5 0 0 1 8.5,6 " fill="none" style="stroke:#000000;stroke-width:1.5;"/><line style="stroke:#000000;stroke-width:1.5;" x1="6" x2="152" y1="29.6094" y2="29.6094"/><text fill="#000000" font-family="sans-serif" font-size="14" font-weight="bold" lengthAdjust="spacing" textLength="133" x="10" y="22.5332">AdmissionsModule</text></g><!--class admissionForm--><g id="elem_admissionForm"><rect codeLine="2" fill="#F1F1F1" height="171.2656" id="admissionForm" rx="2.5" ry="2.5" style="stroke:#181818;stroke-width:0.5;" width="148" x="693" y="42"/><ellipse cx="717" cy="58" fill="#ADD1B2" rx="11" ry="11" style="stroke:#181818;stroke-width:1.0;"/><path d="M719.7656,53.875 Q719.9219,53.6563 720.1094,53.5469 Q720.2969,53.4375 720.5156,53.4375 Q720.8906,53.4375 721.125,53.6953 Q721.3594,53.9531 721.3594,54.5625 L721.3594,56.0156 Q721.3594,56.625 721.125,56.8906 Q720.8906,57.1563 720.5156,57.1563 Q720.1719,57.1563 719.9688,56.9531 Q719.7656,56.7656 719.6563,56.25 Q719.6094,55.8906 719.4219,55.7031 Q719.0938,55.3281 718.4844,55.1094 Q717.875,54.8906 717.25,54.8906 Q716.4844,54.8906 715.8516,55.2188 Q715.2188,55.5469 714.7266,56.2969 Q714.2344,57.0469 714.2344,58.0781 L714.2344,59.1719 Q714.2344,60.4063 715.125,61.2266 Q716.0156,62.0469 717.6094,62.0469 Q718.5469,62.0469 719.2031,61.7969 Q719.5938,61.6406 720.0156,61.2031 Q720.2813,60.9375 720.4297,60.8594 Q720.5781,60.7813 720.7813,60.7813 Q721.1094,60.7813 721.3672,61.0391 Q721.625,61.2969 721.625,61.6406 Q721.625,61.9844 721.2813,62.3906 Q720.7813,62.9688 719.9844,63.2969 Q718.9063,63.75 717.6094,63.75 Q716.0938,63.75 714.8906,63.125 Q713.9063,62.625 713.2188,61.5547 Q712.5313,60.4844 712.5313,59.2031 L712.5313,58.0469 Q712.5313,56.7188 713.1484,55.5703 Q713.7656,54.4219 714.8594,53.8047 Q715.9531,53.1875 717.1875,53.1875 Q717.9219,53.1875 718.5703,53.3516 Q719.2188,53.5156 719.7656,53.875 Z " fill="#000000"/><text fill="#000000" font-family="sans-serif" font-size="14" lengthAdjust="spacing" textLength="96" x="733" y="63.7285">admissionForm</text><line style="stroke:#181818;stroke-width:0.5;" x1="694" x2="840" y1="74" y2="74"/><ellipse cx="704" cy="88.3047" fill="none" rx="3" ry="3" style="stroke:#038048;stroke-width:1.0;"/><text fill="#000000" font-family="sans-serif" font-size="14" lengthAdjust="spacing" textLength="97" x="713" y="92.5332">admissionId: int</text><ellipse cx="704" cy="105.9141" fill="none" rx="3" ry="3" style="stroke:#038048;stroke-width:1.0;"/><text fill="#000000" font-family="sans-serif" font-size="14" lengthAdjust="spacing" textLength="106" x="713" y="110.1426">username: string</text><ellipse cx="704" cy="123.5234" fill="none" rx="3" ry="3" style="stroke:#038048;stroke-width:1.0;"/><text fill="#000000" font-family="sans-serif" font-size="14" lengthAdjust="spacing" textLength="98" x="713" y="127.752">details: Student</text><rect fill="none" height="6" style="stroke:#C82930;stroke-width:1.0;" width="6" x="701" y="138.1328"/><text fill="#000000" font-family="sans-serif" font-size="14" lengthAdjust="spacing" textLength="103" x="713" y="145.3613">password: string</text><line style="stroke:#181818;stroke-width:0.5;" x1="694" x2="840" y1="152.4375" y2="152.4375"/><ellipse cx="704" cy="166.7422" fill="#84BE84" rx="3" ry="3" style="stroke:#038048;stroke-width:1.0;"/><text fill="#000000" font-family="sans-serif" font-size="14" lengthAdjust="spacing" textLength="97" x="713" y="170.9707">updateDetails()</text><ellipse cx="704" cy="184.3516" fill="#84BE84" rx="3" ry="3" style="stroke:#038048;stroke-width:1.0;"/><text fill="#000000" font-family="sans-serif" font-size="14" lengthAdjust="spacing" textLength="122" x="713" y="188.5801">changeUserName()</text><rect fill="#F24D5C" height="6" style="stroke:#C82930;stroke-width:1.0;" width="6" x="701" y="198.9609"/><text fill="#000000" font-family="sans-serif" font-size="14" lengthAdjust="spacing" textLength="115" x="713" y="206.1895">updatePassword()</text></g><!--class User--><g id="elem_User"><rect codeLine="13" fill="#F1F1F1" height="153.6563" id="User" rx="2.5" ry="2.5" style="stroke:#181818;stroke-width:0.5;" width="228" x="430" y="50.5"/><ellipse cx="525.25" cy="66.5" fill="#ADD1B2" rx="11" ry="11" style="stroke:#181818;stroke-width:1.0;"/><path d="M528.0156,62.375 Q528.1719,62.1563 528.3594,62.0469 Q528.5469,61.9375 528.7656,61.9375 Q529.1406,61.9375 529.375,62.1953 Q529.6094,62.4531 529.6094,63.0625 L529.6094,64.5156 Q529.6094,65.125 529.375,65.3906 Q529.1406,65.6563 528.7656,65.6563 Q528.4219,65.6563 528.2188,65.4531 Q528.0156,65.2656 527.9063,64.75 Q527.8594,64.3906 527.6719,64.2031 Q527.3438,63.8281 526.7344,63.6094 Q526.125,63.3906 525.5,63.3906 Q524.7344,63.3906 524.1016,63.7188 Q523.4688,64.0469 522.9766,64.7969 Q522.4844,65.5469 522.4844,66.5781 L522.4844,67.6719 Q522.4844,68.9063 523.375,69.7266 Q524.2656,70.5469 525.8594,70.5469 Q526.7969,70.5469 527.4531,70.2969 Q527.8438,70.1406 528.2656,69.7031 Q528.5313,69.4375 528.6797,69.3594 Q528.8281,69.2813 529.0313,69.2813 Q529.3594,69.2813 529.6172,69.5391 Q529.875,69.7969 529.875,70.1406 Q529.875,70.4844 529.5313,70.8906 Q529.0313,71.4688 528.2344,71.7969 Q527.1563,72.25 525.8594,72.25 Q524.3438,72.25 523.1406,71.625 Q522.1563,71.125 521.4688,70.0547 Q520.7813,68.9844 520.7813,67.7031 L520.7813,66.5469 Q520.7813,65.2188 521.3984,64.0703 Q522.0156,62.9219 523.1094,62.3047 Q524.2031,61.6875 525.4375,61.6875 Q526.1719,61.6875 526.8203,61.8516 Q527.4688,62.0156 528.0156,62.375 Z " fill="#000000"/><text fill="#000000" font-family="sans-serif" font-size="14" lengthAdjust="spacing" textLength="29" x="545.75" y="72.2285">User</text><line style="stroke:#181818;stroke-width:0.5;" x1="431" x2="657" y1="82.5" y2="82.5"/><ellipse cx="441" cy="96.8047" fill="none" rx="3" ry="3" style="stroke:#038048;stroke-width:1.0;"/><text fill="#000000" font-family="sans-serif" font-size="14" lengthAdjust="spacing" textLength="34" x="450" y="101.0332">id: int</text><ellipse cx="441" cy="114.4141" fill="none" rx="3" ry="3" style="stroke:#038048;stroke-width:1.0;"/><text fill="#000000" font-family="sans-serif" font-size="14" lengthAdjust="spacing" textLength="78" x="450" y="118.6426">name: string</text><ellipse cx="441" cy="132.0234" fill="none" rx="3" ry="3" style="stroke:#038048;stroke-width:1.0;"/><text fill="#000000" font-family="sans-serif" font-size="14" lengthAdjust="spacing" textLength="47" x="450" y="136.252">age: int</text><line style="stroke:#181818;stroke-width:0.5;" x1="431" x2="657" y1="143.3281" y2="143.3281"/><ellipse cx="441" cy="157.6328" fill="#84BE84" rx="3" ry="3" style="stroke:#038048;stroke-width:1.0;"/><text fill="#000000" font-family="sans-serif" font-size="14" lengthAdjust="spacing" textLength="202" x="450" y="161.8613">updateName(name: string): void</text><rect fill="#F24D5C" height="6" style="stroke:#C82930;stroke-width:1.0;" width="6" x="438" y="172.2422"/><text fill="#000000" font-family="sans-serif" font-size="14" lengthAdjust="spacing" textLength="185" x="450" y="179.4707">checkValidAge(age: int): bool</text><ellipse cx="441" cy="192.8516" fill="#84BE84" rx="3" ry="3" style="stroke:#038048;stroke-width:1.0;"/><text fill="#000000" font-family="sans-serif" font-size="14" lengthAdjust="spacing" textLength="160" x="450" y="197.0801">updateAge(age: int): void</text></g><!--class Student--><g id="elem_Student"><rect codeLine="23" fill="#F1F1F1" height="224.0938" id="Student" rx="2.5" ry="2.5" style="stroke:#181818;stroke-width:0.5;" width="442" x="434" y="291"/><ellipse cx="626.25" cy="307" fill="#ADD1B2" rx="11" ry="11" style="stroke:#181818;stroke-width:1.0;"/><path d="M629.0156,302.875 Q629.1719,302.6563 629.3594,302.5469 Q629.5469,302.4375 629.7656,302.4375 Q630.1406,302.4375 630.375,302.6953 Q630.6094,302.9531 630.6094,303.5625 L630.6094,305.0156 Q630.6094,305.625 630.375,305.8906 Q630.1406,306.1563 629.7656,306.1563 Q629.4219,306.1563 629.2188,305.9531 Q629.0156,305.7656 628.9063,305.25 Q628.8594,304.8906 628.6719,304.7031 Q628.3438,304.3281 627.7344,304.1094 Q627.125,303.8906 626.5,303.8906 Q625.7344,303.8906 625.1016,304.2188 Q624.4688,304.5469 623.9766,305.2969 Q623.4844,306.0469 623.4844,307.0781 L623.4844,308.1719 Q623.4844,309.4063 624.375,310.2266 Q625.2656,311.0469 626.8594,311.0469 Q627.7969,311.0469 628.4531,310.7969 Q628.8438,310.6406 629.2656,310.2031 Q629.5313,309.9375 629.6797,309.8594 Q629.8281,309.7813 630.0313,309.7813 Q630.3594,309.7813 630.6172,310.0391 Q630.875,310.2969 630.875,310.6406 Q630.875,310.9844 630.5313,311.3906 Q630.0313,311.9688 629.2344,312.2969 Q628.1563,312.75 626.8594,312.75 Q625.3438,312.75 624.1406,312.125 Q623.1563,311.625 622.4688,310.5547 Q621.7813,309.4844 621.7813,308.2031 L621.7813,307.0469 Q621.7813,305.7188 622.3984,304.5703 Q623.0156,303.4219 624.1094,302.8047 Q625.2031,302.1875 626.4375,302.1875 Q627.1719,302.1875 627.8203,302.3516 Q628.4688,302.5156 629.0156,302.875 Z " fill="#000000"/><text fill="#000000" font-family="sans-serif" font-size="14" lengthAdjust="spacing" textLength="49" x="646.75" y="312.7285">Student</text><line style="stroke:#181818;stroke-width:0.5;" x1="435" x2="875" y1="323" y2="323"/><ellipse cx="445" cy="337.3047" fill="none" rx="3" ry="3" style="stroke:#038048;stroke-width:1.0;"/><text fill="#000000" font-family="sans-serif" font-size="14" lengthAdjust="spacing" textLength="81" x="454" y="341.5332">photo: Photo</text><ellipse cx="445" cy="354.9141" fill="none" rx="3" ry="3" style="stroke:#038048;stroke-width:1.0;"/><text fill="#000000" font-family="sans-serif" font-size="14" lengthAdjust="spacing" textLength="123" x="454" y="359.1426">guardian: Guardian</text><ellipse cx="445" cy="372.5234" fill="none" rx="3" ry="3" style="stroke:#038048;stroke-width:1.0;"/><text fill="#000000" font-family="sans-serif" font-size="14" lengthAdjust="spacing" textLength="247" x="454" y="376.752">emergencyContact: EmergencyContact</text><ellipse cx="445" cy="390.1328" fill="none" rx="3" ry="3" style="stroke:#038048;stroke-width:1.0;"/><text fill="#000000" font-family="sans-serif" font-size="14" lengthAdjust="spacing" textLength="243" x="454" y="394.3613">previousEducation: PreviousEducation</text><line style="stroke:#181818;stroke-width:0.5;" x1="435" x2="875" y1="401.4375" y2="401.4375"/><ellipse cx="445" cy="415.7422" fill="#84BE84" rx="3" ry="3" style="stroke:#038048;stroke-width:1.0;"/><text fill="#000000" font-family="sans-serif" font-size="14" lengthAdjust="spacing" textLength="250" x="454" y="419.9707">addGuardian(guardian: Guardian): void</text><ellipse cx="445" cy="433.3516" fill="#84BE84" rx="3" ry="3" style="stroke:#038048;stroke-width:1.0;"/><text fill="#000000" font-family="sans-serif" font-size="14" lengthAdjust="spacing" textLength="251" x="454" y="437.5801">removeGuaradian(id: Guardian.id): void</text><ellipse cx="445" cy="450.9609" fill="#84BE84" rx="3" ry="3" style="stroke:#038048;stroke-width:1.0;"/><text fill="#000000" font-family="sans-serif" font-size="14" lengthAdjust="spacing" textLength="362" x="454" y="455.1895">addEmergencyContact(contact: EmergencyContact): void</text><ellipse cx="445" cy="468.5703" fill="#84BE84" rx="3" ry="3" style="stroke:#038048;stroke-width:1.0;"/><text fill="#000000" font-family="sans-serif" font-size="14" lengthAdjust="spacing" textLength="416" x="454" y="472.7988">updateEmergencyContact(contact_id: EmergencyContact.id): void</text><ellipse cx="445" cy="486.1797" fill="#84BE84" rx="3" ry="3" style="stroke:#038048;stroke-width:1.0;"/><text fill="#000000" font-family="sans-serif" font-size="14" lengthAdjust="spacing" textLength="379" x="454" y="490.4082">addPreviousEducation(eduDetails: PreviousEducation): void</text><ellipse cx="445" cy="503.7891" fill="#84BE84" rx="3" ry="3" style="stroke:#038048;stroke-width:1.0;"/><text fill="#000000" font-family="sans-serif" font-size="14" lengthAdjust="spacing" textLength="194" x="454" y="508.0176">updateEducationDetails(): void</text></g><!--class Photo--><g id="elem_Photo"><rect codeLine="37" fill="#F1F1F1" height="171.2656" id="Photo" rx="2.5" ry="2.5" style="stroke:#181818;stroke-width:0.5;" width="268" x="22" y="593"/><ellipse cx="133.25" cy="609" fill="#ADD1B2" rx="11" ry="11" style="stroke:#181818;stroke-width:1.0;"/><path d="M136.0156,604.875 Q136.1719,604.6563 136.3594,604.5469 Q136.5469,604.4375 136.7656,604.4375 Q137.1406,604.4375 137.375,604.6953 Q137.6094,604.9531 137.6094,605.5625 L137.6094,607.0156 Q137.6094,607.625 137.375,607.8906 Q137.1406,608.1563 136.7656,608.1563 Q136.4219,608.1563 136.2188,607.9531 Q136.0156,607.7656 135.9063,607.25 Q135.8594,606.8906 135.6719,606.7031 Q135.3438,606.3281 134.7344,606.1094 Q134.125,605.8906 133.5,605.8906 Q132.7344,605.8906 132.1016,606.2188 Q131.4688,606.5469 130.9766,607.2969 Q130.4844,608.0469 130.4844,609.0781 L130.4844,610.1719 Q130.4844,611.4063 131.375,612.2266 Q132.2656,613.0469 133.8594,613.0469 Q134.7969,613.0469 135.4531,612.7969 Q135.8438,612.6406 136.2656,612.2031 Q136.5313,611.9375 136.6797,611.8594 Q136.8281,611.7813 137.0313,611.7813 Q137.3594,611.7813 137.6172,612.0391 Q137.875,612.2969 137.875,612.6406 Q137.875,612.9844 137.5313,613.3906 Q137.0313,613.9688 136.2344,614.2969 Q135.1563,614.75 133.8594,614.75 Q132.3438,614.75 131.1406,614.125 Q130.1563,613.625 129.4688,612.5547 Q128.7813,611.4844 128.7813,610.2031 L128.7813,609.0469 Q128.7813,607.7188 129.3984,606.5703 Q130.0156,605.4219 131.1094,604.8047 Q132.2031,604.1875 133.4375,604.1875 Q134.1719,604.1875 134.8203,604.3516 Q135.4688,604.5156 136.0156,604.875 Z " fill="#000000"/><text fill="#000000" font-family="sans-serif" font-size="14" lengthAdjust="spacing" textLength="37" x="153.75" y="614.7285">Photo</text><line style="stroke:#181818;stroke-width:0.5;" x1="23" x2="289" y1="625" y2="625"/><ellipse cx="33" cy="639.3047" fill="none" rx="3" ry="3" style="stroke:#038048;stroke-width:1.0;"/><text fill="#000000" font-family="sans-serif" font-size="14" lengthAdjust="spacing" textLength="47" x="42" y="643.5332">size: int</text><ellipse cx="33" cy="656.9141" fill="none" rx="3" ry="3" style="stroke:#038048;stroke-width:1.0;"/><text fill="#000000" font-family="sans-serif" font-size="14" lengthAdjust="spacing" textLength="58" x="42" y="661.1426">alt: string</text><ellipse cx="33" cy="674.5234" fill="none" rx="3" ry="3" style="stroke:#038048;stroke-width:1.0;"/><text fill="#000000" font-family="sans-serif" font-size="14" lengthAdjust="spacing" textLength="65" x="42" y="678.752">image: bin</text><ellipse cx="33" cy="692.1328" fill="none" rx="3" ry="3" style="stroke:#038048;stroke-width:1.0;"/><text fill="#000000" font-family="sans-serif" font-size="14" lengthAdjust="spacing" textLength="133" x="42" y="696.3613">dateOfCreation: date</text><line style="stroke:#181818;stroke-width:0.5;" x1="23" x2="289" y1="703.4375" y2="703.4375"/><ellipse cx="33" cy="717.7422" fill="#84BE84" rx="3" ry="3" style="stroke:#038048;stroke-width:1.0;"/><text fill="#000000" font-family="sans-serif" font-size="14" lengthAdjust="spacing" textLength="155" x="42" y="721.9707">resize(newSize: int): void</text><ellipse cx="33" cy="735.3516" fill="#84BE84" rx="3" ry="3" style="stroke:#038048;stroke-width:1.0;"/><text fill="#000000" font-family="sans-serif" font-size="14" lengthAdjust="spacing" textLength="242" x="42" y="739.5801">updateAltText(newAltText: string): void</text><ellipse cx="33" cy="752.9609" fill="#84BE84" rx="3" ry="3" style="stroke:#038048;stroke-width:1.0;"/><text fill="#000000" font-family="sans-serif" font-size="14" lengthAdjust="spacing" textLength="219" x="42" y="757.1895">changeImage(newImage: bin): void</text></g><!--class Guardian--><g id="elem_Guardian"><rect codeLine="47" fill="#F1F1F1" height="171.2656" id="Guardian" rx="2.5" ry="2.5" style="stroke:#181818;stroke-width:0.5;" width="318" x="325" y="593"/><ellipse cx="450.25" cy="609" fill="#ADD1B2" rx="11" ry="11" style="stroke:#181818;stroke-width:1.0;"/><path d="M453.0156,604.875 Q453.1719,604.6563 453.3594,604.5469 Q453.5469,604.4375 453.7656,604.4375 Q454.1406,604.4375 454.375,604.6953 Q454.6094,604.9531 454.6094,605.5625 L454.6094,607.0156 Q454.6094,607.625 454.375,607.8906 Q454.1406,608.1563 453.7656,608.1563 Q453.4219,608.1563 453.2188,607.9531 Q453.0156,607.7656 452.9063,607.25 Q452.8594,606.8906 452.6719,606.7031 Q452.3438,606.3281 451.7344,606.1094 Q451.125,605.8906 450.5,605.8906 Q449.7344,605.8906 449.1016,606.2188 Q448.4688,606.5469 447.9766,607.2969 Q447.4844,608.0469 447.4844,609.0781 L447.4844,610.1719 Q447.4844,611.4063 448.375,612.2266 Q449.2656,613.0469 450.8594,613.0469 Q451.7969,613.0469 452.4531,612.7969 Q452.8438,612.6406 453.2656,612.2031 Q453.5313,611.9375 453.6797,611.8594 Q453.8281,611.7813 454.0313,611.7813 Q454.3594,611.7813 454.6172,612.0391 Q454.875,612.2969 454.875,612.6406 Q454.875,612.9844 454.5313,613.3906 Q454.0313,613.9688 453.2344,614.2969 Q452.1563,614.75 450.8594,614.75 Q449.3438,614.75 448.1406,614.125 Q447.1563,613.625 446.4688,612.5547 Q445.7813,611.4844 445.7813,610.2031 L445.7813,609.0469 Q445.7813,607.7188 446.3984,606.5703 Q447.0156,605.4219 448.1094,604.8047 Q449.2031,604.1875 450.4375,604.1875 Q451.1719,604.1875 451.8203,604.3516 Q452.4688,604.5156 453.0156,604.875 Z " fill="#000000"/><text fill="#000000" font-family="sans-serif" font-size="14" lengthAdjust="spacing" textLength="59" x="470.75" y="614.7285">Guardian</text><line style="stroke:#181818;stroke-width:0.5;" x1="326" x2="642" y1="625" y2="625"/><ellipse cx="336" cy="639.3047" fill="none" rx="3" ry="3" style="stroke:#038048;stroke-width:1.0;"/><text fill="#000000" font-family="sans-serif" font-size="14" lengthAdjust="spacing" textLength="34" x="345" y="643.5332">id: int</text><ellipse cx="336" cy="656.9141" fill="none" rx="3" ry="3" style="stroke:#038048;stroke-width:1.0;"/><text fill="#000000" font-family="sans-serif" font-size="14" lengthAdjust="spacing" textLength="78" x="345" y="661.1426">name: string</text><ellipse cx="336" cy="674.5234" fill="none" rx="3" ry="3" style="stroke:#038048;stroke-width:1.0;"/><text fill="#000000" font-family="sans-serif" font-size="14" lengthAdjust="spacing" textLength="116" x="345" y="678.752">relationship: string</text><ellipse cx="336" cy="692.1328" fill="none" rx="3" ry="3" style="stroke:#038048;stroke-width:1.0;"/><text fill="#000000" font-family="sans-serif" font-size="14" lengthAdjust="spacing" textLength="138" x="345" y="696.3613">contactNumber: string</text><line style="stroke:#181818;stroke-width:0.5;" x1="326" x2="642" y1="703.4375" y2="703.4375"/><ellipse cx="336" cy="717.7422" fill="#84BE84" rx="3" ry="3" style="stroke:#038048;stroke-width:1.0;"/><text fill="#000000" font-family="sans-serif" font-size="14" lengthAdjust="spacing" textLength="191" x="345" y="721.9707">updateName(name: string): int</text><ellipse cx="336" cy="735.3516" fill="#84BE84" rx="3" ry="3" style="stroke:#038048;stroke-width:1.0;"/><text fill="#000000" font-family="sans-serif" font-size="14" lengthAdjust="spacing" textLength="271" x="345" y="739.5801">updateRelationship(relationship: string): int</text><ellipse cx="336" cy="752.9609" fill="#84BE84" rx="3" ry="3" style="stroke:#038048;stroke-width:1.0;"/><text fill="#000000" font-family="sans-serif" font-size="14" lengthAdjust="spacing" textLength="292" x="345" y="757.1895">updateContactNumber(newContact: string): int</text></g><!--class EmergencyContact--><g id="elem_EmergencyContact"><rect codeLine="58" fill="#F1F1F1" height="118.4375" id="EmergencyContact" rx="2.5" ry="2.5" style="stroke:#181818;stroke-width:0.5;" width="318" x="440" y="825"/><ellipse cx="534.75" cy="841" fill="#ADD1B2" rx="11" ry="11" style="stroke:#181818;stroke-width:1.0;"/><path d="M537.5156,836.875 Q537.6719,836.6563 537.8594,836.5469 Q538.0469,836.4375 538.2656,836.4375 Q538.6406,836.4375 538.875,836.6953 Q539.1094,836.9531 539.1094,837.5625 L539.1094,839.0156 Q539.1094,839.625 538.875,839.8906 Q538.6406,840.1563 538.2656,840.1563 Q537.9219,840.1563 537.7188,839.9531 Q537.5156,839.7656 537.4063,839.25 Q537.3594,838.8906 537.1719,838.7031 Q536.8438,838.3281 536.2344,838.1094 Q535.625,837.8906 535,837.8906 Q534.2344,837.8906 533.6016,838.2188 Q532.9688,838.5469 532.4766,839.2969 Q531.9844,840.0469 531.9844,841.0781 L531.9844,842.1719 Q531.9844,843.4063 532.875,844.2266 Q533.7656,845.0469 535.3594,845.0469 Q536.2969,845.0469 536.9531,844.7969 Q537.3438,844.6406 537.7656,844.2031 Q538.0313,843.9375 538.1797,843.8594 Q538.3281,843.7813 538.5313,843.7813 Q538.8594,843.7813 539.1172,844.0391 Q539.375,844.2969 539.375,844.6406 Q539.375,844.9844 539.0313,845.3906 Q538.5313,845.9688 537.7344,846.2969 Q536.6563,846.75 535.3594,846.75 Q533.8438,846.75 532.6406,846.125 Q531.6563,845.625 530.9688,844.5547 Q530.2813,843.4844 530.2813,842.2031 L530.2813,841.0469 Q530.2813,839.7188 530.8984,838.5703 Q531.5156,837.4219 532.6094,836.8047 Q533.7031,836.1875 534.9375,836.1875 Q535.6719,836.1875 536.3203,836.3516 Q536.9688,836.5156 537.5156,836.875 Z " fill="#000000"/><text fill="#000000" font-family="sans-serif" font-size="14" lengthAdjust="spacing" textLength="120" x="555.25" y="846.7285">EmergencyContact</text><line style="stroke:#181818;stroke-width:0.5;" x1="441" x2="757" y1="857" y2="857"/><ellipse cx="451" cy="871.3047" fill="none" rx="3" ry="3" style="stroke:#038048;stroke-width:1.0;"/><text fill="#000000" font-family="sans-serif" font-size="14" lengthAdjust="spacing" textLength="112" x="460" y="875.5332">description: string</text><ellipse cx="451" cy="888.9141" fill="none" rx="3" ry="3" style="stroke:#038048;stroke-width:1.0;"/><text fill="#000000" font-family="sans-serif" font-size="14" lengthAdjust="spacing" textLength="138" x="460" y="893.1426">contactNumber: string</text><line style="stroke:#181818;stroke-width:0.5;" x1="441" x2="757" y1="900.2188" y2="900.2188"/><ellipse cx="451" cy="914.5234" fill="#84BE84" rx="3" ry="3" style="stroke:#038048;stroke-width:1.0;"/><text fill="#000000" font-family="sans-serif" font-size="14" lengthAdjust="spacing" textLength="292" x="460" y="918.752">updateContactNumber(newContact: string): int</text><ellipse cx="451" cy="932.1328" fill="#84BE84" rx="3" ry="3" style="stroke:#038048;stroke-width:1.0;"/><text fill="#000000" font-family="sans-serif" font-size="14" lengthAdjust="spacing" textLength="248" x="460" y="936.3613">updateDescription(newDesc: string): int</text></g><!--class PreviousEducation--><g id="elem_PreviousEducation"><rect codeLine="66" fill="#F1F1F1" height="153.6563" id="PreviousEducation" rx="2.5" ry="2.5" style="stroke:#181818;stroke-width:0.5;" width="302" x="771" y="601.5"/><ellipse cx="858.75" cy="617.5" fill="#ADD1B2" rx="11" ry="11" style="stroke:#181818;stroke-width:1.0;"/><path d="M861.5156,613.375 Q861.6719,613.1563 861.8594,613.0469 Q862.0469,612.9375 862.2656,612.9375 Q862.6406,612.9375 862.875,613.1953 Q863.1094,613.4531 863.1094,614.0625 L863.1094,615.5156 Q863.1094,616.125 862.875,616.3906 Q862.6406,616.6563 862.2656,616.6563 Q861.9219,616.6563 861.7188,616.4531 Q861.5156,616.2656 861.4063,615.75 Q861.3594,615.3906 861.1719,615.2031 Q860.8438,614.8281 860.2344,614.6094 Q859.625,614.3906 859,614.3906 Q858.2344,614.3906 857.6016,614.7188 Q856.9688,615.0469 856.4766,615.7969 Q855.9844,616.5469 855.9844,617.5781 L855.9844,618.6719 Q855.9844,619.9063 856.875,620.7266 Q857.7656,621.5469 859.3594,621.5469 Q860.2969,621.5469 860.9531,621.2969 Q861.3438,621.1406 861.7656,620.7031 Q862.0313,620.4375 862.1797,620.3594 Q862.3281,620.2813 862.5313,620.2813 Q862.8594,620.2813 863.1172,620.5391 Q863.375,620.7969 863.375,621.1406 Q863.375,621.4844 863.0313,621.8906 Q862.5313,622.4688 861.7344,622.7969 Q860.6563,623.25 859.3594,623.25 Q857.8438,623.25 856.6406,622.625 Q855.6563,622.125 854.9688,621.0547 Q854.2813,619.9844 854.2813,618.7031 L854.2813,617.5469 Q854.2813,616.2188 854.8984,615.0703 Q855.5156,613.9219 856.6094,613.3047 Q857.7031,612.6875 858.9375,612.6875 Q859.6719,612.6875 860.3203,612.8516 Q860.9688,613.0156 861.5156,613.375 Z " fill="#000000"/><text fill="#000000" font-family="sans-serif" font-size="14" lengthAdjust="spacing" textLength="118" x="879.25" y="623.2285">PreviousEducation</text><line style="stroke:#181818;stroke-width:0.5;" x1="772" x2="1072" y1="633.5" y2="633.5"/><ellipse cx="782" cy="647.8047" fill="none" rx="3" ry="3" style="stroke:#038048;stroke-width:1.0;"/><text fill="#000000" font-family="sans-serif" font-size="14" lengthAdjust="spacing" textLength="120" x="791" y="652.0332">schoolName: string</text><ellipse cx="782" cy="665.4141" fill="none" rx="3" ry="3" style="stroke:#038048;stroke-width:1.0;"/><text fill="#000000" font-family="sans-serif" font-size="14" lengthAdjust="spacing" textLength="80" x="791" y="669.6426">grade: string</text><ellipse cx="782" cy="683.0234" fill="none" rx="3" ry="3" style="stroke:#038048;stroke-width:1.0;"/><text fill="#000000" font-family="sans-serif" font-size="14" lengthAdjust="spacing" textLength="51" x="791" y="687.252">year: int</text><line style="stroke:#181818;stroke-width:0.5;" x1="772" x2="1072" y1="694.3281" y2="694.3281"/><ellipse cx="782" cy="708.6328" fill="#84BE84" rx="3" ry="3" style="stroke:#038048;stroke-width:1.0;"/><text fill="#000000" font-family="sans-serif" font-size="14" lengthAdjust="spacing" textLength="276" x="791" y="712.8613">updateSchoolName(schoolName: string): int</text><ellipse cx="782" cy="726.2422" fill="#84BE84" rx="3" ry="3" style="stroke:#038048;stroke-width:1.0;"/><text fill="#000000" font-family="sans-serif" font-size="14" lengthAdjust="spacing" textLength="225" x="791" y="730.4707">updateGrade(newGrade: string): int</text><ellipse cx="782" cy="743.8516" fill="#84BE84" rx="3" ry="3" style="stroke:#038048;stroke-width:1.0;"/><text fill="#000000" font-family="sans-serif" font-size="14" lengthAdjust="spacing" textLength="185" x="791" y="748.0801">updateYear(newYear: int): int</text></g><!--reverse link User to Student--><g id="link_User_Student"><path d="M581.6867,221.3597 C592.5267,248.0797 598.17,261.97 609.93,290.95 " fill="none" id="User-backto-Student" style="stroke:#181818;stroke-width:1.0;"/><polygon fill="none" points="574.92,204.68,576.1269,223.6152,587.2466,219.1041,574.92,204.68" style="stroke:#181818;stroke-width:1.0;"/></g><!--reverse link Guardian to EmergencyContact--><g id="link_Guardian_EmergencyContact"><path d="M540.6227,779.7026 C552.1627,800.1326 555.39,805.83 566.07,824.74 " fill="none" id="Guardian-backto-EmergencyContact" style="stroke:#181818;stroke-width:1.0;"/><polygon fill="none" points="531.77,764.03,535.3985,782.6535,545.8469,776.7516,531.77,764.03" style="stroke:#181818;stroke-width:1.0;"/></g><!--link admissionForm to Student--><g id="link_admissionForm_Student"><path codeLine="76" d="M732.33,213.16 C722.31,237.64 711.21,264.73 700.63,290.57 " fill="none" id="admissionForm-Student" style="stroke:#181818;stroke-width:1.0;"/><text fill="#000000" font-family="sans-serif" font-size="13" lengthAdjust="spacing" textLength="19" x="718" y="257.4951">fills</text><text fill="#000000" font-family="sans-serif" font-size="13" lengthAdjust="spacing" textLength="7" x="722.0498" y="234.7077">1</text><text fill="#000000" font-family="sans-serif" font-size="13" lengthAdjust="spacing" textLength="20" x="683.0239" y="279.9824">1..*</text></g><!--link Student to Photo--><g id="link_Student_Photo"><path codeLine="77" d="M450.25,515.14 C403.46,540.64 353.98,567.7 308,593 C302.18,596.2 296.24,599.48 290.24,602.79 " fill="none" id="Student-Photo" style="stroke:#181818;stroke-width:1.0;"/><text fill="#000000" font-family="sans-serif" font-size="13" lengthAdjust="spacing" textLength="45" x="394" y="559.4951">uploads</text><text fill="#000000" font-family="sans-serif" font-size="13" lengthAdjust="spacing" textLength="20" x="415.8215" y="536.7157">1..*</text><text fill="#000000" font-family="sans-serif" font-size="13" lengthAdjust="spacing" textLength="7" x="298.2031" y="595.4481">1</text></g><!--link Student to Guardian--><g id="link_Student_Guardian"><path codeLine="78" d="M585.45,515.24 C569.27,541.12 552.29,568.27 536.96,592.79 " fill="none" id="Student-Guardian" style="stroke:#181818;stroke-width:1.0;"/><text fill="#000000" font-family="sans-serif" font-size="13" lengthAdjust="spacing" textLength="21" x="565" y="559.4951">has</text><text fill="#000000" font-family="sans-serif" font-size="13" lengthAdjust="spacing" textLength="20" x="560.3538" y="536.4463">1..*</text><text fill="#000000" font-family="sans-serif" font-size="13" lengthAdjust="spacing" textLength="20" x="520.6519" y="582.2356">1..*</text></g><!--link Student to EmergencyContact--><g id="link_Student_EmergencyContact"><path codeLine="79" d="M671.29,515.12 C678.33,587.11 681,682.34 661,764 C655.87,784.93 646.36,806.27 636.29,824.99 " fill="none" id="Student-EmergencyContact" style="stroke:#181818;stroke-width:1.0;"/><text fill="#000000" font-family="sans-serif" font-size="13" lengthAdjust="spacing" textLength="21" x="677" y="683.9951">has</text><text fill="#000000" font-family="sans-serif" font-size="13" lengthAdjust="spacing" textLength="20" x="651.7126" y="536.6943">1..*</text><text fill="#000000" font-family="sans-serif" font-size="13" lengthAdjust="spacing" textLength="7" x="633.4082" y="814.313">1</text></g><!--link Student to PreviousEducation--><g id="link_Student_PreviousEducation"><path codeLine="80" d="M763.6,515.24 C791.9,544.23 821.74,574.8 847.8,601.5 " fill="none" id="Student-PreviousEducation" style="stroke:#181818;stroke-width:1.0;"/><text fill="#000000" font-family="sans-serif" font-size="13" lengthAdjust="spacing" textLength="21" x="805" y="559.4951">has</text><text fill="#000000" font-family="sans-serif" font-size="13" lengthAdjust="spacing" textLength="20" x="749.9166" y="536.4463">1..*</text><text fill="#000000" font-family="sans-serif" font-size="13" lengthAdjust="spacing" textLength="20" x="819.5116" y="590.6622">1..*</text></g><!--SRC=[bLLDZziW43qdlmBvvEqgaNhrBSgcKGvDewQjjAUAc5aRBJOMu6otg_tl1GmEDhQqFPdCl9dtO3xIuFmP5u0sfA9IKbxBhvoq3D3RSf4pB2N2tlE5YygO5_Stsu5aYDRA6bi9eiOLP4WgGUl26WaeJ9dCq5cr12noXHgTzuKBqYEx-8PW1GzTG7fdRNc9wm9-win7dTaQLmvuSacCyNtfrHge4qa3RP4kVUVE6r1RYX1vbw4hfyIIvYNapxymesHJGEh3DUB2EGkIZBnT_4sVUmO4VnJKPA2tARdY6JgPZpKKBHQ4uZf3UtUoPgX0553dhrjUAvoh3Er6bYwTW2lbhToHDiTArqgd7fkMhfh44wGnv-qHxf60Yb_1UB15coVsk3Kb8LGd7SjAypd1OM3tZ7Enlmtbs1bJHpTDWRGFlXSZxmI_T_Nz6DVILieLJzA_S6itpDIWssXbM-92kmeQWczFMm6kBkQtUr-J9wtXvUppnT8sJFtGxMDGxXZtgv-SWo4so4ElOE8YleGV6Hm1pAgM9Mq63bUWOrjTG4nDzjHuzRl38hu7kTCfeYXY6vAQU_OpCGoutNNSE_qa-aTuStjBve8sNNt-vvOVLHGil9x9mCtFUVLHv_hsoqkzXexZOXLwJeUMLy32AmX4dFluD4uLITwRj4RiFimVmHurbq4zUixmFiE_bUHpWbOh_LclFoL-IMOeUQACoMIvy6lJ0ImqSGEOQJh6CP7JC7lQzskjn78ktIvQhBDWUph56zO4lFy3]--></g></svg>