<?xml version="1.0" encoding="us-ascii" standalone="no"?><svg xmlns="http://www.w3.org/2000/svg" xmlns:xlink="http://www.w3.org/1999/xlink" contentStyleType="text/css" height="1093px" preserveAspectRatio="none" style="width:1450px;height:1093px;background:#FFFFFF;" version="1.1" viewBox="0 0 1450 1093" width="1450px" zoomAndPan="magnify"><defs/><g><!--cluster StudentDetails--><g id="cluster_StudentDetails"><path d="M8.5,6 L112.5,6 A3.75,3.75 0 0 1 115,8.5 L122,29.6094 L1440.5,29.6094 A2.5,2.5 0 0 1 1443,32.1094 L1443,1083.5 A2.5,2.5 0 0 1 1440.5,1086 L8.5,1086 A2.5,2.5 0 0 1 6,1083.5 L6,8.5 A2.5,2.5 0 0 1 8.5,6 " fill="none" style="stroke:#000000;stroke-width:1.5;"/><line style="stroke:#000000;stroke-width:1.5;" x1="6" x2="122" y1="29.6094" y2="29.6094"/><text fill="#000000" font-family="sans-serif" font-size="14" font-weight="bold" lengthAdjust="spacing" textLength="103" x="10" y="22.5332">StudentDetails</text></g><!--class StudentManager--><g id="elem_StudentManager"><rect codeLine="2" fill="#F1F1F1" height="118.4375" id="StudentManager" rx="2.5" ry="2.5" style="stroke:#181818;stroke-width:0.5;" width="462" x="22" y="462"/><ellipse cx="196.25" cy="478" fill="#ADD1B2" rx="11" ry="11" style="stroke:#181818;stroke-width:1.0;"/><path d="M199.0156,473.875 Q199.1719,473.6563 199.3594,473.5469 Q199.5469,473.4375 199.7656,473.4375 Q200.1406,473.4375 200.375,473.6953 Q200.6094,473.9531 200.6094,474.5625 L200.6094,476.0156 Q200.6094,476.625 200.375,476.8906 Q200.1406,477.1563 199.7656,477.1563 Q199.4219,477.1563 199.2188,476.9531 Q199.0156,476.7656 198.9063,476.25 Q198.8594,475.8906 198.6719,475.7031 Q198.3438,475.3281 197.7344,475.1094 Q197.125,474.8906 196.5,474.8906 Q195.7344,474.8906 195.1016,475.2188 Q194.4688,475.5469 193.9766,476.2969 Q193.4844,477.0469 193.4844,478.0781 L193.4844,479.1719 Q193.4844,480.4063 194.375,481.2266 Q195.2656,482.0469 196.8594,482.0469 Q197.7969,482.0469 198.4531,481.7969 Q198.8438,481.6406 199.2656,481.2031 Q199.5313,480.9375 199.6797,480.8594 Q199.8281,480.7813 200.0313,480.7813 Q200.3594,480.7813 200.6172,481.0391 Q200.875,481.2969 200.875,481.6406 Q200.875,481.9844 200.5313,482.3906 Q200.0313,482.9688 199.2344,483.2969 Q198.1563,483.75 196.8594,483.75 Q195.3438,483.75 194.1406,483.125 Q193.1563,482.625 192.4688,481.5547 Q191.7813,480.4844 191.7813,479.2031 L191.7813,478.0469 Q191.7813,476.7188 192.3984,475.5703 Q193.0156,474.4219 194.1094,473.8047 Q195.2031,473.1875 196.4375,473.1875 Q197.1719,473.1875 197.8203,473.3516 Q198.4688,473.5156 199.0156,473.875 Z " fill="#000000"/><text fill="#000000" font-family="sans-serif" font-size="14" lengthAdjust="spacing" textLength="105" x="216.75" y="483.7285">StudentManager</text><line style="stroke:#181818;stroke-width:0.5;" x1="23" x2="483" y1="494" y2="494"/><rect fill="none" height="6" style="stroke:#C82930;stroke-width:1.0;" width="6" x="30" y="505.3047"/><text fill="#000000" font-family="sans-serif" font-size="14" lengthAdjust="spacing" textLength="144" x="42" y="512.5332">students: list&lt;Student&gt;</text><line style="stroke:#181818;stroke-width:0.5;" x1="23" x2="483" y1="519.6094" y2="519.6094"/><ellipse cx="33" cy="533.9141" fill="#84BE84" rx="3" ry="3" style="stroke:#038048;stroke-width:1.0;"/><text fill="#000000" font-family="sans-serif" font-size="14" lengthAdjust="spacing" textLength="436" x="42" y="538.1426">addStudent(name: string, batch: string, additionalDetails: string): void</text><ellipse cx="33" cy="551.5234" fill="#84BE84" rx="3" ry="3" style="stroke:#038048;stroke-width:1.0;"/><text fill="#000000" font-family="sans-serif" font-size="14" lengthAdjust="spacing" textLength="317" x="42" y="555.752">updateStudent(studentID: int, attributes: dict): void</text><ellipse cx="33" cy="569.1328" fill="#84BE84" rx="3" ry="3" style="stroke:#038048;stroke-width:1.0;"/><text fill="#000000" font-family="sans-serif" font-size="14" lengthAdjust="spacing" textLength="223" x="42" y="573.3613">removeStudent(studentID: int): void</text></g><!--class StudentSearch--><g id="elem_StudentSearch"><rect codeLine="9" fill="#F1F1F1" height="153.6563" id="StudentSearch" rx="2.5" ry="2.5" style="stroke:#181818;stroke-width:0.5;" width="306" x="519" y="444"/><ellipse cx="620.75" cy="460" fill="#ADD1B2" rx="11" ry="11" style="stroke:#181818;stroke-width:1.0;"/><path d="M623.5156,455.875 Q623.6719,455.6563 623.8594,455.5469 Q624.0469,455.4375 624.2656,455.4375 Q624.6406,455.4375 624.875,455.6953 Q625.1094,455.9531 625.1094,456.5625 L625.1094,458.0156 Q625.1094,458.625 624.875,458.8906 Q624.6406,459.1563 624.2656,459.1563 Q623.9219,459.1563 623.7188,458.9531 Q623.5156,458.7656 623.4063,458.25 Q623.3594,457.8906 623.1719,457.7031 Q622.8438,457.3281 622.2344,457.1094 Q621.625,456.8906 621,456.8906 Q620.2344,456.8906 619.6016,457.2188 Q618.9688,457.5469 618.4766,458.2969 Q617.9844,459.0469 617.9844,460.0781 L617.9844,461.1719 Q617.9844,462.4063 618.875,463.2266 Q619.7656,464.0469 621.3594,464.0469 Q622.2969,464.0469 622.9531,463.7969 Q623.3438,463.6406 623.7656,463.2031 Q624.0313,462.9375 624.1797,462.8594 Q624.3281,462.7813 624.5313,462.7813 Q624.8594,462.7813 625.1172,463.0391 Q625.375,463.2969 625.375,463.6406 Q625.375,463.9844 625.0313,464.3906 Q624.5313,464.9688 623.7344,465.2969 Q622.6563,465.75 621.3594,465.75 Q619.8438,465.75 618.6406,465.125 Q617.6563,464.625 616.9688,463.5547 Q616.2813,462.4844 616.2813,461.2031 L616.2813,460.0469 Q616.2813,458.7188 616.8984,457.5703 Q617.5156,456.4219 618.6094,455.8047 Q619.7031,455.1875 620.9375,455.1875 Q621.6719,455.1875 622.3203,455.3516 Q622.9688,455.5156 623.5156,455.875 Z " fill="#000000"/><text fill="#000000" font-family="sans-serif" font-size="14" lengthAdjust="spacing" textLength="94" x="641.25" y="465.7285">StudentSearch</text><line style="stroke:#181818;stroke-width:0.5;" x1="520" x2="824" y1="476" y2="476"/><rect fill="none" height="6" style="stroke:#C82930;stroke-width:1.0;" width="6" x="527" y="487.3047"/><text fill="#000000" font-family="sans-serif" font-size="14" lengthAdjust="spacing" textLength="110" x="539" y="494.5332">filters: list&lt;string&gt;</text><line style="stroke:#181818;stroke-width:0.5;" x1="520" x2="824" y1="501.6094" y2="501.6094"/><ellipse cx="530" cy="515.9141" fill="#84BE84" rx="3" ry="3" style="stroke:#038048;stroke-width:1.0;"/><text fill="#000000" font-family="sans-serif" font-size="14" lengthAdjust="spacing" textLength="273" x="539" y="520.1426">searchByBatch(batch: string): list&lt;Student&gt;</text><ellipse cx="530" cy="533.5234" fill="#84BE84" rx="3" ry="3" style="stroke:#038048;stroke-width:1.0;"/><text fill="#000000" font-family="sans-serif" font-size="14" lengthAdjust="spacing" textLength="273" x="539" y="537.752">searchByName(name: string): list&lt;Student&gt;</text><ellipse cx="530" cy="551.1328" fill="#84BE84" rx="3" ry="3" style="stroke:#038048;stroke-width:1.0;"/><text fill="#000000" font-family="sans-serif" font-size="14" lengthAdjust="spacing" textLength="280" x="539" y="555.3613">searchByStatus(status: string): list&lt;Student&gt;</text><ellipse cx="530" cy="568.7422" fill="#84BE84" rx="3" ry="3" style="stroke:#038048;stroke-width:1.0;"/><text fill="#000000" font-family="sans-serif" font-size="14" lengthAdjust="spacing" textLength="271" x="539" y="572.9707">advancedSearch(filters: dict): list&lt;Student&gt;</text><ellipse cx="530" cy="586.3516" fill="#84BE84" rx="3" ry="3" style="stroke:#038048;stroke-width:1.0;"/><text fill="#000000" font-family="sans-serif" font-size="14" lengthAdjust="spacing" textLength="198" x="539" y="590.5801">viewAllStudents(): list&lt;Student&gt;</text></g><!--class Student--><g id="elem_Student"><rect codeLine="20" fill="#F1F1F1" height="241.7031" id="Student" rx="2.5" ry="2.5" style="stroke:#181818;stroke-width:0.5;" width="442" x="985" y="400"/><ellipse cx="1177.25" cy="416" fill="#ADD1B2" rx="11" ry="11" style="stroke:#181818;stroke-width:1.0;"/><path d="M1180.0156,411.875 Q1180.1719,411.6563 1180.3594,411.5469 Q1180.5469,411.4375 1180.7656,411.4375 Q1181.1406,411.4375 1181.375,411.6953 Q1181.6094,411.9531 1181.6094,412.5625 L1181.6094,414.0156 Q1181.6094,414.625 1181.375,414.8906 Q1181.1406,415.1563 1180.7656,415.1563 Q1180.4219,415.1563 1180.2188,414.9531 Q1180.0156,414.7656 1179.9063,414.25 Q1179.8594,413.8906 1179.6719,413.7031 Q1179.3438,413.3281 1178.7344,413.1094 Q1178.125,412.8906 1177.5,412.8906 Q1176.7344,412.8906 1176.1016,413.2188 Q1175.4688,413.5469 1174.9766,414.2969 Q1174.4844,415.0469 1174.4844,416.0781 L1174.4844,417.1719 Q1174.4844,418.4063 1175.375,419.2266 Q1176.2656,420.0469 1177.8594,420.0469 Q1178.7969,420.0469 1179.4531,419.7969 Q1179.8438,419.6406 1180.2656,419.2031 Q1180.5313,418.9375 1180.6797,418.8594 Q1180.8281,418.7813 1181.0313,418.7813 Q1181.3594,418.7813 1181.6172,419.0391 Q1181.875,419.2969 1181.875,419.6406 Q1181.875,419.9844 1181.5313,420.3906 Q1181.0313,420.9688 1180.2344,421.2969 Q1179.1563,421.75 1177.8594,421.75 Q1176.3438,421.75 1175.1406,421.125 Q1174.1563,420.625 1173.4688,419.5547 Q1172.7813,418.4844 1172.7813,417.2031 L1172.7813,416.0469 Q1172.7813,414.7188 1173.3984,413.5703 Q1174.0156,412.4219 1175.1094,411.8047 Q1176.2031,411.1875 1177.4375,411.1875 Q1178.1719,411.1875 1178.8203,411.3516 Q1179.4688,411.5156 1180.0156,411.875 Z " fill="#000000"/><text fill="#000000" font-family="sans-serif" font-size="14" lengthAdjust="spacing" textLength="49" x="1197.75" y="421.7285">Student</text><line style="stroke:#181818;stroke-width:0.5;" x1="986" x2="1426" y1="432" y2="432"/><ellipse cx="996" cy="446.3047" fill="none" rx="3" ry="3" style="stroke:#038048;stroke-width:1.0;"/><text fill="#000000" font-family="sans-serif" font-size="14" lengthAdjust="spacing" textLength="83" x="1005" y="450.5332">studentID: int</text><ellipse cx="996" cy="463.9141" fill="none" rx="3" ry="3" style="stroke:#038048;stroke-width:1.0;"/><text fill="#000000" font-family="sans-serif" font-size="14" lengthAdjust="spacing" textLength="81" x="1005" y="468.1426">photo: Photo</text><ellipse cx="996" cy="481.5234" fill="none" rx="3" ry="3" style="stroke:#038048;stroke-width:1.0;"/><text fill="#000000" font-family="sans-serif" font-size="14" lengthAdjust="spacing" textLength="123" x="1005" y="485.752">guardian: Guardian</text><ellipse cx="996" cy="499.1328" fill="none" rx="3" ry="3" style="stroke:#038048;stroke-width:1.0;"/><text fill="#000000" font-family="sans-serif" font-size="14" lengthAdjust="spacing" textLength="247" x="1005" y="503.3613">emergencyContact: EmergencyContact</text><ellipse cx="996" cy="516.7422" fill="none" rx="3" ry="3" style="stroke:#038048;stroke-width:1.0;"/><text fill="#000000" font-family="sans-serif" font-size="14" lengthAdjust="spacing" textLength="243" x="1005" y="520.9707">previousEducation: PreviousEducation</text><line style="stroke:#181818;stroke-width:0.5;" x1="986" x2="1426" y1="528.0469" y2="528.0469"/><ellipse cx="996" cy="542.3516" fill="#84BE84" rx="3" ry="3" style="stroke:#038048;stroke-width:1.0;"/><text fill="#000000" font-family="sans-serif" font-size="14" lengthAdjust="spacing" textLength="250" x="1005" y="546.5801">addGuardian(guardian: Guardian): void</text><ellipse cx="996" cy="559.9609" fill="#84BE84" rx="3" ry="3" style="stroke:#038048;stroke-width:1.0;"/><text fill="#000000" font-family="sans-serif" font-size="14" lengthAdjust="spacing" textLength="251" x="1005" y="564.1895">removeGuaradian(id: Guardian.id): void</text><ellipse cx="996" cy="577.5703" fill="#84BE84" rx="3" ry="3" style="stroke:#038048;stroke-width:1.0;"/><text fill="#000000" font-family="sans-serif" font-size="14" lengthAdjust="spacing" textLength="362" x="1005" y="581.7988">addEmergencyContact(contact: EmergencyContact): void</text><ellipse cx="996" cy="595.1797" fill="#84BE84" rx="3" ry="3" style="stroke:#038048;stroke-width:1.0;"/><text fill="#000000" font-family="sans-serif" font-size="14" lengthAdjust="spacing" textLength="416" x="1005" y="599.4082">updateEmergencyContact(contact_id: EmergencyContact.id): void</text><ellipse cx="996" cy="612.7891" fill="#84BE84" rx="3" ry="3" style="stroke:#038048;stroke-width:1.0;"/><text fill="#000000" font-family="sans-serif" font-size="14" lengthAdjust="spacing" textLength="379" x="1005" y="617.0176">addPreviousEducation(eduDetails: PreviousEducation): void</text><ellipse cx="996" cy="630.3984" fill="#84BE84" rx="3" ry="3" style="stroke:#038048;stroke-width:1.0;"/><text fill="#000000" font-family="sans-serif" font-size="14" lengthAdjust="spacing" textLength="194" x="1005" y="634.627">updateEducationDetails(): void</text></g><!--class Photo--><g id="elem_Photo"><rect codeLine="35" fill="#F1F1F1" height="171.2656" id="Photo" rx="2.5" ry="2.5" style="stroke:#181818;stroke-width:0.5;" width="268" x="713" y="720"/><ellipse cx="824.25" cy="736" fill="#ADD1B2" rx="11" ry="11" style="stroke:#181818;stroke-width:1.0;"/><path d="M827.0156,731.875 Q827.1719,731.6563 827.3594,731.5469 Q827.5469,731.4375 827.7656,731.4375 Q828.1406,731.4375 828.375,731.6953 Q828.6094,731.9531 828.6094,732.5625 L828.6094,734.0156 Q828.6094,734.625 828.375,734.8906 Q828.1406,735.1563 827.7656,735.1563 Q827.4219,735.1563 827.2188,734.9531 Q827.0156,734.7656 826.9063,734.25 Q826.8594,733.8906 826.6719,733.7031 Q826.3438,733.3281 825.7344,733.1094 Q825.125,732.8906 824.5,732.8906 Q823.7344,732.8906 823.1016,733.2188 Q822.4688,733.5469 821.9766,734.2969 Q821.4844,735.0469 821.4844,736.0781 L821.4844,737.1719 Q821.4844,738.4063 822.375,739.2266 Q823.2656,740.0469 824.8594,740.0469 Q825.7969,740.0469 826.4531,739.7969 Q826.8438,739.6406 827.2656,739.2031 Q827.5313,738.9375 827.6797,738.8594 Q827.8281,738.7813 828.0313,738.7813 Q828.3594,738.7813 828.6172,739.0391 Q828.875,739.2969 828.875,739.6406 Q828.875,739.9844 828.5313,740.3906 Q828.0313,740.9688 827.2344,741.2969 Q826.1563,741.75 824.8594,741.75 Q823.3438,741.75 822.1406,741.125 Q821.1563,740.625 820.4688,739.5547 Q819.7813,738.4844 819.7813,737.2031 L819.7813,736.0469 Q819.7813,734.7188 820.3984,733.5703 Q821.0156,732.4219 822.1094,731.8047 Q823.2031,731.1875 824.4375,731.1875 Q825.1719,731.1875 825.8203,731.3516 Q826.4688,731.5156 827.0156,731.875 Z " fill="#000000"/><text fill="#000000" font-family="sans-serif" font-size="14" lengthAdjust="spacing" textLength="37" x="844.75" y="741.7285">Photo</text><line style="stroke:#181818;stroke-width:0.5;" x1="714" x2="980" y1="752" y2="752"/><ellipse cx="724" cy="766.3047" fill="none" rx="3" ry="3" style="stroke:#038048;stroke-width:1.0;"/><text fill="#000000" font-family="sans-serif" font-size="14" lengthAdjust="spacing" textLength="47" x="733" y="770.5332">size: int</text><ellipse cx="724" cy="783.9141" fill="none" rx="3" ry="3" style="stroke:#038048;stroke-width:1.0;"/><text fill="#000000" font-family="sans-serif" font-size="14" lengthAdjust="spacing" textLength="58" x="733" y="788.1426">alt: string</text><ellipse cx="724" cy="801.5234" fill="none" rx="3" ry="3" style="stroke:#038048;stroke-width:1.0;"/><text fill="#000000" font-family="sans-serif" font-size="14" lengthAdjust="spacing" textLength="65" x="733" y="805.752">image: bin</text><ellipse cx="724" cy="819.1328" fill="none" rx="3" ry="3" style="stroke:#038048;stroke-width:1.0;"/><text fill="#000000" font-family="sans-serif" font-size="14" lengthAdjust="spacing" textLength="133" x="733" y="823.3613">dateOfCreation: date</text><line style="stroke:#181818;stroke-width:0.5;" x1="714" x2="980" y1="830.4375" y2="830.4375"/><ellipse cx="724" cy="844.7422" fill="#84BE84" rx="3" ry="3" style="stroke:#038048;stroke-width:1.0;"/><text fill="#000000" font-family="sans-serif" font-size="14" lengthAdjust="spacing" textLength="155" x="733" y="848.9707">resize(newSize: int): void</text><ellipse cx="724" cy="862.3516" fill="#84BE84" rx="3" ry="3" style="stroke:#038048;stroke-width:1.0;"/><text fill="#000000" font-family="sans-serif" font-size="14" lengthAdjust="spacing" textLength="242" x="733" y="866.5801">updateAltText(newAltText: string): void</text><ellipse cx="724" cy="879.9609" fill="#84BE84" rx="3" ry="3" style="stroke:#038048;stroke-width:1.0;"/><text fill="#000000" font-family="sans-serif" font-size="14" lengthAdjust="spacing" textLength="219" x="733" y="884.1895">changeImage(newImage: bin): void</text></g><!--class Guardian--><g id="elem_Guardian"><rect codeLine="45" fill="#F1F1F1" height="171.2656" id="Guardian" rx="2.5" ry="2.5" style="stroke:#181818;stroke-width:0.5;" width="318" x="1016" y="720"/><ellipse cx="1141.25" cy="736" fill="#ADD1B2" rx="11" ry="11" style="stroke:#181818;stroke-width:1.0;"/><path d="M1144.0156,731.875 Q1144.1719,731.6563 1144.3594,731.5469 Q1144.5469,731.4375 1144.7656,731.4375 Q1145.1406,731.4375 1145.375,731.6953 Q1145.6094,731.9531 1145.6094,732.5625 L1145.6094,734.0156 Q1145.6094,734.625 1145.375,734.8906 Q1145.1406,735.1563 1144.7656,735.1563 Q1144.4219,735.1563 1144.2188,734.9531 Q1144.0156,734.7656 1143.9063,734.25 Q1143.8594,733.8906 1143.6719,733.7031 Q1143.3438,733.3281 1142.7344,733.1094 Q1142.125,732.8906 1141.5,732.8906 Q1140.7344,732.8906 1140.1016,733.2188 Q1139.4688,733.5469 1138.9766,734.2969 Q1138.4844,735.0469 1138.4844,736.0781 L1138.4844,737.1719 Q1138.4844,738.4063 1139.375,739.2266 Q1140.2656,740.0469 1141.8594,740.0469 Q1142.7969,740.0469 1143.4531,739.7969 Q1143.8438,739.6406 1144.2656,739.2031 Q1144.5313,738.9375 1144.6797,738.8594 Q1144.8281,738.7813 1145.0313,738.7813 Q1145.3594,738.7813 1145.6172,739.0391 Q1145.875,739.2969 1145.875,739.6406 Q1145.875,739.9844 1145.5313,740.3906 Q1145.0313,740.9688 1144.2344,741.2969 Q1143.1563,741.75 1141.8594,741.75 Q1140.3438,741.75 1139.1406,741.125 Q1138.1563,740.625 1137.4688,739.5547 Q1136.7813,738.4844 1136.7813,737.2031 L1136.7813,736.0469 Q1136.7813,734.7188 1137.3984,733.5703 Q1138.0156,732.4219 1139.1094,731.8047 Q1140.2031,731.1875 1141.4375,731.1875 Q1142.1719,731.1875 1142.8203,731.3516 Q1143.4688,731.5156 1144.0156,731.875 Z " fill="#000000"/><text fill="#000000" font-family="sans-serif" font-size="14" lengthAdjust="spacing" textLength="59" x="1161.75" y="741.7285">Guardian</text><line style="stroke:#181818;stroke-width:0.5;" x1="1017" x2="1333" y1="752" y2="752"/><ellipse cx="1027" cy="766.3047" fill="none" rx="3" ry="3" style="stroke:#038048;stroke-width:1.0;"/><text fill="#000000" font-family="sans-serif" font-size="14" lengthAdjust="spacing" textLength="34" x="1036" y="770.5332">id: int</text><ellipse cx="1027" cy="783.9141" fill="none" rx="3" ry="3" style="stroke:#038048;stroke-width:1.0;"/><text fill="#000000" font-family="sans-serif" font-size="14" lengthAdjust="spacing" textLength="78" x="1036" y="788.1426">name: string</text><ellipse cx="1027" cy="801.5234" fill="none" rx="3" ry="3" style="stroke:#038048;stroke-width:1.0;"/><text fill="#000000" font-family="sans-serif" font-size="14" lengthAdjust="spacing" textLength="116" x="1036" y="805.752">relationship: string</text><ellipse cx="1027" cy="819.1328" fill="none" rx="3" ry="3" style="stroke:#038048;stroke-width:1.0;"/><text fill="#000000" font-family="sans-serif" font-size="14" lengthAdjust="spacing" textLength="138" x="1036" y="823.3613">contactNumber: string</text><line style="stroke:#181818;stroke-width:0.5;" x1="1017" x2="1333" y1="830.4375" y2="830.4375"/><ellipse cx="1027" cy="844.7422" fill="#84BE84" rx="3" ry="3" style="stroke:#038048;stroke-width:1.0;"/><text fill="#000000" font-family="sans-serif" font-size="14" lengthAdjust="spacing" textLength="191" x="1036" y="848.9707">updateName(name: string): int</text><ellipse cx="1027" cy="862.3516" fill="#84BE84" rx="3" ry="3" style="stroke:#038048;stroke-width:1.0;"/><text fill="#000000" font-family="sans-serif" font-size="14" lengthAdjust="spacing" textLength="271" x="1036" y="866.5801">updateRelationship(relationship: string): int</text><ellipse cx="1027" cy="879.9609" fill="#84BE84" rx="3" ry="3" style="stroke:#038048;stroke-width:1.0;"/><text fill="#000000" font-family="sans-serif" font-size="14" lengthAdjust="spacing" textLength="292" x="1036" y="884.1895">updateContactNumber(newContact: string): int</text></g><!--class EmergencyContact--><g id="elem_EmergencyContact"><rect codeLine="56" fill="#F1F1F1" height="118.4375" id="EmergencyContact" rx="2.5" ry="2.5" style="stroke:#181818;stroke-width:0.5;" width="318" x="1063" y="952"/><ellipse cx="1157.75" cy="968" fill="#ADD1B2" rx="11" ry="11" style="stroke:#181818;stroke-width:1.0;"/><path d="M1160.5156,963.875 Q1160.6719,963.6563 1160.8594,963.5469 Q1161.0469,963.4375 1161.2656,963.4375 Q1161.6406,963.4375 1161.875,963.6953 Q1162.1094,963.9531 1162.1094,964.5625 L1162.1094,966.0156 Q1162.1094,966.625 1161.875,966.8906 Q1161.6406,967.1563 1161.2656,967.1563 Q1160.9219,967.1563 1160.7188,966.9531 Q1160.5156,966.7656 1160.4063,966.25 Q1160.3594,965.8906 1160.1719,965.7031 Q1159.8438,965.3281 1159.2344,965.1094 Q1158.625,964.8906 1158,964.8906 Q1157.2344,964.8906 1156.6016,965.2188 Q1155.9688,965.5469 1155.4766,966.2969 Q1154.9844,967.0469 1154.9844,968.0781 L1154.9844,969.1719 Q1154.9844,970.4063 1155.875,971.2266 Q1156.7656,972.0469 1158.3594,972.0469 Q1159.2969,972.0469 1159.9531,971.7969 Q1160.3438,971.6406 1160.7656,971.2031 Q1161.0313,970.9375 1161.1797,970.8594 Q1161.3281,970.7813 1161.5313,970.7813 Q1161.8594,970.7813 1162.1172,971.0391 Q1162.375,971.2969 1162.375,971.6406 Q1162.375,971.9844 1162.0313,972.3906 Q1161.5313,972.9688 1160.7344,973.2969 Q1159.6563,973.75 1158.3594,973.75 Q1156.8438,973.75 1155.6406,973.125 Q1154.6563,972.625 1153.9688,971.5547 Q1153.2813,970.4844 1153.2813,969.2031 L1153.2813,968.0469 Q1153.2813,966.7188 1153.8984,965.5703 Q1154.5156,964.4219 1155.6094,963.8047 Q1156.7031,963.1875 1157.9375,963.1875 Q1158.6719,963.1875 1159.3203,963.3516 Q1159.9688,963.5156 1160.5156,963.875 Z " fill="#000000"/><text fill="#000000" font-family="sans-serif" font-size="14" lengthAdjust="spacing" textLength="120" x="1178.25" y="973.7285">EmergencyContact</text><line style="stroke:#181818;stroke-width:0.5;" x1="1064" x2="1380" y1="984" y2="984"/><ellipse cx="1074" cy="998.3047" fill="none" rx="3" ry="3" style="stroke:#038048;stroke-width:1.0;"/><text fill="#000000" font-family="sans-serif" font-size="14" lengthAdjust="spacing" textLength="112" x="1083" y="1002.5332">description: string</text><ellipse cx="1074" cy="1015.9141" fill="none" rx="3" ry="3" style="stroke:#038048;stroke-width:1.0;"/><text fill="#000000" font-family="sans-serif" font-size="14" lengthAdjust="spacing" textLength="138" x="1083" y="1020.1426">contactNumber: string</text><line style="stroke:#181818;stroke-width:0.5;" x1="1064" x2="1380" y1="1027.2188" y2="1027.2188"/><ellipse cx="1074" cy="1041.5234" fill="#84BE84" rx="3" ry="3" style="stroke:#038048;stroke-width:1.0;"/><text fill="#000000" font-family="sans-serif" font-size="14" lengthAdjust="spacing" textLength="292" x="1083" y="1045.752">updateContactNumber(newContact: string): int</text><ellipse cx="1074" cy="1059.1328" fill="#84BE84" rx="3" ry="3" style="stroke:#038048;stroke-width:1.0;"/><text fill="#000000" font-family="sans-serif" font-size="14" lengthAdjust="spacing" textLength="248" x="1083" y="1063.3613">updateDescription(newDesc: string): int</text></g><!--class PreviousEducation--><g id="elem_PreviousEducation"><rect codeLine="64" fill="#F1F1F1" height="153.6563" id="PreviousEducation" rx="2.5" ry="2.5" style="stroke:#181818;stroke-width:0.5;" width="302" x="376" y="728.5"/><ellipse cx="463.75" cy="744.5" fill="#ADD1B2" rx="11" ry="11" style="stroke:#181818;stroke-width:1.0;"/><path d="M466.5156,740.375 Q466.6719,740.1563 466.8594,740.0469 Q467.0469,739.9375 467.2656,739.9375 Q467.6406,739.9375 467.875,740.1953 Q468.1094,740.4531 468.1094,741.0625 L468.1094,742.5156 Q468.1094,743.125 467.875,743.3906 Q467.6406,743.6563 467.2656,743.6563 Q466.9219,743.6563 466.7188,743.4531 Q466.5156,743.2656 466.4063,742.75 Q466.3594,742.3906 466.1719,742.2031 Q465.8438,741.8281 465.2344,741.6094 Q464.625,741.3906 464,741.3906 Q463.2344,741.3906 462.6016,741.7188 Q461.9688,742.0469 461.4766,742.7969 Q460.9844,743.5469 460.9844,744.5781 L460.9844,745.6719 Q460.9844,746.9063 461.875,747.7266 Q462.7656,748.5469 464.3594,748.5469 Q465.2969,748.5469 465.9531,748.2969 Q466.3438,748.1406 466.7656,747.7031 Q467.0313,747.4375 467.1797,747.3594 Q467.3281,747.2813 467.5313,747.2813 Q467.8594,747.2813 468.1172,747.5391 Q468.375,747.7969 468.375,748.1406 Q468.375,748.4844 468.0313,748.8906 Q467.5313,749.4688 466.7344,749.7969 Q465.6563,750.25 464.3594,750.25 Q462.8438,750.25 461.6406,749.625 Q460.6563,749.125 459.9688,748.0547 Q459.2813,746.9844 459.2813,745.7031 L459.2813,744.5469 Q459.2813,743.2188 459.8984,742.0703 Q460.5156,740.9219 461.6094,740.3047 Q462.7031,739.6875 463.9375,739.6875 Q464.6719,739.6875 465.3203,739.8516 Q465.9688,740.0156 466.5156,740.375 Z " fill="#000000"/><text fill="#000000" font-family="sans-serif" font-size="14" lengthAdjust="spacing" textLength="118" x="484.25" y="750.2285">PreviousEducation</text><line style="stroke:#181818;stroke-width:0.5;" x1="377" x2="677" y1="760.5" y2="760.5"/><ellipse cx="387" cy="774.8047" fill="none" rx="3" ry="3" style="stroke:#038048;stroke-width:1.0;"/><text fill="#000000" font-family="sans-serif" font-size="14" lengthAdjust="spacing" textLength="120" x="396" y="779.0332">schoolName: string</text><ellipse cx="387" cy="792.4141" fill="none" rx="3" ry="3" style="stroke:#038048;stroke-width:1.0;"/><text fill="#000000" font-family="sans-serif" font-size="14" lengthAdjust="spacing" textLength="80" x="396" y="796.6426">grade: string</text><ellipse cx="387" cy="810.0234" fill="none" rx="3" ry="3" style="stroke:#038048;stroke-width:1.0;"/><text fill="#000000" font-family="sans-serif" font-size="14" lengthAdjust="spacing" textLength="51" x="396" y="814.252">year: int</text><line style="stroke:#181818;stroke-width:0.5;" x1="377" x2="677" y1="821.3281" y2="821.3281"/><ellipse cx="387" cy="835.6328" fill="#84BE84" rx="3" ry="3" style="stroke:#038048;stroke-width:1.0;"/><text fill="#000000" font-family="sans-serif" font-size="14" lengthAdjust="spacing" textLength="276" x="396" y="839.8613">updateSchoolName(schoolName: string): int</text><ellipse cx="387" cy="853.2422" fill="#84BE84" rx="3" ry="3" style="stroke:#038048;stroke-width:1.0;"/><text fill="#000000" font-family="sans-serif" font-size="14" lengthAdjust="spacing" textLength="225" x="396" y="857.4707">updateGrade(newGrade: string): int</text><ellipse cx="387" cy="870.8516" fill="#84BE84" rx="3" ry="3" style="stroke:#038048;stroke-width:1.0;"/><text fill="#000000" font-family="sans-serif" font-size="14" lengthAdjust="spacing" textLength="185" x="396" y="875.0801">updateYear(newYear: int): int</text></g><!--class StudentDatabase--><g id="elem_StudentDatabase"><rect codeLine="75" fill="#F1F1F1" height="118.4375" id="StudentDatabase" rx="2.5" ry="2.5" style="stroke:#181818;stroke-width:0.5;" width="221" x="119.5" y="746.5"/><ellipse cx="170.75" cy="762.5" fill="#ADD1B2" rx="11" ry="11" style="stroke:#181818;stroke-width:1.0;"/><path d="M173.5156,758.375 Q173.6719,758.1563 173.8594,758.0469 Q174.0469,757.9375 174.2656,757.9375 Q174.6406,757.9375 174.875,758.1953 Q175.1094,758.4531 175.1094,759.0625 L175.1094,760.5156 Q175.1094,761.125 174.875,761.3906 Q174.6406,761.6563 174.2656,761.6563 Q173.9219,761.6563 173.7188,761.4531 Q173.5156,761.2656 173.4063,760.75 Q173.3594,760.3906 173.1719,760.2031 Q172.8438,759.8281 172.2344,759.6094 Q171.625,759.3906 171,759.3906 Q170.2344,759.3906 169.6016,759.7188 Q168.9688,760.0469 168.4766,760.7969 Q167.9844,761.5469 167.9844,762.5781 L167.9844,763.6719 Q167.9844,764.9063 168.875,765.7266 Q169.7656,766.5469 171.3594,766.5469 Q172.2969,766.5469 172.9531,766.2969 Q173.3438,766.1406 173.7656,765.7031 Q174.0313,765.4375 174.1797,765.3594 Q174.3281,765.2813 174.5313,765.2813 Q174.8594,765.2813 175.1172,765.5391 Q175.375,765.7969 175.375,766.1406 Q175.375,766.4844 175.0313,766.8906 Q174.5313,767.4688 173.7344,767.7969 Q172.6563,768.25 171.3594,768.25 Q169.8438,768.25 168.6406,767.625 Q167.6563,767.125 166.9688,766.0547 Q166.2813,764.9844 166.2813,763.7031 L166.2813,762.5469 Q166.2813,761.2188 166.8984,760.0703 Q167.5156,758.9219 168.6094,758.3047 Q169.7031,757.6875 170.9375,757.6875 Q171.6719,757.6875 172.3203,757.8516 Q172.9688,758.0156 173.5156,758.375 Z " fill="#000000"/><text fill="#000000" font-family="sans-serif" font-size="14" lengthAdjust="spacing" textLength="110" x="191.25" y="768.2285">StudentDatabase</text><line style="stroke:#181818;stroke-width:0.5;" x1="120.5" x2="339.5" y1="778.5" y2="778.5"/><ellipse cx="130.5" cy="792.8047" fill="none" rx="3" ry="3" style="stroke:#038048;stroke-width:1.0;"/><text fill="#000000" font-family="sans-serif" font-size="14" lengthAdjust="spacing" textLength="149" x="139.5" y="797.0332">students: List&lt;Student&gt;</text><ellipse cx="130.5" cy="810.4141" fill="none" rx="3" ry="3" style="stroke:#038048;stroke-width:1.0;"/><text fill="#000000" font-family="sans-serif" font-size="14" lengthAdjust="spacing" textLength="112" x="139.5" y="814.6426">num_students: int</text><line style="stroke:#181818;stroke-width:0.5;" x1="120.5" x2="339.5" y1="821.7188" y2="821.7188"/><ellipse cx="130.5" cy="836.0234" fill="#84BE84" rx="3" ry="3" style="stroke:#038048;stroke-width:1.0;"/><text fill="#000000" font-family="sans-serif" font-size="14" lengthAdjust="spacing" textLength="187" x="139.5" y="840.252">addStudent(student: Student)</text><ellipse cx="130.5" cy="853.6328" fill="#84BE84" rx="3" ry="3" style="stroke:#038048;stroke-width:1.0;"/><text fill="#000000" font-family="sans-serif" font-size="14" lengthAdjust="spacing" textLength="195" x="139.5" y="857.8613">removeStudent(student_id: int)</text></g><!--class User--><g id="elem_User"><rect codeLine="83" fill="#F1F1F1" height="136.0469" id="User" rx="2.5" ry="2.5" style="stroke:#181818;stroke-width:0.5;" width="220" x="562" y="42"/><ellipse cx="653.25" cy="58" fill="#ADD1B2" rx="11" ry="11" style="stroke:#181818;stroke-width:1.0;"/><path d="M656.0156,53.875 Q656.1719,53.6563 656.3594,53.5469 Q656.5469,53.4375 656.7656,53.4375 Q657.1406,53.4375 657.375,53.6953 Q657.6094,53.9531 657.6094,54.5625 L657.6094,56.0156 Q657.6094,56.625 657.375,56.8906 Q657.1406,57.1563 656.7656,57.1563 Q656.4219,57.1563 656.2188,56.9531 Q656.0156,56.7656 655.9063,56.25 Q655.8594,55.8906 655.6719,55.7031 Q655.3438,55.3281 654.7344,55.1094 Q654.125,54.8906 653.5,54.8906 Q652.7344,54.8906 652.1016,55.2188 Q651.4688,55.5469 650.9766,56.2969 Q650.4844,57.0469 650.4844,58.0781 L650.4844,59.1719 Q650.4844,60.4063 651.375,61.2266 Q652.2656,62.0469 653.8594,62.0469 Q654.7969,62.0469 655.4531,61.7969 Q655.8438,61.6406 656.2656,61.2031 Q656.5313,60.9375 656.6797,60.8594 Q656.8281,60.7813 657.0313,60.7813 Q657.3594,60.7813 657.6172,61.0391 Q657.875,61.2969 657.875,61.6406 Q657.875,61.9844 657.5313,62.3906 Q657.0313,62.9688 656.2344,63.2969 Q655.1563,63.75 653.8594,63.75 Q652.3438,63.75 651.1406,63.125 Q650.1563,62.625 649.4688,61.5547 Q648.7813,60.4844 648.7813,59.2031 L648.7813,58.0469 Q648.7813,56.7188 649.3984,55.5703 Q650.0156,54.4219 651.1094,53.8047 Q652.2031,53.1875 653.4375,53.1875 Q654.1719,53.1875 654.8203,53.3516 Q655.4688,53.5156 656.0156,53.875 Z " fill="#000000"/><text fill="#000000" font-family="sans-serif" font-size="14" lengthAdjust="spacing" textLength="29" x="673.75" y="63.7285">User</text><line style="stroke:#181818;stroke-width:0.5;" x1="563" x2="781" y1="74" y2="74"/><ellipse cx="573" cy="88.3047" fill="none" rx="3" ry="3" style="stroke:#038048;stroke-width:1.0;"/><text fill="#000000" font-family="sans-serif" font-size="14" lengthAdjust="spacing" textLength="64" x="582" y="92.5332">userID: int</text><ellipse cx="573" cy="105.9141" fill="none" rx="3" ry="3" style="stroke:#038048;stroke-width:1.0;"/><text fill="#000000" font-family="sans-serif" font-size="14" lengthAdjust="spacing" textLength="78" x="582" y="110.1426">name: string</text><ellipse cx="573" cy="123.5234" fill="none" rx="3" ry="3" style="stroke:#038048;stroke-width:1.0;"/><text fill="#000000" font-family="sans-serif" font-size="14" lengthAdjust="spacing" textLength="62" x="582" y="127.752">bio: string</text><line style="stroke:#181818;stroke-width:0.5;" x1="563" x2="781" y1="134.8281" y2="134.8281"/><ellipse cx="573" cy="149.1328" fill="#84BE84" rx="3" ry="3" style="stroke:#038048;stroke-width:1.0;"/><text fill="#000000" font-family="sans-serif" font-size="14" lengthAdjust="spacing" textLength="194" x="582" y="153.3613">changeName(name: string): int</text><ellipse cx="573" cy="166.7422" fill="#84BE84" rx="3" ry="3" style="stroke:#038048;stroke-width:1.0;"/><text fill="#000000" font-family="sans-serif" font-size="14" lengthAdjust="spacing" textLength="159" x="582" y="170.9707">updateBio(bio: string): int</text></g><!--class AdminUser--><g id="elem_AdminUser"><rect codeLine="92" fill="#F1F1F1" height="83.2188" id="AdminUser" rx="2.5" ry="2.5" style="stroke:#181818;stroke-width:0.5;" width="190" x="577" y="239"/><ellipse cx="633.75" cy="255" fill="#ADD1B2" rx="11" ry="11" style="stroke:#181818;stroke-width:1.0;"/><path d="M636.5156,250.875 Q636.6719,250.6563 636.8594,250.5469 Q637.0469,250.4375 637.2656,250.4375 Q637.6406,250.4375 637.875,250.6953 Q638.1094,250.9531 638.1094,251.5625 L638.1094,253.0156 Q638.1094,253.625 637.875,253.8906 Q637.6406,254.1563 637.2656,254.1563 Q636.9219,254.1563 636.7188,253.9531 Q636.5156,253.7656 636.4063,253.25 Q636.3594,252.8906 636.1719,252.7031 Q635.8438,252.3281 635.2344,252.1094 Q634.625,251.8906 634,251.8906 Q633.2344,251.8906 632.6016,252.2188 Q631.9688,252.5469 631.4766,253.2969 Q630.9844,254.0469 630.9844,255.0781 L630.9844,256.1719 Q630.9844,257.4063 631.875,258.2266 Q632.7656,259.0469 634.3594,259.0469 Q635.2969,259.0469 635.9531,258.7969 Q636.3438,258.6406 636.7656,258.2031 Q637.0313,257.9375 637.1797,257.8594 Q637.3281,257.7813 637.5313,257.7813 Q637.8594,257.7813 638.1172,258.0391 Q638.375,258.2969 638.375,258.6406 Q638.375,258.9844 638.0313,259.3906 Q637.5313,259.9688 636.7344,260.2969 Q635.6563,260.75 634.3594,260.75 Q632.8438,260.75 631.6406,260.125 Q630.6563,259.625 629.9688,258.5547 Q629.2813,257.4844 629.2813,256.2031 L629.2813,255.0469 Q629.2813,253.7188 629.8984,252.5703 Q630.5156,251.4219 631.6094,250.8047 Q632.7031,250.1875 633.9375,250.1875 Q634.6719,250.1875 635.3203,250.3516 Q635.9688,250.5156 636.5156,250.875 Z " fill="#000000"/><text fill="#000000" font-family="sans-serif" font-size="14" lengthAdjust="spacing" textLength="68" x="654.25" y="260.7285">AdminUser</text><line style="stroke:#181818;stroke-width:0.5;" x1="578" x2="766" y1="271" y2="271"/><ellipse cx="588" cy="285.3047" fill="none" rx="3" ry="3" style="stroke:#038048;stroke-width:1.0;"/><text fill="#000000" font-family="sans-serif" font-size="14" lengthAdjust="spacing" textLength="74" x="597" y="289.5332">adminID: int</text><line style="stroke:#181818;stroke-width:0.5;" x1="578" x2="766" y1="296.6094" y2="296.6094"/><ellipse cx="588" cy="310.9141" fill="#84BE84" rx="3" ry="3" style="stroke:#038048;stroke-width:1.0;"/><text fill="#000000" font-family="sans-serif" font-size="14" lengthAdjust="spacing" textLength="164" x="597" y="315.1426">updateStudentDatabase()</text></g><!--reverse link Guardian to EmergencyContact--><g id="link_Guardian_EmergencyContact"><path d="M1198.5719,908.568 C1203.2919,928.998 1204.18,932.83 1208.54,951.74 " fill="none" id="Guardian-backto-EmergencyContact" style="stroke:#181818;stroke-width:1.0;"/><polygon fill="none" points="1194.52,891.03,1192.7259,909.9186,1204.4179,907.2174,1194.52,891.03" style="stroke:#181818;stroke-width:1.0;"/></g><!--reverse link User to AdminUser--><g id="link_User_AdminUser"><path d="M672,196.08 C672,216.64 672,220.62 672,238.85 " fill="none" id="User-backto-AdminUser" style="stroke:#181818;stroke-width:1.0;"/><polygon fill="none" points="672,178.08,666,196.08,678,196.08,672,178.08" style="stroke:#181818;stroke-width:1.0;"/></g><!--reverse link Student to Photo--><g id="link_Student_Photo"><path codeLine="98" d="M1114.9121,651.1229 C1099.3721,668.6229 1090.2,676.34 1072,690 C1043.94,711.05 1030.61,704.79 999,720 C993.15,722.82 987.21,725.75 981.24,728.78 " fill="none" id="Student-backto-Photo" style="stroke:#181818;stroke-width:1.0;"/><polygon fill="none" points="1122.88,642.15,1115.9051,643.9805,1114.9121,651.1229,1121.887,649.2924,1122.88,642.15" style="stroke:#181818;stroke-width:1.0;"/><text fill="#000000" font-family="sans-serif" font-size="13" lengthAdjust="spacing" textLength="45" x="1090" y="686.4951">uploads</text><text fill="#000000" font-family="sans-serif" font-size="13" lengthAdjust="spacing" textLength="20" x="1097.4965" y="663.1303">1..*</text><text fill="#000000" font-family="sans-serif" font-size="13" lengthAdjust="spacing" textLength="7" x="989.2031" y="721.3797">1</text></g><!--reverse link Student to Guardian--><g id="link_Student_Guardian"><path codeLine="99" d="M1191.4999,654.1483 C1188.6299,680.2783 1186.97,695.46 1184.29,719.87 " fill="none" id="Student-backto-Guardian" style="stroke:#181818;stroke-width:1.0;"/><polygon fill="none" points="1192.81,642.22,1188.1788,647.7474,1191.4999,654.1483,1196.131,648.6208,1192.81,642.22" style="stroke:#181818;stroke-width:1.0;"/><text fill="#000000" font-family="sans-serif" font-size="13" lengthAdjust="spacing" textLength="21" x="1189" y="686.4951">has</text><text fill="#000000" font-family="sans-serif" font-size="13" lengthAdjust="spacing" textLength="20" x="1171.4693" y="663.2044">1..*</text><text fill="#000000" font-family="sans-serif" font-size="13" lengthAdjust="spacing" textLength="20" x="1164.2268" y="709.03">1..*</text></g><!--reverse link Student to EmergencyContact--><g id="link_Student_EmergencyContact"><path codeLine="100" d="M1319.4364,652.2279 C1335.5464,676.4979 1343.09,692.92 1352,720 C1375.74,792.2 1382.63,821.44 1352,891 C1341.83,914.1 1324.71,934.67 1306.18,951.95 " fill="none" id="Student-backto-EmergencyContact" style="stroke:#181818;stroke-width:1.0;"/><polygon fill="none" points="1312.8,642.23,1312.7856,649.4411,1319.4364,652.2279,1319.4508,645.0168,1312.8,642.23" style="stroke:#181818;stroke-width:1.0;"/><text fill="#000000" font-family="sans-serif" font-size="13" lengthAdjust="spacing" textLength="21" x="1373" y="810.9951">has</text><text fill="#000000" font-family="sans-serif" font-size="13" lengthAdjust="spacing" textLength="20" x="1298.3963" y="663.215">1..*</text><text fill="#000000" font-family="sans-serif" font-size="13" lengthAdjust="spacing" textLength="7" x="1309.0129" y="941.2682">1</text></g><!--reverse link Student to PreviousEducation--><g id="link_Student_PreviousEducation"><path codeLine="101" d="M1066.2682,649.8164 C1039.3182,672.1964 1023.41,683.09 1007,690 C879.02,743.9 829.46,681.64 696,720 C687.49,722.45 678.89,725.32 670.32,728.5 " fill="none" id="Student-backto-PreviousEducation" style="stroke:#181818;stroke-width:1.0;"/><polygon fill="none" points="1075.5,642.15,1068.3286,642.9059,1066.2682,649.8164,1073.4395,649.0605,1075.5,642.15" style="stroke:#181818;stroke-width:1.0;"/><text fill="#000000" font-family="sans-serif" font-size="13" lengthAdjust="spacing" textLength="21" x="1035" y="686.4951">has</text><text fill="#000000" font-family="sans-serif" font-size="13" lengthAdjust="spacing" textLength="20" x="1047.3773" y="663.1303">1..*</text><text fill="#000000" font-family="sans-serif" font-size="13" lengthAdjust="spacing" textLength="20" x="663.4437" y="717.6622">1..*</text></g><!--link Student to StudentDatabase--><g id="link_Student_StudentDatabase"><path codeLine="102" d="M987.96,642.02 C939.48,668.48 901.26,689.07 898,690 C667.25,755.72 586.92,645.04 359,720 C340.18,726.19 326.5557,732.6923 309.4557,743.3223 " fill="none" id="Student-to-StudentDatabase" style="stroke:#181818;stroke-width:1.0;"/><polygon fill="#181818" points="304.36,746.49,314.1153,745.1356,308.6064,743.8503,309.8917,738.3414,304.36,746.49" style="stroke:#181818;stroke-width:1.0;"/><text fill="#000000" font-family="sans-serif" font-size="13" lengthAdjust="spacing" textLength="64" x="928" y="686.4951">is stored in</text><text fill="#000000" font-family="sans-serif" font-size="13" lengthAdjust="spacing" textLength="20" x="956.9143" y="661.7802">0..*</text><text fill="#000000" font-family="sans-serif" font-size="13" lengthAdjust="spacing" textLength="7" x="305.9961" y="735.813">1</text></g><!--link StudentSearch to StudentDatabase--><g id="link_StudentSearch_StudentDatabase"><path codeLine="103" d="M568.09,598.19 C546.54,613.17 523.77,628.44 502,642 C440.55,680.27 421.11,682.8 359,720 C345.1,728.32 335.6167,734.1849 321.5267,743.2449 " fill="none" id="StudentSearch-to-StudentDatabase" style="stroke:#181818;stroke-width:1.0;"/><polygon fill="#181818" points="316.48,746.49,326.2135,744.9868,320.6856,743.7858,321.8867,738.2579,316.48,746.49" style="stroke:#181818;stroke-width:1.0;"/><text fill="#000000" font-family="sans-serif" font-size="13" lengthAdjust="spacing" textLength="28" x="449" y="686.4951">uses</text><text fill="#000000" font-family="sans-serif" font-size="13" lengthAdjust="spacing" textLength="7" x="551.8595" y="619.036">1</text><text fill="#000000" font-family="sans-serif" font-size="13" lengthAdjust="spacing" textLength="7" x="319.5932" y="735.813">1</text></g><!--link StudentManager to StudentDatabase--><g id="link_StudentManager_StudentDatabase"><path codeLine="104" d="M248.26,580.19 C244.3,628.81 239.1774,691.8098 235.2174,740.3998 " fill="none" id="StudentManager-to-StudentDatabase" style="stroke:#181818;stroke-width:1.0;"/><polygon fill="#181818" points="234.73,746.38,239.4478,737.7347,235.1361,741.3965,231.4743,737.0848,234.73,746.38" style="stroke:#181818;stroke-width:1.0;"/><text fill="#000000" font-family="sans-serif" font-size="13" lengthAdjust="spacing" textLength="28" x="241" y="686.4951">uses</text><text fill="#000000" font-family="sans-serif" font-size="13" lengthAdjust="spacing" textLength="7" x="240.2557" y="601.8687">1</text><text fill="#000000" font-family="sans-serif" font-size="13" lengthAdjust="spacing" textLength="7" x="227.8799" y="735.6896">1</text></g><!--link AdminUser to StudentManager--><g id="link_AdminUser_StudentManager"><path codeLine="105" d="M600.45,322.23 C533.02,360.61 436.4743,415.5616 360.4843,458.8216 " fill="none" id="AdminUser-to-StudentManager" style="stroke:#181818;stroke-width:1.0;"/><polygon fill="#181818" points="355.27,461.79,365.0703,460.8136,359.6152,459.3163,361.1125,453.8612,355.27,461.79" style="stroke:#181818;stroke-width:1.0;"/><text fill="#000000" font-family="sans-serif" font-size="13" lengthAdjust="spacing" textLength="28" x="537" y="366.4951">uses</text><text fill="#000000" font-family="sans-serif" font-size="13" lengthAdjust="spacing" textLength="20" x="567.453" y="343.6614">1..*</text><text fill="#000000" font-family="sans-serif" font-size="13" lengthAdjust="spacing" textLength="7" x="360.3076" y="451.0887">1</text></g><!--link AdminUser to StudentDatabase--><g id="link_AdminUser_StudentDatabase"><path codeLine="106" d="M762.83,322.02 C794.08,340.93 825.57,366.72 843,400 C892.9,495.28 912.74,560.12 843,642 C701.72,807.87 562.15,641.24 359,720 C341.4,726.82 328.8125,733.1433 312.4225,743.2833 " fill="none" id="AdminUser-to-StudentDatabase" style="stroke:#181818;stroke-width:1.0;"/><polygon fill="#181818" points="307.32,746.44,317.0782,745.1065,311.572,743.8094,312.8692,738.3033,307.32,746.44" style="stroke:#181818;stroke-width:1.0;"/><text fill="#000000" font-family="sans-serif" font-size="13" lengthAdjust="spacing" textLength="53" x="889" y="526.4951">manages</text><text fill="#000000" font-family="sans-serif" font-size="13" lengthAdjust="spacing" textLength="20" x="756.2175" y="343.7279">1..*</text><text fill="#000000" font-family="sans-serif" font-size="13" lengthAdjust="spacing" textLength="7" x="309.3168" y="735.7569">1</text></g><!--link AdminUser to StudentSearch--><g id="link_AdminUser_StudentSearch"><path codeLine="107" d="M672,322.23 C672,355.49 672,397.42 672,437.77 " fill="none" id="AdminUser-to-StudentSearch" style="stroke:#181818;stroke-width:1.0;"/><polygon fill="#181818" points="672,443.77,676,434.77,672,438.77,668,434.77,672,443.77" style="stroke:#181818;stroke-width:1.0;"/><text fill="#000000" font-family="sans-serif" font-size="13" lengthAdjust="spacing" textLength="88" x="673" y="366.4951">searches using</text><text fill="#000000" font-family="sans-serif" font-size="13" lengthAdjust="spacing" textLength="20" x="650.4063" y="343.6614">0..*</text><text fill="#000000" font-family="sans-serif" font-size="13" lengthAdjust="spacing" textLength="7" x="664.6664" y="433.1748">1</text></g><!--SRC=[bLPTJzim57sclyBgKpfMjBr64n9GL25j3AtR0q_eDhwqrXAxYfqoDl7VPpjsxCG9WhuqkJxtddC_RES0nM_O8TceXY9NArJ0Iad-pKwA4gJqzc_0DQeszfCbaQrHvgHaKdrnc7EzTag0KlUUSQWmr-2QyTr7iWLLxCEhnZ7518VISVgbHKwEWb4Rh3bGKEZZETgRLKuOLpg4qWxRHg7sfQnGiMUDbJXEU7QubzaWpGr2NUnTbe-iL5Zx95jnvpCRNLhSvVEboIdhPROOAuh7t-gAzChoAdgZG3LIYpT_hte0FG8laBRwiqwvgqhgS6JuT56MpYQp13HId7-jk5ufhUcm5qhavCxyMSEkWPeou3bPkoThnWhh7VBY-Kfm1ONAoVN0qeQhySX48wzfKu0P4HrwQ9hvMVC4MSgPZeDP0OjcDE3E68sXEkXGLbPC2Kw7TShtmL0E5rFg9DCCQTFja6HrXDylEQTiPDfjfuZh9_kBePLGAZzezfrLUjldPClQ3Xg2xuzNDRg-c7TNNnCdu_YqyV5IQHUb-eb_b46vnx4zN-o1x_3641laJQTW917VGfUBAR7F9DvbJc9fLSizE_GMN8DkcsgBTRSIwHxRjPwcHVo8OcTZH8d7LKngykpsHDyXv3gS7QBhXvo68hGre2YBcXtQ_hmdoxSgwXnMWSd0pUkq-cHo_VWLUo7Ass6pTdgVzYtF-cZp2kAxeVFFqb29vBK9QyIku_W9x5vp6TIzvupocH7zwvsBAr2m1Oaw8-9-fz4L-RLthWO4Rwg7W3BXeyNe5dMOtDCjI8GRlUOUt3vmo9TOyozfR_4GeT46VvX7ukA61FEMYJ0wmTnksQbj4d7PwbuoaKM18bHFwGMj6BTo_Q0dsi50lFY4Pz2UR15pk4Ko_tnszc5En7Af7-VkPCnrX580bREJKPnzN7SNpXwcWFDarxw6jeztwUrdF7gQFrdaSdbkAGPvwcf8NLfH8zLrYHtTrutncVJLuz0Zynz-RtCAFNFP35nSj7Tu19BA-YPUexLeCytTbnHApMT6zkK_]--></g></svg>