<?xml version="1.0" encoding="us-ascii" standalone="no"?><svg xmlns="http://www.w3.org/2000/svg" xmlns:xlink="http://www.w3.org/1999/xlink" contentStyleType="text/css" height="539px" preserveAspectRatio="none" style="width:745px;height:539px;background:#FFFFFF;" version="1.1" viewBox="0 0 745 539" width="745px" zoomAndPan="magnify"><defs/><g><!--cluster ExaminationsModule--><g id="cluster_ExaminationsModule"><path d="M8.5,6 L155.5,6 A3.75,3.75 0 0 1 158,8.5 L165,29.6094 L735.5,29.6094 A2.5,2.5 0 0 1 738,32.1094 L738,529.5 A2.5,2.5 0 0 1 735.5,532 L8.5,532 A2.5,2.5 0 0 1 6,529.5 L6,8.5 A2.5,2.5 0 0 1 8.5,6 " fill="none" style="stroke:#000000;stroke-width:1.5;"/><line style="stroke:#000000;stroke-width:1.5;" x1="6" x2="165" y1="29.6094" y2="29.6094"/><text fill="#000000" font-family="sans-serif" font-size="14" font-weight="bold" lengthAdjust="spacing" textLength="146" x="10" y="22.5332">ExaminationsModule</text></g><!--class ExaminationSystem--><g id="elem_ExaminationSystem"><rect codeLine="2" fill="#F1F1F1" height="100.8281" id="ExaminationSystem" rx="2.5" ry="2.5" style="stroke:#181818;stroke-width:0.5;" width="243" x="474.5" y="68.5"/><ellipse cx="530.75" cy="84.5" fill="#ADD1B2" rx="11" ry="11" style="stroke:#181818;stroke-width:1.0;"/><path d="M533.5156,80.375 Q533.6719,80.1563 533.8594,80.0469 Q534.0469,79.9375 534.2656,79.9375 Q534.6406,79.9375 534.875,80.1953 Q535.1094,80.4531 535.1094,81.0625 L535.1094,82.5156 Q535.1094,83.125 534.875,83.3906 Q534.6406,83.6563 534.2656,83.6563 Q533.9219,83.6563 533.7188,83.4531 Q533.5156,83.2656 533.4063,82.75 Q533.3594,82.3906 533.1719,82.2031 Q532.8438,81.8281 532.2344,81.6094 Q531.625,81.3906 531,81.3906 Q530.2344,81.3906 529.6016,81.7188 Q528.9688,82.0469 528.4766,82.7969 Q527.9844,83.5469 527.9844,84.5781 L527.9844,85.6719 Q527.9844,86.9063 528.875,87.7266 Q529.7656,88.5469 531.3594,88.5469 Q532.2969,88.5469 532.9531,88.2969 Q533.3438,88.1406 533.7656,87.7031 Q534.0313,87.4375 534.1797,87.3594 Q534.3281,87.2813 534.5313,87.2813 Q534.8594,87.2813 535.1172,87.5391 Q535.375,87.7969 535.375,88.1406 Q535.375,88.4844 535.0313,88.8906 Q534.5313,89.4688 533.7344,89.7969 Q532.6563,90.25 531.3594,90.25 Q529.8438,90.25 528.6406,89.625 Q527.6563,89.125 526.9688,88.0547 Q526.2813,86.9844 526.2813,85.7031 L526.2813,84.5469 Q526.2813,83.2188 526.8984,82.0703 Q527.5156,80.9219 528.6094,80.3047 Q529.7031,79.6875 530.9375,79.6875 Q531.6719,79.6875 532.3203,79.8516 Q532.9688,80.0156 533.5156,80.375 Z " fill="#000000"/><text fill="#000000" font-family="sans-serif" font-size="14" lengthAdjust="spacing" textLength="122" x="551.25" y="90.2285">ExaminationSystem</text><line style="stroke:#181818;stroke-width:0.5;" x1="475.5" x2="716.5" y1="100.5" y2="100.5"/><ellipse cx="485.5" cy="114.8047" fill="none" rx="3" ry="3" style="stroke:#038048;stroke-width:1.0;"/><text fill="#000000" font-family="sans-serif" font-size="14" lengthAdjust="spacing" textLength="115" x="494.5" y="119.0332">examIdList: ids[int]</text><ellipse cx="485.5" cy="132.4141" fill="none" rx="3" ry="3" style="stroke:#038048;stroke-width:1.0;"/><text fill="#000000" font-family="sans-serif" font-size="14" lengthAdjust="spacing" textLength="205" x="494.5" y="136.6426">groupingParameters: list&lt;string&gt;</text><line style="stroke:#181818;stroke-width:0.5;" x1="475.5" x2="716.5" y1="143.7188" y2="143.7188"/><ellipse cx="485.5" cy="158.0234" fill="#84BE84" rx="3" ry="3" style="stroke:#038048;stroke-width:1.0;"/><text fill="#000000" font-family="sans-serif" font-size="14" lengthAdjust="spacing" textLength="217" x="494.5" y="162.252">groupExams(grouping_parameter)</text></g><!--class Exam--><g id="elem_Exam"><rect codeLine="8" fill="#F1F1F1" height="241.7031" id="Exam" rx="2.5" ry="2.5" style="stroke:#181818;stroke-width:0.5;" width="262" x="460" y="274"/><ellipse cx="569.75" cy="290" fill="#ADD1B2" rx="11" ry="11" style="stroke:#181818;stroke-width:1.0;"/><path d="M572.5156,285.875 Q572.6719,285.6563 572.8594,285.5469 Q573.0469,285.4375 573.2656,285.4375 Q573.6406,285.4375 573.875,285.6953 Q574.1094,285.9531 574.1094,286.5625 L574.1094,288.0156 Q574.1094,288.625 573.875,288.8906 Q573.6406,289.1563 573.2656,289.1563 Q572.9219,289.1563 572.7188,288.9531 Q572.5156,288.7656 572.4063,288.25 Q572.3594,287.8906 572.1719,287.7031 Q571.8438,287.3281 571.2344,287.1094 Q570.625,286.8906 570,286.8906 Q569.2344,286.8906 568.6016,287.2188 Q567.9688,287.5469 567.4766,288.2969 Q566.9844,289.0469 566.9844,290.0781 L566.9844,291.1719 Q566.9844,292.4063 567.875,293.2266 Q568.7656,294.0469 570.3594,294.0469 Q571.2969,294.0469 571.9531,293.7969 Q572.3438,293.6406 572.7656,293.2031 Q573.0313,292.9375 573.1797,292.8594 Q573.3281,292.7813 573.5313,292.7813 Q573.8594,292.7813 574.1172,293.0391 Q574.375,293.2969 574.375,293.6406 Q574.375,293.9844 574.0313,294.3906 Q573.5313,294.9688 572.7344,295.2969 Q571.6563,295.75 570.3594,295.75 Q568.8438,295.75 567.6406,295.125 Q566.6563,294.625 565.9688,293.5547 Q565.2813,292.4844 565.2813,291.2031 L565.2813,290.0469 Q565.2813,288.7188 565.8984,287.5703 Q566.5156,286.4219 567.6094,285.8047 Q568.7031,285.1875 569.9375,285.1875 Q570.6719,285.1875 571.3203,285.3516 Q571.9688,285.5156 572.5156,285.875 Z " fill="#000000"/><text fill="#000000" font-family="sans-serif" font-size="14" lengthAdjust="spacing" textLength="34" x="590.25" y="295.7285">Exam</text><line style="stroke:#181818;stroke-width:0.5;" x1="461" x2="721" y1="306" y2="306"/><ellipse cx="471" cy="320.3047" fill="none" rx="3" ry="3" style="stroke:#038048;stroke-width:1.0;"/><text fill="#000000" font-family="sans-serif" font-size="14" lengthAdjust="spacing" textLength="34" x="480" y="324.5332">id: int</text><ellipse cx="471" cy="337.9141" fill="none" rx="3" ry="3" style="stroke:#038048;stroke-width:1.0;"/><text fill="#000000" font-family="sans-serif" font-size="14" lengthAdjust="spacing" textLength="78" x="480" y="342.1426">name: string</text><ellipse cx="471" cy="355.5234" fill="none" rx="3" ry="3" style="stroke:#038048;stroke-width:1.0;"/><text fill="#000000" font-family="sans-serif" font-size="14" lengthAdjust="spacing" textLength="97" x="480" y="359.752">course: Course</text><ellipse cx="471" cy="373.1328" fill="none" rx="3" ry="3" style="stroke:#038048;stroke-width:1.0;"/><text fill="#000000" font-family="sans-serif" font-size="14" lengthAdjust="spacing" textLength="86" x="480" y="377.3613">duration: time</text><ellipse cx="471" cy="390.7422" fill="none" rx="3" ry="3" style="stroke:#038048;stroke-width:1.0;"/><text fill="#000000" font-family="sans-serif" font-size="14" lengthAdjust="spacing" textLength="70" x="480" y="394.9707">type: enum</text><ellipse cx="471" cy="408.3516" fill="none" rx="3" ry="3" style="stroke:#038048;stroke-width:1.0;"/><text fill="#000000" font-family="sans-serif" font-size="14" lengthAdjust="spacing" textLength="127" x="480" y="412.5801">maximum_marks: int</text><line style="stroke:#181818;stroke-width:0.5;" x1="461" x2="721" y1="419.6563" y2="419.6563"/><ellipse cx="471" cy="433.9609" fill="#84BE84" rx="3" ry="3" style="stroke:#038048;stroke-width:1.0;"/><text fill="#000000" font-family="sans-serif" font-size="14" lengthAdjust="spacing" textLength="90" x="480" y="438.1895">updateName()</text><ellipse cx="471" cy="451.5703" fill="#84BE84" rx="3" ry="3" style="stroke:#038048;stroke-width:1.0;"/><text fill="#000000" font-family="sans-serif" font-size="14" lengthAdjust="spacing" textLength="100" x="480" y="455.7988">updateCourse()</text><ellipse cx="471" cy="469.1797" fill="#84BE84" rx="3" ry="3" style="stroke:#038048;stroke-width:1.0;"/><text fill="#000000" font-family="sans-serif" font-size="14" lengthAdjust="spacing" textLength="108" x="480" y="473.4082">updateDuration()</text><ellipse cx="471" cy="486.7891" fill="#84BE84" rx="3" ry="3" style="stroke:#038048;stroke-width:1.0;"/><text fill="#000000" font-family="sans-serif" font-size="14" lengthAdjust="spacing" textLength="86" x="480" y="491.0176">updateType()</text><ellipse cx="471" cy="504.3984" fill="#84BE84" rx="3" ry="3" style="stroke:#038048;stroke-width:1.0;"/><text fill="#000000" font-family="sans-serif" font-size="14" lengthAdjust="spacing" textLength="236" x="480" y="508.627">updateMaximumMarks(newMarks: int)</text></g><!--class ReportSystem--><g id="elem_ReportSystem"><rect codeLine="24" fill="#F1F1F1" height="153.6563" id="ReportSystem" rx="2.5" ry="2.5" style="stroke:#181818;stroke-width:0.5;" width="169" x="270.5" y="42"/><ellipse cx="307.1" cy="58" fill="#ADD1B2" rx="11" ry="11" style="stroke:#181818;stroke-width:1.0;"/><path d="M309.8656,53.875 Q310.0219,53.6563 310.2094,53.5469 Q310.3969,53.4375 310.6156,53.4375 Q310.9906,53.4375 311.225,53.6953 Q311.4594,53.9531 311.4594,54.5625 L311.4594,56.0156 Q311.4594,56.625 311.225,56.8906 Q310.9906,57.1563 310.6156,57.1563 Q310.2719,57.1563 310.0688,56.9531 Q309.8656,56.7656 309.7563,56.25 Q309.7094,55.8906 309.5219,55.7031 Q309.1938,55.3281 308.5844,55.1094 Q307.975,54.8906 307.35,54.8906 Q306.5844,54.8906 305.9516,55.2188 Q305.3188,55.5469 304.8266,56.2969 Q304.3344,57.0469 304.3344,58.0781 L304.3344,59.1719 Q304.3344,60.4063 305.225,61.2266 Q306.1156,62.0469 307.7094,62.0469 Q308.6469,62.0469 309.3031,61.7969 Q309.6938,61.6406 310.1156,61.2031 Q310.3813,60.9375 310.5297,60.8594 Q310.6781,60.7813 310.8813,60.7813 Q311.2094,60.7813 311.4672,61.0391 Q311.725,61.2969 311.725,61.6406 Q311.725,61.9844 311.3813,62.3906 Q310.8813,62.9688 310.0844,63.2969 Q309.0063,63.75 307.7094,63.75 Q306.1938,63.75 304.9906,63.125 Q304.0063,62.625 303.3188,61.5547 Q302.6313,60.4844 302.6313,59.2031 L302.6313,58.0469 Q302.6313,56.7188 303.2484,55.5703 Q303.8656,54.4219 304.9594,53.8047 Q306.0531,53.1875 307.2875,53.1875 Q308.0219,53.1875 308.6703,53.3516 Q309.3188,53.5156 309.8656,53.875 Z " fill="#000000"/><text fill="#000000" font-family="sans-serif" font-size="14" lengthAdjust="spacing" textLength="89" x="325.9" y="63.7285">ReportSystem</text><line style="stroke:#181818;stroke-width:0.5;" x1="271.5" x2="438.5" y1="74" y2="74"/><ellipse cx="281.5" cy="88.3047" fill="none" rx="3" ry="3" style="stroke:#038048;stroke-width:1.0;"/><text fill="#000000" font-family="sans-serif" font-size="14" lengthAdjust="spacing" textLength="134" x="290.5" y="92.5332">reports: List&lt;Report&gt;</text><line style="stroke:#181818;stroke-width:0.5;" x1="271.5" x2="438.5" y1="99.6094" y2="99.6094"/><ellipse cx="281.5" cy="113.9141" fill="#84BE84" rx="3" ry="3" style="stroke:#038048;stroke-width:1.0;"/><text fill="#000000" font-family="sans-serif" font-size="14" lengthAdjust="spacing" textLength="143" x="290.5" y="118.1426">generateReport(exam)</text><ellipse cx="281.5" cy="131.5234" fill="#84BE84" rx="3" ry="3" style="stroke:#038048;stroke-width:1.0;"/><text fill="#000000" font-family="sans-serif" font-size="14" lengthAdjust="spacing" textLength="102" x="290.5" y="135.752">viewAllReports()</text><ellipse cx="281.5" cy="149.1328" fill="#84BE84" rx="3" ry="3" style="stroke:#038048;stroke-width:1.0;"/><text fill="#000000" font-family="sans-serif" font-size="14" lengthAdjust="spacing" textLength="114" x="290.5" y="153.3613">deleteAllReports()</text><ellipse cx="281.5" cy="166.7422" fill="#84BE84" rx="3" ry="3" style="stroke:#038048;stroke-width:1.0;"/><text fill="#000000" font-family="sans-serif" font-size="14" lengthAdjust="spacing" textLength="117" x="290.5" y="170.9707">renderAllReports()</text><ellipse cx="281.5" cy="184.3516" fill="#84BE84" rx="3" ry="3" style="stroke:#038048;stroke-width:1.0;"/><text fill="#000000" font-family="sans-serif" font-size="14" lengthAdjust="spacing" textLength="128" x="290.5" y="188.5801">renderReport(exam)</text></g><!--class Report--><g id="elem_Report"><rect codeLine="35" fill="#F1F1F1" height="188.875" id="Report" rx="2.5" ry="2.5" style="stroke:#181818;stroke-width:0.5;" width="233" x="22.5" y="300.5"/><ellipse cx="113.25" cy="316.5" fill="#ADD1B2" rx="11" ry="11" style="stroke:#181818;stroke-width:1.0;"/><path d="M116.0156,312.375 Q116.1719,312.1563 116.3594,312.0469 Q116.5469,311.9375 116.7656,311.9375 Q117.1406,311.9375 117.375,312.1953 Q117.6094,312.4531 117.6094,313.0625 L117.6094,314.5156 Q117.6094,315.125 117.375,315.3906 Q117.1406,315.6563 116.7656,315.6563 Q116.4219,315.6563 116.2188,315.4531 Q116.0156,315.2656 115.9063,314.75 Q115.8594,314.3906 115.6719,314.2031 Q115.3438,313.8281 114.7344,313.6094 Q114.125,313.3906 113.5,313.3906 Q112.7344,313.3906 112.1016,313.7188 Q111.4688,314.0469 110.9766,314.7969 Q110.4844,315.5469 110.4844,316.5781 L110.4844,317.6719 Q110.4844,318.9063 111.375,319.7266 Q112.2656,320.5469 113.8594,320.5469 Q114.7969,320.5469 115.4531,320.2969 Q115.8438,320.1406 116.2656,319.7031 Q116.5313,319.4375 116.6797,319.3594 Q116.8281,319.2813 117.0313,319.2813 Q117.3594,319.2813 117.6172,319.5391 Q117.875,319.7969 117.875,320.1406 Q117.875,320.4844 117.5313,320.8906 Q117.0313,321.4688 116.2344,321.7969 Q115.1563,322.25 113.8594,322.25 Q112.3438,322.25 111.1406,321.625 Q110.1563,321.125 109.4688,320.0547 Q108.7813,318.9844 108.7813,317.7031 L108.7813,316.5469 Q108.7813,315.2188 109.3984,314.0703 Q110.0156,312.9219 111.1094,312.3047 Q112.2031,311.6875 113.4375,311.6875 Q114.1719,311.6875 114.8203,311.8516 Q115.4688,312.0156 116.0156,312.375 Z " fill="#000000"/><text fill="#000000" font-family="sans-serif" font-size="14" lengthAdjust="spacing" textLength="43" x="133.75" y="322.2285">Report</text><line style="stroke:#181818;stroke-width:0.5;" x1="23.5" x2="254.5" y1="332.5" y2="332.5"/><ellipse cx="33.5" cy="346.8047" fill="none" rx="3" ry="3" style="stroke:#038048;stroke-width:1.0;"/><text fill="#000000" font-family="sans-serif" font-size="14" lengthAdjust="spacing" textLength="70" x="42.5" y="351.0332">Student_ID</text><ellipse cx="33.5" cy="364.4141" fill="none" rx="3" ry="3" style="stroke:#038048;stroke-width:1.0;"/><text fill="#000000" font-family="sans-serif" font-size="14" lengthAdjust="spacing" textLength="98" x="42.5" y="368.6426">details: Student</text><ellipse cx="33.5" cy="382.0234" fill="none" rx="3" ry="3" style="stroke:#038048;stroke-width:1.0;"/><text fill="#000000" font-family="sans-serif" font-size="14" lengthAdjust="spacing" textLength="207" x="42.5" y="386.252">analytics: List&lt;GPA, CCE, CWA&gt;</text><ellipse cx="33.5" cy="399.6328" fill="none" rx="3" ry="3" style="stroke:#038048;stroke-width:1.0;"/><text fill="#000000" font-family="sans-serif" font-size="14" lengthAdjust="spacing" textLength="139" x="42.5" y="403.8613">reportGenerationDate</text><line style="stroke:#181818;stroke-width:0.5;" x1="23.5" x2="254.5" y1="410.9375" y2="410.9375"/><ellipse cx="33.5" cy="425.2422" fill="#84BE84" rx="3" ry="3" style="stroke:#038048;stroke-width:1.0;"/><text fill="#000000" font-family="sans-serif" font-size="14" lengthAdjust="spacing" textLength="95" x="42.5" y="429.4707">renderReport()</text><ellipse cx="33.5" cy="442.8516" fill="#84BE84" rx="3" ry="3" style="stroke:#038048;stroke-width:1.0;"/><text fill="#000000" font-family="sans-serif" font-size="14" lengthAdjust="spacing" textLength="146" x="42.5" y="447.0801">displayStudentDetails()</text><ellipse cx="33.5" cy="460.4609" fill="#84BE84" rx="3" ry="3" style="stroke:#038048;stroke-width:1.0;"/><text fill="#000000" font-family="sans-serif" font-size="14" lengthAdjust="spacing" textLength="123" x="42.5" y="464.6895">generateAnalytics()</text><ellipse cx="33.5" cy="478.0703" fill="#84BE84" rx="3" ry="3" style="stroke:#038048;stroke-width:1.0;"/><text fill="#000000" font-family="sans-serif" font-size="14" lengthAdjust="spacing" textLength="198" x="42.5" y="482.2988">updateReportGenerationDate()</text></g><!--class AnalyticsSystem--><g id="elem_AnalyticsSystem"><rect codeLine="48" fill="#F1F1F1" height="153.6563" id="AnalyticsSystem" rx="2.5" ry="2.5" style="stroke:#181818;stroke-width:0.5;" width="134" x="291" y="318"/><ellipse cx="306" cy="334" fill="#ADD1B2" rx="11" ry="11" style="stroke:#181818;stroke-width:1.0;"/><path d="M308.7656,329.875 Q308.9219,329.6563 309.1094,329.5469 Q309.2969,329.4375 309.5156,329.4375 Q309.8906,329.4375 310.125,329.6953 Q310.3594,329.9531 310.3594,330.5625 L310.3594,332.0156 Q310.3594,332.625 310.125,332.8906 Q309.8906,333.1563 309.5156,333.1563 Q309.1719,333.1563 308.9688,332.9531 Q308.7656,332.7656 308.6563,332.25 Q308.6094,331.8906 308.4219,331.7031 Q308.0938,331.3281 307.4844,331.1094 Q306.875,330.8906 306.25,330.8906 Q305.4844,330.8906 304.8516,331.2188 Q304.2188,331.5469 303.7266,332.2969 Q303.2344,333.0469 303.2344,334.0781 L303.2344,335.1719 Q303.2344,336.4063 304.125,337.2266 Q305.0156,338.0469 306.6094,338.0469 Q307.5469,338.0469 308.2031,337.7969 Q308.5938,337.6406 309.0156,337.2031 Q309.2813,336.9375 309.4297,336.8594 Q309.5781,336.7813 309.7813,336.7813 Q310.1094,336.7813 310.3672,337.0391 Q310.625,337.2969 310.625,337.6406 Q310.625,337.9844 310.2813,338.3906 Q309.7813,338.9688 308.9844,339.2969 Q307.9063,339.75 306.6094,339.75 Q305.0938,339.75 303.8906,339.125 Q302.9063,338.625 302.2188,337.5547 Q301.5313,336.4844 301.5313,335.2031 L301.5313,334.0469 Q301.5313,332.7188 302.1484,331.5703 Q302.7656,330.4219 303.8594,329.8047 Q304.9531,329.1875 306.1875,329.1875 Q306.9219,329.1875 307.5703,329.3516 Q308.2188,329.5156 308.7656,329.875 Z " fill="#000000"/><text fill="#000000" font-family="sans-serif" font-size="14" lengthAdjust="spacing" textLength="102" x="320" y="339.7285">AnalyticsSystem</text><line style="stroke:#181818;stroke-width:0.5;" x1="292" x2="424" y1="350" y2="350"/><ellipse cx="302" cy="364.3047" fill="none" rx="3" ry="3" style="stroke:#038048;stroke-width:1.0;"/><text fill="#000000" font-family="sans-serif" font-size="14" lengthAdjust="spacing" textLength="64" x="311" y="368.5332">GPA: float</text><ellipse cx="302" cy="381.9141" fill="none" rx="3" ry="3" style="stroke:#038048;stroke-width:1.0;"/><text fill="#000000" font-family="sans-serif" font-size="14" lengthAdjust="spacing" textLength="64" x="311" y="386.1426">CCE: float</text><ellipse cx="302" cy="399.5234" fill="none" rx="3" ry="3" style="stroke:#038048;stroke-width:1.0;"/><text fill="#000000" font-family="sans-serif" font-size="14" lengthAdjust="spacing" textLength="105" x="311" y="403.752">CWA: List&lt;float&gt;</text><line style="stroke:#181818;stroke-width:0.5;" x1="292" x2="424" y1="410.8281" y2="410.8281"/><ellipse cx="302" cy="425.1328" fill="#84BE84" rx="3" ry="3" style="stroke:#038048;stroke-width:1.0;"/><text fill="#000000" font-family="sans-serif" font-size="14" lengthAdjust="spacing" textLength="95" x="311" y="429.3613">calculateGPA()</text><ellipse cx="302" cy="442.7422" fill="#84BE84" rx="3" ry="3" style="stroke:#038048;stroke-width:1.0;"/><text fill="#000000" font-family="sans-serif" font-size="14" lengthAdjust="spacing" textLength="95" x="311" y="446.9707">calculateCCE()</text><ellipse cx="302" cy="460.3516" fill="#84BE84" rx="3" ry="3" style="stroke:#038048;stroke-width:1.0;"/><text fill="#000000" font-family="sans-serif" font-size="14" lengthAdjust="spacing" textLength="98" x="311" y="464.5801">calculateCWA()</text></g><!--link ExaminationSystem to Exam--><g id="link_ExaminationSystem_Exam"><path codeLine="58" d="M595.09,169.62 C594.56,198.84 593.86,237.17 593.19,273.86 " fill="none" id="ExaminationSystem-Exam" style="stroke:#181818;stroke-width:1.0;"/><text fill="#000000" font-family="sans-serif" font-size="13" lengthAdjust="spacing" textLength="83" x="594" y="240.4951">interfaces with</text><text fill="#000000" font-family="sans-serif" font-size="13" lengthAdjust="spacing" textLength="7" x="587.525" y="190.6593">1</text><text fill="#000000" font-family="sans-serif" font-size="13" lengthAdjust="spacing" textLength="20" x="572.6897" y="263.1029">1..*</text></g><!--link ReportSystem to Report--><g id="link_ReportSystem_Report"><path codeLine="59" d="M294.83,196.32 C269.43,228.55 239.6,266.38 212.88,300.28 " fill="none" id="ReportSystem-Report" style="stroke:#181818;stroke-width:1.0;"/><text fill="#000000" font-family="sans-serif" font-size="13" lengthAdjust="spacing" textLength="57" x="267" y="240.4951">generates</text><text fill="#000000" font-family="sans-serif" font-size="13" lengthAdjust="spacing" textLength="7" x="282.3584" y="217.1772">1</text><text fill="#000000" font-family="sans-serif" font-size="13" lengthAdjust="spacing" textLength="20" x="197.9704" y="289.6086">0..*</text></g><!--link ReportSystem to AnalyticsSystem--><g id="link_ReportSystem_AnalyticsSystem"><path codeLine="60" d="M355.84,196.32 C356.25,234.17 356.75,279.76 357.16,317.61 " fill="none" id="ReportSystem-AnalyticsSystem" style="stroke:#181818;stroke-width:1.0;"/><text fill="#000000" font-family="sans-serif" font-size="13" lengthAdjust="spacing" textLength="28" x="357" y="240.4951">uses</text><text fill="#000000" font-family="sans-serif" font-size="13" lengthAdjust="spacing" textLength="7" x="348.6114" y="217.1772">1</text><text fill="#000000" font-family="sans-serif" font-size="13" lengthAdjust="spacing" textLength="7" x="349.7599" y="307.2653">1</text></g><!--link ReportSystem to Exam--><g id="link_ReportSystem_Exam"><path codeLine="61" d="M420.74,196.32 C441.47,220.39 464.9,247.59 487.59,273.94 " fill="none" id="ReportSystem-Exam" style="stroke:#181818;stroke-width:1.0;"/><text fill="#000000" font-family="sans-serif" font-size="13" lengthAdjust="spacing" textLength="46" x="459" y="240.4951">requires</text><text fill="#000000" font-family="sans-serif" font-size="13" lengthAdjust="spacing" textLength="7" x="419.0888" y="217.1772">1</text><text fill="#000000" font-family="sans-serif" font-size="13" lengthAdjust="spacing" textLength="20" x="460.3247" y="263.188">1..*</text></g><!--SRC=[TLFVQzim47wE_uh3Bt6tjMolfWHCN4fW6QNTo4CPGLZNL5IMFVrO6aR_zvqbEREQvSMoFjtTztrtKi-Q5xP3k7bbhL3CYawPTSUTHFYJpHh9Z9cUFHoCnNOucdq497p5lmfZIn3SF0fbV_g3dUvSBzJkZcdMeaLjIf0KTcsi9dZnBsWeROenVjkF2HVPx2sRyaTAmObAMV-lABI4K9A0EVmm2FOPeUcSfb-Vx2C3KCBIhnxYJdj39LZH1iWUUef1vLg_RTchQ5sxRPb-CO7LuwxdpE8t8Yyk9a2edK1rv4Z0xyII0El0inve2eNxzP4lQS8zzfssIV-rXoXs6C5r25XaGUKE5H8x1hGOHXL8VmlSLr86t4Gb72Lr_GJMg3ZgCt1Q-RtGAF71EexARbTrvB5CI58SSGyonUJ1YcOqSdjNVOBbyeO-csenSNeRF557Qt8s-9nlEYSvcRL-yB4yUMHqBpm3hEhvgUZeMfXUiaFKKeVaU3Rshnh59JEx_u-U8kd2CI-P65ahuKbsp8BVayku3zjD5NlWiKKOPSDauoGnK7PKSOIem0cqgKOffmyt_vB3vIKjLrSVSl-mIiZfgg5-OWqQs0lxd6UpvBADEPzzJZWgZmqoPw9fUTU34fmv7puHfF6N4vf2t_u2]--></g></svg>