<?xml version="1.0" encoding="us-ascii" standalone="no"?><svg xmlns="http://www.w3.org/2000/svg" xmlns:xlink="http://www.w3.org/1999/xlink" contentStyleType="text/css" height="1386px" preserveAspectRatio="none" style="width:787px;height:1386px;background:#FFFFFF;" version="1.1" viewBox="0 0 787 1386" width="787px" zoomAndPan="magnify"><defs/><g><!--cluster NewsModule--><g id="cluster_NewsModule"><path d="M54.97,6 L146.97,6 A3.75,3.75 0 0 1 149.47,8.5 L156.47,29.6094 L777.97,29.6094 A2.5,2.5 0 0 1 780.47,32.1094 L780.47,1376.5 A2.5,2.5 0 0 1 777.97,1379 L54.97,1379 A2.5,2.5 0 0 1 52.47,1376.5 L52.47,8.5 A2.5,2.5 0 0 1 54.97,6 " fill="none" style="stroke:#000000;stroke-width:1.5;"/><line style="stroke:#000000;stroke-width:1.5;" x1="52.47" x2="156.47" y1="29.6094" y2="29.6094"/><text fill="#000000" font-family="sans-serif" font-size="14" font-weight="bold" lengthAdjust="spacing" textLength="91" x="56.47" y="22.5332">NewsModule</text></g><!--class News--><g id="elem_News"><rect codeLine="2" fill="#F1F1F1" height="276.9219" id="News" rx="2.5" ry="2.5" style="stroke:#181818;stroke-width:0.5;" width="431" x="112.97" y="889"/><ellipse cx="307.72" cy="905" fill="#ADD1B2" rx="11" ry="11" style="stroke:#181818;stroke-width:1.0;"/><path d="M310.4856,900.875 Q310.6419,900.6563 310.8294,900.5469 Q311.0169,900.4375 311.2356,900.4375 Q311.6106,900.4375 311.845,900.6953 Q312.0794,900.9531 312.0794,901.5625 L312.0794,903.0156 Q312.0794,903.625 311.845,903.8906 Q311.6106,904.1563 311.2356,904.1563 Q310.8919,904.1563 310.6888,903.9531 Q310.4856,903.7656 310.3763,903.25 Q310.3294,902.8906 310.1419,902.7031 Q309.8138,902.3281 309.2044,902.1094 Q308.595,901.8906 307.97,901.8906 Q307.2044,901.8906 306.5716,902.2188 Q305.9388,902.5469 305.4466,903.2969 Q304.9544,904.0469 304.9544,905.0781 L304.9544,906.1719 Q304.9544,907.4063 305.845,908.2266 Q306.7356,909.0469 308.3294,909.0469 Q309.2669,909.0469 309.9231,908.7969 Q310.3138,908.6406 310.7356,908.2031 Q311.0013,907.9375 311.1497,907.8594 Q311.2981,907.7813 311.5013,907.7813 Q311.8294,907.7813 312.0872,908.0391 Q312.345,908.2969 312.345,908.6406 Q312.345,908.9844 312.0013,909.3906 Q311.5013,909.9688 310.7044,910.2969 Q309.6263,910.75 308.3294,910.75 Q306.8138,910.75 305.6106,910.125 Q304.6263,909.625 303.9388,908.5547 Q303.2513,907.4844 303.2513,906.2031 L303.2513,905.0469 Q303.2513,903.7188 303.8684,902.5703 Q304.4856,901.4219 305.5794,900.8047 Q306.6731,900.1875 307.9075,900.1875 Q308.6419,900.1875 309.2903,900.3516 Q309.9388,900.5156 310.4856,900.875 Z " fill="#000000"/><text fill="#000000" font-family="sans-serif" font-size="14" lengthAdjust="spacing" textLength="33" x="328.22" y="910.7285">News</text><line style="stroke:#181818;stroke-width:0.5;" x1="113.97" x2="542.97" y1="921" y2="921"/><rect fill="none" height="6" style="stroke:#C82930;stroke-width:1.0;" width="6" x="120.97" y="932.3047"/><text fill="#000000" font-family="sans-serif" font-size="14" lengthAdjust="spacing" textLength="34" x="132.97" y="939.5332">id: int</text><rect fill="none" height="6" style="stroke:#C82930;stroke-width:1.0;" width="6" x="120.97" y="949.9141"/><text fill="#000000" font-family="sans-serif" font-size="14" lengthAdjust="spacing" textLength="65" x="132.97" y="957.1426">title: string</text><rect fill="none" height="6" style="stroke:#C82930;stroke-width:1.0;" width="6" x="120.97" y="967.5234"/><text fill="#000000" font-family="sans-serif" font-size="14" lengthAdjust="spacing" textLength="90" x="132.97" y="974.752">content: string</text><rect fill="none" height="6" style="stroke:#C82930;stroke-width:1.0;" width="6" x="120.97" y="985.1328"/><text fill="#000000" font-family="sans-serif" font-size="14" lengthAdjust="spacing" textLength="71" x="132.97" y="992.3613">date: string</text><rect fill="none" height="6" style="stroke:#C82930;stroke-width:1.0;" width="6" x="120.97" y="1002.7422"/><text fill="#000000" font-family="sans-serif" font-size="14" lengthAdjust="spacing" textLength="170" x="132.97" y="1009.9707">comments: List&lt;Comment&gt;</text><line style="stroke:#181818;stroke-width:0.5;" x1="113.97" x2="542.97" y1="1017.0469" y2="1017.0469"/><ellipse cx="123.97" cy="1031.3516" fill="#84BE84" rx="3" ry="3" style="stroke:#038048;stroke-width:1.0;"/><text fill="#000000" font-family="sans-serif" font-size="14" lengthAdjust="spacing" textLength="140" x="132.97" y="1035.5801">readNews(id: int): void</text><ellipse cx="123.97" cy="1048.9609" fill="#84BE84" rx="3" ry="3" style="stroke:#038048;stroke-width:1.0;"/><text fill="#000000" font-family="sans-serif" font-size="14" lengthAdjust="spacing" textLength="405" x="132.97" y="1053.1895">updateNews(id: int, title: string, content: string, date: string): void</text><ellipse cx="123.97" cy="1066.5703" fill="#84BE84" rx="3" ry="3" style="stroke:#038048;stroke-width:1.0;"/><text fill="#000000" font-family="sans-serif" font-size="14" lengthAdjust="spacing" textLength="332" x="132.97" y="1070.7988">updateNews(id: int, content: string, date: string): void</text><ellipse cx="123.97" cy="1084.1797" fill="#84BE84" rx="3" ry="3" style="stroke:#038048;stroke-width:1.0;"/><text fill="#000000" font-family="sans-serif" font-size="14" lengthAdjust="spacing" textLength="181" x="132.97" y="1088.4082">deleteNews(title: string): void</text><ellipse cx="123.97" cy="1101.7891" fill="#84BE84" rx="3" ry="3" style="stroke:#038048;stroke-width:1.0;"/><text fill="#000000" font-family="sans-serif" font-size="14" lengthAdjust="spacing" textLength="359" x="132.97" y="1106.0176">createNews(title: string, content: string, date: string): void</text><text fill="#000000" font-family="sans-serif" font-size="14" lengthAdjust="spacing" textLength="4" x="132.97" y="1123.627">&#160;</text><ellipse cx="123.97" cy="1137.0078" fill="#84BE84" rx="3" ry="3" style="stroke:#038048;stroke-width:1.0;"/><text fill="#000000" font-family="sans-serif" font-size="14" lengthAdjust="spacing" textLength="189" x="132.97" y="1141.2363">archiveNews(newsId: int): void</text><ellipse cx="123.97" cy="1154.6172" fill="#84BE84" rx="3" ry="3" style="stroke:#038048;stroke-width:1.0;"/><text fill="#000000" font-family="sans-serif" font-size="14" lengthAdjust="spacing" textLength="205" x="132.97" y="1158.8457">unarchiveNews(newsId: int): void</text></g><!--class Comment--><g id="elem_Comment"><rect codeLine="18" fill="#F1F1F1" height="171.2656" id="Comment" rx="2.5" ry="2.5" style="stroke:#181818;stroke-width:0.5;" width="457" x="306.97" y="492"/><ellipse cx="501.22" cy="508" fill="#ADD1B2" rx="11" ry="11" style="stroke:#181818;stroke-width:1.0;"/><path d="M503.9856,503.875 Q504.1419,503.6563 504.3294,503.5469 Q504.5169,503.4375 504.7356,503.4375 Q505.1106,503.4375 505.345,503.6953 Q505.5794,503.9531 505.5794,504.5625 L505.5794,506.0156 Q505.5794,506.625 505.345,506.8906 Q505.1106,507.1563 504.7356,507.1563 Q504.3919,507.1563 504.1888,506.9531 Q503.9856,506.7656 503.8763,506.25 Q503.8294,505.8906 503.6419,505.7031 Q503.3138,505.3281 502.7044,505.1094 Q502.095,504.8906 501.47,504.8906 Q500.7044,504.8906 500.0716,505.2188 Q499.4388,505.5469 498.9466,506.2969 Q498.4544,507.0469 498.4544,508.0781 L498.4544,509.1719 Q498.4544,510.4063 499.345,511.2266 Q500.2356,512.0469 501.8294,512.0469 Q502.7669,512.0469 503.4231,511.7969 Q503.8138,511.6406 504.2356,511.2031 Q504.5013,510.9375 504.6497,510.8594 Q504.7981,510.7813 505.0013,510.7813 Q505.3294,510.7813 505.5872,511.0391 Q505.845,511.2969 505.845,511.6406 Q505.845,511.9844 505.5013,512.3906 Q505.0013,512.9688 504.2044,513.2969 Q503.1263,513.75 501.8294,513.75 Q500.3138,513.75 499.1106,513.125 Q498.1263,512.625 497.4388,511.5547 Q496.7513,510.4844 496.7513,509.2031 L496.7513,508.0469 Q496.7513,506.7188 497.3684,505.5703 Q497.9856,504.4219 499.0794,503.8047 Q500.1731,503.1875 501.4075,503.1875 Q502.1419,503.1875 502.7903,503.3516 Q503.4388,503.5156 503.9856,503.875 Z " fill="#000000"/><text fill="#000000" font-family="sans-serif" font-size="14" lengthAdjust="spacing" textLength="60" x="521.72" y="513.7285">Comment</text><line style="stroke:#181818;stroke-width:0.5;" x1="307.97" x2="762.97" y1="524" y2="524"/><rect fill="none" height="6" style="stroke:#C82930;stroke-width:1.0;" width="6" x="314.97" y="535.3047"/><text fill="#000000" font-family="sans-serif" font-size="14" lengthAdjust="spacing" textLength="34" x="326.97" y="542.5332">id: int</text><rect fill="none" height="6" style="stroke:#C82930;stroke-width:1.0;" width="6" x="314.97" y="552.9141"/><text fill="#000000" font-family="sans-serif" font-size="14" lengthAdjust="spacing" textLength="90" x="326.97" y="560.1426">content: string</text><rect fill="none" height="6" style="stroke:#C82930;stroke-width:1.0;" width="6" x="314.97" y="570.5234"/><text fill="#000000" font-family="sans-serif" font-size="14" lengthAdjust="spacing" textLength="71" x="326.97" y="577.752">date: string</text><rect fill="none" height="6" style="stroke:#C82930;stroke-width:1.0;" width="6" x="314.97" y="588.1328"/><text fill="#000000" font-family="sans-serif" font-size="14" lengthAdjust="spacing" textLength="84" x="326.97" y="595.3613">author: string</text><rect fill="none" height="6" style="stroke:#C82930;stroke-width:1.0;" width="6" x="314.97" y="605.7422"/><text fill="#000000" font-family="sans-serif" font-size="14" lengthAdjust="spacing" textLength="81" x="326.97" y="612.9707">status: string</text><line style="stroke:#181818;stroke-width:0.5;" x1="307.97" x2="762.97" y1="620.0469" y2="620.0469"/><ellipse cx="317.97" cy="634.3516" fill="#84BE84" rx="3" ry="3" style="stroke:#038048;stroke-width:1.0;"/><text fill="#000000" font-family="sans-serif" font-size="14" lengthAdjust="spacing" textLength="431" x="326.97" y="638.5801">addComment(content: string, author: string, date: string, id: int): void</text><ellipse cx="317.97" cy="651.9609" fill="#84BE84" rx="3" ry="3" style="stroke:#038048;stroke-width:1.0;"/><text fill="#000000" font-family="sans-serif" font-size="14" lengthAdjust="spacing" textLength="177" x="326.97" y="656.1895">deleteComment(id: int): void</text></g><!--class ArchivedNews--><g id="elem_ArchivedNews"><rect codeLine="28" fill="#F1F1F1" height="136.0469" id="ArchivedNews" rx="2.5" ry="2.5" style="stroke:#181818;stroke-width:0.5;" width="274" x="191.47" y="1227"/><ellipse cx="280.22" cy="1243" fill="#ADD1B2" rx="11" ry="11" style="stroke:#181818;stroke-width:1.0;"/><path d="M282.9856,1238.875 Q283.1419,1238.6563 283.3294,1238.5469 Q283.5169,1238.4375 283.7356,1238.4375 Q284.1106,1238.4375 284.345,1238.6953 Q284.5794,1238.9531 284.5794,1239.5625 L284.5794,1241.0156 Q284.5794,1241.625 284.345,1241.8906 Q284.1106,1242.1563 283.7356,1242.1563 Q283.3919,1242.1563 283.1888,1241.9531 Q282.9856,1241.7656 282.8763,1241.25 Q282.8294,1240.8906 282.6419,1240.7031 Q282.3138,1240.3281 281.7044,1240.1094 Q281.095,1239.8906 280.47,1239.8906 Q279.7044,1239.8906 279.0716,1240.2188 Q278.4388,1240.5469 277.9466,1241.2969 Q277.4544,1242.0469 277.4544,1243.0781 L277.4544,1244.1719 Q277.4544,1245.4063 278.345,1246.2266 Q279.2356,1247.0469 280.8294,1247.0469 Q281.7669,1247.0469 282.4231,1246.7969 Q282.8138,1246.6406 283.2356,1246.2031 Q283.5013,1245.9375 283.6497,1245.8594 Q283.7981,1245.7813 284.0013,1245.7813 Q284.3294,1245.7813 284.5872,1246.0391 Q284.845,1246.2969 284.845,1246.6406 Q284.845,1246.9844 284.5013,1247.3906 Q284.0013,1247.9688 283.2044,1248.2969 Q282.1263,1248.75 280.8294,1248.75 Q279.3138,1248.75 278.1106,1248.125 Q277.1263,1247.625 276.4388,1246.5547 Q275.7513,1245.4844 275.7513,1244.2031 L275.7513,1243.0469 Q275.7513,1241.7188 276.3684,1240.5703 Q276.9856,1239.4219 278.0794,1238.8047 Q279.1731,1238.1875 280.4075,1238.1875 Q281.1419,1238.1875 281.7903,1238.3516 Q282.4388,1238.5156 282.9856,1238.875 Z " fill="#000000"/><text fill="#000000" font-family="sans-serif" font-size="14" lengthAdjust="spacing" textLength="88" x="300.72" y="1248.7285">ArchivedNews</text><line style="stroke:#181818;stroke-width:0.5;" x1="192.47" x2="464.47" y1="1259" y2="1259"/><rect fill="none" height="6" style="stroke:#C82930;stroke-width:1.0;" width="6" x="199.47" y="1270.3047"/><text fill="#000000" font-family="sans-serif" font-size="14" lengthAdjust="spacing" textLength="80" x="211.47" y="1277.5332">archiveId: int</text><rect fill="none" height="6" style="stroke:#C82930;stroke-width:1.0;" width="6" x="199.47" y="1287.9141"/><text fill="#000000" font-family="sans-serif" font-size="14" lengthAdjust="spacing" textLength="115" x="211.47" y="1295.1426">archivalDate: date</text><line style="stroke:#181818;stroke-width:0.5;" x1="192.47" x2="464.47" y1="1302.2188" y2="1302.2188"/><ellipse cx="202.47" cy="1316.5234" fill="#84BE84" rx="3" ry="3" style="stroke:#038048;stroke-width:1.0;"/><text fill="#000000" font-family="sans-serif" font-size="14" lengthAdjust="spacing" textLength="248" x="211.47" y="1320.752">updateArchivalDate(newDate: date): int</text><ellipse cx="202.47" cy="1334.1328" fill="#84BE84" rx="3" ry="3" style="stroke:#038048;stroke-width:1.0;"/><text fill="#000000" font-family="sans-serif" font-size="14" lengthAdjust="spacing" textLength="153" x="211.47" y="1338.3613">viewArchivalDate(): date</text><ellipse cx="202.47" cy="1351.7422" fill="#84BE84" rx="3" ry="3" style="stroke:#038048;stroke-width:1.0;"/><text fill="#000000" font-family="sans-serif" font-size="14" lengthAdjust="spacing" textLength="205" x="211.47" y="1355.9707">unarchiveNews(newsId: int): void</text></g><!--class SearchSystem--><g id="elem_SearchSystem"><rect codeLine="37" fill="#F1F1F1" height="224.0938" id="SearchSystem" rx="2.5" ry="2.5" style="stroke:#181818;stroke-width:0.5;" width="263" x="122.97" y="238"/><ellipse cx="204.72" cy="254" fill="#ADD1B2" rx="11" ry="11" style="stroke:#181818;stroke-width:1.0;"/><path d="M207.4856,249.875 Q207.6419,249.6563 207.8294,249.5469 Q208.0169,249.4375 208.2356,249.4375 Q208.6106,249.4375 208.845,249.6953 Q209.0794,249.9531 209.0794,250.5625 L209.0794,252.0156 Q209.0794,252.625 208.845,252.8906 Q208.6106,253.1563 208.2356,253.1563 Q207.8919,253.1563 207.6888,252.9531 Q207.4856,252.7656 207.3763,252.25 Q207.3294,251.8906 207.1419,251.7031 Q206.8138,251.3281 206.2044,251.1094 Q205.595,250.8906 204.97,250.8906 Q204.2044,250.8906 203.5716,251.2188 Q202.9388,251.5469 202.4466,252.2969 Q201.9544,253.0469 201.9544,254.0781 L201.9544,255.1719 Q201.9544,256.4063 202.845,257.2266 Q203.7356,258.0469 205.3294,258.0469 Q206.2669,258.0469 206.9231,257.7969 Q207.3138,257.6406 207.7356,257.2031 Q208.0013,256.9375 208.1497,256.8594 Q208.2981,256.7813 208.5013,256.7813 Q208.8294,256.7813 209.0872,257.0391 Q209.345,257.2969 209.345,257.6406 Q209.345,257.9844 209.0013,258.3906 Q208.5013,258.9688 207.7044,259.2969 Q206.6263,259.75 205.3294,259.75 Q203.8138,259.75 202.6106,259.125 Q201.6263,258.625 200.9388,257.5547 Q200.2513,256.4844 200.2513,255.2031 L200.2513,254.0469 Q200.2513,252.7188 200.8684,251.5703 Q201.4856,250.4219 202.5794,249.8047 Q203.6731,249.1875 204.9075,249.1875 Q205.6419,249.1875 206.2903,249.3516 Q206.9388,249.5156 207.4856,249.875 Z " fill="#000000"/><text fill="#000000" font-family="sans-serif" font-size="14" lengthAdjust="spacing" textLength="91" x="225.22" y="259.7285">SearchSystem</text><line style="stroke:#181818;stroke-width:0.5;" x1="123.97" x2="384.97" y1="270" y2="270"/><ellipse cx="133.97" cy="284.3047" fill="none" rx="3" ry="3" style="stroke:#038048;stroke-width:1.0;"/><text fill="#000000" font-family="sans-serif" font-size="14" lengthAdjust="spacing" textLength="125" x="142.97" y="288.5332">searchQuery: string</text><ellipse cx="133.97" cy="301.9141" fill="none" rx="3" ry="3" style="stroke:#038048;stroke-width:1.0;"/><text fill="#000000" font-family="sans-serif" font-size="14" lengthAdjust="spacing" textLength="77" x="142.97" y="306.1426">filters: enum</text><ellipse cx="133.97" cy="319.5234" fill="none" rx="3" ry="3" style="stroke:#038048;stroke-width:1.0;"/><text fill="#000000" font-family="sans-serif" font-size="14" lengthAdjust="spacing" textLength="108" x="142.97" y="323.752">tags: List&lt;string&gt;</text><line style="stroke:#181818;stroke-width:0.5;" x1="123.97" x2="384.97" y1="330.8281" y2="330.8281"/><ellipse cx="133.97" cy="345.1328" fill="#84BE84" rx="3" ry="3" style="stroke:#038048;stroke-width:1.0;"/><text fill="#000000" font-family="sans-serif" font-size="14" lengthAdjust="spacing" textLength="237" x="142.97" y="349.3613">search(keyword: String): List&lt;Object&gt;</text><ellipse cx="133.97" cy="362.7422" fill="#84BE84" rx="3" ry="3" style="stroke:#038048;stroke-width:1.0;"/><text fill="#000000" font-family="sans-serif" font-size="14" lengthAdjust="spacing" textLength="146" x="142.97" y="366.9707">applyFilter(filter: enum)</text><ellipse cx="133.97" cy="380.3516" fill="#84BE84" rx="3" ry="3" style="stroke:#038048;stroke-width:1.0;"/><text fill="#000000" font-family="sans-serif" font-size="14" lengthAdjust="spacing" textLength="159" x="142.97" y="384.5801">removeFilter(filter: enum)</text><ellipse cx="133.97" cy="397.9609" fill="#84BE84" rx="3" ry="3" style="stroke:#038048;stroke-width:1.0;"/><text fill="#000000" font-family="sans-serif" font-size="14" lengthAdjust="spacing" textLength="122" x="142.97" y="402.1895">addTag(tag: string)</text><ellipse cx="133.97" cy="415.5703" fill="#84BE84" rx="3" ry="3" style="stroke:#038048;stroke-width:1.0;"/><text fill="#000000" font-family="sans-serif" font-size="14" lengthAdjust="spacing" textLength="145" x="142.97" y="419.7988">removeTag(tag: string)</text><ellipse cx="133.97" cy="433.1797" fill="#84BE84" rx="3" ry="3" style="stroke:#038048;stroke-width:1.0;"/><text fill="#000000" font-family="sans-serif" font-size="14" lengthAdjust="spacing" textLength="85" x="142.97" y="437.4082">viewAllNews()</text><ellipse cx="133.97" cy="450.7891" fill="#84BE84" rx="3" ry="3" style="stroke:#038048;stroke-width:1.0;"/><text fill="#000000" font-family="sans-serif" font-size="14" lengthAdjust="spacing" textLength="125" x="142.97" y="455.0176">viewArchivedNews()</text></g><!--class NewsDatabase--><g id="elem_NewsDatabase"><rect codeLine="51" fill="#F1F1F1" height="118.4375" id="NewsDatabase" rx="2.5" ry="2.5" style="stroke:#181818;stroke-width:0.5;" width="213" x="122.97" y="693"/><ellipse cx="178.22" cy="709" fill="#ADD1B2" rx="11" ry="11" style="stroke:#181818;stroke-width:1.0;"/><path d="M180.9856,704.875 Q181.1419,704.6563 181.3294,704.5469 Q181.5169,704.4375 181.7356,704.4375 Q182.1106,704.4375 182.345,704.6953 Q182.5794,704.9531 182.5794,705.5625 L182.5794,707.0156 Q182.5794,707.625 182.345,707.8906 Q182.1106,708.1563 181.7356,708.1563 Q181.3919,708.1563 181.1888,707.9531 Q180.9856,707.7656 180.8763,707.25 Q180.8294,706.8906 180.6419,706.7031 Q180.3138,706.3281 179.7044,706.1094 Q179.095,705.8906 178.47,705.8906 Q177.7044,705.8906 177.0716,706.2188 Q176.4388,706.5469 175.9466,707.2969 Q175.4544,708.0469 175.4544,709.0781 L175.4544,710.1719 Q175.4544,711.4063 176.345,712.2266 Q177.2356,713.0469 178.8294,713.0469 Q179.7669,713.0469 180.4231,712.7969 Q180.8138,712.6406 181.2356,712.2031 Q181.5013,711.9375 181.6497,711.8594 Q181.7981,711.7813 182.0013,711.7813 Q182.3294,711.7813 182.5872,712.0391 Q182.845,712.2969 182.845,712.6406 Q182.845,712.9844 182.5013,713.3906 Q182.0013,713.9688 181.2044,714.2969 Q180.1263,714.75 178.8294,714.75 Q177.3138,714.75 176.1106,714.125 Q175.1263,713.625 174.4388,712.5547 Q173.7513,711.4844 173.7513,710.2031 L173.7513,709.0469 Q173.7513,707.7188 174.3684,706.5703 Q174.9856,705.4219 176.0794,704.8047 Q177.1731,704.1875 178.4075,704.1875 Q179.1419,704.1875 179.7903,704.3516 Q180.4388,704.5156 180.9856,704.875 Z " fill="#000000"/><text fill="#000000" font-family="sans-serif" font-size="14" lengthAdjust="spacing" textLength="94" x="198.72" y="714.7285">NewsDatabase</text><line style="stroke:#181818;stroke-width:0.5;" x1="123.97" x2="334.97" y1="725" y2="725"/><ellipse cx="133.97" cy="739.3047" fill="none" rx="3" ry="3" style="stroke:#038048;stroke-width:1.0;"/><text fill="#000000" font-family="sans-serif" font-size="14" lengthAdjust="spacing" textLength="161" x="142.97" y="743.5332">newsStorage: List&lt;News&gt;</text><line style="stroke:#181818;stroke-width:0.5;" x1="123.97" x2="334.97" y1="750.6094" y2="750.6094"/><ellipse cx="133.97" cy="764.9141" fill="#84BE84" rx="3" ry="3" style="stroke:#038048;stroke-width:1.0;"/><text fill="#000000" font-family="sans-serif" font-size="14" lengthAdjust="spacing" textLength="163" x="142.97" y="769.1426">addNews(news: News): int</text><ellipse cx="133.97" cy="782.5234" fill="#84BE84" rx="3" ry="3" style="stroke:#038048;stroke-width:1.0;"/><text fill="#000000" font-family="sans-serif" font-size="14" lengthAdjust="spacing" textLength="187" x="142.97" y="786.752">removeNews(news_id: int): int</text><ellipse cx="133.97" cy="800.1328" fill="#84BE84" rx="3" ry="3" style="stroke:#038048;stroke-width:1.0;"/><text fill="#000000" font-family="sans-serif" font-size="14" lengthAdjust="spacing" textLength="165" x="142.97" y="804.3613">ArchiveAllNews(password)</text></g><!--class Admin--><g id="elem_Admin"><rect codeLine="59" fill="#F1F1F1" height="83.2188" id="Admin" rx="2.5" ry="2.5" style="stroke:#181818;stroke-width:0.5;" width="228" x="308.47" y="59.5"/><ellipse cx="398.72" cy="75.5" fill="#ADD1B2" rx="11" ry="11" style="stroke:#181818;stroke-width:1.0;"/><path d="M401.4856,71.375 Q401.6419,71.1563 401.8294,71.0469 Q402.0169,70.9375 402.2356,70.9375 Q402.6106,70.9375 402.845,71.1953 Q403.0794,71.4531 403.0794,72.0625 L403.0794,73.5156 Q403.0794,74.125 402.845,74.3906 Q402.6106,74.6563 402.2356,74.6563 Q401.8919,74.6563 401.6888,74.4531 Q401.4856,74.2656 401.3763,73.75 Q401.3294,73.3906 401.1419,73.2031 Q400.8138,72.8281 400.2044,72.6094 Q399.595,72.3906 398.97,72.3906 Q398.2044,72.3906 397.5716,72.7188 Q396.9388,73.0469 396.4466,73.7969 Q395.9544,74.5469 395.9544,75.5781 L395.9544,76.6719 Q395.9544,77.9063 396.845,78.7266 Q397.7356,79.5469 399.3294,79.5469 Q400.2669,79.5469 400.9231,79.2969 Q401.3138,79.1406 401.7356,78.7031 Q402.0013,78.4375 402.1497,78.3594 Q402.2981,78.2813 402.5013,78.2813 Q402.8294,78.2813 403.0872,78.5391 Q403.345,78.7969 403.345,79.1406 Q403.345,79.4844 403.0013,79.8906 Q402.5013,80.4688 401.7044,80.7969 Q400.6263,81.25 399.3294,81.25 Q397.8138,81.25 396.6106,80.625 Q395.6263,80.125 394.9388,79.0547 Q394.2513,77.9844 394.2513,76.7031 L394.2513,75.5469 Q394.2513,74.2188 394.8684,73.0703 Q395.4856,71.9219 396.5794,71.3047 Q397.6731,70.6875 398.9075,70.6875 Q399.6419,70.6875 400.2903,70.8516 Q400.9388,71.0156 401.4856,71.375 Z " fill="#000000"/><text fill="#000000" font-family="sans-serif" font-size="14" lengthAdjust="spacing" textLength="39" x="419.22" y="81.2285">Admin</text><line style="stroke:#181818;stroke-width:0.5;" x1="309.47" x2="535.47" y1="91.5" y2="91.5"/><ellipse cx="319.47" cy="105.8047" fill="none" rx="3" ry="3" style="stroke:#038048;stroke-width:1.0;"/><text fill="#000000" font-family="sans-serif" font-size="14" lengthAdjust="spacing" textLength="74" x="328.47" y="110.0332">adminID: int</text><line style="stroke:#181818;stroke-width:0.5;" x1="309.47" x2="535.47" y1="117.1094" y2="117.1094"/><ellipse cx="319.47" cy="131.4141" fill="#84BE84" rx="3" ry="3" style="stroke:#038048;stroke-width:1.0;"/><text fill="#000000" font-family="sans-serif" font-size="14" lengthAdjust="spacing" textLength="202" x="328.47" y="135.6426">deleteComment(commentID: int)</text></g><!--class Viewer--><g id="elem_Viewer"><rect codeLine="65" fill="#F1F1F1" height="118.4375" id="Viewer" rx="2.5" ry="2.5" style="stroke:#181818;stroke-width:0.5;" width="135" x="90.97" y="42"/><ellipse cx="133.42" cy="58" fill="#ADD1B2" rx="11" ry="11" style="stroke:#181818;stroke-width:1.0;"/><path d="M136.1856,53.875 Q136.3419,53.6563 136.5294,53.5469 Q136.7169,53.4375 136.9356,53.4375 Q137.3106,53.4375 137.545,53.6953 Q137.7794,53.9531 137.7794,54.5625 L137.7794,56.0156 Q137.7794,56.625 137.545,56.8906 Q137.3106,57.1563 136.9356,57.1563 Q136.5919,57.1563 136.3888,56.9531 Q136.1856,56.7656 136.0763,56.25 Q136.0294,55.8906 135.8419,55.7031 Q135.5138,55.3281 134.9044,55.1094 Q134.295,54.8906 133.67,54.8906 Q132.9044,54.8906 132.2716,55.2188 Q131.6388,55.5469 131.1466,56.2969 Q130.6544,57.0469 130.6544,58.0781 L130.6544,59.1719 Q130.6544,60.4063 131.545,61.2266 Q132.4356,62.0469 134.0294,62.0469 Q134.9669,62.0469 135.6231,61.7969 Q136.0138,61.6406 136.4356,61.2031 Q136.7013,60.9375 136.8497,60.8594 Q136.9981,60.7813 137.2013,60.7813 Q137.5294,60.7813 137.7872,61.0391 Q138.045,61.2969 138.045,61.6406 Q138.045,61.9844 137.7013,62.3906 Q137.2013,62.9688 136.4044,63.2969 Q135.3263,63.75 134.0294,63.75 Q132.5138,63.75 131.3106,63.125 Q130.3263,62.625 129.6388,61.5547 Q128.9513,60.4844 128.9513,59.2031 L128.9513,58.0469 Q128.9513,56.7188 129.5684,55.5703 Q130.1856,54.4219 131.2794,53.8047 Q132.3731,53.1875 133.6075,53.1875 Q134.3419,53.1875 134.9903,53.3516 Q135.6388,53.5156 136.1856,53.875 Z " fill="#000000"/><text fill="#000000" font-family="sans-serif" font-size="14" lengthAdjust="spacing" textLength="42" x="153.52" y="63.7285">Viewer</text><line style="stroke:#181818;stroke-width:0.5;" x1="91.97" x2="224.97" y1="74" y2="74"/><ellipse cx="101.97" cy="88.3047" fill="none" rx="3" ry="3" style="stroke:#038048;stroke-width:1.0;"/><text fill="#000000" font-family="sans-serif" font-size="14" lengthAdjust="spacing" textLength="53" x="110.97" y="92.5332">viewerID</text><ellipse cx="101.97" cy="105.9141" fill="none" rx="3" ry="3" style="stroke:#038048;stroke-width:1.0;"/><text fill="#000000" font-family="sans-serif" font-size="14" lengthAdjust="spacing" textLength="109" x="110.97" y="110.1426">viewerPriviledges</text><line style="stroke:#181818;stroke-width:0.5;" x1="91.97" x2="224.97" y1="117.2188" y2="117.2188"/><ellipse cx="101.97" cy="131.5234" fill="#84BE84" rx="3" ry="3" style="stroke:#038048;stroke-width:1.0;"/><text fill="#000000" font-family="sans-serif" font-size="14" lengthAdjust="spacing" textLength="70" x="110.97" y="135.752">viewNews()</text><ellipse cx="101.97" cy="149.1328" fill="#84BE84" rx="3" ry="3" style="stroke:#038048;stroke-width:1.0;"/><text fill="#000000" font-family="sans-serif" font-size="14" lengthAdjust="spacing" textLength="86" x="110.97" y="153.3613">searchNews()</text></g><!--reverse link News to ArchivedNews--><g id="link_News_ArchivedNews"><path d="M328.47,1184.3 C328.47,1205.39 328.47,1208.31 328.47,1226.92 " fill="none" id="News-backto-ArchivedNews" style="stroke:#181818;stroke-width:1.0;"/><polygon fill="none" points="328.47,1166.3,322.47,1184.3,334.47,1184.3,328.47,1166.3" style="stroke:#181818;stroke-width:1.0;"/></g><!--link Comment to News--><g id="link_Comment_News"><path codeLine="73" d="M496.41,663.03 C467.06,726.55 433.7794,798.5797 399.7294,872.2797 " fill="none" id="Comment-to-News" style="stroke:#181818;stroke-width:1.0;"/><polygon fill="none" points="392.18,888.62,405.1762,874.7961,394.2826,869.7632,392.18,888.62" style="stroke:#181818;stroke-width:1.0;"/><text fill="#000000" font-family="sans-serif" font-size="13" lengthAdjust="spacing" textLength="92" x="479.47" y="757.4951">are contained in</text><text fill="#000000" font-family="sans-serif" font-size="13" lengthAdjust="spacing" textLength="20" x="472.0406" y="684.859">0..*</text><text fill="#000000" font-family="sans-serif" font-size="13" lengthAdjust="spacing" textLength="7" x="388.4727" y="878.0944">1</text></g><!--reverse link NewsDatabase to News--><g id="link_NewsDatabase_News"><path codeLine="74" d="M252.5112,816.6421 C260.8212,839.6121 268.72,861.44 278.68,888.95 " fill="none" id="NewsDatabase-backto-News" style="stroke:#181818;stroke-width:1.0;"/><polygon fill="#181818" points="250.47,811,249.7704,820.824,252.171,815.7018,257.2932,818.1024,250.47,811" style="stroke:#181818;stroke-width:1.0;"/><text fill="#000000" font-family="sans-serif" font-size="13" lengthAdjust="spacing" textLength="64" x="267.47" y="855.4951">is stored in</text><text fill="#000000" font-family="sans-serif" font-size="13" lengthAdjust="spacing" textLength="7" x="245.7122" y="833.074">1</text><text fill="#000000" font-family="sans-serif" font-size="13" lengthAdjust="spacing" textLength="20" x="255.2234" y="877.9851">0..*</text></g><!--link SearchSystem to NewsDatabase--><g id="link_SearchSystem_NewsDatabase"><path codeLine="75" d="M183.8,462.26 C179.67,472.06 176.13,482.04 173.47,492 C153.88,565.43 152.22,590.03 173.47,663 C176.41,673.08 178.0173,677.8524 183.1873,687.3324 " fill="none" id="SearchSystem-to-NewsDatabase" style="stroke:#181818;stroke-width:1.0;"/><polygon fill="#181818" points="186.06,692.6,185.2626,682.7835,183.6661,688.2103,178.2392,686.6138,186.06,692.6" style="stroke:#181818;stroke-width:1.0;"/><text fill="#000000" font-family="sans-serif" font-size="13" lengthAdjust="spacing" textLength="28" x="174.47" y="582.9951">uses</text><text fill="#000000" font-family="sans-serif" font-size="13" lengthAdjust="spacing" textLength="7" x="172.0485" y="483.4675">1</text><text fill="#000000" font-family="sans-serif" font-size="13" lengthAdjust="spacing" textLength="7" x="173.636" y="682.297">1</text></g><!--link Viewer to SearchSystem--><g id="link_Viewer_SearchSystem"><path codeLine="76" d="M167.48,160.02 C170.75,175.83 175.02,192.78 180.47,208 C184.01,217.89 185.6825,222.4719 190.1325,232.4319 " fill="none" id="Viewer-to-SearchSystem" style="stroke:#181818;stroke-width:1.0;"/><polygon fill="#181818" points="192.58,237.91,192.5607,228.0612,190.5404,233.3449,185.2566,231.3246,192.58,237.91" style="stroke:#181818;stroke-width:1.0;"/><text fill="#000000" font-family="sans-serif" font-size="13" lengthAdjust="spacing" textLength="53" x="181.47" y="204.4951">searches</text><text fill="#000000" font-family="sans-serif" font-size="13" lengthAdjust="spacing" textLength="20" x="147.3532" y="182.0965">0..*</text><text fill="#000000" font-family="sans-serif" font-size="13" lengthAdjust="spacing" textLength="7" x="180.9823" y="226.9704">1</text></g><!--link Viewer to News--><g id="link_Viewer_News"><path codeLine="77" d="M130.32,160.17 C120.37,183.75 110.43,211.6 105.47,238 C58.42,488.28 6,576.56 105.47,811 C117.35,839 130.9775,860.557 151.0375,884.297 " fill="none" id="Viewer-to-News" style="stroke:#181818;stroke-width:1.0;"/><polygon fill="#181818" points="154.91,888.88,152.1565,879.4239,151.6829,885.0609,146.0459,884.5873,154.91,888.88" style="stroke:#181818;stroke-width:1.0;"/><text fill="#000000" font-family="sans-serif" font-size="13" lengthAdjust="spacing" textLength="31" x="58.47" y="582.9951">views</text><text fill="#000000" font-family="sans-serif" font-size="13" lengthAdjust="spacing" textLength="20" x="105.6705" y="181.8462">0..*</text><text fill="#000000" font-family="sans-serif" font-size="13" lengthAdjust="spacing" textLength="20" x="124.8716" y="878.3686">0..*</text></g><!--link Admin to News--><g id="link_Admin_News"><path codeLine="78" d="M426.36,142.55 C433.49,226.57 444.4,415.7 403.47,462 C352.94,519.15 283.47,433.53 234.47,492 C210.06,521.12 211.11,633.03 234.47,663 C267.99,706.02 319.95,649.98 353.47,693 C395.85,747.39 394.8399,817.2247 380.1799,882.7547 " fill="none" id="Admin-to-News" style="stroke:#181818;stroke-width:1.0;"/><polygon fill="#181818" points="378.87,888.61,384.7384,880.7004,379.9616,883.7306,376.9313,878.9538,378.87,888.61" style="stroke:#181818;stroke-width:1.0;"/><text fill="#000000" font-family="sans-serif" font-size="13" lengthAdjust="spacing" textLength="53" x="235.47" y="582.9951">manages</text><text fill="#000000" font-family="sans-serif" font-size="13" lengthAdjust="spacing" textLength="20" x="405.348" y="164.2628">1..*</text></g><!--link Admin to Comment--><g id="link_Admin_Comment"><path codeLine="79" d="M432.2,142.87 C450.59,220.08 489.4004,383.0331 513.8604,485.7731 " fill="none" id="Admin-to-Comment" style="stroke:#181818;stroke-width:1.0;"/><polygon fill="#181818" points="515.25,491.61,517.0568,481.9283,514.092,486.7459,509.2743,483.7811,515.25,491.61" style="stroke:#181818;stroke-width:1.0;"/><text fill="#000000" font-family="sans-serif" font-size="13" lengthAdjust="spacing" textLength="53" x="447.47" y="204.4951">manages</text><text fill="#000000" font-family="sans-serif" font-size="13" lengthAdjust="spacing" textLength="20" x="435.3445" y="164.3237">1..*</text></g><!--link Admin to SearchSystem--><g id="link_Admin_SearchSystem"><path codeLine="80" d="M394.92,142.51 C377.18,168.58 356.5739,198.8784 333.4539,232.8784 " fill="none" id="Admin-to-SearchSystem" style="stroke:#181818;stroke-width:1.0;"/><polygon fill="#181818" points="330.08,237.84,338.4485,232.6469,332.8916,233.7054,331.8331,228.1484,330.08,237.84" style="stroke:#181818;stroke-width:1.0;"/><text fill="#000000" font-family="sans-serif" font-size="13" lengthAdjust="spacing" textLength="28" x="358.47" y="204.4951">uses</text><text fill="#000000" font-family="sans-serif" font-size="13" lengthAdjust="spacing" textLength="20" x="368.7008" y="164.2162">1..*</text><text fill="#000000" font-family="sans-serif" font-size="13" lengthAdjust="spacing" textLength="7" x="327.9249" y="227.2705">1</text></g><!--SRC=[fLJBRjim43nRNq7uPDLMq5o5m41G8u21z0KNlHQCk5NOw66Gb5oZpRzt-P1CHb8SepeOy79sTdPsoJtDdcWEv1CSvCUQDGMGFn71Bokeb2Ri0lfB26SfuPNo8egh0b8YbU1LxiMpkb9GgP4JHjLuGbbYWap9FPVgveFzk-uHIoA0CgreuLJ4AMbhpZn4izVaFcOL2bozrBKAvBoDyK8A1WKuYa3B49bXXsF82qjwZ5HaZxorb1N-R2UTgzu0VOwytN03EhCU5wy1RTHZBKOEfAAgaOC3x94nfsKni2ba2srRaSaziYFhMFaP9swjSsOt2Vn61SnU7TyQP-zsu90zeCN6IDC2ey7-tNeOFPmJDWxfbgJbS0ZWiIFzdrdlG6ViZb91YGEVpPP4cj3N1iHnP2O_UQ50uBIWQaelhcZUNN2RiqOoZs_n1CT3BL3Ehbjj0_xyy0kou36W-trnl3Db5hQQBHO73qPPjt06XElpZUOBLDRVfm75Am3ZTr4OA-FHETZ5mCDPuAaEue3e0vNWNQ8bqGFPgLhWk-owrz1r56hkPvSQfi4UME4zwiTfYKESqzYri4TfUW3no9gpabU1KgeZsqr8ENcDt0Fly2C5lgDb888AhGbjDuFG5y5RNW3BGKOl3WUZiAlbXLtLxWMRlx-wUZSdIV9tJURNS-DdYlSIpEj5UGKC5PkKO6WQUvCaNRvDunANf1QdbE3kw9GaEPNfk5BIIEn4uvqBlIWBzbbIrz5qWYz8MsA1Te3pwnvd0IMjQ0uJ4EVH6Cg73IMQVgBdVm00]--></g></svg>