<?xml version="1.0" encoding="us-ascii" standalone="no"?><svg xmlns="http://www.w3.org/2000/svg" xmlns:xlink="http://www.w3.org/1999/xlink" contentStyleType="text/css" height="896px" preserveAspectRatio="none" style="width:933px;height:896px;background:#FFFFFF;" version="1.1" viewBox="0 0 933 896" width="933px" zoomAndPan="magnify"><defs/><g><!--cluster ManageUsersModule--><g id="cluster_ManageUsersModule"><path d="M8.5,6 L159.5,6 A3.75,3.75 0 0 1 162,8.5 L169,29.6094 L909.5,29.6094 A2.5,2.5 0 0 1 912,32.1094 L912,886.5 A2.5,2.5 0 0 1 909.5,889 L8.5,889 A2.5,2.5 0 0 1 6,886.5 L6,8.5 A2.5,2.5 0 0 1 8.5,6 " fill="none" style="stroke:#000000;stroke-width:1.5;"/><line style="stroke:#000000;stroke-width:1.5;" x1="6" x2="169" y1="29.6094" y2="29.6094"/><text fill="#000000" font-family="sans-serif" font-size="14" font-weight="bold" lengthAdjust="spacing" textLength="150" x="10" y="22.5332">ManageUsersModule</text></g><!--class User--><g id="elem_User"><rect codeLine="2" fill="#F1F1F1" height="136.0469" id="User" rx="2.5" ry="2.5" style="stroke:#181818;stroke-width:0.5;" width="220" x="628" y="42"/><ellipse cx="719.25" cy="58" fill="#ADD1B2" rx="11" ry="11" style="stroke:#181818;stroke-width:1.0;"/><path d="M722.0156,53.875 Q722.1719,53.6563 722.3594,53.5469 Q722.5469,53.4375 722.7656,53.4375 Q723.1406,53.4375 723.375,53.6953 Q723.6094,53.9531 723.6094,54.5625 L723.6094,56.0156 Q723.6094,56.625 723.375,56.8906 Q723.1406,57.1563 722.7656,57.1563 Q722.4219,57.1563 722.2188,56.9531 Q722.0156,56.7656 721.9063,56.25 Q721.8594,55.8906 721.6719,55.7031 Q721.3438,55.3281 720.7344,55.1094 Q720.125,54.8906 719.5,54.8906 Q718.7344,54.8906 718.1016,55.2188 Q717.4688,55.5469 716.9766,56.2969 Q716.4844,57.0469 716.4844,58.0781 L716.4844,59.1719 Q716.4844,60.4063 717.375,61.2266 Q718.2656,62.0469 719.8594,62.0469 Q720.7969,62.0469 721.4531,61.7969 Q721.8438,61.6406 722.2656,61.2031 Q722.5313,60.9375 722.6797,60.8594 Q722.8281,60.7813 723.0313,60.7813 Q723.3594,60.7813 723.6172,61.0391 Q723.875,61.2969 723.875,61.6406 Q723.875,61.9844 723.5313,62.3906 Q723.0313,62.9688 722.2344,63.2969 Q721.1563,63.75 719.8594,63.75 Q718.3438,63.75 717.1406,63.125 Q716.1563,62.625 715.4688,61.5547 Q714.7813,60.4844 714.7813,59.2031 L714.7813,58.0469 Q714.7813,56.7188 715.3984,55.5703 Q716.0156,54.4219 717.1094,53.8047 Q718.2031,53.1875 719.4375,53.1875 Q720.1719,53.1875 720.8203,53.3516 Q721.4688,53.5156 722.0156,53.875 Z " fill="#000000"/><text fill="#000000" font-family="sans-serif" font-size="14" lengthAdjust="spacing" textLength="29" x="739.75" y="63.7285">User</text><line style="stroke:#181818;stroke-width:0.5;" x1="629" x2="847" y1="74" y2="74"/><ellipse cx="639" cy="88.3047" fill="none" rx="3" ry="3" style="stroke:#038048;stroke-width:1.0;"/><text fill="#000000" font-family="sans-serif" font-size="14" lengthAdjust="spacing" textLength="64" x="648" y="92.5332">userID: int</text><ellipse cx="639" cy="105.9141" fill="none" rx="3" ry="3" style="stroke:#038048;stroke-width:1.0;"/><text fill="#000000" font-family="sans-serif" font-size="14" lengthAdjust="spacing" textLength="78" x="648" y="110.1426">name: string</text><ellipse cx="639" cy="123.5234" fill="none" rx="3" ry="3" style="stroke:#038048;stroke-width:1.0;"/><text fill="#000000" font-family="sans-serif" font-size="14" lengthAdjust="spacing" textLength="62" x="648" y="127.752">bio: string</text><line style="stroke:#181818;stroke-width:0.5;" x1="629" x2="847" y1="134.8281" y2="134.8281"/><ellipse cx="639" cy="149.1328" fill="#84BE84" rx="3" ry="3" style="stroke:#038048;stroke-width:1.0;"/><text fill="#000000" font-family="sans-serif" font-size="14" lengthAdjust="spacing" textLength="194" x="648" y="153.3613">changeName(name: string): int</text><ellipse cx="639" cy="166.7422" fill="#84BE84" rx="3" ry="3" style="stroke:#038048;stroke-width:1.0;"/><text fill="#000000" font-family="sans-serif" font-size="14" lengthAdjust="spacing" textLength="159" x="648" y="170.9707">updateBio(bio: string): int</text></g><!--class AdminUser--><g id="elem_AdminUser"><rect codeLine="11" fill="#F1F1F1" height="83.2188" id="AdminUser" rx="2.5" ry="2.5" style="stroke:#181818;stroke-width:0.5;" width="170" x="541" y="239"/><ellipse cx="587.75" cy="255" fill="#ADD1B2" rx="11" ry="11" style="stroke:#181818;stroke-width:1.0;"/><path d="M590.5156,250.875 Q590.6719,250.6563 590.8594,250.5469 Q591.0469,250.4375 591.2656,250.4375 Q591.6406,250.4375 591.875,250.6953 Q592.1094,250.9531 592.1094,251.5625 L592.1094,253.0156 Q592.1094,253.625 591.875,253.8906 Q591.6406,254.1563 591.2656,254.1563 Q590.9219,254.1563 590.7188,253.9531 Q590.5156,253.7656 590.4063,253.25 Q590.3594,252.8906 590.1719,252.7031 Q589.8438,252.3281 589.2344,252.1094 Q588.625,251.8906 588,251.8906 Q587.2344,251.8906 586.6016,252.2188 Q585.9688,252.5469 585.4766,253.2969 Q584.9844,254.0469 584.9844,255.0781 L584.9844,256.1719 Q584.9844,257.4063 585.875,258.2266 Q586.7656,259.0469 588.3594,259.0469 Q589.2969,259.0469 589.9531,258.7969 Q590.3438,258.6406 590.7656,258.2031 Q591.0313,257.9375 591.1797,257.8594 Q591.3281,257.7813 591.5313,257.7813 Q591.8594,257.7813 592.1172,258.0391 Q592.375,258.2969 592.375,258.6406 Q592.375,258.9844 592.0313,259.3906 Q591.5313,259.9688 590.7344,260.2969 Q589.6563,260.75 588.3594,260.75 Q586.8438,260.75 585.6406,260.125 Q584.6563,259.625 583.9688,258.5547 Q583.2813,257.4844 583.2813,256.2031 L583.2813,255.0469 Q583.2813,253.7188 583.8984,252.5703 Q584.5156,251.4219 585.6094,250.8047 Q586.7031,250.1875 587.9375,250.1875 Q588.6719,250.1875 589.3203,250.3516 Q589.9688,250.5156 590.5156,250.875 Z " fill="#000000"/><text fill="#000000" font-family="sans-serif" font-size="14" lengthAdjust="spacing" textLength="68" x="608.25" y="260.7285">AdminUser</text><line style="stroke:#181818;stroke-width:0.5;" x1="542" x2="710" y1="271" y2="271"/><ellipse cx="552" cy="285.3047" fill="none" rx="3" ry="3" style="stroke:#038048;stroke-width:1.0;"/><text fill="#000000" font-family="sans-serif" font-size="14" lengthAdjust="spacing" textLength="74" x="561" y="289.5332">adminID: int</text><line style="stroke:#181818;stroke-width:0.5;" x1="542" x2="710" y1="296.6094" y2="296.6094"/><ellipse cx="552" cy="310.9141" fill="#84BE84" rx="3" ry="3" style="stroke:#038048;stroke-width:1.0;"/><text fill="#000000" font-family="sans-serif" font-size="14" lengthAdjust="spacing" textLength="144" x="561" y="315.1426">updateUserDatabase()</text></g><!--class SearchSystem--><g id="elem_SearchSystem"><rect codeLine="16" fill="#F1F1F1" height="153.6563" id="SearchSystem" rx="2.5" ry="2.5" style="stroke:#181818;stroke-width:0.5;" width="333" x="22.5" y="461.5"/><ellipse cx="139.25" cy="477.5" fill="#ADD1B2" rx="11" ry="11" style="stroke:#181818;stroke-width:1.0;"/><path d="M142.0156,473.375 Q142.1719,473.1563 142.3594,473.0469 Q142.5469,472.9375 142.7656,472.9375 Q143.1406,472.9375 143.375,473.1953 Q143.6094,473.4531 143.6094,474.0625 L143.6094,475.5156 Q143.6094,476.125 143.375,476.3906 Q143.1406,476.6563 142.7656,476.6563 Q142.4219,476.6563 142.2188,476.4531 Q142.0156,476.2656 141.9063,475.75 Q141.8594,475.3906 141.6719,475.2031 Q141.3438,474.8281 140.7344,474.6094 Q140.125,474.3906 139.5,474.3906 Q138.7344,474.3906 138.1016,474.7188 Q137.4688,475.0469 136.9766,475.7969 Q136.4844,476.5469 136.4844,477.5781 L136.4844,478.6719 Q136.4844,479.9063 137.375,480.7266 Q138.2656,481.5469 139.8594,481.5469 Q140.7969,481.5469 141.4531,481.2969 Q141.8438,481.1406 142.2656,480.7031 Q142.5313,480.4375 142.6797,480.3594 Q142.8281,480.2813 143.0313,480.2813 Q143.3594,480.2813 143.6172,480.5391 Q143.875,480.7969 143.875,481.1406 Q143.875,481.4844 143.5313,481.8906 Q143.0313,482.4688 142.2344,482.7969 Q141.1563,483.25 139.8594,483.25 Q138.3438,483.25 137.1406,482.625 Q136.1563,482.125 135.4688,481.0547 Q134.7813,479.9844 134.7813,478.7031 L134.7813,477.5469 Q134.7813,476.2188 135.3984,475.0703 Q136.0156,473.9219 137.1094,473.3047 Q138.2031,472.6875 139.4375,472.6875 Q140.1719,472.6875 140.8203,472.8516 Q141.4688,473.0156 142.0156,473.375 Z " fill="#000000"/><text fill="#000000" font-family="sans-serif" font-size="14" lengthAdjust="spacing" textLength="91" x="159.75" y="483.2285">SearchSystem</text><line style="stroke:#181818;stroke-width:0.5;" x1="23.5" x2="354.5" y1="493.5" y2="493.5"/><ellipse cx="33.5" cy="507.8047" fill="none" rx="3" ry="3" style="stroke:#038048;stroke-width:1.0;"/><text fill="#000000" font-family="sans-serif" font-size="14" lengthAdjust="spacing" textLength="125" x="42.5" y="512.0332">searchQuery: string</text><ellipse cx="33.5" cy="525.4141" fill="none" rx="3" ry="3" style="stroke:#038048;stroke-width:1.0;"/><text fill="#000000" font-family="sans-serif" font-size="14" lengthAdjust="spacing" textLength="165" x="42.5" y="529.6426">searchResults: List&lt;User&gt;</text><line style="stroke:#181818;stroke-width:0.5;" x1="23.5" x2="354.5" y1="536.7188" y2="536.7188"/><ellipse cx="33.5" cy="551.0234" fill="#84BE84" rx="3" ry="3" style="stroke:#038048;stroke-width:1.0;"/><text fill="#000000" font-family="sans-serif" font-size="14" lengthAdjust="spacing" textLength="231" x="42.5" y="555.252">addSearchQuery(query: string): void</text><ellipse cx="33.5" cy="568.6328" fill="#84BE84" rx="3" ry="3" style="stroke:#038048;stroke-width:1.0;"/><text fill="#000000" font-family="sans-serif" font-size="14" lengthAdjust="spacing" textLength="251" x="42.5" y="572.8613">updateSearchQuery(query: string): void</text><ellipse cx="33.5" cy="586.2422" fill="#84BE84" rx="3" ry="3" style="stroke:#038048;stroke-width:1.0;"/><text fill="#000000" font-family="sans-serif" font-size="14" lengthAdjust="spacing" textLength="307" x="42.5" y="590.4707">viewProfileBasedOnRoles(roles: List&lt;role&gt;): void</text><ellipse cx="33.5" cy="603.8516" fill="#84BE84" rx="3" ry="3" style="stroke:#038048;stroke-width:1.0;"/><text fill="#000000" font-family="sans-serif" font-size="14" lengthAdjust="spacing" textLength="87" x="42.5" y="608.0801">search(): void</text></g><!--class UserManager--><g id="elem_UserManager"><rect codeLine="26" fill="#F1F1F1" height="276.9219" id="UserManager" rx="2.5" ry="2.5" style="stroke:#181818;stroke-width:0.5;" width="343" x="390.5" y="400"/><ellipse cx="515.25" cy="416" fill="#ADD1B2" rx="11" ry="11" style="stroke:#181818;stroke-width:1.0;"/><path d="M518.0156,411.875 Q518.1719,411.6563 518.3594,411.5469 Q518.5469,411.4375 518.7656,411.4375 Q519.1406,411.4375 519.375,411.6953 Q519.6094,411.9531 519.6094,412.5625 L519.6094,414.0156 Q519.6094,414.625 519.375,414.8906 Q519.1406,415.1563 518.7656,415.1563 Q518.4219,415.1563 518.2188,414.9531 Q518.0156,414.7656 517.9063,414.25 Q517.8594,413.8906 517.6719,413.7031 Q517.3438,413.3281 516.7344,413.1094 Q516.125,412.8906 515.5,412.8906 Q514.7344,412.8906 514.1016,413.2188 Q513.4688,413.5469 512.9766,414.2969 Q512.4844,415.0469 512.4844,416.0781 L512.4844,417.1719 Q512.4844,418.4063 513.375,419.2266 Q514.2656,420.0469 515.8594,420.0469 Q516.7969,420.0469 517.4531,419.7969 Q517.8438,419.6406 518.2656,419.2031 Q518.5313,418.9375 518.6797,418.8594 Q518.8281,418.7813 519.0313,418.7813 Q519.3594,418.7813 519.6172,419.0391 Q519.875,419.2969 519.875,419.6406 Q519.875,419.9844 519.5313,420.3906 Q519.0313,420.9688 518.2344,421.2969 Q517.1563,421.75 515.8594,421.75 Q514.3438,421.75 513.1406,421.125 Q512.1563,420.625 511.4688,419.5547 Q510.7813,418.4844 510.7813,417.2031 L510.7813,416.0469 Q510.7813,414.7188 511.3984,413.5703 Q512.0156,412.4219 513.1094,411.8047 Q514.2031,411.1875 515.4375,411.1875 Q516.1719,411.1875 516.8203,411.3516 Q517.4688,411.5156 518.0156,411.875 Z " fill="#000000"/><text fill="#000000" font-family="sans-serif" font-size="14" lengthAdjust="spacing" textLength="85" x="535.75" y="421.7285">UserManager</text><line style="stroke:#181818;stroke-width:0.5;" x1="391.5" x2="732.5" y1="432" y2="432"/><ellipse cx="401.5" cy="446.3047" fill="none" rx="3" ry="3" style="stroke:#038048;stroke-width:1.0;"/><text fill="#000000" font-family="sans-serif" font-size="14" lengthAdjust="spacing" textLength="112" x="410.5" y="450.5332">roles: List&lt;enum&gt;</text><ellipse cx="401.5" cy="463.9141" fill="none" rx="3" ry="3" style="stroke:#038048;stroke-width:1.0;"/><text fill="#000000" font-family="sans-serif" font-size="14" lengthAdjust="spacing" textLength="141" x="410.5" y="468.1426">privileges: List&lt;enum&gt;</text><line style="stroke:#181818;stroke-width:0.5;" x1="391.5" x2="732.5" y1="475.2188" y2="475.2188"/><ellipse cx="401.5" cy="489.5234" fill="#84BE84" rx="3" ry="3" style="stroke:#038048;stroke-width:1.0;"/><text fill="#000000" font-family="sans-serif" font-size="14" lengthAdjust="spacing" textLength="122" x="410.5" y="493.752">viewAllRoles(): void</text><ellipse cx="401.5" cy="507.1328" fill="#84BE84" rx="3" ry="3" style="stroke:#038048;stroke-width:1.0;"/><text fill="#000000" font-family="sans-serif" font-size="14" lengthAdjust="spacing" textLength="147" x="410.5" y="511.3613">viewAllPrivileges(): void</text><ellipse cx="401.5" cy="524.7422" fill="#84BE84" rx="3" ry="3" style="stroke:#038048;stroke-width:1.0;"/><text fill="#000000" font-family="sans-serif" font-size="14" lengthAdjust="spacing" textLength="190" x="410.5" y="528.9707">addNewRole(role: enum): void</text><ellipse cx="401.5" cy="542.3516" fill="#84BE84" rx="3" ry="3" style="stroke:#038048;stroke-width:1.0;"/><text fill="#000000" font-family="sans-serif" font-size="14" lengthAdjust="spacing" textLength="187" x="410.5" y="546.5801">removeRole(role: enum): void</text><ellipse cx="401.5" cy="559.9609" fill="#84BE84" rx="3" ry="3" style="stroke:#038048;stroke-width:1.0;"/><text fill="#000000" font-family="sans-serif" font-size="14" lengthAdjust="spacing" textLength="214" x="410.5" y="564.1895">updatePassword(user: User): void</text><ellipse cx="401.5" cy="577.5703" fill="#84BE84" rx="3" ry="3" style="stroke:#038048;stroke-width:1.0;"/><text fill="#000000" font-family="sans-serif" font-size="14" lengthAdjust="spacing" textLength="244" x="410.5" y="581.7988">addNewPrivilege(privilege: enum): void</text><ellipse cx="401.5" cy="595.1797" fill="#84BE84" rx="3" ry="3" style="stroke:#038048;stroke-width:1.0;"/><text fill="#000000" font-family="sans-serif" font-size="14" lengthAdjust="spacing" textLength="248" x="410.5" y="599.4082">removePrivileges(privilege: enum): void</text><ellipse cx="401.5" cy="612.7891" fill="#84BE84" rx="3" ry="3" style="stroke:#038048;stroke-width:1.0;"/><text fill="#000000" font-family="sans-serif" font-size="14" lengthAdjust="spacing" textLength="160" x="410.5" y="617.0176">editUser(userID: int): void</text><ellipse cx="401.5" cy="630.3984" fill="#84BE84" rx="3" ry="3" style="stroke:#038048;stroke-width:1.0;"/><text fill="#000000" font-family="sans-serif" font-size="14" lengthAdjust="spacing" textLength="256" x="410.5" y="634.627">updateRole(userID: int, role: enum): void</text><ellipse cx="401.5" cy="648.0078" fill="#84BE84" rx="3" ry="3" style="stroke:#038048;stroke-width:1.0;"/><text fill="#000000" font-family="sans-serif" font-size="14" lengthAdjust="spacing" textLength="317" x="410.5" y="652.2363">updatePrivileges(userID: int, privilege: enum): void</text><ellipse cx="401.5" cy="665.6172" fill="#84BE84" rx="3" ry="3" style="stroke:#038048;stroke-width:1.0;"/><text fill="#000000" font-family="sans-serif" font-size="14" lengthAdjust="spacing" textLength="128" x="410.5" y="669.8457">setStandards(): void</text></g><!--class UserDatabase--><g id="elem_UserDatabase"><rect codeLine="43" fill="#F1F1F1" height="118.4375" id="UserDatabase" rx="2.5" ry="2.5" style="stroke:#181818;stroke-width:0.5;" width="205" x="632.5" y="755"/><ellipse cx="685.75" cy="771" fill="#ADD1B2" rx="11" ry="11" style="stroke:#181818;stroke-width:1.0;"/><path d="M688.5156,766.875 Q688.6719,766.6563 688.8594,766.5469 Q689.0469,766.4375 689.2656,766.4375 Q689.6406,766.4375 689.875,766.6953 Q690.1094,766.9531 690.1094,767.5625 L690.1094,769.0156 Q690.1094,769.625 689.875,769.8906 Q689.6406,770.1563 689.2656,770.1563 Q688.9219,770.1563 688.7188,769.9531 Q688.5156,769.7656 688.4063,769.25 Q688.3594,768.8906 688.1719,768.7031 Q687.8438,768.3281 687.2344,768.1094 Q686.625,767.8906 686,767.8906 Q685.2344,767.8906 684.6016,768.2188 Q683.9688,768.5469 683.4766,769.2969 Q682.9844,770.0469 682.9844,771.0781 L682.9844,772.1719 Q682.9844,773.4063 683.875,774.2266 Q684.7656,775.0469 686.3594,775.0469 Q687.2969,775.0469 687.9531,774.7969 Q688.3438,774.6406 688.7656,774.2031 Q689.0313,773.9375 689.1797,773.8594 Q689.3281,773.7813 689.5313,773.7813 Q689.8594,773.7813 690.1172,774.0391 Q690.375,774.2969 690.375,774.6406 Q690.375,774.9844 690.0313,775.3906 Q689.5313,775.9688 688.7344,776.2969 Q687.6563,776.75 686.3594,776.75 Q684.8438,776.75 683.6406,776.125 Q682.6563,775.625 681.9688,774.5547 Q681.2813,773.4844 681.2813,772.2031 L681.2813,771.0469 Q681.2813,769.7188 681.8984,768.5703 Q682.5156,767.4219 683.6094,766.8047 Q684.7031,766.1875 685.9375,766.1875 Q686.6719,766.1875 687.3203,766.3516 Q687.9688,766.5156 688.5156,766.875 Z " fill="#000000"/><text fill="#000000" font-family="sans-serif" font-size="14" lengthAdjust="spacing" textLength="90" x="706.25" y="776.7285">UserDatabase</text><line style="stroke:#181818;stroke-width:0.5;" x1="633.5" x2="836.5" y1="787" y2="787"/><ellipse cx="643.5" cy="801.3047" fill="none" rx="3" ry="3" style="stroke:#038048;stroke-width:1.0;"/><text fill="#000000" font-family="sans-serif" font-size="14" lengthAdjust="spacing" textLength="117" x="652.5" y="805.5332">users: List&lt;Users&gt;</text><line style="stroke:#181818;stroke-width:0.5;" x1="633.5" x2="836.5" y1="812.6094" y2="812.6094"/><ellipse cx="643.5" cy="826.9141" fill="#84BE84" rx="3" ry="3" style="stroke:#038048;stroke-width:1.0;"/><text fill="#000000" font-family="sans-serif" font-size="14" lengthAdjust="spacing" textLength="128" x="652.5" y="831.1426">addUser(user: User)</text><ellipse cx="643.5" cy="844.5234" fill="#84BE84" rx="3" ry="3" style="stroke:#038048;stroke-width:1.0;"/><text fill="#000000" font-family="sans-serif" font-size="14" lengthAdjust="spacing" textLength="156" x="652.5" y="848.752">removeUser(user_id: int)</text><ellipse cx="643.5" cy="862.1328" fill="#84BE84" rx="3" ry="3" style="stroke:#038048;stroke-width:1.0;"/><text fill="#000000" font-family="sans-serif" font-size="14" lengthAdjust="spacing" textLength="179" x="652.5" y="866.3613">viewUserDetails(user_id: int)</text></g><!--reverse link User to AdminUser--><g id="link_User_AdminUser"><path d="M683.449,193.0726 C669.789,213.6326 665.14,220.62 653.02,238.85 " fill="none" id="User-backto-AdminUser" style="stroke:#181818;stroke-width:1.0;"/><polygon fill="none" points="693.41,178.08,678.4514,189.7522,688.4465,196.3929,693.41,178.08" style="stroke:#181818;stroke-width:1.0;"/></g><!--link AdminUser to UserDatabase--><g id="link_AdminUser_UserDatabase"><path codeLine="51" d="M686.94,322.06 C711.73,342.23 737.65,368.96 751,400 C801.59,517.67 773.85,672.04 752.42,754.72 " fill="none" id="AdminUser-UserDatabase" style="stroke:#181818;stroke-width:1.0;"/><text fill="#000000" font-family="sans-serif" font-size="13" lengthAdjust="spacing" textLength="53" x="780" y="543.9951">manages</text><text fill="#000000" font-family="sans-serif" font-size="13" lengthAdjust="spacing" textLength="20" x="675.3769" y="343.7745">1..*</text><text fill="#000000" font-family="sans-serif" font-size="13" lengthAdjust="spacing" textLength="7" x="747.1165" y="744.0101">1</text></g><!--reverse link User to UserDatabase--><g id="link_User_UserDatabase"><path codeLine="52" d="M774.4365,183.4768 C824.1865,291.1568 902.31,502.81 842,677 C832.17,705.39 813.69,732.35 794.82,754.67 " fill="none" id="User-backto-UserDatabase" style="stroke:#181818;stroke-width:1.0;"/><polygon fill="#181818" points="771.92,178.03,772.0636,187.8778,774.0171,182.569,779.3259,184.5225,771.92,178.03" style="stroke:#181818;stroke-width:1.0;"/><text fill="#000000" font-family="sans-serif" font-size="13" lengthAdjust="spacing" textLength="84" x="841" y="366.4951">uses details of</text><text fill="#000000" font-family="sans-serif" font-size="13" lengthAdjust="spacing" textLength="20" x="754.3868" y="199.3814">1..*</text><text fill="#000000" font-family="sans-serif" font-size="13" lengthAdjust="spacing" textLength="7" x="794.684" y="743.954">1</text></g><!--link AdminUser to SearchSystem--><g id="link_AdminUser_SearchSystem"><path codeLine="53" d="M540.9,316.18 C490.74,337.88 426.77,367.77 373,400 C342.73,418.14 316.1973,436.5664 288.1473,457.6364 " fill="none" id="AdminUser-to-SearchSystem" style="stroke:#181818;stroke-width:1.0;"/><polygon fill="#181818" points="283.35,461.24,292.9484,459.0329,287.3478,458.237,288.1436,452.6364,283.35,461.24" style="stroke:#181818;stroke-width:1.0;"/><text fill="#000000" font-family="sans-serif" font-size="13" lengthAdjust="spacing" textLength="88" x="461" y="366.4951">searches using</text><text fill="#000000" font-family="sans-serif" font-size="13" lengthAdjust="spacing" textLength="20" x="513.0245" y="315.9729">1..*</text><text fill="#000000" font-family="sans-serif" font-size="13" lengthAdjust="spacing" textLength="7" x="285.0091" y="450.6419">1</text></g><!--link AdminUser to UserManager--><g id="link_AdminUser_UserManager"><path codeLine="54" d="M615.86,322.06 C610.48,343.56 604.9847,365.549 597.8747,393.999 " fill="none" id="AdminUser-to-UserManager" style="stroke:#181818;stroke-width:1.0;"/><polygon fill="#181818" points="596.42,399.82,602.4827,392.0584,597.6323,394.9692,594.7214,390.1187,596.42,399.82" style="stroke:#181818;stroke-width:1.0;"/><text fill="#000000" font-family="sans-serif" font-size="13" lengthAdjust="spacing" textLength="28" x="608" y="366.4951">uses</text><text fill="#000000" font-family="sans-serif" font-size="13" lengthAdjust="spacing" textLength="20" x="592.5243" y="343.7745">1..*</text><text fill="#000000" font-family="sans-serif" font-size="13" lengthAdjust="spacing" textLength="7" x="591.1109" y="389.3053">1</text></g><!--link UserManager to UserDatabase--><g id="link_UserManager_UserDatabase"><path codeLine="55" d="M649.01,677.05 C666.34,704.45 680.4438,726.7385 694.9338,749.6585 " fill="none" id="UserManager-to-UserDatabase" style="stroke:#181818;stroke-width:1.0;"/><polygon fill="#181818" points="698.14,754.73,696.7117,744.9853,695.4682,750.5037,689.9497,749.2602,698.14,754.73" style="stroke:#181818;stroke-width:1.0;"/><text fill="#000000" font-family="sans-serif" font-size="13" lengthAdjust="spacing" textLength="56" x="680" y="721.4951">accesses</text><text fill="#000000" font-family="sans-serif" font-size="13" lengthAdjust="spacing" textLength="7" x="646.577" y="698.5713">1</text><text fill="#000000" font-family="sans-serif" font-size="13" lengthAdjust="spacing" textLength="7" x="686.2211" y="744.0213">1</text></g><!--link SearchSystem to UserDatabase--><g id="link_SearchSystem_UserDatabase"><path codeLine="56" d="M280.1,615.52 C308.71,637.18 341.16,659.58 373,677 C456.2,722.51 552.0744,757.3745 626.4344,781.1245 " fill="none" id="SearchSystem-to-UserDatabase" style="stroke:#181818;stroke-width:1.0;"/><polygon fill="#181818" points="632.15,782.95,624.7937,776.4014,627.387,781.4287,622.3597,784.0221,632.15,782.95" style="stroke:#181818;stroke-width:1.0;"/><text fill="#000000" font-family="sans-serif" font-size="13" lengthAdjust="spacing" textLength="28" x="469" y="721.4951">uses</text><text fill="#000000" font-family="sans-serif" font-size="13" lengthAdjust="spacing" textLength="7" x="280.9019" y="636.6182">1</text><text fill="#000000" font-family="sans-serif" font-size="13" lengthAdjust="spacing" textLength="7" x="617.3399" y="777.5742">1</text></g><!--SRC=[bLJBJiCm4BptAwoUp5FY6g5AL5oGU1GgpiZ4Ix58xE9rMX3Ytx6TrwP9AEIGHEkPdTcLTzSYVHChO3T2-yyZWiKR8uiCsDU4-IVD128ByIeGdYDM-C3LPSAKTYIgHGu9GsULNf7mip9Db8JJLw5NSEivd18FThCMQoaSp9NX9151VK-8qmkPAntjmeS3BGUyYm2fpVTq0lnIEF4i4FX19T3cNuAmwUlo4ntadQmO3-uBi9y3BIXF7m2Bp672hXMwyw0qctICoMMRXR_JNBxUZL6oP_SVX8s2xSAQ5vN1t1Sdx_I3oG2v3U_AK_YVzQcbVKuFEbqFfPGtgDjgcXfqaS_8sTggZRUo6W7i6B_8ijBjS5t-UD7a6y3urjx2DcI8vIOiYFLX5dApWRsmilKBN_dMMCd3C2In1sF2ZJVULFsx1LBCNWP8vO8u9qCvvZcMHd37x0zrjbuwpBt64DpI2Is5bVZxtQa7hhTZwApWxh0qHLVDxtMn0JmfMRPbvzf4RN12PJY0gsosAsLwTdfwE6Kd9_vlsZ6Ui3nUVumC2ZuVH7inPB9KPkPbJ6SMgNJd9DKiUdg1zOuPPPAvB3KRU_Mq1XH5jnP5cWBMbCxQ6-T4YUyV]--></g></svg>