<?xml version="1.0" encoding="us-ascii" standalone="no"?><svg xmlns="http://www.w3.org/2000/svg" xmlns:xlink="http://www.w3.org/1999/xlink" contentStyleType="text/css" height="1002px" preserveAspectRatio="none" style="width:652px;height:1002px;background:#FFFFFF;" version="1.1" viewBox="0 0 652 1002" width="652px" zoomAndPan="magnify"><defs/><g><!--cluster MessagesModule--><g id="cluster_MessagesModule"><path d="M8.5,6 L134.5,6 A3.75,3.75 0 0 1 137,8.5 L144,29.6094 L628.5,29.6094 A2.5,2.5 0 0 1 631,32.1094 L631,992.5 A2.5,2.5 0 0 1 628.5,995 L8.5,995 A2.5,2.5 0 0 1 6,992.5 L6,8.5 A2.5,2.5 0 0 1 8.5,6 " fill="none" style="stroke:#000000;stroke-width:1.5;"/><line style="stroke:#000000;stroke-width:1.5;" x1="6" x2="144" y1="29.6094" y2="29.6094"/><text fill="#000000" font-family="sans-serif" font-size="14" font-weight="bold" lengthAdjust="spacing" textLength="125" x="10" y="22.5332">MessagesModule</text></g><!--class User--><g id="elem_User"><rect codeLine="2" fill="#F1F1F1" height="136.0469" id="User" rx="2.5" ry="2.5" style="stroke:#181818;stroke-width:0.5;" width="220" x="366" y="42"/><ellipse cx="457.25" cy="58" fill="#ADD1B2" rx="11" ry="11" style="stroke:#181818;stroke-width:1.0;"/><path d="M460.0156,53.875 Q460.1719,53.6563 460.3594,53.5469 Q460.5469,53.4375 460.7656,53.4375 Q461.1406,53.4375 461.375,53.6953 Q461.6094,53.9531 461.6094,54.5625 L461.6094,56.0156 Q461.6094,56.625 461.375,56.8906 Q461.1406,57.1563 460.7656,57.1563 Q460.4219,57.1563 460.2188,56.9531 Q460.0156,56.7656 459.9063,56.25 Q459.8594,55.8906 459.6719,55.7031 Q459.3438,55.3281 458.7344,55.1094 Q458.125,54.8906 457.5,54.8906 Q456.7344,54.8906 456.1016,55.2188 Q455.4688,55.5469 454.9766,56.2969 Q454.4844,57.0469 454.4844,58.0781 L454.4844,59.1719 Q454.4844,60.4063 455.375,61.2266 Q456.2656,62.0469 457.8594,62.0469 Q458.7969,62.0469 459.4531,61.7969 Q459.8438,61.6406 460.2656,61.2031 Q460.5313,60.9375 460.6797,60.8594 Q460.8281,60.7813 461.0313,60.7813 Q461.3594,60.7813 461.6172,61.0391 Q461.875,61.2969 461.875,61.6406 Q461.875,61.9844 461.5313,62.3906 Q461.0313,62.9688 460.2344,63.2969 Q459.1563,63.75 457.8594,63.75 Q456.3438,63.75 455.1406,63.125 Q454.1563,62.625 453.4688,61.5547 Q452.7813,60.4844 452.7813,59.2031 L452.7813,58.0469 Q452.7813,56.7188 453.3984,55.5703 Q454.0156,54.4219 455.1094,53.8047 Q456.2031,53.1875 457.4375,53.1875 Q458.1719,53.1875 458.8203,53.3516 Q459.4688,53.5156 460.0156,53.875 Z " fill="#000000"/><text fill="#000000" font-family="sans-serif" font-size="14" lengthAdjust="spacing" textLength="29" x="477.75" y="63.7285">User</text><line style="stroke:#181818;stroke-width:0.5;" x1="367" x2="585" y1="74" y2="74"/><ellipse cx="377" cy="88.3047" fill="none" rx="3" ry="3" style="stroke:#038048;stroke-width:1.0;"/><text fill="#000000" font-family="sans-serif" font-size="14" lengthAdjust="spacing" textLength="64" x="386" y="92.5332">userID: int</text><ellipse cx="377" cy="105.9141" fill="none" rx="3" ry="3" style="stroke:#038048;stroke-width:1.0;"/><text fill="#000000" font-family="sans-serif" font-size="14" lengthAdjust="spacing" textLength="78" x="386" y="110.1426">name: string</text><ellipse cx="377" cy="123.5234" fill="none" rx="3" ry="3" style="stroke:#038048;stroke-width:1.0;"/><text fill="#000000" font-family="sans-serif" font-size="14" lengthAdjust="spacing" textLength="62" x="386" y="127.752">bio: string</text><line style="stroke:#181818;stroke-width:0.5;" x1="367" x2="585" y1="134.8281" y2="134.8281"/><ellipse cx="377" cy="149.1328" fill="#84BE84" rx="3" ry="3" style="stroke:#038048;stroke-width:1.0;"/><text fill="#000000" font-family="sans-serif" font-size="14" lengthAdjust="spacing" textLength="194" x="386" y="153.3613">changeName(name: string): int</text><ellipse cx="377" cy="166.7422" fill="#84BE84" rx="3" ry="3" style="stroke:#038048;stroke-width:1.0;"/><text fill="#000000" font-family="sans-serif" font-size="14" lengthAdjust="spacing" textLength="159" x="386" y="170.9707">updateBio(bio: string): int</text></g><!--class UserWithHigherAuthority--><g id="elem_UserWithHigherAuthority"><rect codeLine="11" fill="#F1F1F1" height="83.2188" id="UserWithHigherAuthority" rx="2.5" ry="2.5" style="stroke:#181818;stroke-width:0.5;" width="186" x="354" y="239"/><ellipse cx="369" cy="255" fill="#ADD1B2" rx="11" ry="11" style="stroke:#181818;stroke-width:1.0;"/><path d="M371.7656,250.875 Q371.9219,250.6563 372.1094,250.5469 Q372.2969,250.4375 372.5156,250.4375 Q372.8906,250.4375 373.125,250.6953 Q373.3594,250.9531 373.3594,251.5625 L373.3594,253.0156 Q373.3594,253.625 373.125,253.8906 Q372.8906,254.1563 372.5156,254.1563 Q372.1719,254.1563 371.9688,253.9531 Q371.7656,253.7656 371.6563,253.25 Q371.6094,252.8906 371.4219,252.7031 Q371.0938,252.3281 370.4844,252.1094 Q369.875,251.8906 369.25,251.8906 Q368.4844,251.8906 367.8516,252.2188 Q367.2188,252.5469 366.7266,253.2969 Q366.2344,254.0469 366.2344,255.0781 L366.2344,256.1719 Q366.2344,257.4063 367.125,258.2266 Q368.0156,259.0469 369.6094,259.0469 Q370.5469,259.0469 371.2031,258.7969 Q371.5938,258.6406 372.0156,258.2031 Q372.2813,257.9375 372.4297,257.8594 Q372.5781,257.7813 372.7813,257.7813 Q373.1094,257.7813 373.3672,258.0391 Q373.625,258.2969 373.625,258.6406 Q373.625,258.9844 373.2813,259.3906 Q372.7813,259.9688 371.9844,260.2969 Q370.9063,260.75 369.6094,260.75 Q368.0938,260.75 366.8906,260.125 Q365.9063,259.625 365.2188,258.5547 Q364.5313,257.4844 364.5313,256.2031 L364.5313,255.0469 Q364.5313,253.7188 365.1484,252.5703 Q365.7656,251.4219 366.8594,250.8047 Q367.9531,250.1875 369.1875,250.1875 Q369.9219,250.1875 370.5703,250.3516 Q371.2188,250.5156 371.7656,250.875 Z " fill="#000000"/><text fill="#000000" font-family="sans-serif" font-size="14" lengthAdjust="spacing" textLength="154" x="383" y="260.7285">UserWithHigherAuthority</text><line style="stroke:#181818;stroke-width:0.5;" x1="355" x2="539" y1="271" y2="271"/><ellipse cx="365" cy="285.3047" fill="none" rx="3" ry="3" style="stroke:#038048;stroke-width:1.0;"/><text fill="#000000" font-family="sans-serif" font-size="14" lengthAdjust="spacing" textLength="92" x="374" y="289.5332">position: enum</text><line style="stroke:#181818;stroke-width:0.5;" x1="355" x2="539" y1="296.6094" y2="296.6094"/><ellipse cx="365" cy="310.9141" fill="#84BE84" rx="3" ry="3" style="stroke:#038048;stroke-width:1.0;"/><text fill="#000000" font-family="sans-serif" font-size="14" lengthAdjust="spacing" textLength="130" x="374" y="315.1426">broadcastMessage()</text></g><!--class Message--><g id="elem_Message"><rect codeLine="17" fill="#F1F1F1" height="312.1406" id="Message" rx="2.5" ry="2.5" style="stroke:#181818;stroke-width:0.5;" width="206" x="347" y="667"/><ellipse cx="417.25" cy="683" fill="#ADD1B2" rx="11" ry="11" style="stroke:#181818;stroke-width:1.0;"/><path d="M420.0156,678.875 Q420.1719,678.6563 420.3594,678.5469 Q420.5469,678.4375 420.7656,678.4375 Q421.1406,678.4375 421.375,678.6953 Q421.6094,678.9531 421.6094,679.5625 L421.6094,681.0156 Q421.6094,681.625 421.375,681.8906 Q421.1406,682.1563 420.7656,682.1563 Q420.4219,682.1563 420.2188,681.9531 Q420.0156,681.7656 419.9063,681.25 Q419.8594,680.8906 419.6719,680.7031 Q419.3438,680.3281 418.7344,680.1094 Q418.125,679.8906 417.5,679.8906 Q416.7344,679.8906 416.1016,680.2188 Q415.4688,680.5469 414.9766,681.2969 Q414.4844,682.0469 414.4844,683.0781 L414.4844,684.1719 Q414.4844,685.4063 415.375,686.2266 Q416.2656,687.0469 417.8594,687.0469 Q418.7969,687.0469 419.4531,686.7969 Q419.8438,686.6406 420.2656,686.2031 Q420.5313,685.9375 420.6797,685.8594 Q420.8281,685.7813 421.0313,685.7813 Q421.3594,685.7813 421.6172,686.0391 Q421.875,686.2969 421.875,686.6406 Q421.875,686.9844 421.5313,687.3906 Q421.0313,687.9688 420.2344,688.2969 Q419.1563,688.75 417.8594,688.75 Q416.3438,688.75 415.1406,688.125 Q414.1563,687.625 413.4688,686.5547 Q412.7813,685.4844 412.7813,684.2031 L412.7813,683.0469 Q412.7813,681.7188 413.3984,680.5703 Q414.0156,679.4219 415.1094,678.8047 Q416.2031,678.1875 417.4375,678.1875 Q418.1719,678.1875 418.8203,678.3516 Q419.4688,678.5156 420.0156,678.875 Z " fill="#000000"/><text fill="#000000" font-family="sans-serif" font-size="14" lengthAdjust="spacing" textLength="57" x="437.75" y="688.7285">Message</text><line style="stroke:#181818;stroke-width:0.5;" x1="348" x2="552" y1="699" y2="699"/><ellipse cx="358" cy="713.3047" fill="none" rx="3" ry="3" style="stroke:#038048;stroke-width:1.0;"/><text fill="#000000" font-family="sans-serif" font-size="14" lengthAdjust="spacing" textLength="93" x="367" y="717.5332">messageID: int</text><ellipse cx="358" cy="730.9141" fill="none" rx="3" ry="3" style="stroke:#038048;stroke-width:1.0;"/><text fill="#000000" font-family="sans-serif" font-size="14" lengthAdjust="spacing" textLength="88" x="367" y="735.1426">sender_ID: int</text><ellipse cx="358" cy="748.5234" fill="none" rx="3" ry="3" style="stroke:#038048;stroke-width:1.0;"/><text fill="#000000" font-family="sans-serif" font-size="14" lengthAdjust="spacing" textLength="138" x="367" y="752.752">recipient_IDs: list&lt;int&gt;</text><ellipse cx="358" cy="766.1328" fill="none" rx="3" ry="3" style="stroke:#038048;stroke-width:1.0;"/><text fill="#000000" font-family="sans-serif" font-size="14" lengthAdjust="spacing" textLength="150" x="367" y="770.3613">messageContent: string</text><ellipse cx="358" cy="783.7422" fill="none" rx="3" ry="3" style="stroke:#038048;stroke-width:1.0;"/><text fill="#000000" font-family="sans-serif" font-size="14" lengthAdjust="spacing" textLength="100" x="367" y="787.9707">timestamp: date</text><ellipse cx="358" cy="801.3516" fill="none" rx="3" ry="3" style="stroke:#038048;stroke-width:1.0;"/><text fill="#000000" font-family="sans-serif" font-size="14" lengthAdjust="spacing" textLength="109" x="367" y="805.5801">isBroadcast: bool</text><ellipse cx="358" cy="818.9609" fill="none" rx="3" ry="3" style="stroke:#038048;stroke-width:1.0;"/><text fill="#000000" font-family="sans-serif" font-size="14" lengthAdjust="spacing" textLength="76" x="367" y="823.1895">isDraft: bool</text><ellipse cx="358" cy="836.5703" fill="none" rx="3" ry="3" style="stroke:#038048;stroke-width:1.0;"/><text fill="#000000" font-family="sans-serif" font-size="14" lengthAdjust="spacing" textLength="94" x="367" y="840.7988">isDeleted: bool</text><line style="stroke:#181818;stroke-width:0.5;" x1="348" x2="552" y1="847.875" y2="847.875"/><ellipse cx="358" cy="862.1797" fill="#84BE84" rx="3" ry="3" style="stroke:#038048;stroke-width:1.0;"/><text fill="#000000" font-family="sans-serif" font-size="14" lengthAdjust="spacing" textLength="108" x="367" y="866.4082">modifyMessage()</text><ellipse cx="358" cy="879.7891" fill="#84BE84" rx="3" ry="3" style="stroke:#038048;stroke-width:1.0;"/><text fill="#000000" font-family="sans-serif" font-size="14" lengthAdjust="spacing" textLength="157" x="367" y="884.0176">addRecipient(userID: int)</text><ellipse cx="358" cy="897.3984" fill="#84BE84" rx="3" ry="3" style="stroke:#038048;stroke-width:1.0;"/><text fill="#000000" font-family="sans-serif" font-size="14" lengthAdjust="spacing" textLength="180" x="367" y="901.627">removeRecipient(userID: int)</text><ellipse cx="358" cy="915.0078" fill="#84BE84" rx="3" ry="3" style="stroke:#038048;stroke-width:1.0;"/><text fill="#000000" font-family="sans-serif" font-size="14" lengthAdjust="spacing" textLength="98" x="367" y="919.2363">sendMessage()</text><ellipse cx="358" cy="932.6172" fill="#84BE84" rx="3" ry="3" style="stroke:#038048;stroke-width:1.0;"/><text fill="#000000" font-family="sans-serif" font-size="14" lengthAdjust="spacing" textLength="124" x="367" y="936.8457">scheduleMessage()</text><ellipse cx="358" cy="950.2266" fill="#84BE84" rx="3" ry="3" style="stroke:#038048;stroke-width:1.0;"/><text fill="#000000" font-family="sans-serif" font-size="14" lengthAdjust="spacing" textLength="89" x="367" y="954.4551">sendToDraft()</text><ellipse cx="358" cy="967.8359" fill="#84BE84" rx="3" ry="3" style="stroke:#038048;stroke-width:1.0;"/><text fill="#000000" font-family="sans-serif" font-size="14" lengthAdjust="spacing" textLength="106" x="367" y="972.0645">deleteMessage()</text></g><!--class CommunicationRecordingSystem--><g id="elem_CommunicationRecordingSystem"><rect codeLine="36" fill="#F1F1F1" height="136.0469" id="CommunicationRecordingSystem" rx="2.5" ry="2.5" style="stroke:#181818;stroke-width:0.5;" width="265" x="22.5" y="426.5"/><ellipse cx="48.75" cy="442.5" fill="#ADD1B2" rx="11" ry="11" style="stroke:#181818;stroke-width:1.0;"/><path d="M51.5156,438.375 Q51.6719,438.1563 51.8594,438.0469 Q52.0469,437.9375 52.2656,437.9375 Q52.6406,437.9375 52.875,438.1953 Q53.1094,438.4531 53.1094,439.0625 L53.1094,440.5156 Q53.1094,441.125 52.875,441.3906 Q52.6406,441.6563 52.2656,441.6563 Q51.9219,441.6563 51.7188,441.4531 Q51.5156,441.2656 51.4063,440.75 Q51.3594,440.3906 51.1719,440.2031 Q50.8438,439.8281 50.2344,439.6094 Q49.625,439.3906 49,439.3906 Q48.2344,439.3906 47.6016,439.7188 Q46.9688,440.0469 46.4766,440.7969 Q45.9844,441.5469 45.9844,442.5781 L45.9844,443.6719 Q45.9844,444.9063 46.875,445.7266 Q47.7656,446.5469 49.3594,446.5469 Q50.2969,446.5469 50.9531,446.2969 Q51.3438,446.1406 51.7656,445.7031 Q52.0313,445.4375 52.1797,445.3594 Q52.3281,445.2813 52.5313,445.2813 Q52.8594,445.2813 53.1172,445.5391 Q53.375,445.7969 53.375,446.1406 Q53.375,446.4844 53.0313,446.8906 Q52.5313,447.4688 51.7344,447.7969 Q50.6563,448.25 49.3594,448.25 Q47.8438,448.25 46.6406,447.625 Q45.6563,447.125 44.9688,446.0547 Q44.2813,444.9844 44.2813,443.7031 L44.2813,442.5469 Q44.2813,441.2188 44.8984,440.0703 Q45.5156,438.9219 46.6094,438.3047 Q47.7031,437.6875 48.9375,437.6875 Q49.6719,437.6875 50.3203,437.8516 Q50.9688,438.0156 51.5156,438.375 Z " fill="#000000"/><text fill="#000000" font-family="sans-serif" font-size="14" lengthAdjust="spacing" textLength="208" x="65.25" y="448.2285">CommunicationRecordingSystem</text><line style="stroke:#181818;stroke-width:0.5;" x1="23.5" x2="286.5" y1="458.5" y2="458.5"/><rect fill="none" height="6" style="stroke:#C82930;stroke-width:1.0;" width="6" x="30.5" y="469.8047"/><text fill="#000000" font-family="sans-serif" font-size="14" lengthAdjust="spacing" textLength="138" x="42.5" y="477.0332">messageIDs: List&lt;int&gt;</text><line style="stroke:#181818;stroke-width:0.5;" x1="23.5" x2="286.5" y1="484.1094" y2="484.1094"/><ellipse cx="33.5" cy="498.4141" fill="#84BE84" rx="3" ry="3" style="stroke:#038048;stroke-width:1.0;"/><text fill="#000000" font-family="sans-serif" font-size="14" lengthAdjust="spacing" textLength="117" x="42.5" y="502.6426">getAllRecordings()</text><ellipse cx="33.5" cy="516.0234" fill="#84BE84" rx="3" ry="3" style="stroke:#038048;stroke-width:1.0;"/><text fill="#000000" font-family="sans-serif" font-size="14" lengthAdjust="spacing" textLength="239" x="42.5" y="520.252">deleteAllRecordings(password: string)</text><ellipse cx="33.5" cy="533.6328" fill="#84BE84" rx="3" ry="3" style="stroke:#038048;stroke-width:1.0;"/><text fill="#000000" font-family="sans-serif" font-size="14" lengthAdjust="spacing" textLength="188" x="42.5" y="537.8613">getRecording(messageID: int)</text><ellipse cx="33.5" cy="551.2422" fill="#84BE84" rx="3" ry="3" style="stroke:#038048;stroke-width:1.0;"/><text fill="#000000" font-family="sans-serif" font-size="14" lengthAdjust="spacing" textLength="207" x="42.5" y="555.4707">deleteRecording(messageID: int)</text></g><!--class Broadcaster--><g id="elem_Broadcaster"><rect codeLine="45" fill="#F1F1F1" height="188.875" id="Broadcaster" rx="2.5" ry="2.5" style="stroke:#181818;stroke-width:0.5;" width="255" x="322.5" y="400"/><ellipse cx="407.25" cy="416" fill="#ADD1B2" rx="11" ry="11" style="stroke:#181818;stroke-width:1.0;"/><path d="M410.0156,411.875 Q410.1719,411.6563 410.3594,411.5469 Q410.5469,411.4375 410.7656,411.4375 Q411.1406,411.4375 411.375,411.6953 Q411.6094,411.9531 411.6094,412.5625 L411.6094,414.0156 Q411.6094,414.625 411.375,414.8906 Q411.1406,415.1563 410.7656,415.1563 Q410.4219,415.1563 410.2188,414.9531 Q410.0156,414.7656 409.9063,414.25 Q409.8594,413.8906 409.6719,413.7031 Q409.3438,413.3281 408.7344,413.1094 Q408.125,412.8906 407.5,412.8906 Q406.7344,412.8906 406.1016,413.2188 Q405.4688,413.5469 404.9766,414.2969 Q404.4844,415.0469 404.4844,416.0781 L404.4844,417.1719 Q404.4844,418.4063 405.375,419.2266 Q406.2656,420.0469 407.8594,420.0469 Q408.7969,420.0469 409.4531,419.7969 Q409.8438,419.6406 410.2656,419.2031 Q410.5313,418.9375 410.6797,418.8594 Q410.8281,418.7813 411.0313,418.7813 Q411.3594,418.7813 411.6172,419.0391 Q411.875,419.2969 411.875,419.6406 Q411.875,419.9844 411.5313,420.3906 Q411.0313,420.9688 410.2344,421.2969 Q409.1563,421.75 407.8594,421.75 Q406.3438,421.75 405.1406,421.125 Q404.1563,420.625 403.4688,419.5547 Q402.7813,418.4844 402.7813,417.2031 L402.7813,416.0469 Q402.7813,414.7188 403.3984,413.5703 Q404.0156,412.4219 405.1094,411.8047 Q406.2031,411.1875 407.4375,411.1875 Q408.1719,411.1875 408.8203,411.3516 Q409.4688,411.5156 410.0156,411.875 Z " fill="#000000"/><text fill="#000000" font-family="sans-serif" font-size="14" lengthAdjust="spacing" textLength="77" x="427.75" y="421.7285">Broadcaster</text><line style="stroke:#181818;stroke-width:0.5;" x1="323.5" x2="576.5" y1="432" y2="432"/><ellipse cx="333.5" cy="446.3047" fill="none" rx="3" ry="3" style="stroke:#038048;stroke-width:1.0;"/><text fill="#000000" font-family="sans-serif" font-size="14" lengthAdjust="spacing" textLength="101" x="342.5" y="450.5332">message_ID: int</text><ellipse cx="333.5" cy="463.9141" fill="none" rx="3" ry="3" style="stroke:#038048;stroke-width:1.0;"/><text fill="#000000" font-family="sans-serif" font-size="14" lengthAdjust="spacing" textLength="170" x="342.5" y="468.1426">recipientGroupIDs: list&lt;int&gt;</text><line style="stroke:#181818;stroke-width:0.5;" x1="323.5" x2="576.5" y1="475.2188" y2="475.2188"/><ellipse cx="333.5" cy="489.5234" fill="#84BE84" rx="3" ry="3" style="stroke:#038048;stroke-width:1.0;"/><text fill="#000000" font-family="sans-serif" font-size="14" lengthAdjust="spacing" textLength="187" x="342.5" y="493.752">attachMessageToBroadcast()</text><ellipse cx="333.5" cy="507.1328" fill="#84BE84" rx="3" ry="3" style="stroke:#038048;stroke-width:1.0;"/><text fill="#000000" font-family="sans-serif" font-size="14" lengthAdjust="spacing" textLength="186" x="342.5" y="511.3613">broadcastAttachedMessage()</text><ellipse cx="333.5" cy="524.7422" fill="#84BE84" rx="3" ry="3" style="stroke:#038048;stroke-width:1.0;"/><text fill="#000000" font-family="sans-serif" font-size="14" lengthAdjust="spacing" textLength="154" x="342.5" y="528.9707">removeFromBroadcast()</text><ellipse cx="333.5" cy="542.3516" fill="#84BE84" rx="3" ry="3" style="stroke:#038048;stroke-width:1.0;"/><text fill="#000000" font-family="sans-serif" font-size="14" lengthAdjust="spacing" textLength="206" x="342.5" y="546.5801">addRecipientGroup(groupID: int)</text><ellipse cx="333.5" cy="559.9609" fill="#84BE84" rx="3" ry="3" style="stroke:#038048;stroke-width:1.0;"/><text fill="#000000" font-family="sans-serif" font-size="14" lengthAdjust="spacing" textLength="229" x="342.5" y="564.1895">removeRecipientGroup(groupID: int)</text><ellipse cx="333.5" cy="577.5703" fill="#84BE84" rx="3" ry="3" style="stroke:#038048;stroke-width:1.0;"/><text fill="#000000" font-family="sans-serif" font-size="14" lengthAdjust="spacing" textLength="190" x="342.5" y="581.7988">listAvailableRecipientGroups()</text></g><!--reverse link User to UserWithHigherAuthority--><g id="link_User_UserWithHigherAuthority"><path d="M461.4057,195.819 C457.8657,216.379 457.13,220.62 454,238.85 " fill="none" id="User-backto-UserWithHigherAuthority" style="stroke:#181818;stroke-width:1.0;"/><polygon fill="none" points="464.46,178.08,455.4927,194.8009,467.3187,196.8371,464.46,178.08" style="stroke:#181818;stroke-width:1.0;"/></g><!--link Broadcaster to Message--><g id="link_Broadcaster_Message"><path codeLine="57" d="M450,589.06 C450,613.37 450,634.22 450,660.78 " fill="none" id="Broadcaster-to-Message" style="stroke:#181818;stroke-width:1.0;"/><polygon fill="#181818" points="450,666.78,454,657.78,450,661.78,446,657.78,450,666.78" style="stroke:#181818;stroke-width:1.0;"/><text fill="#000000" font-family="sans-serif" font-size="13" lengthAdjust="spacing" textLength="64" x="451" y="633.4951">broadcasts</text><text fill="#000000" font-family="sans-serif" font-size="13" lengthAdjust="spacing" textLength="7" x="442.732" y="610.4256">1</text><text fill="#000000" font-family="sans-serif" font-size="13" lengthAdjust="spacing" textLength="20" x="429.5156" y="656.3258">0..*</text></g><!--link CommunicationRecordingSystem to Message--><g id="link_CommunicationRecordingSystem_Message"><path codeLine="58" d="M215.77,562.76 C253.55,604.57 299.0772,654.9683 342.8772,703.4383 " fill="none" id="CommunicationRecordingSystem-to-Message" style="stroke:#181818;stroke-width:1.0;"/><polygon fill="#181818" points="346.9,707.89,343.8336,698.5307,343.5477,704.1803,337.8981,703.8943,346.9,707.89" style="stroke:#181818;stroke-width:1.0;"/><text fill="#000000" font-family="sans-serif" font-size="13" lengthAdjust="spacing" textLength="48" x="277" y="633.4951">Records</text><text fill="#000000" font-family="sans-serif" font-size="13" lengthAdjust="spacing" textLength="7" x="214.676" y="584.1351">1</text><text fill="#000000" font-family="sans-serif" font-size="13" lengthAdjust="spacing" textLength="20" x="318.9477" y="696.7364">0..*</text></g><!--link User to Message--><g id="link_User_Message"><path codeLine="59" d="M525.04,178.02 C537.21,197.01 549.26,218.2 558,239 C618.6,383.21 637.98,438.6 595,589 C585.71,621.53 573.4108,648.7343 556.1708,678.5843 " fill="none" id="User-to-Message" style="stroke:#181818;stroke-width:1.0;"/><polygon fill="#181818" points="553.17,683.78,561.135,677.987,555.6707,679.4503,554.2074,673.9859,553.17,683.78" style="stroke:#181818;stroke-width:1.0;"/><text fill="#000000" font-family="sans-serif" font-size="13" lengthAdjust="spacing" textLength="37" x="607" y="366.4951">Sends</text><text fill="#000000" font-family="sans-serif" font-size="13" lengthAdjust="spacing" textLength="20" x="509.066" y="199.3704">0..*</text><text fill="#000000" font-family="sans-serif" font-size="13" lengthAdjust="spacing" textLength="20" x="561.1273" y="670.9311">0..*</text></g><!--link UserWithHigherAuthority to Broadcaster--><g id="link_UserWithHigherAuthority_Broadcaster"><path codeLine="60" d="M447.58,322.38 C447.89,344.39 448.2058,366.5306 448.5858,393.6106 " fill="none" id="UserWithHigherAuthority-to-Broadcaster" style="stroke:#181818;stroke-width:1.0;"/><polygon fill="#181818" points="448.67,399.61,452.5433,390.5548,448.5998,394.6105,444.5441,390.667,448.67,399.61" style="stroke:#181818;stroke-width:1.0;"/><text fill="#000000" font-family="sans-serif" font-size="13" lengthAdjust="spacing" textLength="28" x="449" y="366.4951">uses</text><text fill="#000000" font-family="sans-serif" font-size="13" lengthAdjust="spacing" textLength="20" x="426.0787" y="343.8353">0..*</text><text fill="#000000" font-family="sans-serif" font-size="13" lengthAdjust="spacing" textLength="7" x="441.3002" y="389.2458">1</text></g><!--SRC=[XLJ9Rjmm3BtFLmXpyhIOeBqQHO19WYv0qqEJeiT2Op6sK2s6IAST5FdtoiieagqulXWc7vT7FhFbrMzU0xi5HF_6Moiw1UpVXlcdKXoH_K1maw5_thBE6xxSb4mQYgo6QoWPafEcZin7QOCrCbSDDpLyyp557BYRP-rQmGckf2sYH17gQJFhzAUavhEi6t27ZXhh99qO_2Km8iEajIX9MbCoC9sE-piwoqN5aQR15BjbkScLPDIZRJaUz1s0-xLqEAXaAy6Gzs79b4Jwu16NowJNrdWUb1aoIGyXhjkIzUEAF1AlpanAThHM9RuRnn-oTb1082PFt8aLyk6KpcJqS26-dvaKaK9s2LLj7-5LM3-gN0ci6kZLcVNvc7ixy4diOc2oiiHhgtLdPCLx7VZMh1D-jdSd9D3HPlVFc_LB-XgM59MgWGvAXHIOwIFrjxx-7_yHP9qc2yWY5TKoxJeoeHlKCFiJfi0rVNvojcjd6eq5GCIhPfhqlGs5aZ64t-eme26xvr4c7vtL-IInr8QcYdfixJN1hODxLeT7BXK_gbaCfig9XxXzlsNx_INRlhkuUBCztuJocIaE8QioUod7Y1iJ3BTh0kImT_s52yZS5Oo3VS68HDcVTDmy_GS0]--></g></svg>