<?xml version="1.0" encoding="us-ascii" standalone="no"?><svg xmlns="http://www.w3.org/2000/svg" xmlns:xlink="http://www.w3.org/1999/xlink" contentStyleType="text/css" height="1421px" preserveAspectRatio="none" style="width:1312px;height:1421px;background:#FFFFFF;" version="1.1" viewBox="0 0 1312 1421" width="1312px" zoomAndPan="magnify"><defs/><g><!--cluster HumanResourcesModule--><g id="cluster_HumanResourcesModule"><path d="M8.5,6 L186.5,6 A3.75,3.75 0 0 1 189,8.5 L196,29.6094 L1302.5,29.6094 A2.5,2.5 0 0 1 1305,32.1094 L1305,1411.5 A2.5,2.5 0 0 1 1302.5,1414 L8.5,1414 A2.5,2.5 0 0 1 6,1411.5 L6,8.5 A2.5,2.5 0 0 1 8.5,6 " fill="none" style="stroke:#000000;stroke-width:1.5;"/><line style="stroke:#000000;stroke-width:1.5;" x1="6" x2="196" y1="29.6094" y2="29.6094"/><text fill="#000000" font-family="sans-serif" font-size="14" font-weight="bold" lengthAdjust="spacing" textLength="177" x="10" y="22.5332">HumanResourcesModule</text></g><!--class Employee--><g id="elem_Employee"><rect codeLine="4" fill="#F1F1F1" height="259.3125" id="Employee" rx="2.5" ry="2.5" style="stroke:#181818;stroke-width:0.5;" width="209" x="869.5" y="42"/><ellipse cx="938.75" cy="58" fill="#ADD1B2" rx="11" ry="11" style="stroke:#181818;stroke-width:1.0;"/><path d="M941.5156,53.875 Q941.6719,53.6563 941.8594,53.5469 Q942.0469,53.4375 942.2656,53.4375 Q942.6406,53.4375 942.875,53.6953 Q943.1094,53.9531 943.1094,54.5625 L943.1094,56.0156 Q943.1094,56.625 942.875,56.8906 Q942.6406,57.1563 942.2656,57.1563 Q941.9219,57.1563 941.7188,56.9531 Q941.5156,56.7656 941.4063,56.25 Q941.3594,55.8906 941.1719,55.7031 Q940.8438,55.3281 940.2344,55.1094 Q939.625,54.8906 939,54.8906 Q938.2344,54.8906 937.6016,55.2188 Q936.9688,55.5469 936.4766,56.2969 Q935.9844,57.0469 935.9844,58.0781 L935.9844,59.1719 Q935.9844,60.4063 936.875,61.2266 Q937.7656,62.0469 939.3594,62.0469 Q940.2969,62.0469 940.9531,61.7969 Q941.3438,61.6406 941.7656,61.2031 Q942.0313,60.9375 942.1797,60.8594 Q942.3281,60.7813 942.5313,60.7813 Q942.8594,60.7813 943.1172,61.0391 Q943.375,61.2969 943.375,61.6406 Q943.375,61.9844 943.0313,62.3906 Q942.5313,62.9688 941.7344,63.2969 Q940.6563,63.75 939.3594,63.75 Q937.8438,63.75 936.6406,63.125 Q935.6563,62.625 934.9688,61.5547 Q934.2813,60.4844 934.2813,59.2031 L934.2813,58.0469 Q934.2813,56.7188 934.8984,55.5703 Q935.5156,54.4219 936.6094,53.8047 Q937.7031,53.1875 938.9375,53.1875 Q939.6719,53.1875 940.3203,53.3516 Q940.9688,53.5156 941.5156,53.875 Z " fill="#000000"/><text fill="#000000" font-family="sans-serif" font-size="14" lengthAdjust="spacing" textLength="62" x="959.25" y="63.7285">Employee</text><line style="stroke:#181818;stroke-width:0.5;" x1="870.5" x2="1077.5" y1="74" y2="74"/><ellipse cx="880.5" cy="88.3047" fill="none" rx="3" ry="3" style="stroke:#038048;stroke-width:1.0;"/><text fill="#000000" font-family="sans-serif" font-size="14" lengthAdjust="spacing" textLength="95" x="889.5" y="92.5332">employeeId: int</text><ellipse cx="880.5" cy="105.9141" fill="none" rx="3" ry="3" style="stroke:#038048;stroke-width:1.0;"/><text fill="#000000" font-family="sans-serif" font-size="14" lengthAdjust="spacing" textLength="80" x="889.5" y="110.1426">name: String</text><ellipse cx="880.5" cy="123.5234" fill="none" rx="3" ry="3" style="stroke:#038048;stroke-width:1.0;"/><text fill="#000000" font-family="sans-serif" font-size="14" lengthAdjust="spacing" textLength="78" x="889.5" y="127.752">email: String</text><ellipse cx="880.5" cy="141.1328" fill="none" rx="3" ry="3" style="stroke:#038048;stroke-width:1.0;"/><text fill="#000000" font-family="sans-serif" font-size="14" lengthAdjust="spacing" textLength="92" x="889.5" y="145.3613">position: enum</text><ellipse cx="880.5" cy="158.7422" fill="none" rx="3" ry="3" style="stroke:#038048;stroke-width:1.0;"/><text fill="#000000" font-family="sans-serif" font-size="14" lengthAdjust="spacing" textLength="115" x="889.5" y="162.9707">department: enum</text><ellipse cx="880.5" cy="176.3516" fill="none" rx="3" ry="3" style="stroke:#038048;stroke-width:1.0;"/><text fill="#000000" font-family="sans-serif" font-size="14" lengthAdjust="spacing" textLength="84" x="889.5" y="180.5801">isAdmin: bool</text><ellipse cx="880.5" cy="193.9609" fill="none" rx="3" ry="3" style="stroke:#038048;stroke-width:1.0;"/><text fill="#000000" font-family="sans-serif" font-size="14" lengthAdjust="spacing" textLength="90" x="889.5" y="198.1895">onLeave: bool</text><line style="stroke:#181818;stroke-width:0.5;" x1="870.5" x2="1077.5" y1="205.2656" y2="205.2656"/><ellipse cx="880.5" cy="219.5703" fill="#84BE84" rx="3" ry="3" style="stroke:#038048;stroke-width:1.0;"/><text fill="#000000" font-family="sans-serif" font-size="14" lengthAdjust="spacing" textLength="93" x="889.5" y="223.7988">changeName()</text><ellipse cx="880.5" cy="237.1797" fill="#84BE84" rx="3" ry="3" style="stroke:#038048;stroke-width:1.0;"/><text fill="#000000" font-family="sans-serif" font-size="14" lengthAdjust="spacing" textLength="91" x="889.5" y="241.4082">changeEmail()</text><ellipse cx="880.5" cy="254.7891" fill="#84BE84" rx="3" ry="3" style="stroke:#038048;stroke-width:1.0;"/><text fill="#000000" font-family="sans-serif" font-size="14" lengthAdjust="spacing" textLength="107" x="889.5" y="259.0176">changePosition()</text><ellipse cx="880.5" cy="272.3984" fill="#84BE84" rx="3" ry="3" style="stroke:#038048;stroke-width:1.0;"/><text fill="#000000" font-family="sans-serif" font-size="14" lengthAdjust="spacing" textLength="131" x="889.5" y="276.627">changeDepartment()</text><ellipse cx="880.5" cy="290.0078" fill="#84BE84" rx="3" ry="3" style="stroke:#038048;stroke-width:1.0;"/><text fill="#000000" font-family="sans-serif" font-size="14" lengthAdjust="spacing" textLength="183" x="889.5" y="294.2363">updateLeaveStatus(bool): int</text></g><!--class EmployeeAdmissionForm--><g id="elem_EmployeeAdmissionForm"><rect codeLine="20" fill="#F1F1F1" height="136.0469" id="EmployeeAdmissionForm" rx="2.5" ry="2.5" style="stroke:#181818;stroke-width:0.5;" width="191" x="616.5" y="746"/><ellipse cx="631.5" cy="762" fill="#ADD1B2" rx="11" ry="11" style="stroke:#181818;stroke-width:1.0;"/><path d="M634.2656,757.875 Q634.4219,757.6563 634.6094,757.5469 Q634.7969,757.4375 635.0156,757.4375 Q635.3906,757.4375 635.625,757.6953 Q635.8594,757.9531 635.8594,758.5625 L635.8594,760.0156 Q635.8594,760.625 635.625,760.8906 Q635.3906,761.1563 635.0156,761.1563 Q634.6719,761.1563 634.4688,760.9531 Q634.2656,760.7656 634.1563,760.25 Q634.1094,759.8906 633.9219,759.7031 Q633.5938,759.3281 632.9844,759.1094 Q632.375,758.8906 631.75,758.8906 Q630.9844,758.8906 630.3516,759.2188 Q629.7188,759.5469 629.2266,760.2969 Q628.7344,761.0469 628.7344,762.0781 L628.7344,763.1719 Q628.7344,764.4063 629.625,765.2266 Q630.5156,766.0469 632.1094,766.0469 Q633.0469,766.0469 633.7031,765.7969 Q634.0938,765.6406 634.5156,765.2031 Q634.7813,764.9375 634.9297,764.8594 Q635.0781,764.7813 635.2813,764.7813 Q635.6094,764.7813 635.8672,765.0391 Q636.125,765.2969 636.125,765.6406 Q636.125,765.9844 635.7813,766.3906 Q635.2813,766.9688 634.4844,767.2969 Q633.4063,767.75 632.1094,767.75 Q630.5938,767.75 629.3906,767.125 Q628.4063,766.625 627.7188,765.5547 Q627.0313,764.4844 627.0313,763.2031 L627.0313,762.0469 Q627.0313,760.7188 627.6484,759.5703 Q628.2656,758.4219 629.3594,757.8047 Q630.4531,757.1875 631.6875,757.1875 Q632.4219,757.1875 633.0703,757.3516 Q633.7188,757.5156 634.2656,757.875 Z " fill="#000000"/><text fill="#000000" font-family="sans-serif" font-size="14" lengthAdjust="spacing" textLength="159" x="645.5" y="767.7285">EmployeeAdmissionForm</text><line style="stroke:#181818;stroke-width:0.5;" x1="617.5" x2="806.5" y1="778" y2="778"/><ellipse cx="627.5" cy="792.3047" fill="none" rx="3" ry="3" style="stroke:#038048;stroke-width:1.0;"/><text fill="#000000" font-family="sans-serif" font-size="14" lengthAdjust="spacing" textLength="62" x="636.5" y="796.5332">formId: int</text><ellipse cx="627.5" cy="809.9141" fill="none" rx="3" ry="3" style="stroke:#038048;stroke-width:1.0;"/><text fill="#000000" font-family="sans-serif" font-size="14" lengthAdjust="spacing" textLength="129" x="636.5" y="814.1426">dateSubmitted: Date</text><ellipse cx="627.5" cy="827.5234" fill="none" rx="3" ry="3" style="stroke:#038048;stroke-width:1.0;"/><text fill="#000000" font-family="sans-serif" font-size="14" lengthAdjust="spacing" textLength="127" x="636.5" y="831.752">applicant: Employee</text><line style="stroke:#181818;stroke-width:0.5;" x1="617.5" x2="806.5" y1="838.8281" y2="838.8281"/><ellipse cx="627.5" cy="853.1328" fill="#84BE84" rx="3" ry="3" style="stroke:#038048;stroke-width:1.0;"/><text fill="#000000" font-family="sans-serif" font-size="14" lengthAdjust="spacing" textLength="68" x="636.5" y="857.3613">alterDate()</text><ellipse cx="627.5" cy="870.7422" fill="#84BE84" rx="3" ry="3" style="stroke:#038048;stroke-width:1.0;"/><text fill="#000000" font-family="sans-serif" font-size="14" lengthAdjust="spacing" textLength="96" x="636.5" y="874.9707">alterApplicant()</text></g><!--class PayrollManager--><g id="elem_PayrollManager"><rect codeLine="29" fill="#F1F1F1" height="153.6563" id="PayrollManager" rx="2.5" ry="2.5" style="stroke:#181818;stroke-width:0.5;" width="351" x="268.5" y="960"/><ellipse cx="390.25" cy="976" fill="#ADD1B2" rx="11" ry="11" style="stroke:#181818;stroke-width:1.0;"/><path d="M393.0156,971.875 Q393.1719,971.6563 393.3594,971.5469 Q393.5469,971.4375 393.7656,971.4375 Q394.1406,971.4375 394.375,971.6953 Q394.6094,971.9531 394.6094,972.5625 L394.6094,974.0156 Q394.6094,974.625 394.375,974.8906 Q394.1406,975.1563 393.7656,975.1563 Q393.4219,975.1563 393.2188,974.9531 Q393.0156,974.7656 392.9063,974.25 Q392.8594,973.8906 392.6719,973.7031 Q392.3438,973.3281 391.7344,973.1094 Q391.125,972.8906 390.5,972.8906 Q389.7344,972.8906 389.1016,973.2188 Q388.4688,973.5469 387.9766,974.2969 Q387.4844,975.0469 387.4844,976.0781 L387.4844,977.1719 Q387.4844,978.4063 388.375,979.2266 Q389.2656,980.0469 390.8594,980.0469 Q391.7969,980.0469 392.4531,979.7969 Q392.8438,979.6406 393.2656,979.2031 Q393.5313,978.9375 393.6797,978.8594 Q393.8281,978.7813 394.0313,978.7813 Q394.3594,978.7813 394.6172,979.0391 Q394.875,979.2969 394.875,979.6406 Q394.875,979.9844 394.5313,980.3906 Q394.0313,980.9688 393.2344,981.2969 Q392.1563,981.75 390.8594,981.75 Q389.3438,981.75 388.1406,981.125 Q387.1563,980.625 386.4688,979.5547 Q385.7813,978.4844 385.7813,977.2031 L385.7813,976.0469 Q385.7813,974.7188 386.3984,973.5703 Q387.0156,972.4219 388.1094,971.8047 Q389.2031,971.1875 390.4375,971.1875 Q391.1719,971.1875 391.8203,971.3516 Q392.4688,971.5156 393.0156,971.875 Z " fill="#000000"/><text fill="#000000" font-family="sans-serif" font-size="14" lengthAdjust="spacing" textLength="99" x="410.75" y="981.7285">PayrollManager</text><line style="stroke:#181818;stroke-width:0.5;" x1="269.5" x2="618.5" y1="992" y2="992"/><ellipse cx="279.5" cy="1006.3047" fill="none" rx="3" ry="3" style="stroke:#038048;stroke-width:1.0;"/><text fill="#000000" font-family="sans-serif" font-size="14" lengthAdjust="spacing" textLength="204" x="288.5" y="1010.5332">payrollForms: List&lt;PayrollForm&gt;</text><line style="stroke:#181818;stroke-width:0.5;" x1="269.5" x2="618.5" y1="1017.6094" y2="1017.6094"/><ellipse cx="279.5" cy="1031.9141" fill="#84BE84" rx="3" ry="3" style="stroke:#038048;stroke-width:1.0;"/><text fill="#000000" font-family="sans-serif" font-size="14" lengthAdjust="spacing" textLength="325" x="288.5" y="1036.1426">generatePayroll(employee: Employee): PayrollForm</text><ellipse cx="279.5" cy="1049.5234" fill="#84BE84" rx="3" ry="3" style="stroke:#038048;stroke-width:1.0;"/><text fill="#000000" font-family="sans-serif" font-size="14" lengthAdjust="spacing" textLength="292" x="288.5" y="1053.752">addPayrollForm(payrollForm: PayrollForm): int</text><ellipse cx="279.5" cy="1067.1328" fill="#84BE84" rx="3" ry="3" style="stroke:#038048;stroke-width:1.0;"/><text fill="#000000" font-family="sans-serif" font-size="14" lengthAdjust="spacing" textLength="218" x="288.5" y="1071.3613">removePayrollForm(formId: int): int</text><ellipse cx="279.5" cy="1084.7422" fill="#84BE84" rx="3" ry="3" style="stroke:#038048;stroke-width:1.0;"/><text fill="#000000" font-family="sans-serif" font-size="14" lengthAdjust="spacing" textLength="158" x="288.5" y="1088.9707">viewAllPayrollForms(): int</text><ellipse cx="279.5" cy="1102.3516" fill="#84BE84" rx="3" ry="3" style="stroke:#038048;stroke-width:1.0;"/><text fill="#000000" font-family="sans-serif" font-size="14" lengthAdjust="spacing" textLength="262" x="288.5" y="1106.5801">viewPayrollForm(formID | employeeID): int</text></g><!--class PayrollForm--><g id="elem_PayrollForm"><rect codeLine="39" fill="#F1F1F1" height="171.2656" id="PayrollForm" rx="2.5" ry="2.5" style="stroke:#181818;stroke-width:0.5;" width="157" x="1077.5" y="545"/><ellipse cx="1114.55" cy="561" fill="#ADD1B2" rx="11" ry="11" style="stroke:#181818;stroke-width:1.0;"/><path d="M1117.3156,556.875 Q1117.4719,556.6563 1117.6594,556.5469 Q1117.8469,556.4375 1118.0656,556.4375 Q1118.4406,556.4375 1118.675,556.6953 Q1118.9094,556.9531 1118.9094,557.5625 L1118.9094,559.0156 Q1118.9094,559.625 1118.675,559.8906 Q1118.4406,560.1563 1118.0656,560.1563 Q1117.7219,560.1563 1117.5188,559.9531 Q1117.3156,559.7656 1117.2063,559.25 Q1117.1594,558.8906 1116.9719,558.7031 Q1116.6438,558.3281 1116.0344,558.1094 Q1115.425,557.8906 1114.8,557.8906 Q1114.0344,557.8906 1113.4016,558.2188 Q1112.7688,558.5469 1112.2766,559.2969 Q1111.7844,560.0469 1111.7844,561.0781 L1111.7844,562.1719 Q1111.7844,563.4063 1112.675,564.2266 Q1113.5656,565.0469 1115.1594,565.0469 Q1116.0969,565.0469 1116.7531,564.7969 Q1117.1438,564.6406 1117.5656,564.2031 Q1117.8313,563.9375 1117.9797,563.8594 Q1118.1281,563.7813 1118.3313,563.7813 Q1118.6594,563.7813 1118.9172,564.0391 Q1119.175,564.2969 1119.175,564.6406 Q1119.175,564.9844 1118.8313,565.3906 Q1118.3313,565.9688 1117.5344,566.2969 Q1116.4563,566.75 1115.1594,566.75 Q1113.6438,566.75 1112.4406,566.125 Q1111.4563,565.625 1110.7688,564.5547 Q1110.0813,563.4844 1110.0813,562.2031 L1110.0813,561.0469 Q1110.0813,559.7188 1110.6984,558.5703 Q1111.3156,557.4219 1112.4094,556.8047 Q1113.5031,556.1875 1114.7375,556.1875 Q1115.4719,556.1875 1116.1203,556.3516 Q1116.7688,556.5156 1117.3156,556.875 Z " fill="#000000"/><text fill="#000000" font-family="sans-serif" font-size="14" lengthAdjust="spacing" textLength="76" x="1133.45" y="566.7285">PayrollForm</text><line style="stroke:#181818;stroke-width:0.5;" x1="1078.5" x2="1233.5" y1="577" y2="577"/><ellipse cx="1088.5" cy="591.3047" fill="none" rx="3" ry="3" style="stroke:#038048;stroke-width:1.0;"/><text fill="#000000" font-family="sans-serif" font-size="14" lengthAdjust="spacing" textLength="62" x="1097.5" y="595.5332">formId: int</text><ellipse cx="1088.5" cy="608.9141" fill="none" rx="3" ry="3" style="stroke:#038048;stroke-width:1.0;"/><text fill="#000000" font-family="sans-serif" font-size="14" lengthAdjust="spacing" textLength="131" x="1097.5" y="613.1426">employee: Employee</text><ellipse cx="1088.5" cy="626.5234" fill="none" rx="3" ry="3" style="stroke:#038048;stroke-width:1.0;"/><text fill="#000000" font-family="sans-serif" font-size="14" lengthAdjust="spacing" textLength="102" x="1097.5" y="630.752">payPeriod: Date</text><ellipse cx="1088.5" cy="644.1328" fill="none" rx="3" ry="3" style="stroke:#038048;stroke-width:1.0;"/><text fill="#000000" font-family="sans-serif" font-size="14" lengthAdjust="spacing" textLength="111" x="1097.5" y="648.3613">netSalary: double</text><line style="stroke:#181818;stroke-width:0.5;" x1="1078.5" x2="1233.5" y1="655.4375" y2="655.4375"/><ellipse cx="1088.5" cy="669.7422" fill="#84BE84" rx="3" ry="3" style="stroke:#038048;stroke-width:1.0;"/><text fill="#000000" font-family="sans-serif" font-size="14" lengthAdjust="spacing" textLength="116" x="1097.5" y="673.9707">updateEmployee()</text><ellipse cx="1088.5" cy="687.3516" fill="#84BE84" rx="3" ry="3" style="stroke:#038048;stroke-width:1.0;"/><text fill="#000000" font-family="sans-serif" font-size="14" lengthAdjust="spacing" textLength="119" x="1097.5" y="691.5801">updatePayPeriod()</text><ellipse cx="1088.5" cy="704.9609" fill="#84BE84" rx="3" ry="3" style="stroke:#038048;stroke-width:1.0;"/><text fill="#000000" font-family="sans-serif" font-size="14" lengthAdjust="spacing" textLength="115" x="1097.5" y="709.1895">updateNetSalary()</text></g><!--class LMS--><g id="elem_LMS"><rect codeLine="51" fill="#F1F1F1" height="136.0469" id="LMS" rx="2.5" ry="2.5" style="stroke:#181818;stroke-width:0.5;" width="243" x="842.5" y="746"/><ellipse cx="945.75" cy="762" fill="#ADD1B2" rx="11" ry="11" style="stroke:#181818;stroke-width:1.0;"/><path d="M948.5156,757.875 Q948.6719,757.6563 948.8594,757.5469 Q949.0469,757.4375 949.2656,757.4375 Q949.6406,757.4375 949.875,757.6953 Q950.1094,757.9531 950.1094,758.5625 L950.1094,760.0156 Q950.1094,760.625 949.875,760.8906 Q949.6406,761.1563 949.2656,761.1563 Q948.9219,761.1563 948.7188,760.9531 Q948.5156,760.7656 948.4063,760.25 Q948.3594,759.8906 948.1719,759.7031 Q947.8438,759.3281 947.2344,759.1094 Q946.625,758.8906 946,758.8906 Q945.2344,758.8906 944.6016,759.2188 Q943.9688,759.5469 943.4766,760.2969 Q942.9844,761.0469 942.9844,762.0781 L942.9844,763.1719 Q942.9844,764.4063 943.875,765.2266 Q944.7656,766.0469 946.3594,766.0469 Q947.2969,766.0469 947.9531,765.7969 Q948.3438,765.6406 948.7656,765.2031 Q949.0313,764.9375 949.1797,764.8594 Q949.3281,764.7813 949.5313,764.7813 Q949.8594,764.7813 950.1172,765.0391 Q950.375,765.2969 950.375,765.6406 Q950.375,765.9844 950.0313,766.3906 Q949.5313,766.9688 948.7344,767.2969 Q947.6563,767.75 946.3594,767.75 Q944.8438,767.75 943.6406,767.125 Q942.6563,766.625 941.9688,765.5547 Q941.2813,764.4844 941.2813,763.2031 L941.2813,762.0469 Q941.2813,760.7188 941.8984,759.5703 Q942.5156,758.4219 943.6094,757.8047 Q944.7031,757.1875 945.9375,757.1875 Q946.6719,757.1875 947.3203,757.3516 Q947.9688,757.5156 948.5156,757.875 Z " fill="#000000"/><text fill="#000000" font-family="sans-serif" font-size="14" lengthAdjust="spacing" textLength="28" x="966.25" y="767.7285">LMS</text><line style="stroke:#181818;stroke-width:0.5;" x1="843.5" x2="1084.5" y1="778" y2="778"/><ellipse cx="853.5" cy="792.3047" fill="none" rx="3" ry="3" style="stroke:#038048;stroke-width:1.0;"/><text fill="#000000" font-family="sans-serif" font-size="14" lengthAdjust="spacing" textLength="217" x="862.5" y="796.5332">LeavesAvailable: Map&lt;date, bool&gt;</text><line style="stroke:#181818;stroke-width:0.5;" x1="843.5" x2="1084.5" y1="803.6094" y2="803.6094"/><ellipse cx="853.5" cy="817.9141" fill="#84BE84" rx="3" ry="3" style="stroke:#038048;stroke-width:1.0;"/><text fill="#000000" font-family="sans-serif" font-size="14" lengthAdjust="spacing" textLength="90" x="862.5" y="822.1426">updateName()</text><ellipse cx="853.5" cy="835.5234" fill="#84BE84" rx="3" ry="3" style="stroke:#038048;stroke-width:1.0;"/><text fill="#000000" font-family="sans-serif" font-size="14" lengthAdjust="spacing" textLength="73" x="862.5" y="839.752">addLeave()</text><ellipse cx="853.5" cy="853.1328" fill="#84BE84" rx="3" ry="3" style="stroke:#038048;stroke-width:1.0;"/><text fill="#000000" font-family="sans-serif" font-size="14" lengthAdjust="spacing" textLength="80" x="862.5" y="857.3613">remitLeave()</text><ellipse cx="853.5" cy="870.7422" fill="#84BE84" rx="3" ry="3" style="stroke:#038048;stroke-width:1.0;"/><text fill="#000000" font-family="sans-serif" font-size="14" lengthAdjust="spacing" textLength="161" x="862.5" y="874.9707">approveLeave(password)</text></g><!--class PayslipApprovalSystem--><g id="elem_PayslipApprovalSystem"><rect codeLine="61" fill="#F1F1F1" height="100.8281" id="PayslipApprovalSystem" rx="2.5" ry="2.5" style="stroke:#181818;stroke-width:0.5;" width="261" x="320.5" y="763.5"/><ellipse cx="373.25" cy="779.5" fill="#ADD1B2" rx="11" ry="11" style="stroke:#181818;stroke-width:1.0;"/><path d="M376.0156,775.375 Q376.1719,775.1563 376.3594,775.0469 Q376.5469,774.9375 376.7656,774.9375 Q377.1406,774.9375 377.375,775.1953 Q377.6094,775.4531 377.6094,776.0625 L377.6094,777.5156 Q377.6094,778.125 377.375,778.3906 Q377.1406,778.6563 376.7656,778.6563 Q376.4219,778.6563 376.2188,778.4531 Q376.0156,778.2656 375.9063,777.75 Q375.8594,777.3906 375.6719,777.2031 Q375.3438,776.8281 374.7344,776.6094 Q374.125,776.3906 373.5,776.3906 Q372.7344,776.3906 372.1016,776.7188 Q371.4688,777.0469 370.9766,777.7969 Q370.4844,778.5469 370.4844,779.5781 L370.4844,780.6719 Q370.4844,781.9063 371.375,782.7266 Q372.2656,783.5469 373.8594,783.5469 Q374.7969,783.5469 375.4531,783.2969 Q375.8438,783.1406 376.2656,782.7031 Q376.5313,782.4375 376.6797,782.3594 Q376.8281,782.2813 377.0313,782.2813 Q377.3594,782.2813 377.6172,782.5391 Q377.875,782.7969 377.875,783.1406 Q377.875,783.4844 377.5313,783.8906 Q377.0313,784.4688 376.2344,784.7969 Q375.1563,785.25 373.8594,785.25 Q372.3438,785.25 371.1406,784.625 Q370.1563,784.125 369.4688,783.0547 Q368.7813,781.9844 368.7813,780.7031 L368.7813,779.5469 Q368.7813,778.2188 369.3984,777.0703 Q370.0156,775.9219 371.1094,775.3047 Q372.2031,774.6875 373.4375,774.6875 Q374.1719,774.6875 374.8203,774.8516 Q375.4688,775.0156 376.0156,775.375 Z " fill="#000000"/><text fill="#000000" font-family="sans-serif" font-size="14" lengthAdjust="spacing" textLength="147" x="393.75" y="785.2285">PayslipApprovalSystem</text><line style="stroke:#181818;stroke-width:0.5;" x1="321.5" x2="580.5" y1="795.5" y2="795.5"/><ellipse cx="331.5" cy="809.8047" fill="none" rx="3" ry="3" style="stroke:#038048;stroke-width:1.0;"/><text fill="#000000" font-family="sans-serif" font-size="14" lengthAdjust="spacing" textLength="78" x="340.5" y="814.0332">systemId: int</text><line style="stroke:#181818;stroke-width:0.5;" x1="321.5" x2="580.5" y1="821.1094" y2="821.1094"/><ellipse cx="331.5" cy="835.4141" fill="#84BE84" rx="3" ry="3" style="stroke:#038048;stroke-width:1.0;"/><text fill="#000000" font-family="sans-serif" font-size="14" lengthAdjust="spacing" textLength="235" x="340.5" y="839.6426">approvePayslip(payslip: PayrollForm)</text><ellipse cx="331.5" cy="853.0234" fill="#84BE84" rx="3" ry="3" style="stroke:#038048;stroke-width:1.0;"/><text fill="#000000" font-family="sans-serif" font-size="14" lengthAdjust="spacing" textLength="218" x="340.5" y="857.252">rejectPayslip(payslip: PayrollForm)</text></g><!--class SearchSystem--><g id="elem_SearchSystem"><rect codeLine="68" fill="#F1F1F1" height="136.0469" id="SearchSystem" rx="2.5" ry="2.5" style="stroke:#181818;stroke-width:0.5;" width="263" x="22.5" y="746"/><ellipse cx="104.25" cy="762" fill="#ADD1B2" rx="11" ry="11" style="stroke:#181818;stroke-width:1.0;"/><path d="M107.0156,757.875 Q107.1719,757.6563 107.3594,757.5469 Q107.5469,757.4375 107.7656,757.4375 Q108.1406,757.4375 108.375,757.6953 Q108.6094,757.9531 108.6094,758.5625 L108.6094,760.0156 Q108.6094,760.625 108.375,760.8906 Q108.1406,761.1563 107.7656,761.1563 Q107.4219,761.1563 107.2188,760.9531 Q107.0156,760.7656 106.9063,760.25 Q106.8594,759.8906 106.6719,759.7031 Q106.3438,759.3281 105.7344,759.1094 Q105.125,758.8906 104.5,758.8906 Q103.7344,758.8906 103.1016,759.2188 Q102.4688,759.5469 101.9766,760.2969 Q101.4844,761.0469 101.4844,762.0781 L101.4844,763.1719 Q101.4844,764.4063 102.375,765.2266 Q103.2656,766.0469 104.8594,766.0469 Q105.7969,766.0469 106.4531,765.7969 Q106.8438,765.6406 107.2656,765.2031 Q107.5313,764.9375 107.6797,764.8594 Q107.8281,764.7813 108.0313,764.7813 Q108.3594,764.7813 108.6172,765.0391 Q108.875,765.2969 108.875,765.6406 Q108.875,765.9844 108.5313,766.3906 Q108.0313,766.9688 107.2344,767.2969 Q106.1563,767.75 104.8594,767.75 Q103.3438,767.75 102.1406,767.125 Q101.1563,766.625 100.4688,765.5547 Q99.7813,764.4844 99.7813,763.2031 L99.7813,762.0469 Q99.7813,760.7188 100.3984,759.5703 Q101.0156,758.4219 102.1094,757.8047 Q103.2031,757.1875 104.4375,757.1875 Q105.1719,757.1875 105.8203,757.3516 Q106.4688,757.5156 107.0156,757.875 Z " fill="#000000"/><text fill="#000000" font-family="sans-serif" font-size="14" lengthAdjust="spacing" textLength="91" x="124.75" y="767.7285">SearchSystem</text><line style="stroke:#181818;stroke-width:0.5;" x1="23.5" x2="284.5" y1="778" y2="778"/><ellipse cx="33.5" cy="792.3047" fill="none" rx="3" ry="3" style="stroke:#038048;stroke-width:1.0;"/><text fill="#000000" font-family="sans-serif" font-size="14" lengthAdjust="spacing" textLength="77" x="42.5" y="796.5332">searchId: int</text><ellipse cx="33.5" cy="809.9141" fill="none" rx="3" ry="3" style="stroke:#038048;stroke-width:1.0;"/><text fill="#000000" font-family="sans-serif" font-size="14" lengthAdjust="spacing" textLength="125" x="42.5" y="814.1426">searchQuery: string</text><line style="stroke:#181818;stroke-width:0.5;" x1="23.5" x2="284.5" y1="821.2188" y2="821.2188"/><ellipse cx="33.5" cy="835.5234" fill="#84BE84" rx="3" ry="3" style="stroke:#038048;stroke-width:1.0;"/><text fill="#000000" font-family="sans-serif" font-size="14" lengthAdjust="spacing" textLength="237" x="42.5" y="839.752">search(keyword: String): List&lt;Object&gt;</text><ellipse cx="33.5" cy="853.1328" fill="#84BE84" rx="3" ry="3" style="stroke:#038048;stroke-width:1.0;"/><text fill="#000000" font-family="sans-serif" font-size="14" lengthAdjust="spacing" textLength="235" x="42.5" y="857.3613">searchEmployee(employeeID: int): int</text><ellipse cx="33.5" cy="870.7422" fill="#84BE84" rx="3" ry="3" style="stroke:#038048;stroke-width:1.0;"/><text fill="#000000" font-family="sans-serif" font-size="14" lengthAdjust="spacing" textLength="216" x="42.5" y="874.9707">searchPayrollForm(formID: int): int</text></g><!--class Admin--><g id="elem_Admin"><rect codeLine="77" fill="#F1F1F1" height="136.0469" id="Admin" rx="2.5" ry="2.5" style="stroke:#181818;stroke-width:0.5;" width="176" x="497" y="379"/><ellipse cx="561.25" cy="395" fill="#ADD1B2" rx="11" ry="11" style="stroke:#181818;stroke-width:1.0;"/><path d="M564.0156,390.875 Q564.1719,390.6563 564.3594,390.5469 Q564.5469,390.4375 564.7656,390.4375 Q565.1406,390.4375 565.375,390.6953 Q565.6094,390.9531 565.6094,391.5625 L565.6094,393.0156 Q565.6094,393.625 565.375,393.8906 Q565.1406,394.1563 564.7656,394.1563 Q564.4219,394.1563 564.2188,393.9531 Q564.0156,393.7656 563.9063,393.25 Q563.8594,392.8906 563.6719,392.7031 Q563.3438,392.3281 562.7344,392.1094 Q562.125,391.8906 561.5,391.8906 Q560.7344,391.8906 560.1016,392.2188 Q559.4688,392.5469 558.9766,393.2969 Q558.4844,394.0469 558.4844,395.0781 L558.4844,396.1719 Q558.4844,397.4063 559.375,398.2266 Q560.2656,399.0469 561.8594,399.0469 Q562.7969,399.0469 563.4531,398.7969 Q563.8438,398.6406 564.2656,398.2031 Q564.5313,397.9375 564.6797,397.8594 Q564.8281,397.7813 565.0313,397.7813 Q565.3594,397.7813 565.6172,398.0391 Q565.875,398.2969 565.875,398.6406 Q565.875,398.9844 565.5313,399.3906 Q565.0313,399.9688 564.2344,400.2969 Q563.1563,400.75 561.8594,400.75 Q560.3438,400.75 559.1406,400.125 Q558.1563,399.625 557.4688,398.5547 Q556.7813,397.4844 556.7813,396.2031 L556.7813,395.0469 Q556.7813,393.7188 557.3984,392.5703 Q558.0156,391.4219 559.1094,390.8047 Q560.2031,390.1875 561.4375,390.1875 Q562.1719,390.1875 562.8203,390.3516 Q563.4688,390.5156 564.0156,390.875 Z " fill="#000000"/><text fill="#000000" font-family="sans-serif" font-size="14" lengthAdjust="spacing" textLength="39" x="581.75" y="400.7285">Admin</text><line style="stroke:#181818;stroke-width:0.5;" x1="498" x2="672" y1="411" y2="411"/><rect fill="none" height="6" style="stroke:#C82930;stroke-width:1.0;" width="6" x="505" y="422.3047"/><text fill="#000000" font-family="sans-serif" font-size="14" lengthAdjust="spacing" textLength="72" x="517" y="429.5332">adminId: int</text><rect fill="none" height="6" style="stroke:#C82930;stroke-width:1.0;" width="6" x="505" y="439.9141"/><text fill="#000000" font-family="sans-serif" font-size="14" lengthAdjust="spacing" textLength="119" x="517" y="447.1426">adminName: String</text><line style="stroke:#181818;stroke-width:0.5;" x1="498" x2="672" y1="454.2188" y2="454.2188"/><ellipse cx="508" cy="468.5234" fill="#84BE84" rx="3" ry="3" style="stroke:#038048;stroke-width:1.0;"/><text fill="#000000" font-family="sans-serif" font-size="14" lengthAdjust="spacing" textLength="130" x="517" y="472.752">getInstance(): Admin</text><ellipse cx="508" cy="486.1328" fill="#84BE84" rx="3" ry="3" style="stroke:#038048;stroke-width:1.0;"/><text fill="#000000" font-family="sans-serif" font-size="14" lengthAdjust="spacing" textLength="103" x="517" y="490.3613">getAdminId(): int</text><ellipse cx="508" cy="503.7422" fill="#84BE84" rx="3" ry="3" style="stroke:#038048;stroke-width:1.0;"/><text fill="#000000" font-family="sans-serif" font-size="14" lengthAdjust="spacing" textLength="150" x="517" y="507.9707">getAdminName(): String</text></g><!--class EmployeeDatabase--><g id="elem_EmployeeDatabase"><rect codeLine="85" fill="#F1F1F1" height="206.4844" id="EmployeeDatabase" rx="2.5" ry="2.5" style="stroke:#181818;stroke-width:0.5;" width="431" x="36.5" y="1192"/><ellipse cx="186.25" cy="1208" fill="#ADD1B2" rx="11" ry="11" style="stroke:#181818;stroke-width:1.0;"/><path d="M189.0156,1203.875 Q189.1719,1203.6563 189.3594,1203.5469 Q189.5469,1203.4375 189.7656,1203.4375 Q190.1406,1203.4375 190.375,1203.6953 Q190.6094,1203.9531 190.6094,1204.5625 L190.6094,1206.0156 Q190.6094,1206.625 190.375,1206.8906 Q190.1406,1207.1563 189.7656,1207.1563 Q189.4219,1207.1563 189.2188,1206.9531 Q189.0156,1206.7656 188.9063,1206.25 Q188.8594,1205.8906 188.6719,1205.7031 Q188.3438,1205.3281 187.7344,1205.1094 Q187.125,1204.8906 186.5,1204.8906 Q185.7344,1204.8906 185.1016,1205.2188 Q184.4688,1205.5469 183.9766,1206.2969 Q183.4844,1207.0469 183.4844,1208.0781 L183.4844,1209.1719 Q183.4844,1210.4063 184.375,1211.2266 Q185.2656,1212.0469 186.8594,1212.0469 Q187.7969,1212.0469 188.4531,1211.7969 Q188.8438,1211.6406 189.2656,1211.2031 Q189.5313,1210.9375 189.6797,1210.8594 Q189.8281,1210.7813 190.0313,1210.7813 Q190.3594,1210.7813 190.6172,1211.0391 Q190.875,1211.2969 190.875,1211.6406 Q190.875,1211.9844 190.5313,1212.3906 Q190.0313,1212.9688 189.2344,1213.2969 Q188.1563,1213.75 186.8594,1213.75 Q185.3438,1213.75 184.1406,1213.125 Q183.1563,1212.625 182.4688,1211.5547 Q181.7813,1210.4844 181.7813,1209.2031 L181.7813,1208.0469 Q181.7813,1206.7188 182.3984,1205.5703 Q183.0156,1204.4219 184.1094,1203.8047 Q185.2031,1203.1875 186.4375,1203.1875 Q187.1719,1203.1875 187.8203,1203.3516 Q188.4688,1203.5156 189.0156,1203.875 Z " fill="#000000"/><text fill="#000000" font-family="sans-serif" font-size="14" lengthAdjust="spacing" textLength="123" x="206.75" y="1213.7285">EmployeeDatabase</text><line style="stroke:#181818;stroke-width:0.5;" x1="37.5" x2="466.5" y1="1224" y2="1224"/><ellipse cx="47.5" cy="1238.3047" fill="none" rx="3" ry="3" style="stroke:#038048;stroke-width:1.0;"/><text fill="#000000" font-family="sans-serif" font-size="14" lengthAdjust="spacing" textLength="176" x="56.5" y="1242.5332">employees: List&lt;Employee&gt;</text><ellipse cx="47.5" cy="1255.9141" fill="none" rx="3" ry="3" style="stroke:#038048;stroke-width:1.0;"/><text fill="#000000" font-family="sans-serif" font-size="14" lengthAdjust="spacing" textLength="126" x="56.5" y="1260.1426">num_employees: int</text><ellipse cx="47.5" cy="1273.5234" fill="none" rx="3" ry="3" style="stroke:#038048;stroke-width:1.0;"/><text fill="#000000" font-family="sans-serif" font-size="14" lengthAdjust="spacing" textLength="103" x="56.5" y="1277.752">num_admins: int</text><line style="stroke:#181818;stroke-width:0.5;" x1="37.5" x2="466.5" y1="1284.8281" y2="1284.8281"/><ellipse cx="47.5" cy="1299.1328" fill="#84BE84" rx="3" ry="3" style="stroke:#038048;stroke-width:1.0;"/><text fill="#000000" font-family="sans-serif" font-size="14" lengthAdjust="spacing" textLength="214" x="56.5" y="1303.3613">addEmployee(employeeId: int): int</text><ellipse cx="47.5" cy="1316.7422" fill="#84BE84" rx="3" ry="3" style="stroke:#038048;stroke-width:1.0;"/><text fill="#000000" font-family="sans-serif" font-size="14" lengthAdjust="spacing" textLength="237" x="56.5" y="1320.9707">removeEmployee(employeeId: int): int</text><rect fill="#F24D5C" height="6" style="stroke:#C82930;stroke-width:1.0;" width="6" x="44.5" y="1331.3516"/><text fill="#000000" font-family="sans-serif" font-size="14" lengthAdjust="spacing" textLength="188" x="56.5" y="1338.5801">updateEmployeeNumber(): int</text><ellipse cx="47.5" cy="1351.9609" fill="#84BE84" rx="3" ry="3" style="stroke:#038048;stroke-width:1.0;"/><text fill="#000000" font-family="sans-serif" font-size="14" lengthAdjust="spacing" textLength="377" x="56.5" y="1356.1895">setEmployeeAsAdmin(employeeID: int, password: string): int</text><ellipse cx="47.5" cy="1369.5703" fill="#84BE84" rx="3" ry="3" style="stroke:#038048;stroke-width:1.0;"/><text fill="#000000" font-family="sans-serif" font-size="14" lengthAdjust="spacing" textLength="405" x="56.5" y="1373.7988">removeEmployeeAsAdmin(employeeID: int, password: string): int</text><rect fill="#F24D5C" height="6" style="stroke:#C82930;stroke-width:1.0;" width="6" x="44.5" y="1384.1797"/><text fill="#000000" font-family="sans-serif" font-size="14" lengthAdjust="spacing" textLength="165" x="56.5" y="1391.4082">updateAdminNumber(): int</text></g><!--reverse link Employee to Admin--><g id="link_Employee_Admin"><path d="M854.776,256.3239 C793.456,299.4439 731.54,342.97 673.26,383.95 " fill="none" id="Employee-backto-Admin" style="stroke:#181818;stroke-width:1.0;"/><polygon fill="none" points="869.5,245.97,851.3247,251.4159,858.2273,261.2319,869.5,245.97" style="stroke:#181818;stroke-width:1.0;"/></g><!--link Admin to PayslipApprovalSystem--><g id="link_Admin_PayslipApprovalSystem"><path codeLine="98" d="M496.69,478.02 C466.22,493.1 435.4,514.78 418,545 C378.83,613.05 405.04,706.78 427.85,763.46 " fill="none" id="Admin-PayslipApprovalSystem" style="stroke:#181818;stroke-width:1.0;"/><text fill="#000000" font-family="sans-serif" font-size="13" lengthAdjust="spacing" textLength="131" x="419" y="635.9951">approves payslip using</text><text fill="#000000" font-family="sans-serif" font-size="13" lengthAdjust="spacing" textLength="20" x="468.8559" y="477.3617">1..*</text><text fill="#000000" font-family="sans-serif" font-size="13" lengthAdjust="spacing" textLength="7" x="417.1023" y="752.7597">1</text></g><!--link Employee to LMS--><g id="link_Employee_LMS"><path codeLine="99" d="M971.99,301.34 C969.89,435.59 966.7836,634.7307 965.1436,739.8207 " fill="none" id="Employee-to-LMS" style="stroke:#181818;stroke-width:1.0;"/><polygon fill="#181818" points="965.05,745.82,969.1899,736.8835,965.128,740.8206,961.1909,736.7587,965.05,745.82" style="stroke:#181818;stroke-width:1.0;"/><text fill="#000000" font-family="sans-serif" font-size="13" lengthAdjust="spacing" textLength="99" x="971" y="452.4951">applies leaves on</text><text fill="#000000" font-family="sans-serif" font-size="13" lengthAdjust="spacing" textLength="15" x="956.4402" y="322.8051">1..</text><text fill="#000000" font-family="sans-serif" font-size="13" lengthAdjust="spacing" textLength="7" x="957.782" y="734.9996">1</text></g><!--link Employee to PayrollForm--><g id="link_Employee_PayrollForm"><path codeLine="100" d="M1078.6,290.82 C1097.97,318.18 1115.89,348.32 1128,379 C1148.77,431.61 1155.497,488.9538 1157.267,538.7738 " fill="none" id="Employee-to-PayrollForm" style="stroke:#181818;stroke-width:1.0;"/><polygon fill="#181818" points="1157.48,544.77,1161.1579,535.6337,1157.3025,539.7732,1153.163,535.9177,1157.48,544.77" style="stroke:#181818;stroke-width:1.0;"/><text fill="#000000" font-family="sans-serif" font-size="13" lengthAdjust="spacing" textLength="19" x="1114" y="345.4951">fills</text><text fill="#000000" font-family="sans-serif" font-size="13" lengthAdjust="spacing" textLength="20" x="1086.6578" y="296.1437">1..*</text><text fill="#000000" font-family="sans-serif" font-size="13" lengthAdjust="spacing" textLength="7" x="1150.3064" y="534.2139">1</text></g><!--link Admin to SearchSystem--><g id="link_Admin_SearchSystem"><path codeLine="101" d="M496.89,463.9 C440.34,477.68 368.03,502.36 316,545 C250.82,598.42 207.5445,679.8856 181.6845,740.1956 " fill="none" id="Admin-to-SearchSystem" style="stroke:#181818;stroke-width:1.0;"/><polygon fill="#181818" points="179.32,745.71,186.5431,739.0147,181.2904,741.1146,179.1905,735.862,179.32,745.71" style="stroke:#181818;stroke-width:1.0;"/><text fill="#000000" font-family="sans-serif" font-size="13" lengthAdjust="spacing" textLength="71" x="317" y="635.9951">searches on</text><text fill="#000000" font-family="sans-serif" font-size="13" lengthAdjust="spacing" textLength="15" x="473.9723" y="462.1448">1..</text><text fill="#000000" font-family="sans-serif" font-size="13" lengthAdjust="spacing" textLength="7" x="174.5702" y="735.3534">1</text></g><!--link SearchSystem to EmployeeDatabase--><g id="link_SearchSystem_EmployeeDatabase"><path codeLine="102" d="M167.73,882.11 C184.19,962.57 210.747,1092.3718 229.887,1185.8918 " fill="none" id="SearchSystem-to-EmployeeDatabase" style="stroke:#181818;stroke-width:1.0;"/><polygon fill="#181818" points="231.09,1191.77,233.2042,1182.1507,230.0875,1186.8715,225.3667,1183.7548,231.09,1191.77" style="stroke:#181818;stroke-width:1.0;"/><text fill="#000000" font-family="sans-serif" font-size="13" lengthAdjust="spacing" textLength="28" x="215" y="1042.4951">uses</text><text fill="#000000" font-family="sans-serif" font-size="13" lengthAdjust="spacing" textLength="7" x="161.785" y="903.4697">1</text><text fill="#000000" font-family="sans-serif" font-size="13" lengthAdjust="spacing" textLength="7" x="222.2974" y="1181.0918">1</text></g><!--link Employee to EmployeeAdmissionForm--><g id="link_Employee_EmployeeAdmissionForm"><path codeLine="104" d="M949.75,301.05 C945.59,326.79 941.74,353.69 939,379 C934.97,416.27 946,686.4 923,716 C895.05,751.97 866.66,727.59 825,746 C819.26,748.54 818.8229,748.6093 813.0229,751.5193 " fill="none" id="Employee-to-EmployeeAdmissionForm" style="stroke:#181818;stroke-width:1.0;"/><polygon fill="#181818" points="807.66,754.21,817.4981,753.7492,812.129,751.9678,813.9105,746.5987,807.66,754.21" style="stroke:#181818;stroke-width:1.0;"/><text fill="#000000" font-family="sans-serif" font-size="13" lengthAdjust="spacing" textLength="19" x="940" y="452.4951">fills</text><text fill="#000000" font-family="sans-serif" font-size="13" lengthAdjust="spacing" textLength="20" x="927.6629" y="322.9283">1..*</text><text fill="#000000" font-family="sans-serif" font-size="13" lengthAdjust="spacing" textLength="7" x="815.5618" y="746.3152">1</text></g><!--link Admin to EmployeeAdmissionForm--><g id="link_Admin_EmployeeAdmissionForm"><path codeLine="105" d="M567.9,515.14 C557.16,571.78 550.61,653.4 582,716 C590.14,732.24 597.9242,742.4879 611.7642,754.6579 " fill="none" id="Admin-to-EmployeeAdmissionForm" style="stroke:#181818;stroke-width:1.0;"/><polygon fill="#181818" points="616.27,758.62,612.1527,749.673,612.5152,755.3183,606.87,755.6807,616.27,758.62" style="stroke:#181818;stroke-width:1.0;"/><text fill="#000000" font-family="sans-serif" font-size="13" lengthAdjust="spacing" textLength="167" x="583" y="635.9951">can fill on behalf of employee</text><text fill="#000000" font-family="sans-serif" font-size="13" lengthAdjust="spacing" textLength="20" x="545.1053" y="536.5028">1..*</text><text fill="#000000" font-family="sans-serif" font-size="13" lengthAdjust="spacing" textLength="20" x="588.5055" y="751.4718">1..*</text></g><!--link PayrollManager to EmployeeDatabase--><g id="link_PayrollManager_EmployeeDatabase"><path codeLine="106" d="M386.91,1114.12 C368.67,1138.43 351.7797,1160.9598 332.3797,1186.8298 " fill="none" id="PayrollManager-to-EmployeeDatabase" style="stroke:#181818;stroke-width:1.0;"/><polygon fill="#181818" points="328.78,1191.63,337.3797,1186.8295,331.7798,1187.6298,330.9794,1182.0299,328.78,1191.63" style="stroke:#181818;stroke-width:1.0;"/><text fill="#000000" font-family="sans-serif" font-size="13" lengthAdjust="spacing" textLength="28" x="360" y="1158.4951">uses</text><text fill="#000000" font-family="sans-serif" font-size="13" lengthAdjust="spacing" textLength="7" x="374.5137" y="1135.2271">1</text><text fill="#000000" font-family="sans-serif" font-size="13" lengthAdjust="spacing" textLength="7" x="326.9325" y="1181.2897">1</text></g><!--link PayrollForm to PayrollManager--><g id="link_PayrollForm_PayrollManager"><path codeLine="107" d="M1159.87,716.25 C1157.66,770.56 1145.37,838.72 1103,882 C1036.57,949.84 797.2974,992.6072 625.5174,1015.5072 " fill="none" id="PayrollForm-to-PayrollManager" style="stroke:#181818;stroke-width:1.0;"/><polygon fill="#181818" points="619.57,1016.3,629.0196,1019.0757,624.5262,1015.6393,627.9625,1011.1458,619.57,1016.3" style="stroke:#181818;stroke-width:1.0;"/><text fill="#000000" font-family="sans-serif" font-size="13" lengthAdjust="spacing" textLength="131" x="1158" y="819.4951">interfaces with / stores</text><text fill="#000000" font-family="sans-serif" font-size="13" lengthAdjust="spacing" textLength="7" x="1152.9018" y="737.8055">1</text></g><!--link SearchSystem to PayrollManager--><g id="link_SearchSystem_PayrollManager"><path codeLine="108" d="M242.19,882.21 C274.35,906.72 306.1676,930.9634 339.2776,956.1934 " fill="none" id="SearchSystem-to-PayrollManager" style="stroke:#181818;stroke-width:1.0;"/><polygon fill="#181818" points="344.05,959.83,339.3158,951.1936,340.073,956.7995,334.4671,957.5567,344.05,959.83" style="stroke:#181818;stroke-width:1.0;"/><text fill="#000000" font-family="sans-serif" font-size="13" lengthAdjust="spacing" textLength="28" x="300" y="926.4951">uses</text><text fill="#000000" font-family="sans-serif" font-size="13" lengthAdjust="spacing" textLength="7" x="243.9237" y="903.58">1</text></g><!--link PayslipApprovalSystem to PayrollManager--><g id="link_PayslipApprovalSystem_PayrollManager"><path codeLine="109" d="M449.43,864.6 C448.54,892.59 447.6105,922.183 446.6105,953.663 " fill="none" id="PayslipApprovalSystem-to-PayrollManager" style="stroke:#181818;stroke-width:1.0;"/><polygon fill="#181818" points="446.42,959.66,450.7037,950.7915,446.5788,954.6625,442.7078,950.5375,446.42,959.66" style="stroke:#181818;stroke-width:1.0;"/><text fill="#000000" font-family="sans-serif" font-size="13" lengthAdjust="spacing" textLength="83" x="448" y="926.4951">interfaces with</text><text fill="#000000" font-family="sans-serif" font-size="13" lengthAdjust="spacing" textLength="7" x="441.7487" y="886.0047">1</text><text fill="#000000" font-family="sans-serif" font-size="13" lengthAdjust="spacing" textLength="7" x="439.3171" y="949.0543">1</text></g><!--link Admin to LMS--><g id="link_Admin_LMS"><path codeLine="110" d="M673.04,489.19 C700.89,504.51 730.72,523.47 755,545 C825.84,607.8 823.19,641.82 882,716 C889.74,725.76 894.2253,731.3253 902.4853,741.2653 " fill="none" id="Admin-to-LMS" style="stroke:#181818;stroke-width:1.0;"/><polygon fill="#181818" points="906.32,745.88,903.6444,736.4016,903.1244,742.0345,897.4915,741.5145,906.32,745.88" style="stroke:#181818;stroke-width:1.0;"/><text fill="#000000" font-family="sans-serif" font-size="13" lengthAdjust="spacing" textLength="126" x="883" y="635.9951">approves leaves using</text><text fill="#000000" font-family="sans-serif" font-size="13" lengthAdjust="spacing" textLength="7" x="680.9067" y="489.6364">1</text><text fill="#000000" font-family="sans-serif" font-size="13" lengthAdjust="spacing" textLength="7" x="892.6284" y="735.0662">1</text></g><!--SRC=[bLPTRzem57rkVuNLbq9NEkqrgf2GwBHAXRBn0oQJNC2hOqUs0qDR__kkln8deUlsH79oxeVlFVUQYkOlT0VaIrrIyGsqh5KEUY6BcWFvTNbvaNEgDNaeAovFOA6BYmy4mkjZaH4cZCC4BI4ZQwEOs0KIPRo3L58pmwJ828YwT5015LMc164IaEbPKJAaRQJa3f7Y2UW10kAWV4_53fOOTJGc2V9WmtQXLOZRHUTDwD7OmNLLK0CkqDfGK-kHZJPsHqJ3rq4rR9PQe-FFKfMXD5jyJCjYNQxhJScC0OJd-EfmMbMSvTIUExf3t7_Y1fGbXhpS-opoBTYcig8d9JbVK85TL267oeCsAvsH9wRD_Qg5fhv-En2WC4ZuCeezRVF1aoTcFfMYIA1H4gZ37RVdLr3A0wH6IOKIte71SSPvGjIZtkU1apdvtKfn7jc3ulobEyD3nmAkG36PDao0MLDErIaZXQmtl6cNbqsqxsXf5Vrqq6NqX6YQxjDY7T9q6jIp0ogPOgICB6XrRqrltG1Ckw7z3CJ-EDlmYiLdfWMkdmK_OIarGwV4I6BsW2OuQb6I2dlb-HLcT9Ig69DUHJLdrSmnAL-Vj85OM-rUOdLJZy7AoiN-TgKI4lq1kNc7rwQn1ghoVJUwWzBUUkHh3RPbEcwXvDFe1KxsY757ZSEiF6ziCjE4sJItLLjVlvuub6Y7rvx0BJW2Fms8ebqezYWJtv7s905OzlVh3ioZq8QA7Eoap9e-ueUPTv5EK4IzMbfFmxM6agSRgllBFgwIIFC5mftzFM4qjm72BcsTog4eXfKSR0A_CTubJdg3jwpB3QXHfoMcsTJ-HkdtxvP4cKU5l9d7_tk82VggTxEpHVSIkFfqTtTpHIOJVBewFrzPd2DDmcIGMhlUDTUozMATJ9qNN2IPls3GXBjTWZTeZtxJybVf6jyopdMQNSjBnouBYW-kEnDfkT6cBweCSmVqVzryqGIlDHVMxQDOOATwTxkwhNrBZdjcjzOUc6h-IJZJ3N95Uw6-VSwpz_QP4pScxl4DgoPfQJFOKxubSjjaVtdHkvd_fIRfVHNvNJTEFg2s5F-aaICpU_8HPIULjJxRWhvv4-ZC6azJV2TiMwsXwhnIW-oyK5__0000]--></g></svg>